/* XPM */
static char * folder_16x16_xpm[] = {
"16 16 68 1",
" 	c None",
".	c #49A400",
"+	c #E8E8E8",
"@	c #D0FF9D",
"#	c #C5FF8D",
"$	c #C8FF8D",
"%	c #C7FF8B",
"&	c #BEFF79",
"*	c #ADFF55",
"=	c #B1FF65",
"-	c #A6FF4F",
";	c #CEFF95",
">	c #CDFF91",
",	c #CBFF8D",
"'	c #C8FF87",
")	c #C5FF81",
"!	c #C3FF7D",
"~	c #C0FF75",
"{	c #BEFF71",
"]	c #4BFF13",
"^	c #BBFF6B",
"/	c #9CFF3B",
"(	c #C7FF85",
"_	c #C4FF7F",
":	c #C2FF79",
"<	c #BDFF6F",
"[	c #B9FF67",
"}	c #B7FF61",
"|	c #49FF09",
"1	c #B4FF5B",
"2	c #000000",
"3	c #93FF29",
"4	c #BCFF75",
"5	c #BFFF73",
"6	c #BBFF71",
"7	c #B6FF67",
"8	c #B3FF59",
"9	c #B1FF55",
"0	c #AAFF4F",
"a	c #44FF03",
"b	c #ACFF4B",
"c	c #8AFF17",
"d	c #B4FF63",
"e	c #B7FF63",
"f	c #B6FF5F",
"g	c #B2FF57",
"h	c #AFFF51",
"i	c #AAFF45",
"j	c #A4FF43",
"k	c #47FA00",
"l	c #A7FF3F",
"m	c #82FF07",
"n	c #A9FF4D",
"o	c #ABFF49",
"p	c #A2FF3F",
"q	c #A6FF3D",
"r	c #9FFF37",
"s	c #A1FF33",
"t	c #45F400",
"u	c #7BF800",
"v	c #A1FF3D",
"w	c #A0FF3B",
"x	c #9FFF39",
"y	c #9EFF35",
"z	c #9CFF31",
"A	c #9AFF2D",
"B	c #98FF29",
"C	c #44F000",
" .....          ",
".+++++.         ",
".@@@@@+.....    ",
".##$$%%+++++.   ",
".&*...........  ",
".=.+++++++++++. ",
".-.;;>,')!~{]^. ",
"./.(()_:<^[}|1.2",
".3.456^7}890ab.2",
".c.def1ghbijkl.2",
".m.00nojpqrsts.2",
".u.lvwxyzABBCB.2",
" .............2 ",
"   22222222222  ",
"                ",
"                "};
