/* XPM */
static char * icewm_xpm[] = {
"106 20 378 2",
"  	c None",
". 	c #F4F2EF",
"+ 	c #F4F1EB",
"@ 	c #F4F0E9",
"# 	c #F4F0EA",
"$ 	c #F5DBC9",
"% 	c #F9A472",
"& 	c #FC7E35",
"* 	c #FE6D1A",
"= 	c #FD6C19",
"- 	c #FC8439",
"; 	c #F29A78",
"> 	c #D74951",
", 	c #C90B1F",
"' 	c #CA0D21",
") 	c #D02839",
"! 	c #D85B67",
"~ 	c #F2ECE9",
"{ 	c #F7F4F3",
"] 	c #F4ECDC",
"^ 	c #FAC656",
"/ 	c #FEB414",
"( 	c #FDB820",
"_ 	c #FBB760",
": 	c #FB803D",
"< 	c #FD6208",
"[ 	c #FD6108",
"} 	c #FD6109",
"| 	c #FE6208",
"1 	c #FBA359",
"2 	c #E16F64",
"3 	c #CA1023",
"4 	c #C80015",
"5 	c #C90015",
"6 	c #E18990",
"7 	c #F6F4F2",
"8 	c #FCC142",
"9 	c #FFB415",
"0 	c #FEB514",
"a 	c #FDB414",
"b 	c #FCBB26",
"c 	c #FAB159",
"d 	c #FB7834",
"e 	c #FE6308",
"f 	c #FD6309",
"g 	c #FD6207",
"h 	c #FE6409",
"i 	c #FE6109",
"j 	c #FAA965",
"k 	c #D94B4B",
"l 	c #C8061A",
"m 	c #C80014",
"n 	c #DC707B",
"o 	c #F6F3F2",
"p 	c #FDB721",
"q 	c #FEB516",
"r 	c #FDB316",
"s 	c #FDB61A",
"t 	c #FBC250",
"u 	c #FA9F5D",
"v 	c #FB7B34",
"w 	c #FB843F",
"x 	c #FC782C",
"y 	c #FC6711",
"z 	c #FD630A",
"A 	c #FF6407",
"B 	c #F5A47B",
"C 	c #D1303D",
"D 	c #C70015",
"E 	c #E6A6AA",
"F 	c #F5F3F1",
"G 	c #101010",
"H 	c #FDB619",
"I 	c #FBBC2F",
"J 	c #F5B148",
"K 	c #F4AB45",
"L 	c #F8B83E",
"M 	c #FDBE2F",
"N 	c #FBC44D",
"O 	c #F6DDB8",
"P 	c #F4EFEA",
"Q 	c #F6D2BB",
"R 	c #FAA06B",
"S 	c #FB8540",
"T 	c #FB7F3A",
"U 	c #FB9B50",
"V 	c #E48B84",
"W 	c #CE293A",
"X 	c #FAC144",
"Y 	c #E59061",
"Z 	c #DB747E",
"` 	c #E69B9C",
" .	c #F2B48B",
"..	c #F8CC86",
"+.	c #F7DEA7",
"@.	c #F4F0E3",
"#.	c #F7C5A7",
"$.	c #FB9254",
"%.	c #FB8039",
"&.	c #F7CDA9",
"*.	c #D64E59",
"=.	c #ECC7C8",
"-.	c #F4F1EF",
";.	c #888684",
">.	c #131313",
",.	c #E69F81",
"'.	c #CC3949",
").	c #E35E49",
"!.	c #F67F3F",
"~.	c #FA8139",
"{.	c #F89866",
"].	c #F6CAB4",
"^.	c #F4EEEA",
"/.	c #F8B58D",
"(.	c #FD6812",
"_.	c #FF6408",
":.	c #F9B574",
"<.	c #CA0414",
"[.	c #D96570",
"}.	c #F3F0EE",
"|.	c #2D2C2C",
"1.	c #918E8C",
"2.	c #2E2D2D",
"3.	c #D03C4B",
"4.	c #E16B63",
"5.	c #FC9439",
"6.	c #FF6700",
"7.	c #FC7F2B",
"8.	c #FA9754",
"9.	c #FA8F48",
"0.	c #F6CCB0",
"a.	c #F5DED3",
"b.	c #FA9B63",
"c.	c #F87D36",
"d.	c #EB8E77",
"e.	c #CB0C1E",
"f.	c #CE2535",
"g.	c #F3F0ED",
"h.	c #AEABA8",
"i.	c #3F3E3D",
"j.	c #3E3D3C",
"k.	c #AFACA9",
"l.	c #868482",
"m.	c #242323",
"n.	c #181818",
"o.	c #656362",
"p.	c #73716F",
"q.	c #222121",
"r.	c #1E1E1D",
"s.	c #8B8987",
"t.	c #D1CECA",
"u.	c #535251",
"v.	c #1A1A1A",
"w.	c #171616",
"x.	c #4E4D4B",
"y.	c #E3DFDB",
"z.	c #686665",
"A.	c #1C1C1C",
"B.	c #6B6967",
"C.	c #959290",
"D.	c #2B2B2A",
"E.	c #151515",
"F.	c #3B3A39",
"G.	c #C7C4C0",
"H.	c #B0ADAA",
"I.	c #353534",
"J.	c #959391",
"K.	c #C90317",
"L.	c #F8BE8F",
"M.	c #FE6400",
"N.	c #FC7A24",
"O.	c #F6CEB3",
"P.	c #F4E9E0",
"Q.	c #F8B181",
"R.	c #F8B182",
"S.	c #F4EFE6",
"T.	c #F5E8CF",
"U.	c #F6E7BE",
"V.	c #F5E8CC",
"W.	c #DE6960",
"X.	c #CD2434",
"Y.	c #C80318",
"Z.	c #CA081C",
"`.	c #F2EFED",
" +	c #504F4E",
".+	c #9C9997",
"++	c #9B9996",
"@+	c #E2DFDC",
"#+	c #DEDBD8",
"$+	c #4E4D4C",
"%+	c #797775",
"&+	c #7A7877",
"*+	c #4C4B4A",
"=+	c #D6D2CF",
"-+	c #706E6D",
";+	c #B6B3B0",
">+	c #716F6E",
",+	c #5C5B5A",
"'+	c #757371",
")+	c #4D4C4B",
"!+	c #787674",
"~+	c #5A5857",
"{+	c #D7D3D0",
"]+	c #817F7D",
"^+	c #A6A4A1",
"/+	c #D5D1CE",
"(+	c #CA071A",
"_+	c #F8C394",
":+	c #FC7821",
"<+	c #F6C7A7",
"[+	c #F5E1D2",
"}+	c #F8AD7A",
"|+	c #F8AF7C",
"1+	c #F5E7CA",
"2+	c #F7DEA8",
"3+	c #F8D384",
"4+	c #FBC551",
"5+	c #FCC445",
"6+	c #F5ECC7",
"7+	c #CF3848",
"8+	c #CD293A",
"9+	c #C9061B",
"0+	c #F2EFEC",
"a+	c #232222",
"b+	c #D2CFCB",
"c+	c #CFCCC8",
"d+	c #CDCAC7",
"e+	c #282827",
"f+	c #CCC9C6",
"g+	c #262626",
"h+	c #CECBC7",
"i+	c #272726",
"j+	c #ECE9E6",
"k+	c #141414",
"l+	c #292928",
"m+	c #908E8B",
"n+	c #CF2637",
"o+	c #E48077",
"p+	c #FC9137",
"q+	c #FC7820",
"r+	c #FB8A3E",
"s+	c #FB8A40",
"t+	c #F6CEB1",
"u+	c #F6E7BD",
"v+	c #FBC349",
"w+	c #FDB518",
"x+	c #FEB314",
"y+	c #FAD970",
"z+	c #E9A899",
"A+	c #CF4C5A",
"B+	c #E8986F",
"C+	c #CD232F",
"D+	c #CD2334",
"E+	c #F1EEEB",
"F+	c #767472",
"G+	c #777573",
"H+	c #BFBBB8",
"I+	c #454443",
"J+	c #191919",
"K+	c #111111",
"L+	c #C0BDBA",
"M+	c #A9A6A4",
"N+	c #F0ECE9",
"O+	c #D8636E",
"P+	c #CB1628",
"Q+	c #E67C61",
"R+	c #F88D49",
"S+	c #FA9747",
"T+	c #F8A25F",
"U+	c #F4C2A0",
"V+	c #F0EBE8",
"W+	c #F0EAE0",
"X+	c #F4DAA7",
"Y+	c #F9C85F",
"Z+	c #FCBA2E",
"`+	c #F3E6B3",
" @	c #D89096",
".@	c #DE7F6D",
"+@	c #F6E789",
"@@	c #CF2931",
"#@	c #D85F6A",
"$@	c #EBE6E1",
"%@	c #A2A09D",
"&@	c #242424",
"*@	c #E8BFC1",
"=@	c #C70016",
"-@	c #CC1B2D",
";@	c #D84B4D",
">@	c #DC5249",
",@	c #E49690",
"'@	c #F1EDD9",
")@	c #F0E7DF",
"!@	c #F4D8A7",
"~@	c #F8D873",
"{@	c #F5ED98",
"]@	c #F0C173",
"^@	c #F6DD8B",
"/@	c #E69C79",
"(@	c #C80214",
"_@	c #E8BDBF",
":@	c #4F4E4D",
"<@	c #525150",
"[@	c #E3DFDA",
"}@	c #E0DCD8",
"|@	c #7B7977",
"1@	c #212120",
"2@	c #AAA7A4",
"3@	c #5C5A59",
"4@	c #1F1F1E",
"5@	c #CDC9C6",
"6@	c #5E5D5C",
"7@	c #EFE8E5",
"8@	c #D5515E",
"9@	c #C80016",
"0@	c #C8071C",
"a@	c #C9061A",
"b@	c #CD2436",
"c@	c #DB757A",
"d@	c #EFCC9C",
"e@	c #F6E78B",
"f@	c #F7D87F",
"g@	c #F6EA8C",
"h@	c #E8A274",
"i@	c #DE6F55",
"j@	c #E17751",
"k@	c #DB614D",
"l@	c #CB101F",
"m@	c #D44D5A",
"n@	c #EBE6E2",
"o@	c #ADAAA7",
"p@	c #ACA9A6",
"q@	c #878583",
"r@	c #646261",
"s@	c #20201F",
"t@	c #8D8B89",
"u@	c #2F2E2E",
"v@	c #94918F",
"w@	c #878482",
"x@	c #666463",
"y@	c #1B1B1B",
"z@	c #A19E9B",
"A@	c #313030",
"B@	c #B0AEAB",
"C@	c #E9C7C8",
"D@	c #CD1D2F",
"E@	c #C9091D",
"F@	c #D23A3C",
"G@	c #E28B72",
"H@	c #E8AC89",
"I@	c #DE7B67",
"J@	c #CE252F",
"K@	c #C90B1E",
"L@	c #CA1324",
"M@	c #C80114",
"N@	c #CB1829",
"O@	c #E9C6C6",
"P@	c #ECE7E3",
"Q@	c #EFEAE7",
"R@	c #E6B5B7",
"S@	c #C80115",
"T@	c #C70319",
"U@	c #CB1325",
"V@	c #CC1A2B",
"W@	c #CA0E22",
"X@	c #C70117",
"Y@	c #CC192C",
"Z@	c #E6B3B6",
"`@	c #EDE8E4",
" #	c #E9C6C7",
".#	c #D5505D",
"+#	c #D54D5A",
"@#	c #EDE8E5",
"##	c #E8BEC0",
"$#	c #D7616B",
"%#	c #CD2233",
"&#	c #D75F6A",
"*#	c #EEEAE7",
"=#	c #F0EDEA",
". . . + @ @ # $ % & * = - ; > , ' ) ! ~ . . { { { { { { { { { { { { { { { { { { { { { { { { { { { { { { { { { { { { { { { { { { { { { { { { { { { { { { { { { { { { { { { { { { { { { { { { { { { { { { { { { { { { ",
". . ] ^ / / ( _ : < < [ } | 1 2 3 4 5 6 . . 7 7 7 7 7 7 7 7 7 7 7 7 7 7 7 7 7 7 7 7 7 7 7 7 7 7 7 7 7 7 7 7 7 7 7 7 7 7 7 7 7 7 7 7 7 7 7 7 7 7 7 7 7 7 7 7 7 7 7 7 7 7 7 7 7 7 7 7 7 7 7 7 7 7 7 7 7 7 7 7 7 7 7 7 ",
". . 8 9 0 a / b c d e f g h i j k l m n . . o o o o o o o o o o o o o o o o o o o o o o o o o o o o o o o o o o o o o o o o o o o o o o o o o o o o o o o o o o o o o o o o o o o o o o o o o o o o o o o o o o o o ",
". . p / q r a s t u v w x y z A B C D E . . F F F F F F F F F F F F F F F F F F F F F F F F F F F F F G F F F F F F F F F F F F F F F F F F F F F F F F F F F F F F F F F F F F F F F F F F F F F F F F F F F F F F ",
". . H I J K L M N O . P Q R S T U V W . . . . . . . . . . . . . . . . . . . . . . . . . . . . . . . . G . . G . . . . . . . . . . . . . . . . . . . . . . G . . . . . . . . . . . . . . . . . . . . . . . . . . . . ",
". . X Y Z `  ...+.@.. . . . #.$.%.&.*.=.. . -.-.-.-.-.-.;.>.;.-.-.-.-.-.-.-.-.-.-.-.-.-.-.-.-.-.-.-.-.G -.-.-.-.-.-.-.-.-.-.-.-.-.-.-.-.-.-.-.-.G -.-.-.-.-.-.-.-.-.-.-.-.-.-.-.-.-.-.-.-.-.-.-.-.-.-.-.-.-.-.-.-.-.",
". . ,.'.).!.~.{.].^.. . . . /.(._.:.<.[.. . }.}.}.}.}.}.|.1.2.}.}.}.}.}.}.}.}.}.}.}.}.}.}.}.}.}.}.}.}.G }.}.}.}.}.}.}.}.}.}.}.}.}.}.}.}.}.}.}.}.G }.}.}.}.}.}.}.}.}.}.}.}.}.}.}.}.}.}.}.}.}.}.}.}.}.}.}.}.}.}.}.}.}.",
". . 3.4.5.6.7.8.9.0.. . . . a.b.c.d.e.f.. . g.g.g.g.g.h.i.g.j.k.g.g.g.G l.m.n.o.g.g.g.G l.m.n.o.g.g.g.G g.g.G g.g.g.p.q.r.s.g.g.t.u.v.w.x.y.g.G G G G g.g.G g.g.g.z.A.A.B.g.g.g.G C.D.E.F.G.g.g.H.I.E.D.J.g.g.g.g.g.",
". . K.L.M.N.O.P.Q.R.. . S.T.U.V.W.X.Y.Z.. . `.`.`.`.`. +.+`.++ +`.`.`.G  +@+#+$+%+`.`.G  +@+#+$+%+`.`.G `.`.G `.`.&+*+=+`.-+`.`.I.;+`.`.>+,+`.`.G `.`.`.`.G `.`.'+ +@+#+)+!+`.`.G ~+{+`.]+i.`.`.q.^+`./+z.`.`.`.`.`.",
". . (+_+M.:+<+[+}+|+1+2+3+4+5+6+7+8+4 9+. . 0+0+0+0+t.a+0+0+0+a+b+0+0+G c+0+0+d+e+0+0+G c+0+0+d+e+0+0+G 0+0+G 0+0+e+f+0+0+0+0+0+0+0+0+0+0+q.0+0+G 0+0+0+0+G 0+0+g+h+0+0+f+i+0+0+G j+0+0+0+k+0+0+l+m+/+0+0+0+0+0+0+0+",
". . n+o+p+6.q+r+s+t+u+v+w+x+y+z+A+B+C+D+. . E+E+E+E+F+G G G G G G+E+E+G E+E+E+E+k+E+E+G E+E+E+E+k+E+E+G E+E+G E+E+>.E+E+E+E+E+E+H+I+J+G G K+E+E+G E+E+E+E+G E+E+>.E+E+E+E+k+E+E+G E+E+E+E+G E+E+L+u.q.l+M+E+E+E+E+E+",
"N+N+O+P+Q+R+S+T+U+V+W+X+Y+Z+`+ @.@+@@@#@N+N+$@$@$@$@a+b+$@$@$@b+a+$@$@G c+$@$@h+e+$@$@G c+$@$@h+e+$@$@G $@$@G $@$@e+d+$@$@$@$@$@e+%@$@$@$@G $@$@G $@$@$@$@G $@$@g+c+$@$@d+i+$@$@G $@$@$@$@G $@$@$@$@$@H.&@$@$@$@$@$@",
"N+N+*@=@-@;@>@,@N+'@)@N+!@~@{@]@^@/@(@_@N+N+$@$@$@++ +$@$@$@$@$@:@.+$@G <@[@}@ +%+$@$@G <@[@}@ +%+$@$@G $@$@G $@$@|@x.{+$@'+$@$@1@2@$@t.3@G $@$@4@5@$@$@$@G $@$@p.u.[@}@$+F+$@$@G $@$@$@$@G $@$@6@f+$@h.q.$@$@$@$@$@",
"N+N+7@8@9@0@a@b@c@d@e@f@g@h@i@j@k@l@m@7@N+N+n@n@n@j.o@n@n@n@n@n@p@i.n@G q@m.n.r@n@n@n@G q@m.n.r@n@n@n@G n@n@G n@n@n@>+s@4@t@n@n@p@u@k+|.v@G n@n@w@v.G n@n@G n@n@n@x@y@y@z.n@n@n@G n@n@n@n@G n@n@z@A@k+I.B@n@n@n@n@n@",
"N+N+N+C@D@4 4 4 E@F@G@H@I@J@K@L@M@N@O@N+N+N+P@P@P@P@P@P@P@P@P@P@P@P@P@G P@P@P@P@P@P@P@G P@P@P@P@P@P@P@P@P@P@P@P@P@P@P@P@P@P@P@P@P@P@P@P@P@P@P@P@P@P@P@P@P@P@P@P@P@P@P@P@P@P@P@P@P@P@P@P@P@P@P@P@P@P@P@P@P@P@P@P@P@P@",
"N+N+N+Q@R@D@m S@4 T@U@V@W@X@4 4 Y@Z@Q@N+N+N+`@`@`@`@`@`@`@`@`@`@`@`@`@G `@`@`@`@`@`@`@G `@`@`@`@`@`@`@`@`@`@`@`@`@`@`@`@`@`@`@`@`@`@`@`@`@`@`@`@`@`@`@`@`@`@`@`@`@`@`@`@`@`@`@`@`@`@`@`@`@`@`@`@`@`@`@`@`@`@`@`@`@`@",
"N+N+N+N+Q@ #.#4 4 5 4 9@5 m 4 +#O@Q@N+N+N+N+@#@#@#@#@#@#@#@#@#@#@#@#@#G @#@#@#@#@#@#@#G @#@#@#@#@#@#@#@#@#@#@#@#@#@#@#@#@#@#@#@#@#@#@#@#@#@#@#@#@#@#@#@#@#@#@#@#@#@#@#@#@#@#@#@#@#@#@#@#@#@#@#@#@#@#@#@#@#@#@#@#@#@#",
"N+N+N+N+N+N+7@##$#D+a@a@%#&#_@7@N+N+N+N+N+N+*#*#*#*#*#*#*#*#*#*#*#*#*#*#*#*#*#*#*#*#*#*#*#*#*#*#*#*#*#*#*#*#*#*#*#*#*#*#*#*#*#*#*#*#*#*#*#*#*#*#*#*#*#*#*#*#*#*#*#*#*#*#*#*#*#*#*#*#*#*#*#*#*#*#*#*#*#*#*#*#*#*#*#*#",
"N+N+N+N+N+N+N+N+N+N+N+N+N+N+N+N+N+N+N+N+N+N+N+N+N+N+N+N+N+N+N+N+N+N+N+N+N+N+N+N+N+N+N+N+N+N+N+N+N+N+N+N+N+N+N+N+N+N+N+N+N+N+N+N+N+N+N+N+N+N+N+N+N+N+N+N+N+N+N+N+N+N+N+N+N+N+N+N+N+N+N+N+N+N+N+N+N+N+N+N+N+N+N+N+N+N+",
"N+N+N+N+N+N+N+N+N+N+N+N+N+N+N+N+N+N+N+N+N+N+=#=#=#=#=#=#=#=#=#=#=#=#=#=#=#=#=#=#=#=#=#=#=#=#=#=#=#=#=#=#=#=#=#=#=#=#=#=#=#=#=#=#=#=#=#=#=#=#=#=#=#=#=#=#=#=#=#=#=#=#=#=#=#=#=#=#=#=#=#=#=#=#=#=#=#=#=#=#=#=#=#=#=#=#"};
