/* XPM */
static char * icepup_xpm[] = {
"48 20 230 2",
"  	c None",
". 	c #6B828C",
"+ 	c #677F89",
"@ 	c #677F88",
"# 	c #687F87",
"$ 	c #6F7D81",
"% 	c #9E755A",
"& 	c #D86A29",
"* 	c #F46411",
"= 	c #F7640F",
"- 	c #E26921",
"; 	c #AA674D",
"> 	c #A8293B",
", 	c #C90016",
"' 	c #C60319",
") 	c #B91328",
"! 	c #9C3A4B",
"~ 	c #6D7681",
"{ 	c #657E87",
"] 	c #6E817F",
"^ 	c #B1994E",
"/ 	c #E5AB27",
"( 	c #F8B219",
"_ 	c #E8AE25",
": 	c #B48B49",
"< 	c #EF6315",
"[ 	c #FF6309",
"} 	c #FF6509",
"| 	c #DB7024",
"1 	c #A35149",
"2 	c #C2071D",
"3 	c #CA0016",
"4 	c #964050",
"5 	c #617A84",
"6 	c #C59F3D",
"7 	c #FFB515",
"8 	c #F9B618",
"9 	c #A78950",
"0 	c #F16112",
"a 	c #FE6309",
"b 	c #E46B1C",
"c 	c #A33D41",
"d 	c #9F3042",
"e 	c #5F7983",
"f 	c #F6B11A",
"g 	c #FEB415",
"h 	c #E9B124",
"i 	c #C06B38",
"j 	c #FB630B",
"k 	c #F6640F",
"l 	c #FF6409",
"m 	c #C06F37",
"n 	c #B1192D",
"o 	c #904150",
"p 	c #5C7580",
"q 	c #FDB315",
"r 	c #F7B61A",
"s 	c #DFA829",
"t 	c #DDA128",
"u 	c #E8AB23",
"v 	c #FAB317",
"w 	c #737A6F",
"x 	c #60737C",
"y 	c #5E757E",
"z 	c #74726D",
"A 	c #B36B40",
"B 	c #EF6414",
"C 	c #D86725",
"D 	c #C96C2F",
"E 	c #7C6465",
"F 	c #A82134",
"G 	c #696672",
"H 	c #5A747E",
"I 	c #F5B61A",
"J 	c #A27248",
"K 	c #AC2631",
"L 	c #8B3D4E",
"M 	c #7D6362",
"N 	c #7C8368",
"O 	c #918C5B",
"P 	c #74716B",
"Q 	c #CF672A",
"R 	c #ED6415",
"S 	c #B76D3A",
"T 	c #9E2B3D",
"U 	c #7A5260",
"V 	c #56707C",
"W 	c #7A6E62",
"X 	c #BD081E",
"Y 	c #964A47",
"Z 	c #D36D1F",
"` 	c #F66906",
" .	c #E46713",
"..	c #756C64",
"+.	c #676F6F",
"@.	c #F7670D",
"#.	c #9A3340",
"$.	c #9F283B",
"%.	c #546F7A",
"&.	c #AE182B",
"*.	c #AB2D31",
"=.	c #E56D12",
"-.	c #FF6600",
";.	c #EE660B",
">.	c #D3681F",
",.	c #776D60",
"'.	c #C26530",
").	c #EB6715",
"!.	c #B26539",
"~.	c #AA1B2F",
"{.	c #C1071C",
"].	c #506B77",
"^.	c #C60117",
"/.	c #A6563A",
"(.	c #FC6901",
"_.	c #7B6959",
":.	c #89694F",
"<.	c #C56727",
"[.	c #536C75",
"}.	c #5F736E",
"|.	c #934144",
"1.	c #B21327",
"2.	c #4F6A76",
"3.	c #C50218",
"4.	c #A65C39",
"5.	c #FF6800",
"6.	c #6C6962",
"7.	c #73695D",
"8.	c #CC6721",
"9.	c #516B74",
"0.	c #807F5A",
"a.	c #C09A37",
"b.	c #FAB417",
"c.	c #A89344",
"d.	c #A02235",
"e.	c #4B6673",
"f.	c #BC0A1F",
"g.	c #9E3D38",
"h.	c #ED6A0B",
"i.	c #E16612",
"j.	c #A0663C",
"k.	c #FA6603",
"l.	c #8A644A",
"m.	c #7B7D5A",
"n.	c #F7B219",
"o.	c #F5B01A",
"p.	c #58676A",
"q.	c #AF1428",
"r.	c #95403F",
"s.	c #AF1E2A",
"t.	c #C80016",
"u.	c #496571",
"v.	c #8B3041",
"w.	c #BB0A1F",
"x.	c #9C563B",
"y.	c #E06E13",
"z.	c #FD6B00",
"A.	c #F76704",
"B.	c #9B653D",
"C.	c #50686D",
"D.	c #74785A",
"E.	c #CE9F2D",
"F.	c #848052",
"G.	c #634D5B",
"H.	c #A11A2D",
"I.	c #B1A13C",
"J.	c #99413C",
"K.	c #A71A2D",
"L.	c #45616F",
"M.	c #535665",
"N.	c #C0051B",
"O.	c #90293C",
"P.	c #884044",
"Q.	c #565863",
"R.	c #45616E",
"S.	c #CD9E2D",
"T.	c #A39041",
"U.	c #785650",
"V.	c #AB803A",
"W.	c #A69440",
"X.	c #AB1327",
"Y.	c #7A3A4B",
"Z.	c #43606D",
"`.	c #9B2033",
" +	c #BD081D",
".+	c #694353",
"++	c #7E7950",
"@+	c #7B7F52",
"#+	c #5D6E60",
"$+	c #9E8240",
"%+	c #9C5D3C",
"&+	c #B38334",
"*+	c #A36839",
"=+	c #A11B2E",
"-+	c #BD091D",
";+	c #525563",
">+	c #405C6A",
",+	c #405B69",
"'+	c #564D5C",
")+	c #BD071C",
"!+	c #AA212A",
"~+	c #986A3E",
"{+	c #9C8040",
"]+	c #996B3E",
"^+	c #A71F2B",
"/+	c #C20319",
"(+	c #B8091E",
"_+	c #C00419",
":+	c #733A4B",
"<+	c #3E5B69",
"[+	c #644252",
"}+	c #C70016",
"|+	c #BD061B",
"1+	c #C60016",
"2+	c #7E3042",
"3+	c #3A5766",
"4+	c #574555",
"5+	c #AC1126",
"6+	c #B60B20",
"7+	c #6F3648",
"8+	c #3A5665",
"9+	c #385664",
"0+	c #3F5160",
"a+	c #643B4C",
"b+	c #922033",
"c+	c #BF061B",
"d+	c #A0182C",
"e+	c #703445",
"f+	c #484B5A",
"g+	c #345361",
". . . . . . . . . . . . . . . . . . . . . . . . . . . . . . . . . . . . . . . . . . . . . . . . ",
"+ + + + + + + + + + + + + + @ + + # + $ % & * = - ; > , ' ) ! ~ + + + + + + + + + + + + + + + + ",
"{ { { { { { { { { { { { { { ] ^ / ( _ : < [ [ [ [ } | 1 2 , 3 4 { { { { { { { { { { { { { { { { ",
"5 5 5 5 5 5 5 5 5 5 5 5 5 5 6 7 7 7 7 8 9 0 [ [ a a [ b c 3 , d 5 5 5 5 5 5 5 5 5 5 5 5 5 5 5 5 ",
"e e e e e e e e e e e e e e f 7 g 7 g 7 h i j k [ [ a l m n , o e e e e e e e e e e e e e e e e ",
"p p p p p p p p p p p p p p q r s t u v 7 w x y z A B C D E F G p p p p p p p p p p p p p p p p ",
"H H H H H H H H H H H H H H I J K L M N O H H H H H P Q R S T U H H H H H H H H H H H H H H H H ",
"V V V V V V V V V V V V V V W X Y Z `  ...V V V V V +.[ [ @.#.$.V V V V V V V V V V V V V V V V ",
"%.%.%.%.%.%.%.%.%.%.%.%.%.%.&.*.=.-.;.>.-.,.%.%.%.%.%.'.).!.~.{.%.%.%.%.%.%.%.%.%.%.%.%.%.%.%.%.",
"].].].].].].].].].].].].].].^./.(.-._.].:.<.].].].].[.}.|.1., , ].].].].].].].].].].].].].].].].",
"2.2.2.2.2.2.2.2.2.2.2.2.2.2.3.4.5.-.6.2.7.8.2.9.0.a.b.c.d., , , 2.2.2.2.2.2.2.2.2.2.2.2.2.2.2.2.",
"e.e.e.e.e.e.e.e.e.e.e.e.e.e.f.g.h.-.i.j.k.l.m.n.7 7 o.p.q.r.s.t.e.e.e.e.e.e.e.e.e.e.e.e.e.e.e.e.",
"u.u.u.u.u.u.u.u.u.u.u.u.u.u.v.w.x.y.z.A.B.u.C.D.E.7 F.G.H.I.J.K.u.u.u.u.u.u.u.u.u.u.u.u.u.u.u.u.",
"L.L.L.L.L.L.L.L.L.L.L.L.L.L.M.3 N.O.P.Q.L.L.L.L.R.S.T.U.V.W.X.Y.L.L.L.L.L.L.L.L.L.L.L.L.L.L.L.L.",
"Z.Z.Z.Z.Z.Z.Z.Z.Z.Z.Z.Z.Z.Z.Z.`., , t. +.+++@+#+@+$+%+&+*+=+-+;+Z.Z.Z.Z.Z.Z.Z.Z.Z.Z.Z.Z.Z.Z.Z.Z.",
">+>+>+>+>+>+>+>+>+>+>+>+>+>+,+'+)+, , , , !+~+{+]+^+/+(+_+, :+>+>+>+>+>+>+>+>+>+>+>+>+>+>+>+>+>+",
"<+<+<+<+<+<+<+<+<+<+<+<+<+<+<+<+[+, , , , , }+|+1+, t.}+, 2+<+<+<+<+<+<+<+<+<+<+<+<+<+<+<+<+<+<+",
"3+3+3+3+3+3+3+3+3+3+3+3+3+3+3+3+3+4+5+, , 3 , , 3 3 3 6+7+3+8+3+3+3+3+3+3+3+3+3+3+3+3+3+3+3+3+3+",
"9+9+9+9+9+9+9+9+9+9+9+9+9+9+9+9+9+9+0+a+b+c+, , ^.d+e+f+9+9+9+9+9+9+9+9+9+9+9+9+9+9+9+9+9+9+9+9+",
"g+g+g+g+g+g+g+g+g+g+g+g+g+g+g+g+g+g+g+g+g+g+g+g+g+g+g+g+g+g+g+g+g+g+g+g+g+g+g+g+g+g+g+g+g+g+g+g+"};
