/* XPM */
static char * eyes24_xpm[] = {
"27 24 108 2",
"  	c None",
". 	c #000000",
"+ 	c #939393",
"@ 	c #BFBFBF",
"# 	c #DBDBDB",
"$ 	c #CECECE",
"% 	c #BDBDBD",
"& 	c #353535",
"* 	c #B7B7B7",
"= 	c #C5C5C5",
"- 	c #C9C9C9",
"; 	c #121212",
"> 	c #676767",
", 	c #DFDFDF",
"' 	c #F8F8F8",
") 	c #FFFFFF",
"! 	c #E9E9E9",
"~ 	c #D6D6D6",
"{ 	c #909090",
"] 	c #E0E0E0",
"^ 	c #FEFEFE",
"/ 	c #E4E4E4",
"( 	c #ACACAC",
"_ 	c #141414",
": 	c #8D8D8D",
"< 	c #F6F6F6",
"[ 	c #333333",
"} 	c #1F1F1F",
"| 	c #ADADAD",
"1 	c #FAFAFA",
"2 	c #FDFDFD",
"3 	c #C1C1C1",
"4 	c #272727",
"5 	c #454545",
"6 	c #ECECEC",
"7 	c #B3B3B3",
"8 	c #6E6E6E",
"9 	c #F3F3F3",
"0 	c #F7F7F7",
"a 	c #8A8A8A",
"b 	c #3E3E3E",
"c 	c #4B4B4B",
"d 	c #C3C3C3",
"e 	c #787878",
"f 	c #FCFCFC",
"g 	c #969696",
"h 	c #585858",
"i 	c #505050",
"j 	c #CFCFCF",
"k 	c #808080",
"l 	c #9F9F9F",
"m 	c #4E4E4E",
"n 	c #F9F9F9",
"o 	c #6A6A6A",
"p 	c #CBCBCB",
"q 	c #7D7D7D",
"r 	c #060606",
"s 	c #DADADA",
"t 	c #9C9C9C",
"u 	c #E7E7E7",
"v 	c #303030",
"w 	c #707070",
"x 	c #F0F0F0",
"y 	c #474747",
"z 	c #D2D2D2",
"A 	c #EEEEEE",
"B 	c #666666",
"C 	c #3F3F3F",
"D 	c #7A7A7A",
"E 	c #030303",
"F 	c #1B1B1B",
"G 	c #A5A5A5",
"H 	c #D7D7D7",
"I 	c #4F4F4F",
"J 	c #1D1D1D",
"K 	c #696969",
"L 	c #E5E5E5",
"M 	c #FBFBFB",
"N 	c #D8D8D8",
"O 	c #929292",
"P 	c #C7C7C7",
"Q 	c #DCDCDC",
"R 	c #949494",
"S 	c #444444",
"T 	c #E8E8E8",
"U 	c #F5F5F5",
"V 	c #E6E6E6",
"W 	c #3D3D3D",
"X 	c #111111",
"Y 	c #5B5B5B",
"Z 	c #2E2E2E",
"` 	c #292929",
" .	c #E1E1E1",
"..	c #EDEDED",
"+.	c #313131",
"@.	c #222222",
"#.	c #6F6F6F",
"$.	c #191919",
"%.	c #202020",
"&.	c #242424",
"*.	c #090909",
"=.	c #717171",
"-.	c #1E1E1E",
";.	c #212121",
">.	c #181818",
",.	c #757575",
"'.	c #616161",
").	c #767676",
"                                                      ",
"                                                      ",
"                                                      ",
"          . . . .               . . . . .             ",
"      . . . . . . . .         . . . . . . . .         ",
"    . . + @ # $ % & . .     . . * = # - % ; . .       ",
"  . > , ' ) ) ) ) ! ~ . . . { ] ^ ) ) ) ) / ( .       ",
"  _ : < ) ) ) ) ) ) / [ . } | 1 ) ) ) ) ) 2 3 4 .     ",
". 5 6 ) ) ) ) ) ) ) ^ 7 . 8 9 ) ) ) ) ) ) ) 0 a . b   ",
". c 0 ) ) ) ) ) ) ) ) d . e 1 ) ) ) ) ) ) ) f g . h   ",
". i ) ) ) ) ) ) ) ) ) j . k ) ) ) ) ) ) ) ) ) l . h k ",
". i ) ) ) ) ) ) ) ) ) j . k ) ) ) ) ) ) ) ) ) l . h k ",
". m f ) ) n : . o 6 ) p . q 2 - r & s ) ) ) ^ t . h k ",
". 5 6 ) ) u . . . * ^ 7 . 8 9 v . . w ) ) ) 0 a . h k ",
". 4 7 n ) x y . & z A B . C - D E F G ) ) ^ H I J K k ",
"  . > L M ^ N O P 6 H . . . { Q R ( 0 ) ) 6 ( . S k k ",
"  . J C 3 T ) U V 8 W X Y Z ` C  ...) x V I +.@.#.k   ",
"    . . $.%.&.@.} *.E =.k w . . -.;.&.;.} E >.,.k k   ",
"        . X ; ; ; '.k k k       E ; ; ; ; ).k k k     ",
"          k k k k k k k           k k k k k k k       ",
"            k k k k                   k k k           ",
"                                                      ",
"                                                      ",
"                                                      "};
