/* XPM */
static char * start_xpm[] = {
"73 21 649 2",
"  	c None",
". 	c #8C6F45",
"+ 	c #8C6F46",
"@ 	c #8D7046",
"# 	c #D1B590",
"$ 	c #D1B691",
"% 	c #D2B792",
"& 	c #D2B691",
"* 	c #D4AF8C",
"= 	c #D9B37E",
"- 	c #D8B882",
"; 	c #D3B892",
"> 	c #E4765F",
", 	c #F36435",
"' 	c #F97E25",
") 	c #FD7D23",
"! 	c #FD7E23",
"~ 	c #F97F25",
"{ 	c #ED8944",
"] 	c #B88463",
"^ 	c #AB3C36",
"/ 	c #D61432",
"( 	c #DC1E3D",
"_ 	c #DC2B26",
": 	c #D35A4A",
"< 	c #CEB38F",
"[ 	c #D2B590",
"} 	c #D3B791",
"| 	c #AD9B7D",
"1 	c #AE9C7E",
"2 	c #AF997B",
"3 	c #D9A745",
"4 	c #F1BA25",
"5 	c #F8C31D",
"6 	c #F8C91C",
"7 	c #DAC53D",
"8 	c #D85C46",
"9 	c #FF4614",
"0 	c #FF7D1D",
"a 	c #FF791D",
"b 	c #FF7A1D",
"c 	c #FF7D1F",
"d 	c #FF811B",
"e 	c #F38D23",
"f 	c #CA8C54",
"g 	c #AE3D34",
"h 	c #DB1431",
"i 	c #E11433",
"j 	c #DF1416",
"k 	c #BD5F4F",
"l 	c #AE9B7E",
"m 	c #8A7859",
"n 	c #8A7759",
"o 	c #D6A72C",
"p 	c #FFCC14",
"q 	c #FFD114",
"r 	c #FFD21D",
"s 	c #FFD524",
"t 	c #FFDD20",
"u 	c #CBC42F",
"v 	c #C54736",
"w 	c #FF6414",
"x 	c #FF7C14",
"y 	c #FF7B14",
"z 	c #FF7F14",
"A 	c #FE8219",
"B 	c #FF871E",
"C 	c #F48D1C",
"D 	c #B07340",
"E 	c #AE2727",
"F 	c #E0143B",
"G 	c #E21425",
"H 	c #B8382D",
"I 	c #8B7859",
"J 	c #8B795A",
"K 	c #8A785A",
"L 	c #786545",
"M 	c #F9CD1D",
"N 	c #FFD22C",
"O 	c #FFD032",
"P 	c #FFD033",
"Q 	c #FFD333",
"R 	c #FFD737",
"S 	c #FDED1E",
"T 	c #B39A30",
"U 	c #F11C18",
"V 	c #FF4F14",
"W 	c #FB4D15",
"X 	c #FF5B14",
"Y 	c #FF7514",
"Z 	c #FF8414",
"` 	c #FF8E18",
" .	c #E68D1D",
"..	c #91542F",
"+.	c #CA1428",
"@.	c #E11421",
"#.	c #A63B2B",
"$.	c #796646",
"%.	c #776444",
"&.	c #776343",
"*.	c #776545",
"=.	c #786645",
"-.	c #5F4B2B",
";.	c #5F4C2C",
">.	c #FFD738",
",.	c #FFDC2E",
"'.	c #F1DE24",
").	c #ECDD22",
"!.	c #FCE123",
"~.	c #FFDE1E",
"{.	c #FFE114",
"].	c #CBB418",
"^.	c #853D25",
"/.	c #8A3C25",
"(.	c #833F26",
"_.	c #9B3622",
":.	c #D22B19",
"<.	c #FF5E14",
"[.	c #F87B15",
"}.	c #D5741A",
"|.	c #9A5823",
"1.	c #922B1D",
"2.	c #B92018",
"3.	c #604426",
"4.	c #5E4A2A",
"5.	c #5C4827",
"6.	c #5C4826",
"7.	c #604C2C",
"8.	c #5D4928",
"9.	c #5B4726",
"0.	c #5E4B29",
"a.	c #4B3816",
"b.	c #4A3716",
"c.	c #FFEF2B",
"d.	c #B9B115",
"e.	c #8D7616",
"f.	c #866D15",
"g.	c #7A7816",
"h.	c #9B8F16",
"i.	c #DDBF14",
"j.	c #AD8415",
"k.	c #4E3A18",
"l.	c #3E2A08",
"m.	c #44300E",
"n.	c #4C3715",
"o.	c #982916",
"p.	c #A12C16",
"q.	c #B35015",
"r.	c #A75415",
"s.	c #672F16",
"t.	c #8D2515",
"u.	c #4C3A18",
"v.	c #4B3916",
"w.	c #483413",
"x.	c #554324",
"y.	c #857861",
"z.	c #988C78",
"A.	c #8A7E67",
"B.	c #5C4B2D",
"C.	c #45320F",
"D.	c #4A3614",
"E.	c #6B5A3E",
"F.	c #90836F",
"G.	c #968C78",
"H.	c #796B52",
"I.	c #503D1D",
"J.	c #493614",
"K.	c #4C3816",
"L.	c #4B3716",
"M.	c #4A3616",
"N.	c #3D2A06",
"O.	c #3C2A06",
"P.	c #91860D",
"Q.	c #6F1F0E",
"R.	c #791810",
"S.	c #721D0C",
"T.	c #93220C",
"U.	c #7D210A",
"V.	c #4E2806",
"W.	c #3C2805",
"X.	c #3E2A07",
"Y.	c #C1330F",
"Z.	c #FF8314",
"`.	c #FF9514",
" +	c #AA560D",
".+	c #B21612",
"++	c #821E0B",
"@+	c #3D2906",
"#+	c #3C2906",
"$+	c #3D2905",
"%+	c #3B2805",
"&+	c #372703",
"*+	c #6C5F44",
"=+	c #EDEBE8",
"-+	c #FFFFFF",
";+	c #EEEEEB",
">+	c #6F684F",
",+	c #272200",
"'+	c #473413",
")+	c #B6AFA2",
"!+	c #ADA596",
"~+	c #473715",
"{+	c #372601",
"]+	c #332402",
"^+	c #342402",
"/+	c #3A2905",
"(+	c #3D2B07",
"_+	c #392905",
":+	c #392805",
"<+	c #342502",
"[+	c #3B2905",
"}+	c #352503",
"|+	c #362603",
"1+	c #3B2A06",
"2+	c #2A2000",
"3+	c #711A0A",
"4+	c #991510",
"5+	c #844009",
"6+	c #D47010",
"7+	c #FF7D14",
"8+	c #FF6114",
"9+	c #EC2B12",
"0+	c #611B05",
"a+	c #2D2102",
"b+	c #392808",
"c+	c #281F00",
"d+	c #271E00",
"e+	c #301F01",
"f+	c #DB1C10",
"g+	c #FF7414",
"h+	c #FF9814",
"i+	c #8F590A",
"j+	c #9C170F",
"k+	c #B81610",
"l+	c #272000",
"m+	c #272207",
"n+	c #827C6A",
"o+	c #F3F1EF",
"p+	c #F8F9F8",
"q+	c #E0DEDA",
"r+	c #605E50",
"s+	c #0E0C00",
"t+	c #6D644C",
"u+	c #DCDAD4",
"v+	c #F9FAF9",
"w+	c #ECEBE8",
"x+	c #766F5C",
"y+	c #231D00",
"z+	c #211C00",
"A+	c #312D0C",
"B+	c #3A3618",
"C+	c #363312",
"D+	c #272100",
"E+	c #261F00",
"F+	c #291F00",
"G+	c #2D2606",
"H+	c #373315",
"I+	c #302B0C",
"J+	c #383416",
"K+	c #373314",
"L+	c #282101",
"M+	c #262000",
"N+	c #2B2403",
"O+	c #343010",
"P+	c #393516",
"Q+	c #2E2707",
"R+	c #2C2505",
"S+	c #383415",
"T+	c #373212",
"U+	c #2C2202",
"V+	c #0C0B00",
"W+	c #0B0900",
"X+	c #0C0A00",
"Y+	c #BC131D",
"Z+	c #6B1D09",
"`+	c #D07810",
" @	c #FF8B14",
".@	c #EE5712",
"+@	c #7D2208",
"@@	c #A92B0C",
"#@	c #E91312",
"$@	c #301102",
"%@	c #161100",
"&@	c #151000",
"*@	c #441104",
"=@	c #C6390F",
"-@	c #91520A",
";@	c #641409",
">@	c #D31427",
",@	c #CC1327",
"'@	c #120E00",
")@	c #090800",
"!@	c #13120E",
"~@	c #979794",
"{@	c #F2F2F1",
"]@	c #CECECD",
"^@	c #D9D9D7",
"/@	c #535353",
"(@	c #080703",
"_@	c #9E9E96",
":@	c #D6D6D4",
"<@	c #E1E1DF",
"[@	c #DDDDDB",
"}@	c #42423A",
"|@	c #11110C",
"1@	c #616158",
"2@	c #ACABA2",
"3@	c #C8C6BD",
"4@	c #B7B6AC",
"5@	c #6F6D64",
"6@	c #17170D",
"7@	c #0A0900",
"8@	c #515046",
"9@	c #B3B2A9",
"0@	c #9C9C92",
"a@	c #828177",
"b@	c #C1BFB7",
"c@	c #AFADA4",
"d@	c #65645B",
"e@	c #101006",
"f@	c #2B2B20",
"g@	c #97968B",
"h@	c #A2A097",
"i@	c #35342B",
"j@	c #000000",
"k@	c #46453A",
"l@	c #ADABA2",
"m@	c #7A796F",
"n@	c #19170E",
"o@	c #7F0F23",
"p@	c #803F09",
"q@	c #FF9614",
"r@	c #FF7114",
"s@	c #6B1207",
"t@	c #BE130E",
"u@	c #851209",
"v@	c #2C1C01",
"w@	c #413D03",
"x@	c #241202",
"y@	c #7D130D",
"z@	c #D11422",
"A@	c #DE1437",
"B@	c #DA1333",
"C@	c #010001",
"D@	c #1B1B1C",
"E@	c #B3B3B5",
"F@	c #DBDBDB",
"G@	c #9B9B9C",
"H@	c #D4D4D4",
"I@	c #525252",
"J@	c #3E3E3F",
"K@	c #C4C4C5",
"L@	c #A5A5A5",
"M@	c #DEDEDD",
"N@	c #B9B9B9",
"O@	c #2C2C2D",
"P@	c #787879",
"Q@	c #DFDFE1",
"R@	c #B4B4B6",
"S@	c #8B8B8D",
"T@	c #D8D8D9",
"U@	c #ECECEE",
"V@	c #5F5F61",
"W@	c #030304",
"X@	c #89898B",
"Y@	c #E2E3E5",
"Z@	c #8D8D8F",
"`@	c #BCBCBF",
" #	c #CECED0",
".#	c #28282B",
"+#	c #434345",
"@#	c #EDEDEF",
"##	c #CDCDCE",
"$#	c #2D2D2F",
"%#	c #7C7C7E",
"&#	c #0B0B0D",
"*#	c #7B0F20",
"=#	c #7B3E09",
"-#	c #FF9714",
";#	c #771408",
">#	c #201704",
",#	c #C7130F",
"'#	c #7F1209",
")#	c #3D2903",
"!#	c #734B08",
"~#	c #A9760C",
"{#	c #F2BD12",
"]#	c #B1A10D",
"^#	c #311104",
"/#	c #CD1414",
"(#	c #D71424",
"_#	c #DD1436",
":#	c #DA1334",
"<#	c #010100",
"[#	c #020100",
"}#	c #3B3B3B",
"|#	c #D8D8D8",
"1#	c #BFBFBF",
"2#	c #757575",
"3#	c #CCCCCC",
"4#	c #6B6B6B",
"5#	c #8E8E8E",
"6#	c #BABABA",
"7#	c #838383",
"8#	c #E5E5E5",
"9#	c #898989",
"0#	c #575757",
"a#	c #F2F2F2",
"b#	c #888888",
"c#	c #555555",
"d#	c #BBBBBB",
"e#	c #A9A9A9",
"f#	c #111111",
"g#	c #F3F3F3",
"h#	c #6E6E6E",
"i#	c #070707",
"j#	c #363636",
"k#	c #F7F7F7",
"l#	c #CDCDCD",
"m#	c #30302F",
"n#	c #656564",
"o#	c #F1F1F1",
"p#	c #919191",
"q#	c #0C0C0C",
"r#	c #0A0A0A",
"s#	c #A8A8A8",
"t#	c #5C5C5C",
"u#	c #030303",
"v#	c #BB131A",
"w#	c #551508",
"x#	c #CD7810",
"y#	c #FF9114",
"z#	c #F76813",
"A#	c #962B0B",
"B#	c #BC360E",
"C#	c #E91A12",
"D#	c #201100",
"E#	c #795808",
"F#	c #FFBC14",
"G#	c #FFC714",
"H#	c #FFD614",
"I#	c #464204",
"J#	c #481206",
"K#	c #B01311",
"L#	c #654708",
"M#	c #C4131C",
"N#	c #D7132C",
"O#	c #040404",
"P#	c #5D5D5D",
"Q#	c #F6F6F6",
"R#	c #9C9C9C",
"S#	c #5E5E5E",
"T#	c #CFCFCF",
"U#	c #B0B0B0",
"V#	c #C3C3C3",
"W#	c #7B7B7B",
"X#	c #878787",
"Y#	c #8B8B8B",
"Z#	c #EDEDED",
"`#	c #828282",
" $	c #2F2F2F",
".$	c #D1D1D1",
"+$	c #D9D9D9",
"@$	c #191919",
"#$	c #4E4E4E",
"$$	c #F5F5F5",
"%$	c #9A9A9A",
"&$	c #212121",
"*$	c #9B9B9B",
"=$	c #EFEFEF",
"-$	c #656565",
";$	c #232323",
">$	c #CBCBCB",
",$	c #343434",
"'$	c #B01010",
")$	c #930F0F",
"!$	c #552E06",
"~$	c #CB7B0F",
"{$	c #FD9613",
"]$	c #FF8114",
"^$	c #F44913",
"/$	c #571105",
"($	c #291C01",
"_$	c #7C5908",
":$	c #E3AD11",
"<$	c #FFD214",
"[$	c #AA8A0C",
"}$	c #82130F",
"|$	c #7C550B",
"1$	c #646106",
"2$	c #91130D",
"3$	c #BA1111",
"4$	c #7C7C7C",
"5$	c #F4F4F4",
"6$	c #6D6D6D",
"7$	c #4C4C4C",
"8$	c #DEDEDE",
"9$	c #FAFAFA",
"0$	c #B4B4B4",
"a$	c #393939",
"b$	c #A6A6A6",
"c$	c #E3E3E3",
"d$	c #515151",
"e$	c #A7A7A7",
"f$	c #3A3A3A",
"g$	c #7D7D7D",
"h$	c #1E1E1E",
"i$	c #080808",
"j$	c #292929",
"k$	c #E9E9E9",
"l$	c #727272",
"m$	c #AFAFAF",
"n$	c #1B1B1B",
"o$	c #500707",
"p$	c #DA1414",
"q$	c #920F0F",
"r$	c #571708",
"s$	c #833E0A",
"t$	c #7D3909",
"u$	c #221101",
"v$	c #C99D0F",
"w$	c #AF9A0D",
"x$	c #382505",
"y$	c #6E3D0B",
"z$	c #97950B",
"A$	c #7B7808",
"B$	c #B81212",
"C$	c #600909",
"D$	c #1C1C1C",
"E$	c #F0F0F0",
"F$	c #484848",
"G$	c #323232",
"H$	c #DADADA",
"I$	c #C9C9C9",
"J$	c #242424",
"K$	c #595959",
"L$	c #EAEAEA",
"M$	c #B1B1B1",
"N$	c #BDBDBD",
"O$	c #D3D3D3",
"P$	c #616161",
"Q$	c #010101",
"R$	c #151515",
"S$	c #CECECE",
"T$	c #262626",
"U$	c #D2D2D2",
"V$	c #AAAAAA",
"W$	c #DFDFDF",
"X$	c #8F8F8F",
"Y$	c #0E0E0E",
"Z$	c #B11010",
"`$	c #E01414",
" %	c #CB1321",
".%	c #A4111A",
"+%	c #9A1310",
"@%	c #471207",
"#%	c #1E1800",
"$%	c #6E6607",
"%%	c #342702",
"&%	c #352A02",
"*%	c #998A0B",
"=%	c #8E800A",
"-%	c #858209",
";%	c #817F09",
">%	c #9F1310",
",%	c #B81111",
"'%	c #020000",
")%	c #909090",
"!%	c #1F1F1F",
"~%	c #9D9D9D",
"{%	c #2A2A2A",
"]%	c #0B0B0B",
"^%	c #959595",
"/%	c #505050",
"(%	c #090909",
"_%	c #6A6A6A",
":%	c #9F9F9F",
"<%	c #171717",
"[%	c #8A8A8A",
"}%	c #1D1D1D",
"|%	c #060606",
"1%	c #4D4D4D",
"2%	c #787878",
"3%	c #9E9E9E",
"4%	c #464646",
"5%	c #430606",
"6%	c #D91414",
"7%	c #E2141C",
"8%	c #DD142F",
"9%	c #DA1423",
"0%	c #D11414",
"a%	c #82120D",
"b%	c #877C09",
"c%	c #94910A",
"d%	c #7F7D09",
"e%	c #76680A",
"f%	c #7D140E",
"g%	c #92330D",
"h%	c #8C320D",
"i%	c #BA1312",
"j%	c #D41414",
"k%	c #450707",
"l%	c #101010",
"m%	c #050505",
"n%	c #121212",
"o%	c #0F0F0F",
"p%	c #131313",
"q%	c #020202",
"r%	c #141414",
"s%	c #6F0B0B",
"t%	c #DF1417",
"u%	c #DD1429",
"v%	c #DE142B",
"w%	c #D91420",
"x%	c #9C1310",
"y%	c #76540B",
"z%	c #937A0C",
"A%	c #74470B",
"B%	c #A71314",
"C%	c #DA142F",
"D%	c #DC142D",
"E%	c #DE141B",
"F%	c #DB1414",
"G%	c #720B0B",
"H%	c #E11424",
"I%	c #DE1332",
"J%	c #DD142C",
"K%	c #D21424",
"L%	c #C01322",
"M%	c #D21428",
"N%	c #DE1432",
"O%	c #DF1429",
"P%	c #DE1414",
"Q%	c #D81414",
"R%	c #710B0B",
"S%	c #DF141F",
"T%	c #DE1430",
"U%	c #DE1431",
"V%	c #DF1431",
"W%	c #DE1422",
"X%	c #DC1414",
"Y%	c #520808",
"Z%	c #A00E0E",
"`%	c #CB121E",
" &	c #DD132E",
".&	c #DC132E",
"+&	c #CC121F",
"@&	c #530808",
"#&	c #030000",
". . . . + + + @ + + @ + + + + + + + + @ + @ @ @ @ @ @ @ @ @ @ @ @ @ + + + + + + + + + + + + @ @ @ @ @ @ @ @ @ @ @ + + + + + + + + + + + + + @ @ @ ",
"# $ % % & % * = - ; > , ' ) ! ~ { ] ^ / ( _ : < % % % % & [ & & } ; } ; ; ; ; ; ; ; ; ; ; } % & & % % % & & & & ; } ; ; ; ; ; ; ; ; ; ; } ; & & & ",
"| | 1 1 2 3 4 5 6 7 8 9 0 a b c d e f g h i j k 1 1 1 1 1 1 1 1 1 l l l l l l l l l l l l l l l 1 1 1 1 1 1 1 1 l l l l l l l l l l l l l l l l 1 ",
"m m n m o p q r s t u v w x y z A B C D E F G H n n n n n n n n I J K K K K J J K K K K K K n n n n n n n n n n n K K K K K K K K K K K K K n n n ",
"L L L L M N O P Q R S T U V W X Y Z `  ...+.@.#.L $.$.L L L L %.&.%.L L L L *.%.=.L L L L L L L L L L L L L L L L L L L L L L L L L L L L L L L L ",
"-.-.;.;.>.,.'.).!.~.{.].^./.(._.:.<.[.}.|.1.2.3.;.;.;.;.;.;.4.5.6.5.4.7.;.8.9.6.0.;.;.;.;.;.;.;.;.;.;.;.;.;.;.;.;.;.;.;.;.;.;.;.;.;.;.;.;.;.;.;.;.",
"a.a.b.a.c.d.e.f.g.h.i.j.k.k.l.m.n.o.p.q.r.s.t.k.u.v.b.b.b.w.x.y.z.A.B.C.D.E.F.G.H.I.J.K.K.L.L.b.b.L.L.M.L.L.K.K.a.L.K.K.K.a.K.K.K.L.a.a.a.a.b.b.b.",
"N.N.O.N.P.Q.R.S.T.U.V.W.W.W.W.X.W.W.Y.Z.`. +.+++@+N.#+$+%+&+*+=+-+;+>+,+'+)+-+-+!+~+{+&+]+^+/+(+#+_+^+&+:+<+^+/+@+[+}+^+/+(+/+^+|+1+#+O.O.O.O.O.O.",
"2+2+2+2+3+4+5+6+7+8+9+0+a+b+c+d+d+e+f+g+h+i+j+k+d+d+2+2+l+m+n+o+p+q+r+s+t+u+v+w+x+y+z+A+B+C+D+E+F+G+H+I+l+J+K+L+M+N+O+P+Q+l+R+S+T+U+F+2+2+2+2+2+2+",
"V+V+W+X+Y+Z+`+ @.@+@@@#@$@%@%@&@%@%@*@=@-@;@>@,@%@'@W+W+)@!@~@{@]@^@/@(@_@:@<@[@}@|@1@2@3@4@5@6@7@8@9@0@a@b@c@d@e@f@g@h@i@j@k@l@m@n@)@X+X+X+X+W+W+",
"j@j@j@j@o@p@q@r@s@%@%@t@u@%@%@%@%@v@w@x@y@z@A@B@C@j@C@j@j@D@E@F@G@H@I@J@K@L@M@N@O@P@Q@R@S@T@U@V@W@X@-+Y@Z@`@-+ #.#+#@###$#j@%#-+Z@&#j@j@j@j@j@j@j@",
"j@j@j@j@*#=#-#Y ;#>#%@,#'#%@)#!#~#{#]#^#/#(#_#:#<#<#[#j@j@}#|#1#2#3#4#5#6#7#8#9#0#M@a#b#c#d#-+e#f#e#g#h#i#j#k#l#m#n#o#p#q#r#s#g#t#u#j@j@j@j@j@j@j@",
"j@j@j@j@v#w#x#y#z#A#B#C#D#E#F#G#q H#I#J#K#L#M#N#j@j@<#j@O#P#Q#R#S#T#U#V#W#X#a#h#Y#k#Z#F@H@T#|#`# $.$+$@$j@#$$$%$&$*$=$-$j@;$>$H@,$j@j@j@j@j@j@j@j@",
"j@j@j@j@'$)$!$~${$]$^$/$%@($_$:$<$[$%@}$|$1$2$3$j@j@j@j@i#4$5$6$7$8$9$0$a$b$c$d$R#-+e$f$#$9#g$h$/@o#U#i$r#X#k#h#j$##k$#$j@l$Q#m$n$j@j@j@j@j@j@j@j@",
"j@j@j@j@o$p$q$r$s$t$u$%@%@%@%@D#v$w$x$y$z$A$B$C$j@j@j@j@D$d#E$F$7$k#-+2#G$H$I$J$K$L$L$M$N$O$P$Q$9#-+g$j@R$S$5$7$T$T#-+U$V$W$-+X$Y$j@j@j@j@j@j@j@j@",
"j@j@j@j@j@Z$`$ %.%+%@%#%$%%%%@&%*%=%z$-%;%>%,%'%j@j@j@j@n$Y#)%!% $~%X$;${%*$h#]%i$d$R#U#^%/%R$(%_%:%,$j@<%p#[%}%|%1%:%L@h#2%3%4%u#j@j@j@j@j@j@j@j@",
"j@j@j@j@j@5%6%7%8%9%0%a%b%c%d%z$e%f%g%h%i%j%k%j@j@j@j@j@O#f#l%u#m%n%o%Q$|%p%q#Q$j@q%o%r%Y$j@j@q%Y$n%O#Q$O#f#o%q%j@u#l%p%i#(%f#i#j@j@j@j@j@j@j@j@j@",
"j@j@j@j@j@j@s%6%t%u%v%w%x%y%z%A%B%C%D%E%F%G%j@j@j@j@j@j@j@j@j@j@j@j@j@j@j@j@j@j@j@j@j@j@j@j@j@j@j@j@j@j@j@j@j@j@j@j@j@j@j@j@j@j@j@j@j@j@j@j@j@j@j@",
"j@j@j@j@j@j@j@s%6%`$H%I%J%K%L%M%N%O%P%Q%R%j@j@j@j@j@j@j@j@j@j@j@j@j@j@j@j@j@j@j@j@j@j@j@j@j@j@j@j@j@j@j@j@j@j@j@j@j@j@j@j@j@j@j@j@j@j@j@j@j@j@j@j@",
"j@j@j@j@j@j@j@j@5%'$P%S%T%U%U%V%W%X%Z$k%j@j@j@j@j@j@j@j@j@j@j@j@j@j@j@j@j@j@j@j@j@j@j@j@j@j@j@j@j@j@j@j@j@j@j@j@j@j@j@j@j@j@j@j@j@j@j@j@j@j@j@j@j@",
"j@j@j@j@j@j@j@j@j@j@Y%Z%`% &.&+&Z%@&#&j@j@j@j@j@j@j@j@j@j@j@j@j@j@j@j@j@j@j@j@j@j@j@j@j@j@j@j@j@j@j@j@j@j@j@j@j@j@j@j@j@j@j@j@j@j@j@j@j@j@j@j@j@j@"};
