/* XPM */
static char *icewm_xpm[] = {
"54 27 624 2",
"AA	c #757575",
"BA	c #767676",
"CA	c #747474",
"DA	c #737373",
"EA	c #7D7D7C",
"FA	c #929190",
"GA	c #B0AEAD",
"HA	c #C6C3C2",
"IA	c #D1CDCC",
"JA	c #CFCDCB",
"KA	c #C1BFBE",
"LA	c #A7A6A6",
"MA	c #8B8B8B",
"NA	c #7C7B7B",
"OA	c #999999",
"PA	c #979797",
"QA	c #A4A3A3",
"RA	c #BDBCBB",
"SA	c #E9E7E6",
"TA	c #F9FDFE",
"UA	c #EBF9FF",
"VA	c #DBF4FF",
"WA	c #D4F2FF",
"XA	c #D5F2FF",
"YA	c #DFF5FF",
"ZA	c #F0FAFF",
"aA	c #F7F9F9",
"bA	c #E0DFDD",
"cA	c #BBBAB9",
"dA	c #A3A3A3",
"eA	c #989898",
"fA	c #8A8A8A",
"gA	c #888989",
"hA	c #919191",
"iA	c #B3B1B1",
"jA	c #E5E5E4",
"kA	c #EFF9FE",
"lA	c #C7E6FF",
"mA	c #8DCAFB",
"nA	c #52B7FB",
"oA	c #27ACFC",
"pA	c #0DA8FD",
"qA	c #15AAFD",
"rA	c #35AFFC",
"sA	c #66BCFB",
"tA	c #A1D3FC",
"uA	c #D7EEFF",
"vA	c #F4FBFC",
"wA	c #DDDBD9",
"xA	c #AAA9A9",
"yA	c #8E8E8E",
"zA	c #898989",
"0A	c #818181",
"1A	c #808080",
"2A	c #7E7E7E",
"3A	c #C8C6C5",
"4A	c #F2F5F6",
"5A	c #C7E3F8",
"6A	c #6EB0EB",
"7A	c #1889EF",
"8A	c #007DF9",
"9A	c #0088FD",
"+A	c #0493FF",
"/A	c #0998FF",
"AB	c #0896FF",
"BB	c #018FFF",
"CB	c #0083FC",
"DB	c #007DF6",
"EB	c #3394ED",
"FB	c #8CC1ED",
"GB	c #DCEEFA",
"HB	c #EEEEED",
"IB	c #B8B7B6",
"JB	c #888888",
"KB	c #7F7F7F",
"LB	c #777777",
"MB	c #787878",
"NB	c #858585",
"OB	c #CCCAC8",
"PB	c #ECF2F7",
"QB	c #9BC4E5",
"RB	c #2E85CE",
"SB	c #006CCF",
"TB	c #0874DA",
"UB	c #137FE6",
"VB	c #1483EF",
"WB	c #1185F4",
"XB	c #1185F6",
"YB	c #1186F6",
"ZB	c #1284F3",
"aB	c #1382ED",
"bB	c #117BE3",
"cB	c #026ED6",
"dB	c #0670CC",
"eB	c #4F99D3",
"fB	c #C0DBEF",
"gB	c #F2F2F3",
"hB	c #B7B6B5",
"iB	c #7C7C7C",
"jB	c #6D6D6D",
"kB	c #6C6C6C",
"lB	c #6A6A6A",
"mB	c #BAB9B7",
"nB	c #E8ECF0",
"oB	c #89B4D5",
"pB	c #1E74B9",
"qB	c #0B69B8",
"rB	c #1870BF",
"sB	c #1871C4",
"tB	c #1672CB",
"uB	c #1773D2",
"vB	c #1675D9",
"wB	c #1575DC",
"xB	c #1576DC",
"yB	c #1674D9",
"zB	c #1673D1",
"0B	c #1771CA",
"1B	c #1972C4",
"2B	c #146EBD",
"3B	c #0969B7",
"4B	c #3A86C0",
"5B	c #B7D1E5",
"6B	c #EAEAE9",
"7B	c #9F9F9E",
"8B	c #626262",
"9B	c #636363",
"+B	c #606060",
"/B	c #5F5F5F",
"AC	c #5E5F5F",
"BC	c #91908F",
"CC	c #DDDEDD",
"DC	c #9BB8CE",
"EC	c #2872AB",
"FC	c #156AAD",
"GC	c #206CAE",
"HC	c #1F6AAF",
"IC	c #1E6AB2",
"JC	c #1E6CB9",
"KC	c #1E70BD",
"LC	c #1E71C1",
"MC	c #1E71C2",
"NC	c #1E72C2",
"OC	c #1E70C0",
"PC	c #1E6EBC",
"QC	c #1E6CB8",
"RC	c #1E6AB3",
"SC	c #216CAF",
"TC	c #1E6DAE",
"UC	c #136AAC",
"VC	c #4986B5",
"WC	c #C6D3DE",
"XC	c #CDCCCB",
"YC	c #797979",
"ZC	c #626363",
"aC	c #4C4C4C",
"bC	c #4D4E4E",
"cC	c #474747",
"dC	c #464646",
"eC	c #4A4A4A",
"fC	c #B9B8B7",
"gC	c #B6C1CA",
"hC	c #3E739C",
"iC	c #1F6CA4",
"jC	c #286FA7",
"kC	c #276AA3",
"lC	c #276AA6",
"mC	c #276CAA",
"nC	c #286EAD",
"oC	c #2870B1",
"pC	c #2870B3",
"qC	c #2870B4",
"rC	c #2872B5",
"sC	c #286FB0",
"tC	c #276EAD",
"uC	c #276CA9",
"vC	c #276AA5",
"wC	c #296CA4",
"xC	c #2771A9",
"yC	c #1F6AA1",
"zC	c #688DAB",
"0C	c #D2D4D7",
"1C	c #9C9B9B",
"2C	c #4E4F4F",
"3C	c #4B4C4C",
"4C	c #4D4D4D",
"5C	c #141414",
"6C	c #121313",
"7C	c #121111",
"8C	c #131414",
"9C	c #6C6C6B",
"+C	c #C0C1C2",
"/C	c #6B8399",
"AD	c #1E5986",
"BD	c #2F73A4",
"CD	c #3370A1",
"DD	c #326EA0",
"ED	c #3270A3",
"FD	c #3271A6",
"GD	c #3273A8",
"HD	c #3273AB",
"ID	c #3274AC",
"JD	c #3274AD",
"KD	c #3375AD",
"LD	c #3272A9",
"MD	c #3272A6",
"ND	c #3574A5",
"OD	c #286EA1",
"PD	c #2B5E87",
"QD	c #9CA9B4",
"RD	c #AFAEAE",
"SD	c #3D3D3D",
"TD	c #0F0F0F",
"UD	c #151515",
"VD	c #050505",
"WD	c #040404",
"XD	c #020202",
"YD	c #131313",
"ZD	c #888886",
"aD	c #A3A8AE",
"bD	c #2B4C69",
"cD	c #215881",
"dD	c #407BA5",
"eD	c #3F76A0",
"fD	c #3E75A1",
"gD	c #3E76A4",
"hD	c #3E78A5",
"iD	c #3E79A8",
"jD	c #3E7AAA",
"kD	c #3E7AAC",
"lD	c #3F7BAC",
"mD	c #3E79A9",
"nD	c #3E79AA",
"oD	c #3E78A8",
"pD	c #3E78A6",
"qD	c #3F78A5",
"rD	c #3E76A1",
"sD	c #4078A2",
"tD	c #3C79A3",
"uD	c #194D76",
"vD	c #52697E",
"wD	c #B6B5B6",
"xD	c #535252",
"yD	c #000000",
"zD	c #0B0B0B",
"0D	c #0A0A0A",
"1D	c #080808",
"2D	c #333332",
"3D	c #939292",
"4D	c #727D87",
"5D	c #0D304D",
"6D	c #255479",
"7D	c #4F83A7",
"8D	c #4C7FA5",
"9D	c #4B7FA5",
"+D	c #4B80A7",
"/D	c #4B80A8",
"AE	c #4C81AB",
"BE	c #4C82AC",
"CE	c #4B82AD",
"DE	c #4B82AC",
"EE	c #4B81A9",
"FE	c #4C80A8",
"GE	c #4E81A7",
"HE	c #4B7FA4",
"IE	c #154265",
"JE	c #264058",
"KE	c #9B9FA2",
"LE	c #5D5C5C",
"ME	c #010101",
"NE	c #070707",
"OE	c #444343",
"PE	c #8D8C8D",
"QE	c #475663",
"RE	c #02213C",
"SE	c #214664",
"TE	c #5581A0",
"UE	c #5D8CAE",
"VE	c #5A89AC",
"WE	c #5A8AAE",
"XE	c #5A8BAF",
"YE	c #5A8BB0",
"ZE	c #5A8BB1",
"aE	c #5A8DB1",
"bE	c #5A8DB2",
"cE	c #5A8CB1",
"dE	c #5A8BAD",
"eE	c #5A8AAC",
"fE	c #5E8DAF",
"gE	c #4B7696",
"hE	c #103453",
"iE	c #112B42",
"jE	c #727A81",
"kE	c #555453",
"lE	c #090909",
"mE	c #484747",
"nE	c #777779",
"oE	c #263746",
"pE	c #001B34",
"qE	c #0F2A42",
"rE	c #45667F",
"sE	c #6C97B5",
"tE	c #6B97B6",
"uE	c #6A95B4",
"vE	c #6996B7",
"wE	c #6A97B8",
"xE	c #6998B9",
"yE	c #6A98B8",
"zE	c #6996B6",
"0E	c #6996B5",
"1E	c #6C9AB9",
"2E	c #6892AF",
"3E	c #33526A",
"4E	c #07233C",
"5E	c #041F36",
"6E	c #4D5861",
"7E	c #494948",
"8E	c #030303",
"9E	c #060606",
"+E	c #434242",
"/E	c #535556",
"AF	c #112333",
"BF	c #011E35",
"CF	c #01172B",
"DF	c #1C3145",
"EF	c #5F829A",
"FF	c #7EA6C2",
"GF	c #7CA4C1",
"HF	c #79A3BF",
"IF	c #7AA3C0",
"JF	c #7AA4C0",
"KF	c #7AA4C1",
"LF	c #79A4C0",
"MF	c #7BA3C0",
"NF	c #80A7C2",
"OF	c #7DA5C0",
"PF	c #4F6E86",
"QF	c #0F2336",
"RF	c #021B30",
"SF	c #021D33",
"TF	c #2F3B45",
"UF	c #343332",
"VF	c #343333",
"WF	c #3F4041",
"XF	c #112230",
"YF	c #052138",
"ZF	c #031A2F",
"aF	c #000F20",
"bF	c #23384C",
"cF	c #65859D",
"dF	c #8AADC6",
"eF	c #8FB4CC",
"fF	c #8FB4CD",
"gF	c #8DB2CB",
"hF	c #8CB1CB",
"iF	c #8DB2CC",
"jF	c #96B8CF",
"kF	c #8FAFC6",
"lF	c #597690",
"mF	c #15283F",
"nF	c #001023",
"oF	c #041F35",
"pF	c #072137",
"qF	c #253038",
"rF	c #242323",
"sF	c #262626",
"tF	c #393A3A",
"uF	c #1A2A35",
"vF	c #06243B",
"wF	c #052036",
"xF	c #011226",
"yF	c #001025",
"zF	c #172D44",
"0F	c #4B6880",
"1F	c #7D9EB4",
"2F	c #93B4CA",
"3F	c #9ABBD0",
"4F	c #9EBED4",
"5F	c #A0C0D8",
"6F	c #A0C0D7",
"7F	c #9DBED4",
"8F	c #99BAD0",
"9F	c #94B4C9",
"+F	c #7D9EB8",
"/F	c #487197",
"AG	c #113C66",
"BG	c #001A3A",
"CG	c #03172E",
"DG	c #04233A",
"EG	c #0B2539",
"FG	c #293238",
"GG	c #222120",
"HG	c #0C0C0C",
"IG	c #1E1E1E",
"JG	c #363636",
"KG	c #25313A",
"LG	c #072940",
"MG	c #032640",
"NG	c #021C33",
"OG	c #00182F",
"PG	c #00152F",
"QG	c #081F3A",
"RG	c #203954",
"SG	c #3D5C77",
"TG	c #5C7D96",
"UG	c #7291AB",
"VG	c #7B9BB3",
"WG	c #7A99B2",
"XG	c #6F8EA7",
"YG	c #567792",
"ZG	c #37567C",
"aG	c #1E4679",
"bG	c #0D6795",
"cG	c #0B759C",
"dG	c #043F6A",
"eG	c #032141",
"fG	c #032843",
"gG	c #0E2A3D",
"hG	c #33373A",
"iG	c #232121",
"jG	c #323131",
"kG	c #31383D",
"lG	c #0D2F46",
"mG	c #02304D",
"nG	c #022742",
"oG	c #011F3B",
"pG	c #012240",
"qG	c #002140",
"rG	c #001D3F",
"sG	c #012347",
"tG	c #0D2D51",
"uG	c #163358",
"vG	c #1A365A",
"wG	c #19355A",
"xG	c #15335A",
"yG	c #0B3262",
"zG	c #003B75",
"0G	c #005291",
"1G	c #0A81B2",
"2G	c #1289B0",
"3G	c #044A7B",
"4G	c #022F56",
"5G	c #03314F",
"6G	c #183141",
"7G	c #39393A",
"8G	c #212020",
"9G	c #292828",
"+G	c #393A3C",
"/G	c #1C3748",
"AH	c #033B5C",
"BH	c #023457",
"CH	c #02294B",
"DH	c #01284C",
"EH	c #012D53",
"FH	c #023058",
"GH	c #012F59",
"HH	c #002E59",
"IH	c #002D59",
"JH	c #002C5A",
"KH	c #003063",
"LH	c #004983",
"MH	c #0681AF",
"NH	c #0A9CC0",
"OH	c #0578B2",
"PH	c #035091",
"QH	c #023B6F",
"RH	c #013C64",
"SH	c #083A57",
"TH	c #293740",
"UH	c #181818",
"VH	c #1A1919",
"WH	c #383535",
"XH	c #2F3D45",
"YH	c #0B4161",
"ZH	c #00446E",
"aH	c #013962",
"bH	c #00335E",
"cH	c #013663",
"dH	c #013969",
"eH	c #013B6E",
"fH	c #013E73",
"gH	c #024177",
"hH	c #024179",
"iH	c #004583",
"jH	c #0262A0",
"kH	c #069FC0",
"lH	c #09AEC6",
"mH	c #026FA8",
"nH	c #003E7F",
"oH	c #013F70",
"pH	c #014670",
"qH	c #173E55",
"rH	c #373B3C",
"sH	c #292827",
"tH	c #0C0D0D",
"uH	c #3C3D3D",
"vH	c #224256",
"wH	c #034D7C",
"xH	c #004C80",
"yH	c #004276",
"zH	c #014178",
"0H	c #00437F",
"1H	c #004685",
"2H	c #004B8B",
"3H	c #004D8F",
"4H	c #004E92",
"5H	c #004E93",
"6H	c #015198",
"7H	c #0160A4",
"8H	c #027CB4",
"9H	c #017FB4",
"+H	c #015C9D",
"/H	c #014A86",
"AI	c #004F84",
"BI	c #0B4A70",
"CI	c #2D3D48",
"DI	c #353433",
"EI	c #181817",
"FI	c #080809",
"GI	c #333130",
"HI	c #3B4246",
"II	c #1C4C6A",
"JI	c #015892",
"KI	c #005796",
"LI	c #015192",
"MI	c #005498",
"NI	c #0056A0",
"OI	c #0058AA",
"PI	c #005CB1",
"QI	c #015EB6",
"RI	c #015EB7",
"SI	c #005EB4",
"TI	c #005FB0",
"UI	c #0163AF",
"VI	c #0161A8",
"WI	c #015AA0",
"XI	c #005B9E",
"YI	c #075587",
"ZI	c #274456",
"aI	c #39393B",
"bI	c #222121",
"cI	c #1A1A19",
"dI	c #393736",
"eI	c #3F484D",
"fI	c #245374",
"gI	c #0661A7",
"hI	c #0066C2",
"iI	c #0067C6",
"jI	c #016BCF",
"kI	c #0170DA",
"lI	c #0174E2",
"mI	c #0176E5",
"nI	c #0076E5",
"oI	c #0175E2",
"pI	c #0171DA",
"qI	c #016DD1",
"rI	c #006ACD",
"sI	c #0069C3",
"tI	c #0E5B95",
"uI	c #29485D",
"vI	c #3B3D3E",
"wI	c #282626",
"xI	c #0D0E0E",
"yI	c #1A1A1A",
"zI	c #3A3938",
"0I	c #4A4F53",
"1I	c #395974",
"2I	c #1F67AD",
"3I	c #0076EC",
"4I	c #007FFF",
"5I	c #0088FE",
"6I	c #008EFE",
"7I	c #0191FD",
"8I	c #0092FD",
"9I	c #0090FE",
"+I	c #008AFF",
"/I	c #0081FE",
"AJ	c #0871D9",
"BJ	c #215B8F",
"CJ	c #374A5A",
"DJ	c #3E3E3E",
"EJ	c #282625",
"FJ	c #0A0B0B",
"GJ	c #141515",
"HJ	c #535253",
"IJ	c #566370",
"JJ	c #486B8D",
"KJ	c #3278B6",
"LJ	c #1B8ADC",
"MJ	c #0699F8",
"NJ	c #00A4FF",
"OJ	c #00A3FF",
"PJ	c #0A95ED",
"QJ	c #1E81CA",
"RJ	c #306A9D",
"SJ	c #3F5974",
"TJ	c #464C53",
"UJ	c #3B3B39",
"VJ	c #20201F",
"WJ	c #0D0D0D",
"XJ	c #09090A",
"YJ	c #0E0E0E",
"ZJ	c #1F1F1E",
"aJ	c #646362",
"bJ	c #6D7479",
"cJ	c #6A7B88",
"dJ	c #648192",
"eJ	c #5F8194",
"fJ	c #5C7E8F",
"gJ	c #5B7482",
"hJ	c #5A6872",
"iJ	c #585C5E",
"jJ	c #494746",
"kJ	c #2A2928",
"lJ	c #131212",
"mJ	c #0E0D0E",
"nJ	c #191918",
"oJ	c #333231",
"pJ	c #504D4C",
"qJ	c #63615E",
"rJ	c #696664",
"sJ	c #63605E",
"tJ	c #53514F",
"uJ	c #3B3938",
"vJ	c #111111",
"AAAAAAAAAAAAAAAAAAAAAAAAAAAAAAAAAAAABAAACADABAEAFAGAHAIAJAKALAMANAAADAAAAABAAAAAAAAAAAAAAAAAAAAAAAAAAAAAAAAA",
"OAOAOAOAOAOAOAOAOAOAOAOAOAOAOAOAOAOAOAPAOAQARASATAUAVAWAXAYAZAaAbAcAdAeAPAOAOAOAOAOAOAOAOAOAOAOAOAOAOAOAOAOA",
"fAfAfAfAfAfAfAfAfAfAfAfAfAfAfAfAfAfAgAhAiAjAkAlAmAnAoApAqArAsAtAuAvAwAxAyAzAfAfAfAfAfAfAfAfAfAfAfAfAfAfAfAfA",
"0A0A0A0A0A0A0A0A0A0A0A0A0A0A0A0A1A2AyA3A4A5A6A7A8A9A+A/AABBBCBDBEBFBGBHBIBJBKB0A0A0A0A0A0A0A0A0A0A0A0A0A0A0A",
"LBLBLBLBLBLBLBLBLBLBLBLBLBLBMBLBCANBOBPBQBRBSBTBUBVBWBXBYBZBaBbBcBdBeBfBgBhBiBAALBMBLBLBLBLBLBLBLBLBLBLBLBLB",
"jBjBjBjBjBjBjBjBjBjBjBjBkBkBjBlBDAmBnBoBpBqBrBsBtBuBvBwBxByBzB0B1B2B3B4B5B6B7BkBkBjBjBjBjBjBjBjBjBjBjBjBjBjB",
"8B8B8B8B8B8B8B8B8B8B8B9B+B/B8BACBCCCDCECFCGCHCICJCKCLCMCNCOCPCQCRCSCTCUCVCWCXCYCACZC8B8B8B8B8B8B8B8B8B8B8B8B",
"aCaCaCaCaCaCaCaCaCaCaCbCcCdCeC/BfCgChCiCjCkClCmCnCoCpCqCrCpCsCtCuCvCwCxCyCzC0C1C2C3C4CaCaCaCaCaCaCaCaCaCaCaC",
"5C5C5C5C5C5C5C5C5C5C5C5C6C7C8C9C+C/CADBDCDDDEDFDGDHDIDJDKDIDHDLDMDEDDDNDODPDQDRDSDTDUD5C5C5C5C5C5C5C5C5C5C8C",
"VDVDVDVDVDVDVDVDVDVDVDWDWDXDYDZDaDbDcDdDeDfDgDhDiDjDjDkDlDmDnDoDpDqDrDsDtDuDvDwDxDyDVDVDVDVDVDVDVDVDVDVDVDWD",
"zDzDzDzDzDzDzDzDzDzDzD0D1DVD2D3D4D5D6D7D8D9D+D/DAEBEBECECEDEBEAEEEFE9DGEHEIEJEKELEMEzDzDzDzDzDzDzDzDzDzDzD0D",
"0D0D0D0D0D0D0D0D0D0D0D0DNEXDOEPEQERESETEUEVEWEXEYEZEaEaEbEaEcEZEXEdEeEfEgEhEiEjEkEME0D0D0D0D0D0D0D0D0D0D0DlE",
"0D0D0D0D0D0D0D0D0D0D0DzDNEMEmEnEoEpEqErEsEtEuEvEwEwExExExExEyEwEzE0E1E2E3E4E5E6E7E8E0D0D0D0D0D0D0D0D0D0D0DzD",
"0D0D0D0D0D0D0D0D0D0D0DzD9EXD+E/EAFBFCFDFEFFFGFHFIFJFKFKFKFKFJFLFMFNFOFPFQFRFSFTFUF9E0D0D0D0D0D0D0D0D0D0D0DzD",
"0D0D0D0D0D0D0D0D0D0D0DzD9EXDVFWFXFYFZFaFbFcFdFeFfFgFhFhFhFhFiFfFjFkFlFmFnFoFpFqFrFNE0D0D0D0D0D0D0D0D0D0D0DzD",
"0D0D0D0D0D0D0D0D0D0D0DzD1DWDsFtFuFvFwFxFyFzF0F1F2F3F4F5F6F7F8F9F+F/FAGBGCGDGEGFGGG1D0D0D0D0D0D0D0D0D0D0D0DHG",
"0D0D0D0D0D0D0D0D0D0D0DzD1DVDIGJGKGLGMGNGOGPGQGRGSGTGUGVGWGXGYGZGaGbGcGdGeGfGgGhGiGNE0D0D0D0D0D0D0D0D0D0D0DzD",
"0D0D0D0D0D0D0D0D0D0D0DzDlENE5CjGkGlGmGnGoGpGqGrGsGtGuGvGwGxGyGzG0G1G2G3G4G5G6G7G8G1D0D0D0D0D0D0D0D0D0D0D0DzD",
"0D0D0D0D0D0D0D0D0D0D0D0DzD0DzD9G+G/GAHBHCHDHEHFHGHHHIHJHJHKHLHMHNHOHPHQHRHSHTHVFUH1D0D0D0D0D0D0D0D0D0D0D0D0D",
"0D0D0D0D0D0D0D0D0D0D0DlEzDHGlEVHWHXHYHZHaHbHcHdHeHfHgHhHhHiHjHkHlHmHnHoHpHqHrHsHtHlE0D0D0D0D0D0D0D0D0D0D0DlE",
"0D0D0D0D0D0D0D0D0D0D0D0DzDzDlEHGsHuHvHwHxHyHzH0H1H2H3H4H5H6H7H8H9H+H/HAIBICIDIEIFI0D0D0D0D0D0D0D0D0D0D0D0D0D",
"0D0D0D0D0D0D0D0D0D0D0D0D0D0D0DlE5CGIHIIIJIKILIMINIOIPIQIRISITIUIVIWIXIYIZIaIbIzD0D0D0D0D0D0D0D0D0D0D0D0D0D0D",
"0D0D0D0D0D0D0D0D0D0D0D0D0D0D0D0D0DcIdIeIfIgIhIiIjIkIlImInIoIpIqIrIsItIuIvIwIxIlE0D0D0D0D0D0D0D0D0D0D0D0D0D0D",
"0D0D0D0D0D0D0D0D0D0D0D0D0D0D0D0D0DzDyIzI0I1I2I3I4I5I6I7I8I9I+I/IAJBJCJDJEJTDlE0D0D0D0D0D0D0D0D0D0D0D0D0D0D0D",
"0D0D0D0D0D0D0D0D0D0D0D0D0D0D0D0D0D0DFJGJUFHJIJJJKJLJMJNJOJPJQJRJSJTJUJVJWJXJ0D0D0D0D0D0D0D0D0D0D0D0D0D0D0D0D",
"0D0D0D0D0D0D0D0D0D0D0D0D0D0D0D0D0D0D0D0DYJZJ+EaJbJcJdJeJfJgJhJiJjJkJlJzD0D0D0D0D0D0D0D0D0D0D0D0D0D0D0D0D0D0D",
"0D0D0D0D0D0D0D0D0D0D0D0D0D0D0D0D0D0D0D0DlEXJmJnJoJpJqJrJsJtJuJiGvJzDlE0D0D0D0D0D0D0D0D0D0D0D0D0D0D0D0D0D0D0D"
};
