/* XPM */
static char * taskbuttonbg_xpm[] = {
"300 30 39 1",
" 	c None",
".	c #717171",
"+	c #999999",
"@	c #ACACAC",
"#	c #9D9D9D",
"$	c #9C9C9C",
"%	c #9E9E9E",
"&	c #9D9D9B",
"*	c #9E9E9C",
"=	c #9F9E9C",
"-	c #9E9D9B",
";	c #9F9D9E",
">	c #9F9F9D",
",	c #8D8D8D",
"'	c #878785",
")	c #555452",
"!	c #292826",
"~	c #151412",
"{	c #171312",
"]	c #161211",
"^	c #848484",
"/	c #545351",
"(	c #504F4D",
"_	c #B1ADAC",
":	c #7B7B7B",
"<	c #252422",
"[	c #ADACAA",
"}	c #737373",
"|	c #686868",
"1	c #5D5D5D",
"2	c #4F4E4F",
"3	c #070707",
"4	c #0A0A0A",
"5	c #141412",
"6	c #141414",
"7	c #131313",
"8	c #191917",
"9	c #151513",
"0	c #151314",
"............................................................................................................................................................................................................................................................................................................",
"+@#$%&*=-;;=>;;=-;;=>;;=-;;=>;;;;==-;;=>;;=-;=-;;=>;;=-;;=>;;==-;;=>;;=-;;=>;;=-;;=>;;;;==-;;=>;;=-;;=>;;=-;;=>;;;;==-;;=>;;=-;;=>;;=-;;=>;;;-;;=>;;=-;;=>;;;;==-;;=>;;=-;;=>;;=-;;=>;;;;==-;;=>;;=-;;=>;;=-;;=>;;;=-;;=>;;=-;;=>;;=-;;=>;;;;==-;;=>;;=-;;=>;;=-;;=>;;;;==-;;=>;;=-;;=>;;=-;;=>;;;;=>*&%$#@+",
",')!~~~~~{~~~]~~~{~~~]~~~{~~~]~{~~~~{~~~]~~~{~~{~~~]~~~{~~~]~~~~{~~~]~~~{~~~]~~~{~~~]~{~~~~{~~~]~~~{~~~]~~~{~~~]~{~~~~{~~~]~~~{~~~]~~~{~~~]~{~{~~~]~~~{~~~]~{~~~~{~~~]~~~{~~~]~~~{~~~]~{~~~~{~~~]~~~{~~~]~~~{~~~]~{~~{~~~]~~~{~~~]~~~{~~~]~{~~~~{~~~]~~~{~~~]~~~{~~~]~{~~~~{~~~]~~~{~~~]~~~{~~~]~{~~~~~~!)',",
"^/(_^^^^^^^^^^^^^^^^^^^^^^^^^^^^^^^^^^^^^^^^^^^^^^^^^^^^^^^^^^^^^^^^^^^^^^^^^^^^^^^^^^^^^^^^^^^^^^^^^^^^^^^^^^^^^^^^^^^^^^^^^^^^^^^^^^^^^^^^^^^^^^^^^^^^^^^^^^^^^^^^^^^^^^^^^^^^^^^^^^^^^^^^^^^^^^^^^^^^^^^^^^^^^^^^^^^^^^^^^^^^^^^^^^^^^^^^^^^^^^^^^^^^^^^^^^^^^^^^^^^^^^^^^^^^^^^^^^^^^^^^^^^^^^^^^^^^_(/^",
":<[::::::::::::::::::::::::::::::::::::::::::::::::::::::::::::::::::::::::::::::::::::::::::::::::::::::::::::::::::::::::::::::::::::::::::::::::::::::::::::::::::::::::::::::::::::::::::::::::::::::::::::::::::::::::::::::::::::::::::::::::::::::::::::::::::::::::::::::::::::::::::::::::::::::[<:",
"}~}}}}}}}}}}}}}}}}}}}}}}}}}}}}}}}}}}}}}}}}}}}}}}}}}}}}}}}}}}}}}}}}}}}}}}}}}}}}}}}}}}}}}}}}}}}}}}}}}}}}}}}}}}}}}}}}}}}}}}}}}}}}}}}}}}}}}}}}}}}}}}}}}}}}}}}}}}}}}}}}}}}}}}}}}}}}}}}}}}}}}}}}}}}}}}}}}}}}}}}}}}}}}}}}}}}}}}}}}}}}}}}}}}}}}}}}}}}}}}}}}}}}}}}}}}}}}}}}}}}}}}}}}}}}}}}}}}}}}}}}}}}}}}}}}}}}}}}}~}",
"|~||||||||||||||||||||||||||||||||||||||||||||||||||||||||||||||||||||||||||||||||||||||||||||||||||||||||||||||||||||||||||||||||||||||||||||||||||||||||||||||||||||||||||||||||||||||||||||||||||||||||||||||||||||||||||||||||||||||||||||||||||||||||||||||||||||||||||||||||||||||||||||||||||||||||~|",
"1~11111111111111111111111111111111111111111111111111111111111111111111111111111111111111111111111111111111111111111111111111111111111111111111111111111111111111111111111111111111111111111111111111111111111111111111111111111111111111111111111111111111111111111111111111111111111111111111111111111111~1",
"2~22222222222222222222222222222222222222222222222222222222222222222222222222222222222222222222222222222222222222222222222222222222222222222222222222222222222222222222222222222222222222222222222222222222222222222222222222222222222222222222222222222222222222222222222222222222222222222222222222222222~2",
"3~33333333333333333333333333333333333333333333333333333333333333333333333333333333333333333333333333333333333333333333333333333333333333333333333333333333333333333333333333333333333333333333333333333333333333333333333333333333333333333333333333333333333333333333333333333333333333333333333333333333~3",
"4~44444444444444444444444444444444444444444444444444444444444444444444444444444444444444444444444444444444444444444444444444444444444444444444444444444444444444444444444444444444444444444444444444444444444444444444444444444444444444444444444444444444444444444444444444444444444444444444444444444444~4",
"4~44444444444444444444444444444444444444444444444444444444444444444444444444444444444444444444444444444444444444444444444444444444444444444444444444444444444444444444444444444444444444444444444444444444444444444444444444444444444444444444444444444444444444444444444444444444444444444444444444444444~4",
"4~44444444444444444444444444444444444444444444444444444444444444444444444444444444444444444444444444444444444444444444444444444444444444444444444444444444444444444444444444444444444444444444444444444444444444444444444444444444444444444444444444444444444444444444444444444444444444444444444444444444~4",
"4~44444444444444444444444444444444444444444444444444444444444444444444444444444444444444444444444444444444444444444444444444444444444444444444444444444444444444444444444444444444444444444444444444444444444444444444444444444444444444444444444444444444444444444444444444444444444444444444444444444444~4",
"454444444444444444444444444444444444444444444444444444444444444444444444444444444444444444444444444444444444444444444444444444444444444444444444444444444444444444444444444444444444444444444444444444444444444444444444444444444444444444444444444444444444444444444444444444444444444444444444444444444454",
"454444444444444444444444444444444444444444444444444444444444444444444444444444444444444444444444444444444444444444444444444444444444444444444444444444444444444444444444444444444444444444444444444444444444444444444444444444444444444444444444444444444444444444444444444444444444444444444444444444444454",
"454444444444444444444444444444444444444444444444444444444444444444444444444444444444444444444444444444444444444444444444444444444444444444444444444444444444444444444444444444444444444444444444444444444444444444444444444444444444444444444444444444444444444444444444444444444444444444444444444444444454",
"454444444444444444444444444444444444444444444444444444444444444444444444444444444444444444444444444444444444444444444444444444444444444444444444444444444444444444444444444444444444444444444444444444444444444444444444444444444444444444444444444444444444444444444444444444444444444444444444444444444454",
"454444444444444444444444444444444444444444444444444444444444444444444444444444444444444444444444444444444444444444444444444444444444444444444444444444444444444444444444444444444444444444444444444444444444444444444444444444444444444444444444444444444444444444444444444444444444444444444444444444444454",
"464444444444444444444444444444444444444444444444444444444444444444444444444444444444444444444444444444444444444444444444444444444444444444444444444444444444444444444444444444444444444444444444444444444444444444444444444444444444444444444444444444444444444444444444444444444444444444444444444444444464",
"464444444444444444444444444444444444444444444444444444444444444444444444444444444444444444444444444444444444444444444444444444444444444444444444444444444444444444444444444444444444444444444444444444444444444444444444444444444444444444444444444444444444444444444444444444444444444444444444444444444464",
"464444444444444444444444444444444444444444444444444444444444444444444444444444444444444444444444444444444444444444444444444444444444444444444444444444444444444444444444444444444444444444444444444444444444444444444444444444444444444444444444444444444444444444444444444444444444444444444444444444444464",
"464444444444444444444444444444444444444444444444444444444444444444444444444444444444444444444444444444444444444444444444444444444444444444444444444444444444444444444444444444444444444444444444444444444444444444444444444444444444444444444444444444444444444444444444444444444444444444444444444444444464",
"464444444444444444444444444444444444444444444444444444444444444444444444444444444444444444444444444444444444444444444444444444444444444444444444444444444444444444444444444444444444444444444444444444444444444444444444444444444444444444444444444444444444444444444444444444444444444444444444444444444464",
"474444444444444444444444444444444444444444444444444444444444444444444444444444444444444444444444444444444444444444444444444444444444444444444444444444444444444444444444444444444444444444444444444444444444444444444444444444444444444444444444444444444444444444444444444444444444444444444444444444444474",
"488444444444444444444444444444444444444444444444444444444444444444444444444444444444444444444444444444444444444444444444444444444444444444444444444444444444444444444444444444444444444444444444444444444444444444444444444444444444444444444444444444444444444444444444444444444444444444444444444444444884",
"448844444444444444444444444444444444444444444444444444444444444444444444444444444444444444444444444444444444444444444444444444444444444444444444444444444444444444444444444444444444444444444444444444444444444444444444444444444444444444444444444444444444444444444444444444444444444444444444444444448844",
"444867965066506650665066506650606665066506650650665066506650666506650665066506650665060666506650665066506650665060666506650665066506650665060506650665066506066650665066506650665066506066650665066506650665066506065066506650665066506650606665066506650665066506650606665066506650665066506650606659768444",
"444444444444444444444444444444444444444444444444444444444444444444444444444444444444444444444444444444444444444444444444444444444444444444444444444444444444444444444444444444444444444444444444444444444444444444444444444444444444444444444444444444444444444444444444444444444444444444444444444444444444",
"444444444444444444444444444444444444444444444444444444444444444444444444444444444444444444444444444444444444444444444444444444444444444444444444444444444444444444444444444444444444444444444444444444444444444444444444444444444444444444444444444444444444444444444444444444444444444444444444444444444444"};
