/* XPM */
static char * panel_bg_xpm[] = {
"1 30 12 1",
" 	c None",
".	c #717171",
"+	c #999999",
"@	c #8D8D8D",
"#	c #848484",
"$	c #7B7B7B",
"%	c #737373",
"&	c #686868",
"*	c #5D5D5D",
"=	c #4F4E4F",
"-	c #070707",
";	c #0A0A0A",
".",
"+",
"@",
"#",
"$",
"%",
"&",
"*",
"=",
"-",
";",
";",
";",
";",
";",
";",
";",
";",
";",
";",
";",
";",
";",
";",
";",
";",
";",
";",
";",
";"};
