/* XPM */
static char *toolbuttonbg[] = {
/* columns rows colors chars-per-pixel */
"1 30 10 1",
"  c #070707070707",
". c gray4",
"X c #4F4F4E4E4F4F",
"o c #5D5D5D5D5D5D",
"O c #686868686868",
"+ c gray45",
"@ c #7B7B7B7B7B7B",
"# c #848484848484",
"$ c #8D8D8D8D8D8D",
"% c gray60",
/* pixels */
"+",
"%",
"$",
"#",
"@",
"+",
"O",
"o",
"X",
" ",
".",
".",
".",
".",
".",
".",
".",
".",
".",
".",
".",
".",
".",
".",
".",
".",
".",
".",
".",
"."
};
