/* XPM */
static char * start1_xpm[] = {
"74 22 468 2",
"  	c None",
". 	c #003684",
"+ 	c #083773",
"@ 	c #17345A",
"# 	c #2A313A",
"$ 	c #7A7877",
"% 	c #D6D2CC",
"& 	c #ECECEC",
"* 	c #EEEEEE",
"= 	c #EDEDED",
"- 	c #EBEBEB",
"; 	c #003B86",
"> 	c #013B85",
", 	c #023C85",
"' 	c #264073",
") 	c #7C4E49",
"! 	c #CE5B21",
"~ 	c #F06010",
"{ 	c #F2600F",
"] 	c #D75D1C",
"^ 	c #874C43",
"/ 	c #732146",
"( 	c #BC031C",
"_ 	c #C90016",
": 	c #BB041D",
"< 	c #9D0C2E",
"[ 	c #562156",
"} 	c #073882",
"| 	c #093B74",
"1 	c #153961",
"2 	c #454E5A",
"3 	c #A4A19E",
"4 	c #EAEAEA",
"5 	c #024284",
"6 	c #004289",
"7 	c #0A4680",
"8 	c #566961",
"9 	c #BA9533",
"0 	c #E7AB1F",
"a 	c #ECAC1D",
"b 	c #8F8448",
"c 	c #90593F",
"d 	c #FF6209",
"e 	c #FF6309",
"f 	c #FF6409",
"g 	c #DC6719",
"h 	c #6A464F",
"i 	c #A30C2B",
"j 	c #432C62",
"k 	c #143455",
"l 	c #626A6C",
"m 	c #C2BEB8",
"n 	c #E7E7E7",
"o 	c #E9E9E9",
"p 	c #E8E8E8",
"q 	c #004B8E",
"r 	c #7B7E53",
"s 	c #FFB515",
"t 	c #B49739",
"u 	c #985D3F",
"v 	c #FC610A",
"w 	c #FE6209",
"x 	c #F4680D",
"y 	c #6C4B53",
"z 	c #AA0A27",
"A 	c #CA0016",
"B 	c #652551",
"C 	c #094479",
"D 	c #283C4C",
"E 	c #98958F",
"F 	c #E3E3E3",
"G 	c #E6E6E6",
"H 	c #E5E5E5",
"I 	c #005190",
"J 	c #E8AB20",
"K 	c #FEB415",
"L 	c #F8B418",
"M 	c #9D8242",
"N 	c #DF5E19",
"O 	c #E96513",
"P 	c #6E3950",
"Q 	c #C1021A",
"R 	c #542F5C",
"S 	c #E0E0E0",
"T 	c #E2E2E2",
"U 	c #E1E1E1",
"V 	c #DFDFDF",
"W 	c #005594",
"X 	c #F9B217",
"Y 	c #FFB815",
"Z 	c #FFBD15",
"` 	c #FFBB15",
" .	c #FFB615",
"..	c #BE9B35",
"+.	c #4F5B69",
"@.	c #405871",
"#.	c #3E5872",
"$.	c #635A5E",
"%.	c #C15F2A",
"&.	c #D6601F",
"*.	c #965C41",
"=.	c #792348",
"-.	c #AC0C27",
";.	c #1A4A83",
">.	c #005C97",
",.	c #DCDCDC",
"'.	c #DEDEDE",
").	c #DDDDDD",
"!.	c #DBDBDB",
"~.	c #FFB415",
"{.	c #DAAD27",
"].	c #6C755D",
"^.	c #63545D",
"/.	c #6E6A5A",
"(.	c #A19244",
"_.	c #EAAE1F",
":.	c #A59642",
"<.	c #035D95",
"[.	c #015C96",
"}.	c #6F5F59",
"|.	c #795F53",
"1.	c #84604D",
"2.	c #81604F",
"3.	c #324E78",
"4.	c #533561",
"5.	c #0B578F",
"6.	c #00639A",
"7.	c #0D4C70",
"8.	c #556569",
"9.	c #D8D8D8",
"0.	c #DADADA",
"a.	c #D9D9D9",
"b.	c #BFA436",
"c.	c #5E425E",
"d.	c #A1112C",
"e.	c #862841",
"f.	c #61445A",
"g.	c #375676",
"h.	c #11648F",
"i.	c #036498",
"j.	c #A7633B",
"k.	c #FF6509",
"l.	c #A75436",
"m.	c #B60821",
"n.	c #3D4471",
"o.	c #056EA2",
"p.	c #77DAFF",
"q.	c #D2FFFF",
"r.	c #FAFDFD",
"s.	c #E4FFFF",
"t.	c #5DC0F7",
"u.	c #278AC1",
"v.	c #51B4EB",
"w.	c #298CC3",
"x.	c #4EB1E8",
"y.	c #D4D4D4",
"z.	c #D6D6D6",
"A.	c #D3D3D3",
"B.	c #00699D",
"C.	c #474B6E",
"D.	c #BD041C",
"E.	c #81484A",
"F.	c #BC6E29",
"G.	c #FB6B02",
"H.	c #FF6700",
"I.	c #DC6515",
"J.	c #4D676D",
"K.	c #CB6427",
"L.	c #A86139",
"M.	c #9F1532",
"N.	c #832445",
"O.	c #98FFFF",
"P.	c #69D2FF",
"Q.	c #2D96CA",
"R.	c #3AA3D7",
"S.	c #124B65",
"T.	c #5E6367",
"U.	c #D0D0D0",
"V.	c #D2D2D2",
"W.	c #0077A3",
"X.	c #AC1029",
"Y.	c #8A2C41",
"Z.	c #C07228",
"`.	c #FF6600",
" +	c #F56606",
".+	c #83674C",
"++	c #8F6D47",
"@+	c #D66619",
"#+	c #2D7486",
"$+	c #347083",
"%+	c #B36535",
"&+	c #A56C3F",
"*+	c #7A404F",
"=+	c #BB071E",
"-+	c #BC061E",
";+	c #F4FFFF",
">+	c #EAFFFF",
",+	c #0878A8",
"'+	c #ACFFFF",
")+	c #DBFFFF",
"!+	c #45B5E5",
"~+	c #CBFFFF",
"{+	c #81F2FF",
"]+	c #A3FFFF",
"^+	c #0070A0",
"/+	c #1A4557",
"(+	c #74746C",
"_+	c #CCCCCC",
":+	c #CFCFCF",
"<+	c #CECECE",
"[+	c #CDCDCD",
"}+	c #C40218",
"|+	c #705958",
"1+	c #FC6B01",
"2+	c #736F59",
"3+	c #0476A0",
"4+	c #08769D",
"5+	c #8A6D4A",
"6+	c #687060",
"7+	c #0177A2",
"8+	c #208291",
"9+	c #147296",
"0+	c #A01E33",
"a+	c #BF051C",
"b+	c #77EFFF",
"c+	c #1289B5",
"d+	c #60D8FF",
"e+	c #1D94C0",
"f+	c #52CDF6",
"g+	c #33AAD6",
"h+	c #007EA6",
"i+	c #239AC6",
"j+	c #5DD5FF",
"k+	c #1A656C",
"l+	c #2F4950",
"m+	c #8D8B7B",
"n+	c #C8C8C8",
"o+	c #CBCBCB",
"p+	c #CACACA",
"q+	c #C9C9C9",
"r+	c #C30219",
"s+	c #6D625C",
"t+	c #FF6B00",
"u+	c #6F735D",
"v+	c #057DA2",
"w+	c #87714E",
"x+	c #6D735F",
"y+	c #047FA3",
"z+	c #3F8B82",
"A+	c #929D52",
"B+	c #EAB020",
"C+	c #D4AF2D",
"D+	c #137298",
"E+	c #25A6CC",
"F+	c #B8FFFF",
"G+	c #4ECCF4",
"H+	c #77F5FF",
"I+	c #29A7CF",
"J+	c #8DFFFF",
"K+	c #0085A9",
"L+	c #0387A4",
"M+	c #1B4A5A",
"N+	c #C4C4C4",
"O+	c #C6C6C6",
"P+	c #C3C3C3",
"Q+	c #BA0920",
"R+	c #764654",
"S+	c #D3721D",
"T+	c #F86604",
"U+	c #72775D",
"V+	c #7B7657",
"W+	c #E46911",
"X+	c #307C89",
"Y+	c #5F9872",
"Z+	c #F1B31D",
"`+	c #4D9A7C",
" @	c #2A6889",
".@	c #C50519",
"+@	c #7D3D4F",
"@@	c #B60E23",
"#@	c #C50218",
"$@	c #29AED2",
"%@	c #0C91B5",
"&@	c #008CAB",
"*@	c #27ACD0",
"=@	c #155D71",
"-@	c #435253",
";@	c #C0C0C0",
">@	c #C2C2C2",
",@	c #C1C1C1",
"'@	c #7A364F",
")@	c #B40F25",
"!@	c #7C6A55",
"~@	c #D97119",
"{@	c #FA6A03",
"]@	c #FF6900",
"^@	c #F36708",
"/@	c #747A5D",
"(@	c #1D9099",
"_@	c #80A15F",
":@	c #D5AE2D",
"<@	c #BAAA3D",
"[@	c #038DA9",
"}@	c #8D2942",
"|@	c #903340",
"1@	c #61AF71",
"2@	c #A02C36",
"3@	c #94243C",
"4@	c #69F5FF",
"5@	c #7CFFFF",
"6@	c #33C6E2",
"7@	c #264850",
"8@	c #78735D",
"9@	c #BFBFBF",
"0@	c #BDBDBD",
"a@	c #BCBCBC",
"b@	c #BBBBBB",
"c@	c #0093AE",
"d@	c #2B738D",
"e@	c #A31C32",
"f@	c #834E4D",
"g@	c #8C664B",
"h@	c #846D51",
"i@	c #2C908F",
"j@	c #0092AD",
"k@	c #279896",
"l@	c #A7A949",
"m@	c #A4AE4B",
"n@	c #288B92",
"o@	c #86414B",
"p@	c #8C9355",
"q@	c #86985A",
"r@	c #B50E24",
"s@	c #4B5B74",
"t@	c #55E8FF",
"u@	c #2DC0DC",
"v@	c #86FFFF",
"w@	c #77FFFF",
"x@	c #29BCD8",
"y@	c #089BB6",
"z@	c #078299",
"A@	c #31484B",
"B@	c #918D79",
"C@	c #BABABA",
"D@	c #B8B8B8",
"E@	c #009EB4",
"F@	c #029CB2",
"G@	c #A21C33",
"H@	c #BF061C",
"I@	c #B60D23",
"J@	c #B40E24",
"K@	c #525C72",
"L@	c #4DA983",
"M@	c #0593AB",
"N@	c #0493AB",
"O@	c #85AC61",
"P@	c #82A760",
"Q@	c #8DB55C",
"R@	c #90B257",
"S@	c #769C68",
"T@	c #912D40",
"U@	c #B21127",
"V@	c #18819C",
"W@	c #18B1C9",
"X@	c #C1FFFF",
"Y@	c #5DF6FF",
"Z@	c #94FFFF",
"`@	c #08879A",
" #	c #B6B6B6",
".#	c #B5B5B5",
"+#	c #B4B4B4",
"@#	c #35748A",
"##	c #C70117",
"$#	c #8D2E44",
"%#	c #7A9863",
"&#	c #A4B54D",
"*#	c #7AAC67",
"=#	c #A2B54E",
"-#	c #7E9660",
";#	c #8A2F45",
">#	c #883147",
",#	c #873248",
"'#	c #5B566C",
")#	c #019CB2",
"!#	c #00A5B6",
"~#	c #079BA6",
"{#	c #767162",
"]#	c #B2B2B2",
"^#	c #B1B1B1",
"/#	c #847E6B",
"(#	c #AFAFAF",
"_#	c #B3B3B3",
":#	c #00A6B8",
"<#	c #00A5B7",
"[#	c #04A2B4",
"}#	c #6A4E62",
"|#	c #C80016",
"1#	c #A11E33",
"2#	c #736160",
"3#	c #857C59",
"4#	c #76615E",
"5#	c #9F2035",
"6#	c #C90116",
"7#	c #8A3448",
"8#	c #0D9BAD",
"9#	c #00BEC3",
"0#	c #4B5852",
"a#	c #7F7B67",
"b#	c #8E8974",
"c#	c #88856E",
"d#	c #5E645C",
"e#	c #455853",
"f#	c #575759",
"g#	c #ACACAC",
"h#	c #AEAEAE",
"i#	c #ADADAD",
"j#	c #00ADBC",
"k#	c #099EB0",
"l#	c #724B5E",
"m#	c #C60117",
"n#	c #C30117",
"o#	c #8A3348",
"p#	c #159AAA",
"q#	c #255F62",
"r#	c #3A4642",
"s#	c #454641",
"t#	c #275A5C",
"u#	c #19767B",
"v#	c #504F47",
"w#	c #A8A8A7",
"x#	c #AAAAAA",
"y#	c #A9A8A6",
"z#	c #A8A7A5",
"A#	c #A7A6A4",
"B#	c #06A7B6",
"C#	c #4A7783",
"D#	c #A51E33",
"E#	c #B31529",
"F#	c #5C5D6F",
"G#	c #0DB1B7",
"H#	c #00B3BF",
"I#	c #089CA2",
"J#	c #128589",
"K#	c #177B7E",
"L#	c #03B0B4",
"M#	c #0D8C92",
"N#	c #A4A4A4",
"O#	c #A7A7A7",
"P#	c #A6A6A6",
"Q#	c #A5A5A5",
"R#	c #12ACB3",
"S#	c #3C848E",
"T#	c #834151",
"U#	c #BD0B20",
"V#	c #C4041A",
"W#	c #913445",
"X#	c #4A7883",
"Y#	c #18A7AE",
"Z#	c #01BCC1",
"`#	c #00C3C4",
" $	c #04B5B6",
".$	c #0D9398",
"+$	c #9F9F9F",
"@$	c #A2A2A2",
"#$	c #A1A1A1",
"$$	c #A0A0A0",
"%$	c #9D9D9D",
"&$	c #9E9E9E",
". . . . . . . . . . . . . . . . . . . . . . . . . . . . . . . . . . . . . . . . . . . . . . . . . . . . . . . . . + @ # $ % & & * = & & - * = & & - ",
"; ; ; ; > ; ; , ; ; ' ) ! ~ { ] ^ / ( _ : < [ } ; ; ; ; ; ; ; ; ; ; ; ; ; ; ; ; ; ; ; ; ; ; ; ; ; ; ; ; ; ; ; ; ; ; | 1 2 3 - - = & - - 4 = & - - 4 ",
"5 6 5 6 7 8 9 0 a b c d e e e e f g h i _ _ _ j 5 6 5 6 6 ; 6 6 ; 6 ; 6 ; 6 6 6 6 6 6 6 ; 6 ; 6 6 6 6 6 6 ; 6 6 ; 5 ; 5 k l m n 4 o p n n 4 o p n n ",
"q q q q r s s s s s t u v e e w w d x y z A A B q q q q 6 q q q q q q q q q 6 q q 6 q q q q q q 6 q 6 q q q q q q q q q C D E F G H H F F G H H F F ",
"I I I I J s K s s K L M N e e e e w e O P Q A R I I I I I I I I q I I I I q I I I I I I I I I I I q I I I I q I q I I I I k $ S T U U S V T U U S V ",
"W W W W X s Y Z ` s  ...+.@.#.$.%.e e &.*.=.-.;.W W W W W W W W W W W W W W W W W W W W W W W W W W W W W W W W W W W >.>.1 l ,.'.'.).,.!.'.'.).,.!.",
">.>.>.>.~.{.].^./.(._.:.<.>.>.>.[.}.|.1.2.3.4.5.>.>.>.>.>.>.>.>.>.>.>.>.>.>.>.>.>.>.>.>.>.>.>.>.>.>.>.>.>.>.>.>.>.>.>.>.6.7.8.9.!.0.a.9.9.!.0.a.9.9.",
"6.6.6.6.b.c.d.e.f.g.h.i.6.6.6.6.6.6.j.e k.l.m.n.6.6.6.6.>.>.o.p.q.r.r.s.t.6.u.v.>.6.6.6.6.6.>.>.6.6.6.6.6.6.w.x.6.6.6.6.6.7.8.y.z.z.y.y.A.z.z.y.y.A.",
"B.B.B.B.C.D.E.F.G.H.I.J.B.B.B.B.B.B.K.e k.L.M.N.B.B.B.B.B.B.O.r.P.Q.R.P.R.B.s.s.B.B.B.B.B.B.B.B.B.B.B.B.o.B.s.s.B.B.B.B.B.S.T.U.V.V.U.U.U.V.V.U.U.U.",
"W.B.W.B.X.Y.Z.`. +.+++@+#+B.W.B.W.B.$+%+&+*+=+-+W.B.W.B.B.W.;+>+,+W.B.B.W.'+r.r.)+B.!+~+;+;+{+W.B.~+;+]+'+'+r.r.q.^+W.^+B./+(+_+:+<+[+_+_+:+<+[+_+_+",
"W.W.W.W.}+|+1+`.2+3+4+5+6+W.W.W.W.7+8+9+0+a+_ A W.W.W.W.W.W.)+r.s.b+c+W.W.d+r.O.e+W.d+f+g+>+r.h+W.r.;+f+i+j+r.O.e+W.W.^+k+l+m+n+o+p+q+n+n+o+p+q+n+n+",
"h+h+h+h+r+s+t+`.u+h+v+w+x+h+y+z+A+B+C+D+_ A _ _ h+h+h+h+h+h+E+F+r.r.;+G+h+H+r.f+h+h+h+h+h+>+s.h+I+r.J+h+h+H+r.f+h+h+K+L+M+T.N+N+O+O+N+N+P+O+O+N+N+P+",
"K+K+K+K+Q+R+S+`.T+U+V+W+X+Y+Z+ .s s `+ @.@+@@@#@K+K+K+K+K+K+K+K+$@O.r.>+K+'+r.E+K+%@J+s.r.r.'+&@j+r.d+&@K+'+r.*@K+K+K+=@-@m+;@;@>@,@;@;@;@>@,@;@;@;@",
"&@&@&@&@'@)@!@~@{@]@^@/@&@(@_@:@s <@[@}@|@1@2@3@&@&@&@&@&@&@&@&@&@&@s.>+&@)+;+&@&@'+r.4@4@r.5@&@J+r.6@&@&@)+;+&@&@&@L+7@8@9@0@a@9@9@0@a@b@9@9@0@a@b@",
"c@c@c@c@d@_ e@f@g@h@i@j@c@c@c@k@l@m@n@o@p@q@r@s@c@c@c@c@c@O.t@u@6@v@r.w@c@r.s.x@c@r.>+6@'+r.5@c@F+r.y@c@c@r.s.x@c@c@z@A@B@b@C@D@b@b@C@D@D@b@b@C@D@D@",
"E@c@E@c@F@G@_ H@I@J@K@c@L@M@E@N@O@P@Q@R@S@T@U@V@E@c@E@c@W@q.;+r.;+X@Y@c@E@]+r.F+E@Z@;+s.F+r.~+E@s.q.c@E@c@]+r.F+E@E@`@A@B@ #.#+# # #.#+#+# # #.#+#+#",
"E@E@E@E@E@@#_ _ _ _ ##$#%#&#*#=#-#;#>#,#r@A '#)#E@E@E@E@!#E@E@E@y@E@E@E@E@E@E@E@E@E@E@E@E@!#E@E@E@E@E@!#E@E@E@E@E@E@~#l+{#]#]#^#B@/#B@^#(#_#]#]#^#(#",
":#:#:#:#<#[#}#A _ _ |#_ 1#2#3#4#5#6#_ _ A 7#8#:#:#:#:#:#:#E@y@9#E@:#:#:#E@:#:#E@9#:#!#:#:#:#:#:#:#:#:#:#:#:#:#:#:#:#!#k+0#a#b#c#d#e#f#c#g#(#h#h#i#g#",
":#j#:#j#:#j#k#l#m#_ _ |#A |#n#|#A ##_ A o#p#:#j#:#j#:#j#j#E@9#E@9#j#9#E@E@y@9#9#E@j#j#j#j#j#:#j#j#j#:#j#j#:#:#j#:#9#:#~#q#r#s#r#t#u#q#v#w#x#x#y#z#A#",
"9#j#9#j#9#j#9#B#C#D#_ A _ _ _ _ _ A E#F#G#j#9#j#9#j#9#j#9#9#j#9#j#9#j#9#9#9#:#9#9#H#H#H#H#9#H#9#j#9#j#9#9#9#j#9#j#j#9#H#I#J#K#J#I#L#M#s#N#O#O#P#Q#N#",
"9#9#9#9#9#9#9#9#9#R#S#T#U#_ _ V#W#X#Y#Z#9#9#9#9#9#9#9#9#9#9#9#9#9#9#9#9#9#9#9#9#9#9#9#9#9#9#H#9#9#9#9#9#9#9#9#9#9#9#9#9#`# $ $ $`#9#.$r#+$@$@$#$$$+$",
"9#9#9#9#9#9#9#9#9#9#9#9#9#9#9#9#9#9#9#9#9#9#9#9#9#9#9#9#9#9#9#9#9#9#9#9#9#9#9#9#9#9#`#9#9#`#9#9#`#9#9#9#9#9#9#9#9#`#`#`#`#9#`#`#`# $K## %$$$+$&$&$%$"};
