/* XPM */
static char * taskbuttonbg_xpm[] = {
"5 30 91 1",
" 	c None",
".	c #EEEEEE",
"+	c #EDEDED",
"@	c #ECECEC",
"#	c #EBEBEB",
"$	c #EAEAEA",
"%	c #E9E9E9",
"&	c #E8E8E8",
"*	c #E7E7E7",
"=	c #E5E5E5",
"-	c #E4E4E4",
";	c #E3E3E3",
">	c #E2E2E2",
",	c #E1E1E1",
"'	c #E0E0E0",
")	c #DFDFDF",
"!	c #DEDEDE",
"~	c #DDDDDD",
"{	c #DCDCDC",
"]	c #DBDBDB",
"^	c #DADADA",
"/	c #D9D9D9",
"(	c #D8D8D8",
"_	c #D7D7D7",
":	c #D5D5D5",
"<	c #D4D4D4",
"[	c #D3D3D3",
"}	c #D2D2D2",
"|	c #D1D1D1",
"1	c #D0D0D0",
"2	c #CECECE",
"3	c #CDCDCD",
"4	c #CCCCCC",
"5	c #CACACA",
"6	c #C9C9C9",
"7	c #C8C8C8",
"8	c #C7C7C7",
"9	c #C6C6C6",
"0	c #C4C4C4",
"a	c #C3C3C3",
"b	c #C2C2C2",
"c	c #C1C1C1",
"d	c #C0C0C0",
"e	c #BEBEBE",
"f	c #BDBDBD",
"g	c #BCBCBC",
"h	c #BBBBBB",
"i	c #B9B9B9",
"j	c #B8B8B8",
"k	c #B7B7B7",
"l	c #B6B6B6",
"m	c #B5B5B5",
"n	c #B4B4B4",
"o	c #B3B3B3",
"p	c #B2B2B2",
"q	c #B1B1B1",
"r	c #B0B0B0",
"s	c #AEAEAE",
"t	c #ADADAD",
"u	c #ACACAC",
"v	c #ABABAB",
"w	c #AAAAAA",
"x	c #A9A9A9",
"y	c #A8A8A8",
"z	c #A7A7A7",
"A	c #A6A6A6",
"B	c #A5A5A5",
"C	c #A4A4A4",
"D	c #A3A3A3",
"E	c #A2A2A2",
"F	c #A1A1A1",
"G	c #A0A0A0",
"H	c #9F9F9F",
"I	c #9E9E9E",
"J	c #9D9D9D",
"K	c #9C9C9C",
"L	c #9B9B9B",
"M	c #999999",
"N	c #989898",
"O	c #979797",
"P	c #969696",
"Q	c #959595",
"R	c #949494",
"S	c #939393",
"T	c #929292",
"U	c #919191",
"V	c #909090",
"W	c #8F8F8F",
"X	c #8E8E8E",
"Y	c #8D8D8D",
"Z	c #8C8C8C",
"..+@#",
".+@@#",
"@#$%%",
"&&*==",
"=--;>",
",,'))",
"!!~{]",
"]^/((",
"__::<",
"[[}}|",
"|1222",
"33455",
"56788",
"9900a",
"bcddd",
"ddefg",
"gghii",
"jjkll",
"mmnop",
"pqqrs",
"sstuu",
"vvwxy",
"zzABC",
"DDEFG",
"FGHHI",
"IJKKL",
"MMNNO",
"PPQRS",
"SSTUV",
"WWXYZ"};
