/* XPM */
static char * app_32x32_xpm[] = {
"32 32 95 2",
"  	c None",
". 	c #6B6B6B",
"+ 	c #D9D9D9",
"@ 	c #E9E9E9",
"# 	c #E7E7E7",
"$ 	c #E6E6E6",
"% 	c #E5E5E5",
"& 	c #D1D1D1",
"* 	c #CBCBCB",
"= 	c #CFCFCF",
"- 	c #D0D0D0",
"; 	c #E0E0E0",
"> 	c #C8C8C8",
", 	c #424242",
"' 	c #1C1C1C",
") 	c #484848",
"! 	c #E2E2E2",
"~ 	c #B9B9B9",
"{ 	c #F4F4F4",
"] 	c #787878",
"^ 	c #1F1F1F",
"/ 	c #414141",
"( 	c #525252",
"_ 	c #585858",
": 	c #000000",
"< 	c #747474",
"[ 	c #DDDDDD",
"} 	c #9F9F9F",
"| 	c #0C0C0C",
"1 	c #D8D8D8",
"2 	c #DBDBDB",
"3 	c #2F2F2F",
"4 	c #DFDFDF",
"5 	c #D3D3D3",
"6 	c #D2D2D2",
"7 	c #CDCDCD",
"8 	c #212121",
"9 	c #5E5E5E",
"0 	c #D5D5D5",
"a 	c #686868",
"b 	c #0A0A0A",
"c 	c #A7A7A7",
"d 	c #CACACA",
"e 	c #CCCCCC",
"f 	c #808080",
"g 	c #C5C5C5",
"h 	c #C2C2C2",
"i 	c #313131",
"j 	c #454545",
"k 	c #C4C4C4",
"l 	c #C1C1C1",
"m 	c #B8B8B8",
"n 	c #ACACAC",
"o 	c #B0B0B0",
"p 	c #BCBCBC",
"q 	c #BBBBBB",
"r 	c #B2B2B2",
"s 	c #7D7D7D",
"t 	c #161616",
"u 	c #BEBEBE",
"v 	c #B6B6B6",
"w 	c #B3B3B3",
"x 	c #9B9B9B",
"y 	c #404040",
"z 	c #B1B1B1",
"A 	c #AAAAAA",
"B 	c #A5A5A5",
"C 	c #060606",
"D 	c #888888",
"E 	c #ADADAD",
"F 	c #A6A6A6",
"G 	c #191919",
"H 	c #A8A8A8",
"I 	c #343434",
"J 	c #A4A4A4",
"K 	c #A3A3A3",
"L 	c #9E9E9E",
"M 	c #848484",
"N 	c #7A7A7A",
"O 	c #929292",
"P 	c #999999",
"Q 	c #656565",
"R 	c #9C9C9C",
"S 	c #989898",
"T 	c #979797",
"U 	c #878787",
"V 	c #949494",
"W 	c #9A9A9A",
"X 	c #909090",
"Y 	c #1D1D1D",
"Z 	c #181818",
"` 	c #0E0E0E",
" .	c #0D0D0D",
"..	c #242424",
"+.	c #040404",
"                                                                ",
"                                                                ",
"                                                                ",
"                                                                ",
"                                                                ",
"                                                                ",
"                                                                ",
"                                                                ",
"            . + @ # $ $ % & *       = - # $ @ ; > ,             ",
"              ' ) ! $ # !               ~ { ] ^ /               ",
"                  ( # ! !               $ _ :                   ",
"                  : < ! [ +           ; } :                     ",
"                    | ~ + + 1       2 > :                       ",
"                      3 4 5 6       7 8                         ",
"                      : 9 & = 7   0 a                           ",
"                        b c d d e f :                           ",
"                          ' g g h i                             ",
"                            j k l m                             ",
"                            n o p q r                           ",
"                          ~ s t u v v                           ",
"                        w x :   y r z A                         ",
"                        B t     C D E E F                       ",
"                      n j         G H H F                       ",
"                    B (             I J K L                     ",
"                  L M C               N L } O                   ",
"                P x s                 Q R P P S                 ",
"            T O D U T V V         V V W U D D U X T             ",
"            Y Z `  .8                 .. .` `  .t +.            ",
"          : : : : : : : :           : : : : : : : : :           ",
"                                                                ",
"                                                                ",
"                                                                "};
