/* XPM */
static char * folder_24x24_xpm[] = {
"24 24 59 1",
" 	c None",
".	c #3C3C3C",
"+	c #D2D2D2",
"@	c #D6D6D6",
"#	c #D8D8D8",
"$	c #D5D5D5",
"%	c #CFCFCF",
"&	c #E3E3E3",
"*	c #E4E4E4",
"=	c #CCCCCC",
"-	c #DDDDDD",
";	c #DCDCDC",
">	c #D4D4D4",
",	c #5E5E5E",
"'	c #686868",
")	c #6A6A6A",
"!	c #C6C6C6",
"~	c #D9D9D9",
"{	c #D7D7D7",
"]	c #BFBFBF",
"^	c #D0D0D0",
"/	c #C2C2C2",
"(	c #BABABA",
"_	c #CACACA",
":	c #C9C9C9",
"<	c #BBBBBB",
"[	c #B0B0B0",
"}	c #C3C3C3",
"|	c #B4B4B4",
"1	c #AAAAAA",
"2	c #BDBDBD",
"3	c #BCBCBC",
"4	c #AFAFAF",
"5	c #A5A5A5",
"6	c #B7B7B7",
"7	c #B6B6B6",
"8	c #A7A7A7",
"9	c #9F9F9F",
"0	c #A1A1A1",
"a	c #989898",
"b	c #A9A9A9",
"c	c #9A9A9A",
"d	c #929292",
"e	c #A4A4A4",
"f	c #A3A3A3",
"g	c #939393",
"h	c #898989",
"i	c #9D9D9D",
"j	c #8C8C8C",
"k	c #838383",
"l	c #979797",
"m	c #858585",
"n	c #7C7C7C",
"o	c #919191",
"p	c #909090",
"q	c #7B7B7B",
"r	c #242424",
"s	c #7D7D7D",
"t	c #7A7A7A",
"                        ",
"                        ",
"                        ",
" .+@@@@@@@#$            ",
" %&&&&&&&&&*            ",
" =--------;;>,'''''')   ",
" !@@@@@@@@@@@~~~~~~~#{  ",
" ]^^^^^^^^^^^^^^^^^%%%/ ",
" (__::::::::::::::::::< ",
" [}}}}}}}}}}}}}}}}}}}}| ",
" 1222222222222222222234 ",
" 5666666667777777777778 ",
" 9[[[[[[[[[[[[[[[[[[[[0 ",
" a11111111111111111bbbc ",
" defeeeeeeeeeeeeffffffg ",
" hiiiiiiiiiiiiiiiiiiiij ",
" kllllllllllllllllllllm ",
" noooooooppppppppppppoq ",
" rnsssssssssssssssssst  ",
"                        ",
"                        ",
"                        ",
"                        ",
"                        "};
