/* XPM */
static char * closeO_xpm[] = {
"16 38 206 2",
"  	c None",
". 	c #73737D",
"+ 	c #616165",
"@ 	c #F6F2EE",
"# 	c #F0ECE6",
"$ 	c #C2BFBA",
"% 	c #67652D",
"& 	c #959187",
"* 	c #ECE9E2",
"= 	c #CFDEEF",
"- 	c #D1E0EF",
"; 	c #EEEBE4",
"> 	c #D0CBBA",
", 	c #656241",
"' 	c #BCB9B2",
") 	c #E9E4DD",
"! 	c #7E7F41",
"~ 	c #FCFB60",
"{ 	c #ABA42D",
"] 	c #3942FF",
"^ 	c #4343FF",
"/ 	c #4545FF",
"( 	c #4B4FFF",
"_ 	c #407E82",
": 	c #FBED53",
"< 	c #736429",
"[ 	c #E2DED4",
"} 	c #B7B4AB",
"| 	c #7D7E40",
"1 	c #FCFB72",
"2 	c #FEEF4E",
"3 	c #FBE533",
"4 	c #7E781A",
"5 	c #3939FF",
"6 	c #078DFF",
"7 	c #F7EC6D",
"8 	c #FFD74D",
"9 	c #F4CC2A",
"0 	c #6D5A21",
"a 	c #DCD7CC",
"b 	c #62603C",
"c 	c #FCF550",
"d 	c #FEEA48",
"e 	c #FDE333",
"f 	c #FDE331",
"g 	c #F9DA2D",
"h 	c #00E4F8",
"i 	c #3976FF",
"j 	c #EDE267",
"k 	c #FED558",
"l 	c #FDCE29",
"m 	c #FCCC24",
"n 	c #EEBB20",
"o 	c #4F4017",
"p 	c #D6D1C4",
"q 	c #ADAA9F",
"r 	c #867924",
"s 	c #FDDE2F",
"t 	c #FDD92D",
"u 	c #FDD82B",
"v 	c #E2CD58",
"w 	c #FED360",
"x 	c #FDC929",
"y 	c #FEC220",
"z 	c #F6BC20",
"A 	c #A67E14",
"B 	c #847F70",
"C 	c #4F5BFF",
"D 	c #7A7214",
"E 	c #FECE26",
"F 	c #FDCB33",
"G 	c #FDC429",
"H 	c #FEC222",
"I 	c #F7BC1D",
"J 	c #AB7E11",
"K 	c #4777FF",
"L 	c #C9C5B3",
"M 	c #4D51FF",
"N 	c #0000D2",
"O 	c #847314",
"P 	c #FEBC1E",
"Q 	c #F8B71A",
"R 	c #0017C4",
"S 	c #636AFF",
"T 	c #C2C0AA",
"U 	c #4B4BFF",
"V 	c #3333FF",
"W 	c #C19E25",
"X 	c #FEBB1A",
"Y 	c #E1A015",
"Z 	c #2750FF",
"` 	c #5757FF",
" .	c #BCBAA2",
"..	c #5D65FF",
"+.	c #4747FF",
"@.	c #2C6772",
"#.	c #FDCD65",
"$.	c #FDBA2B",
"%.	c #FEB518",
"&.	c #FCAD16",
"*.	c #F9AB15",
"=.	c #7C5A08",
"-.	c #6F79FF",
";.	c #B6B398",
">.	c #7791FF",
",.	c #204762",
"'.	c #F9CA6F",
").	c #FEB54C",
"!.	c #FEAF18",
"~.	c #FCAD14",
"{.	c #FEA812",
"].	c #FEA210",
"^.	c #F99E0F",
"/.	c #584B06",
"(.	c #7DA2FF",
"_.	c #B0AC90",
":.	c #AFAB8F",
"<.	c #645C40",
"[.	c #EEC162",
"}.	c #FFB555",
"|.	c #FEAB1A",
"1.	c #BC7D0E",
"2.	c #A0690A",
"3.	c #FCA00E",
"4.	c #FD990B",
"5.	c #EE8A08",
"6.	c #594221",
"7.	c #A9A587",
"8.	c #A29F80",
"9.	c #65501D",
"0.	c #FBB039",
"a.	c #F9A411",
"b.	c #BC780C",
"c.	c #2D59FF",
"d.	c #4145FF",
"e.	c #A56407",
"f.	c #FC9708",
"g.	c #FC9208",
"h.	c #E98605",
"i.	c #5A3608",
"j.	c #99977B",
"k.	c #828166",
"l.	c #65440F",
"m.	c #F0980E",
"n.	c #BE740A",
"o.	c #2D5EFF",
"p.	c #5B5BFF",
"q.	c #3D4FFF",
"r.	c #A85C02",
"s.	c #E77E03",
"t.	c #9C9976",
"u.	c #7E7C5E",
"v.	c #51360B",
"w.	c #574C31",
"x.	c #93C3CB",
"y.	c #85ACD1",
"z.	c #86ADD2",
"A.	c #96C8CA",
"B.	c #646048",
"C.	c #472909",
"D.	c #96946E",
"E.	c #CBDAE5",
"F.	c #CDDBE5",
"G.	c #CAC6C0",
"H.	c #0037EA",
"I.	c #0747FF",
"J.	c #0B4AFF",
"K.	c #7F7919",
"L.	c #0044F0",
"M.	c #074DFF",
"N.	c #20506E",
"O.	c #F8CE28",
"P.	c #125D62",
"Q.	c #143F68",
"R.	c #0B56FF",
"S.	c #7E7314",
"T.	c #FDD329",
"U.	c #2D4F6F",
"V.	c #115AFF",
"W.	c #004DEA",
"X.	c #887314",
"Y.	c #0064D4",
"Z.	c #2B80FF",
"`.	c #1165FF",
" +	c #004EDC",
".+	c #00315A",
"++	c #1D7DFF",
"@+	c #2B85FF",
"#+	c #2371FF",
"$+	c #2C7078",
"%+	c #815E09",
"&+	c #0374FF",
"*+	c #3B93FF",
"=+	c #5598EB",
"-+	c #655205",
";+	c #5D8CAD",
">+	c #12585E",
",+	c #004E96",
"'+	c #57340B",
")+	c #AAA78C",
"!+	c #238BFF",
"~+	c #2591FF",
"{+	c #A49F82",
"]+	c #739A9B",
"^+	c #6493A4",
"/+	c #6292A4",
". . . . . . . . . . . . . . . . ",
"+ + + + + + + + + + + + + + + + ",
"@ @ @ @ @ @ @ @ @ @ @ @ @ @ @ @ ",
"# # # $ % & * = - ; > , ' # # # ",
") ) ' ! ~ { ] ^ / ( _ : < ' ) ) ",
"[ } | 1 2 3 4 5 / 6 7 8 9 0 } [ ",
"a b c d e f g h i j k l m n o a ",
"p q r s s t u 9 v w x y z A B p ",
"> > C D u E l E F G H I J K > > ",
"L L M N O m m y y P Q J R S L L ",
"T T M U V W H P X X Y Z ` S T T ",
" . ...+.@.#.$.%.%.&.*.=.+.-. . .",
";.;.>.,.'.).!.&.~.{.].^./.(.;.;.",
"_.:.<.[.}.|.*.1.2.3.3.4.5.6.7.:.",
"7.8.9.0.|.a.b.c.d.e.f.g.h.i.j.7.",
"8.8.k.l.m.n.o.p.p.q.r.s.i.B 8.8.",
"t.t.t.u.v.w.x.y.z.A.B.C.u.t.t.t.",
"D.D.D.D.D.D.D.D.D.D.D.D.D.D.D.D.",
"+ + + + + + + + + + + + + + + + ",
". . . . . . . . . . . . . . . . ",
"+ + + + + + + + + + + + + + + + ",
"@ @ @ @ @ @ @ @ @ @ @ @ @ @ @ @ ",
"# # # $ % & * E.F.; G.B.$ ; ; ; ",
") ) ' | ~ { H.I.I.J._ : < ' ) ) ",
"[ } | 1 2 3 K.L.M.N.7 8 O.0 } [ ",
"a b c d e f g P.Q.j k E m n o a ",
"p q r s s s u 9 v w m y z A B p ",
"> > R.S.u T.l E F G H I J U.> > ",
"L L V.W.X.m m y y P Q J Y.Z.L L ",
"$ $ V.`. +W H P X %.Y .+++@+T $ ",
";. .#+V.$+#.$.%.%.%.*.%+&+*+ . .",
";.;.=+P.'.).%.&.~.{.].^.-+;+;.;.",
"_._.b #.}.|.*.n.2.m.3.f.5.6.:._.",
"8.8.9.0.&.a.b.>+,+r.f.f.h.'+j.)+",
"8.8.B l.m.n..+!+~+,+r.s.i.B {+{+",
"t.t.t.u.v.w.]+^+/+]+<.C.u.t.t.j.",
"D.D.D.D.D.D.D.D.D.D.D.D.D.D.D.D.",
"+ + + + + + + + + + + + + + + + "};
