/* XPM */
static char * maximizeO_xpm[] = {
"16 38 209 2",
"  	c None",
". 	c #73737D",
"+ 	c #616165",
"@ 	c #F6F2EE",
"# 	c #F0ECE6",
"$ 	c #D9D5CF",
"% 	c #88857A",
"& 	c #8C8B50",
"* 	c #949342",
"= 	c #93903F",
"- 	c #8D8A4B",
"; 	c #858277",
"> 	c #E9E4DD",
", 	c #A7A49F",
"' 	c #8C8D43",
") 	c #F4F26A",
"! 	c #FEF96A",
"~ 	c #FEF55A",
"{ 	c #FFF04F",
"] 	c #FFF049",
"^ 	c #F2DA3E",
"/ 	c #85752B",
"( 	c #A5A29B",
"_ 	c #E2DED4",
": 	c #A8A59E",
"< 	c #A6A844",
"[ 	c #FCF762",
"} 	c #F7EC43",
"| 	c #F1E235",
"1 	c #F4DF32",
"2 	c #F9DF2F",
"3 	c #FDDD2F",
"4 	c #FDDE2F",
"5 	c #FCD72C",
"6 	c #99811F",
"7 	c #DCD7CC",
"8 	c #D3CFC3",
"9 	c #7E7F3B",
"0 	c #F7F147",
"a 	c #AAA226",
"b 	c #0F4A5B",
"c 	c #0040C2",
"d 	c #0045C4",
"e 	c #0F535D",
"f 	c #BCA120",
"g 	c #FCD228",
"h 	c #F9CA27",
"i 	c #6F5A21",
"j 	c #D6D1C4",
"k 	c #858379",
"l 	c #DCD636",
"m 	c #16696A",
"n 	c #0005C8",
"o 	c #0006EC",
"p 	c #0006F0",
"q 	c #0006F2",
"r 	c #000ACA",
"s 	c #817013",
"t 	c #FCCC24",
"u 	c #FCC122",
"v 	c #D09F1A",
"w 	c #827E76",
"x 	c #D0CBBA",
"y 	c #746F48",
"z 	c #90871E",
"A 	c #0005D2",
"B 	c #0005E2",
"C 	c #0005CC",
"D 	c #0006F8",
"E 	c #0005D6",
"F 	c #AD8417",
"G 	c #FCC01E",
"H 	c #F5B51B",
"I 	c #6F6041",
"J 	c #C9C5B3",
"K 	c #776E31",
"L 	c #003DBA",
"M 	c #000ADA",
"N 	c #30777E",
"O 	c #FBE763",
"P 	c #F4D050",
"Q 	c #6F6419",
"R 	c #0006FE",
"S 	c #093659",
"T 	c #F0B11A",
"U 	c #735B29",
"V 	c #C2C0AA",
"W 	c #514A29",
"X 	c #0019D2",
"Y 	c #FFCF4F",
"Z 	c #FDC52D",
"` 	c #EFB71F",
" .	c #0033C4",
"..	c #050BFF",
"+.	c #000AD6",
"@.	c #EAAF30",
"#.	c #F6AA16",
"$.	c #705526",
"%.	c #B6B398",
"&.	c #AEAC96",
"*.	c #0719FF",
"=.	c #004AD2",
"-.	c #FFD041",
";.	c #EDAF1B",
">.	c #0046C6",
",.	c #0B11FF",
"'.	c #E0A13E",
").	c #665634",
"!.	c #BCBAA2",
"~.	c #536EE1",
"{.	c #AB8317",
"].	c #F6B61C",
"^.	c #9A6E0E",
"/.	c #0005E4",
"(.	c #1117FF",
"_.	c #F2AA44",
":.	c #D58A29",
"<.	c #6C6A54",
"[.	c #B0AC90",
"}.	c #89A8AB",
"|.	c #000CFE",
"1.	c #0006F6",
"2.	c #000AD2",
"3.	c #053C55",
"4.	c #151BFF",
"5.	c #1F5963",
"6.	c #F69A2E",
"7.	c #664510",
"8.	c #A7A489",
"9.	c #A9A587",
"0.	c #6C89A4",
"a.	c #090FFF",
"b.	c #92570A",
"c.	c #75725D",
"d.	c #A29F80",
"e.	c #7090A0",
"f.	c #1D38FF",
"g.	c #010DFF",
"h.	c #003ABE",
"i.	c #B56F0B",
"j.	c #7D4B0B",
"k.	c #9C9976",
"l.	c #96946E",
"m.	c #72969A",
"n.	c #5397F3",
"o.	c #2B1E05",
"p.	c #684410",
"q.	c #574C31",
"r.	c #888566",
"s.	c #0F5063",
"t.	c #0063D2",
"u.	c #063A6A",
"v.	c #0E5964",
"w.	c #FBD129",
"x.	c #156A6D",
"y.	c #0045E0",
"z.	c #115AFF",
"A.	c #115FFF",
"B.	c #1568FF",
"C.	c #0054DE",
"D.	c #857113",
"E.	c #FEC222",
"F.	c #0043EC",
"G.	c #0356FF",
"H.	c #0764FF",
"I.	c #1B71FF",
"J.	c #0059EC",
"K.	c #AF8617",
"L.	c #005DC6",
"M.	c #0053FC",
"N.	c #307982",
"O.	c #F5E263",
"P.	c #74641A",
"Q.	c #056FFF",
"R.	c #1D7DFF",
"S.	c #0A4D66",
"T.	c #0045E2",
"U.	c #0063DE",
"V.	c #034969",
"W.	c #1F83FF",
"X.	c #0061E4",
"Y.	c #236BFF",
"Z.	c #1366FF",
"`.	c #104572",
" +	c #278DFF",
".+	c #006EF6",
"++	c #F1A013",
"@+	c #2993FF",
"#+	c #0074EA",
"$+	c #CC7D0C",
"%+	c #6D6A59",
"&+	c #88A9AE",
"*+	c #1D72FF",
"=+	c #1975FF",
"-+	c #06535E",
";+	c #004C92",
">+	c #0079EA",
",+	c #1F6A6B",
"'+	c #6B95AD",
")+	c #1D77FF",
"!+	c #2184FF",
"~+	c #258CFF",
"{+	c #7197A5",
"]+	c #2F91FF",
"^+	c #2385FF",
"/+	c #1181FF",
"(+	c #014365",
"_+	c #729A9C",
":+	c #2C1E04",
". . . . . . . . . . . . . . . . ",
"+ + + + + + + + + + + + + + + + ",
"@ @ @ @ @ @ @ @ @ @ @ @ @ @ @ @ ",
"# # # # $ % & * = - ; $ # # # # ",
"> > > , ' ) ! ~ { ] ^ / ( > > > ",
"_ _ : < [ } | 1 2 3 4 5 6 ( _ _ ",
"7 8 9 0 a b c d e f g g h i 8 7 ",
"j k l m n o p q q r s t u v w 8 ",
"x y z A o B C C o D E F G H I x ",
"J K L o M N O P Q o R S G T U J ",
"V W n p X O Y Z `  ...+.@.#.$.V ",
"%.&.*.q =.-.u G ;.>.,.B '.#.).!.",
"%.%.~.q E {.].H ^./.(.M _.:.<.%.",
"[.%.}.|.1.2.3.3.M 4.(.5.6.7.8.[.",
"9.9.9.0.|.R ..a.,.(.X :.b.c.8.8.",
"d.d.d.d.e.f.g...D h.i.j.I d.d.d.",
"k.k.k.k.k.l.m.n.o.p.q.r.k.k.k.k.",
"l.l.l.l.l.l.l.l.l.l.l.l.l.l.l.l.",
"+ + + + + + + + + + + + + + + + ",
". . . . . . . . . . . . . . . . ",
"+ + + + + + + + + + + + + + + + ",
"@ @ @ @ @ @ @ @ @ @ @ @ @ @ @ @ ",
"# # # # $ % & * = - ; $ # # # # ",
"> > > [.' ) ! ~ { ] ^ / , > > > ",
"_ _ : < ! 0 | | 2 2 3 5 6 , _ _ ",
"7 x / 0 a s.t.u.v.f w.w.h i 8 7 ",
"j % l x.y.z.A.B.B.C.D.t E.v w j ",
"x y z F.z.G.C.C.H.I.J.K.G H I x ",
"J K L.z.M.N.O.P P.Q.R.S.G H U x ",
"V W T.A.U.O Y Z ` V.W.X.@.#.$.V ",
"%.%.Y.Z.`.-.u G ;.V. +.+'.++).%.",
"%.%.n.B.J.{.].T ^..+@+#+_.$+%+%.",
"&.[.&+*+=+X.-+-+;+>+@+,+6.p.8.[.",
"9.9.9.'+)+R.!+~+@+@+#+:.b.c.9.9.",
"k.8.8.k.{+]+!+^+/+(+i.j.<.d.d.d.",
"k.k.k.k.k.k._+0.:+p.W r.k.k.k.k.",
"l.l.l.l.l.l.l.l.l.l.l.l.l.l.l.l.",
"+ + + + + + + + + + + + + + + + "};
