/* XPM */
static char * menuButtonO_xpm[] = {
"19 38 73 1",
" 	c None",
".	c #4A4D4A",
"+	c #313031",
"@	c #F6F1ED",
"#	c #F0ECE5",
"$	c #EDEAE1",
"%	c #F1EDE6",
"&	c #F4EFEA",
"*	c #EDEBE1",
"=	c #F5F0EC",
"-	c #EDEBE2",
";	c #F3EFE9",
">	c #F1EEE7",
",	c #EFECE4",
"'	c #F5F0EB",
")	c #EEECE3",
"!	c #F2EEE7",
"~	c #F2EEE8",
"{	c #EEEBE2",
"]	c #E9E5DC",
"^	c #E1DED3",
"/	c #E4E0D9",
"(	c #E3DFD6",
"_	c #E2DED6",
":	c #E2DFD7",
"<	c #E2DFD4",
"[	c #E2DFD8",
"}	c #E2DFD6",
"|	c #E2DFD5",
"1	c #E3DFD9",
"2	c #D8D6C7",
"3	c #DBD7CA",
"4	c #DCD8CB",
"5	c #D6D2C3",
"6	c #D0CCBA",
"7	c #C9C6B2",
"8	c #C2C0A9",
"9	c #BCBAA1",
"0	c #B6B398",
"a	c #B0AD90",
"b	c #A9A687",
"c	c #A19F7E",
"d	c #A4A183",
"e	c #A09E7D",
"f	c #9D9B78",
"g	c #9C9A76",
"h	c #A4A182",
"i	c #9E9C79",
"j	c #A09D7C",
"k	c #A29F80",
"l	c #9C9A77",
"m	c #A3A081",
"n	c #9F9D7B",
"o	c #9F9C7A",
"p	c #A3A182",
"q	c #9B9975",
"r	c #96946E",
"s	c #EEEBE3",
"t	c #ECEAE0",
"u	c #EFEBE4",
"v	c #EFEBE3",
"w	c #E3DED9",
"x	c #E1DED4",
"y	c #E4E0D7",
"z	c #E3E0D7",
"A	c #E4E0D8",
"B	c #D0CEC0",
"C	c #D4D0C2",
"D	c #BFBDA5",
"E	c #A2A07F",
"F	c #A3A181",
"G	c #A2A080",
"H	c #A3A080",
"...................",
"+++++++++++++++++++",
"@@@@@@@@@@@@@@@@@@@",
"##$%&*=-;>,'*=)!~{@",
"]]]]]]]]]]]]]]]]]]]",
"^/(_:<[<:}|[<[|}:<1",
"2344444444444444444",
"5555555555555555555",
"6666666666666666666",
"7777777777777777777",
"8888888888888888888",
"9999999999999999999",
"0000000000000000000",
"aaaaaaaaaaaaaaaaaaa",
"bbbbbbbbbbbbbbbbbbb",
"ccdefdghijkldgmnopq",
"ggggggggggggggggggg",
"rrrrrrrrrrrrrrrrrrr",
"+++++++++++++++++++",
"...................",
"+++++++++++++++++++",
"@@@@@@@@@@@@@@@@@@@",
"#*sst*u*vs-uttu{{ut",
"]]]]]]]]]]]]]]]]]]]",
"wxyz^</<Az|/^^A((/^",
"4444444444444444444",
"BBC5555555555555555",
"6666666666666666666",
"7777777777777777777",
"89D8888888888888888",
"9999999999999999999",
"0000000000000000000",
"aaaaaaaaaaaaaaaaaaa",
"bbbbbbbbbbbbbbbbbbb",
"cchpcEdEhFGdccdmHdc",
"ggggggggggggggggggg",
"rrrrrrrrrrrrrrrrrrr",
"+++++++++++++++++++"};
