/* XPM */
static char * menuButtonI_xpm[] = {
"19 38 38 1",
" 	c None",
".	c #4A4D4A",
"+	c #2E2D2E",
"@	c #D7D3CF",
"#	c #D2CEC8",
"$	c #CCC8C1",
"%	c #C7C3BA",
"&	c #BAB8A9",
"*	c #BEBBAE",
"=	c #C4C0B7",
"-	c #C1BEB2",
";	c #BBB8AA",
">	c #B6B3A3",
",	c #B0AD9C",
"'	c #AAA894",
")	c #A5A38E",
"!	c #9F9C85",
"~	c #9A977E",
"{	c #949276",
"]	c #8E8C6F",
"^	c #88866A",
"/	c #898769",
"(	c #8A8867",
"_	c #898767",
":	c #83815F",
"<	c #838160",
"[	c #D0CCC6",
"}	c #D1CDC7",
"|	c #C6C3BA",
"1	c #C5C0B8",
"2	c #C1BDB3",
"3	c #C2BEB3",
"4	c #C3BFB5",
"5	c #C1BEB3",
"6	c #C4C0B6",
"7	c #C2BFB4",
"8	c #C3C0B6",
"9	c #8A8768",
"...................",
"+++++++++++++++++++",
"@@@@@@@@@@@@@@@@@@@",
"###################",
"$$$$$$$$$$$$$$$$$$$",
"%%%%%%%%%%%%%%%%%%%",
"&*=----------------",
";;;;;;;;;;;;;;;;;;;",
">>>>>>>>>>>>>>>>>>>",
",,,,,,,,,,,,,,,,,,,",
"'''''''''''''''''''",
")))))))))))))))))))",
"!!!!!!!!!!!!!!!!!!!",
"~~~~~~~~~~~~~~~~~~~",
"{{{{{{{{{{{{{{{{{{{",
"]]]]]]]]]]]]]]]]]]]",
"^/(________________",
"::<<:<::<:<:<<:<:<:",
"+++++++++++++++++++",
"...................",
"+++++++++++++++++++",
"@@@@@@@@@@@@@@@@@@@",
"####[#}}#[#[}}[#[#}",
"$$$$$$$$$$$$$$$$$$$",
"%%|%%%%%%%%%%%%%%%%",
"12;-=3445=-6778-=-4",
";;;;;;;;;;;;;;;;;;;",
">>>>>>>>>>>>>>>>>>>",
",,,,,,,,,,,,,,,,,,,",
"'''''''''''''''''''",
")))))))))))))))))))",
"!!!!!!!!!!!!!!!!!!!",
"~~~~~~~~~~~~~~~~~~~",
"{{{{{{{{{{{{{{{{{{{",
"]]]]]]]]]]]]]]]]]]]",
"___9999999999999999",
"<<<<<<<<<<<<<<<<<<<",
"+++++++++++++++++++"};
