/* XPM */
static char * menuButtonA_xpm[] = {
"19 38 83 1",
" 	c None",
".	c #4A4D4A",
"+	c #313031",
"@	c #F6F1ED",
"#	c #F0ECE5",
"$	c #EEECE3",
"%	c #F0EDE5",
"&	c #F5F0EB",
"*	c #EEECE2",
"=	c #F5F1EC",
"-	c #EFECE3",
";	c #F3EFE9",
">	c #F2EEE7",
",	c #F4F0EB",
"'	c #EEEBE3",
")	c #F5F0EC",
"!	c #F1EEE6",
"~	c #E9E5DC",
"{	c #E2DFD4",
"]	c #E2DFD5",
"^	c #E4E1D7",
"/	c #E3E0D7",
"(	c #E3DFD8",
"_	c #E3DFD9",
":	c #E3DFD7",
"<	c #E2DFD6",
"[	c #E2DFD7",
"}	c #E3DFD6",
"|	c #D9D7C8",
"1	c #DBD7CA",
"2	c #DCD8CB",
"3	c #D6D2C3",
"4	c #D0CCBA",
"5	c #C9C6B2",
"6	c #C2C0A9",
"7	c #BCBAA1",
"8	c #B6B398",
"9	c #B0AD90",
"0	c #A9A687",
"a	c #A2A07F",
"b	c #A2A080",
"c	c #A4A182",
"d	c #A29F7F",
"e	c #9D9B78",
"f	c #A4A183",
"g	c #9D9B77",
"h	c #A3A081",
"i	c #9F9D7B",
"j	c #A09E7D",
"k	c #9E9C79",
"l	c #A19E7D",
"m	c #9C9A76",
"n	c #96946E",
"o	c #F0ECE4",
"p	c #EFEBE3",
"q	c #EFECE4",
"r	c #EDEBE1",
"s	c #EDEBE2",
"t	c #EEEBE2",
"u	c #EFEBE4",
"v	c #E4E0D7",
"w	c #E4E1D9",
"x	c #E2DFD3",
"y	c #E5E1DA",
"z	c #E3DFD5",
"A	c #E4E0D8",
"B	c #E3E0D6",
"C	c #E5E1D9",
"D	c #E4E1D8",
"E	c #D1CFC1",
"F	c #D3D1C2",
"G	c #C2C0AA",
"H	c #C1BFA8",
"I	c #BFBDA4",
"J	c #BEBCA4",
"K	c #A4A181",
"L	c #A4A283",
"M	c #A5A284",
"N	c #A3A080",
"O	c #A3A181",
"P	c #A5A283",
"Q	c #A3A180",
"R	c #A4A282",
"...................",
"+++++++++++++++++++",
"@@@@@@@@@@@@@@@@@@@",
"###$%&*=-;>%,')-;!%",
"~~~~~~~~~~~~~~~~~~~",
"{]^/]({_]:<<({(]([}",
"||12222222222222222",
"3333333333333333333",
"4444444444444444444",
"5555555555555555555",
"6666666666666666666",
"7777777777777777777",
"8888888888888888888",
"9999999999999999999",
"0000000000000000000",
"aabcdefghijdkcehild",
"mmmmmmmmmmmmmmmmmmm",
"nnnnnnnnnnnnnnnnnnn",
"+++++++++++++++++++",
"...................",
"+++++++++++++++++++",
"@@@@@@@@@@@@@@@@@@@",
"#o*pqrs#tq$torrqt$u",
"~~~~~~~~~~~~~~~~~~~",
"_(<vwx]yzAvBC]xwB/D",
"2222222222222222222",
"EEEF333333333333333",
"4444444444444444444",
"5555555555555555555",
"GHIJG66666666666666",
"7777777777777777777",
"8888888888888888888",
"9999999999999999999",
"0000000000000000000",
"aaaKLabMNccOPbaLQOR",
"mmmmmmmmmmmmmmmmmmm",
"nnnnnnnnnnnnnnnnnnn",
"+++++++++++++++++++"};
