/* XPM */
static char * minimizeO_xpm[] = {
"16 38 185 2",
"  	c None",
". 	c #73737D",
"+ 	c #616165",
"@ 	c #F6F2EE",
"# 	c #F0ECE6",
"$ 	c #BEBAB6",
"% 	c #807F66",
"& 	c #86847A",
"* 	c #EDEBE3",
"= 	c #CFDEED",
"- 	c #D1E0EF",
"; 	c #FBF94B",
"> 	c #80622E",
", 	c #6470DC",
"' 	c #000BEC",
") 	c #0005E0",
"! 	c #0006F4",
"~ 	c #6F79E1",
"{ 	c #CFDCDF",
"] 	c #E9E4DD",
"^ 	c #E2DED4",
"/ 	c #908D6C",
"( 	c #286C74",
"_ 	c #000BF4",
": 	c #0005E6",
"< 	c #0006EC",
"[ 	c #0915FF",
"} 	c #BDC9D5",
"| 	c #DCD7CC",
"1 	c #8C8C5C",
"2 	c #FBF54D",
"3 	c #135C67",
"4 	c #1727FF",
"5 	c #D6D1C4",
"6 	c #FBED4F",
"7 	c #6C6B14",
"8 	c #0006F2",
"9 	c #0005D4",
"0 	c #0005CC",
"a 	c #0005C6",
"b 	c #8494B4",
"c 	c #D0CBBA",
"d 	c #98934A",
"e 	c #FEE34E",
"f 	c #9B8C39",
"g 	c #0019D2",
"h 	c #225270",
"i 	c #958A3D",
"j 	c #D2B656",
"k 	c #F7CD5B",
"l 	c #FFCA4B",
"m 	c #B9881F",
"n 	c #7B7669",
"o 	c #C9C5B3",
"p 	c #F5AF19",
"q 	c #7F7419",
"r 	c #CDB553",
"s 	c #F9D761",
"t 	c #FED062",
"u 	c #FFC453",
"v 	c #FDBC3F",
"w 	c #FDBC2F",
"x 	c #FDB419",
"y 	c #FCAD16",
"z 	c #715523",
"A 	c #C2C0AA",
"B 	c #FFCB3F",
"C 	c #FECD24",
"D 	c #FFCA29",
"E 	c #FDC53D",
"F 	c #FEB720",
"G 	c #F8A514",
"H 	c #795B21",
"I 	c #B6B398",
"J 	c #6B6347",
"K 	c #EDC527",
"L 	c #FEBB1C",
"M 	c #F3AD17",
"N 	c #E8A014",
"O 	c #B5780F",
"P 	c #98640A",
"Q 	c #E2950E",
"R 	c #F79D0F",
"S 	c #BCBAA2",
"T 	c #A19E85",
"U 	c #6A512A",
"V 	c #E7AA19",
"W 	c #D69312",
"X 	c #8E620C",
"Y 	c #064650",
"Z 	c #001CC8",
"` 	c #0006F6",
" .	c #705A16",
"..	c #F69518",
"+.	c #B0AC90",
"@.	c #9F9C81",
"#.	c #002FC8",
"$.	c #043952",
"%.	c #005AC0",
"&.	c #000ACA",
"*.	c #1117FF",
"=.	c #151BFF",
"-.	c #0B11FF",
";.	c #235E65",
">.	c #F49126",
",.	c #5F5137",
"'.	c #A9A587",
").	c #6E8DA2",
"!.	c #000CFE",
"~.	c #0006FE",
"{.	c #010DFF",
"].	c #111CFF",
"^.	c #785F2E",
"/.	c #EA7E1E",
"(.	c #5D5947",
"_.	c #9C9976",
":.	c #1D38FF",
"<.	c #050BFF",
"[.	c #2947FF",
"}.	c #7299A4",
"|.	c #894D21",
"1.	c #BC620A",
"2.	c #706F58",
"3.	c #A29F80",
"4.	c #72949C",
"5.	c #62829E",
"6.	c #729B9C",
"7.	c #979573",
"8.	c #524832",
"9.	c #4F442D",
"0.	c #96946E",
"a.	c #CDDCE3",
"b.	c #5B89FD",
"c.	c #114FFF",
"d.	c #0747FF",
"e.	c #1759FF",
"f.	c #6598FF",
"g.	c #878669",
"h.	c #0B50FF",
"i.	c #0B56FF",
"j.	c #2769FF",
"k.	c #BDCFDB",
"l.	c #0B67FF",
"m.	c #1165FF",
"n.	c #317AFF",
"o.	c #929054",
"p.	c #136CFF",
"q.	c #0D68FF",
"r.	c #0059EC",
"s.	c #0054DE",
"t.	c #004CD8",
"u.	c #6D8191",
"v.	c #005AFE",
"w.	c #0064E0",
"x.	c #216379",
"y.	c #FFDC4F",
"z.	c #837519",
"A.	c #FEB220",
"B.	c #8E803E",
"C.	c #FFD24B",
"D.	c #F7C233",
"E.	c #FEC220",
"F.	c #68521E",
"G.	c #5A5506",
"H.	c #004372",
"I.	c #0055A4",
"J.	c #1D7DFF",
"K.	c #785B16",
"L.	c #103C62",
"M.	c #04505E",
"N.	c #034861",
"O.	c #006CDA",
"P.	c #1187FF",
"Q.	c #0077E6",
"R.	c #3485C4",
"S.	c #2591FF",
"T.	c #716C23",
"U.	c #6B96AD",
"V.	c #1F88FF",
"W.	c #2189FF",
"X.	c #007FEA",
"Y.	c #0075E2",
"Z.	c #0F77D7",
"`.	c #2F96FF",
" +	c #6294A4",
". . . . . . . . . . . . . . . . ",
"+ + + + + + + + + + + + + + + + ",
"@ @ @ @ @ @ @ @ @ @ @ @ @ @ @ @ ",
"# $ % & # # * = - * # # # # # # ",
"* & ; > = , ' ) ) ! ~ { ] ] ] * ",
"^ / ; ( _ ) : : < : : [ } ^ ^ ^ ",
"| 1 2 3 : : : < < < < < 4 | | | ",
"5 1 6 7 : < < 8 8 < 9 0 a b 5 5 ",
"c d e f 9 < 9 g h i j k l m n c ",
"o d e p q f r s t u v w x y z o ",
"A i B C D l E w F x x y G G H A ",
"I J K K L L L x M N O P Q R z S ",
"I T U V p M W X Y Z : `  ...U I ",
"+.+.@.#.$.%.&.8 *.=.*.-.;.>.,.+.",
"'.'.'.).!.~.{.-.*.*.-.].^./.(.'.",
"'._.'._.).:.{.<.<.-.[.}.|.1.2.3.",
"_._._._._._.4.5.5.6._.7.8.9./ _.",
"0.0.0.0.0.0.0.7.0.0.0.0.0.0.0.0.",
"+ + + + + + + + + + + + + + + + ",
". . . . . . . . . . . . . . . . ",
"+ + + + + + + + + + + + + + + + ",
"@ @ @ @ @ @ @ @ @ @ @ @ @ @ @ @ ",
"@ $ % & * # * a.a.# # # # # # # ",
"] & ; > - b.c.d.d.e.f.a.] ] ] ] ",
"^ g.; ( c.d.h.h.i.i.i.j.k.^ ^ ^ ",
"| 1 2 3 d.i.l.l.m.m.m.i.n.| | | ",
"5 o.2 7 i.m.m.p.p.q.r.s.t.u.5 5 ",
"c d 6 f v.q.r.w.x.f j k l m n c ",
"A d y.K z.f r s t u v w A.y z o ",
"A B.C.C D l E w L x x y y G H A ",
"S J D.E.L L L x M N O P Q R z S ",
"I T F.V p M W X G.H.I.J.K...U I ",
"+.+.T L.M.N.O.P.Q.R.Q.S.T.>.,.+.",
"'.'.'.U.J.V.W.S.Q.X.Y.Z.> /.(.'.",
"3.3.3.3.}.`.V.W.S.S.R.}.|.1.2.T ",
"_._._._._._.6. +U.U._.7.8.9./ _.",
"0.0.0.0.0.0.0.0.0.0.0.0.0.0.0.0.",
"+ + + + + + + + + + + + + + + + "};
