/* XPM */
static char * restoreO_xpm[] = {
"16 38 209 2",
"  	c None",
". 	c #73737D",
"+ 	c #616165",
"@ 	c #F6F2EE",
"# 	c #F0ECE6",
"$ 	c #D9D5CF",
"% 	c #858277",
"& 	c #8D8A4B",
"* 	c #93903F",
"= 	c #949342",
"- 	c #8C8B50",
"; 	c #88857A",
"> 	c #E9E4DD",
", 	c #A5A29B",
"' 	c #85752B",
") 	c #F2DA3E",
"! 	c #FFF049",
"~ 	c #FFF04F",
"{ 	c #FEF55A",
"] 	c #FEF96A",
"^ 	c #F4F26A",
"/ 	c #8C8D43",
"( 	c #A7A49F",
"_ 	c #E2DED4",
": 	c #99811F",
"< 	c #FCD72C",
"[ 	c #FDDE2F",
"} 	c #FDDD2F",
"| 	c #F9DF2F",
"1 	c #F4DF32",
"2 	c #F1E235",
"3 	c #F7EC43",
"4 	c #FCF762",
"5 	c #A6A844",
"6 	c #A8A59E",
"7 	c #DCD7CC",
"8 	c #D3CFC3",
"9 	c #6F5A21",
"0 	c #F9CA27",
"a 	c #FCD228",
"b 	c #BCA120",
"c 	c #0F535D",
"d 	c #0045C4",
"e 	c #0040C2",
"f 	c #0F4A5B",
"g 	c #AAA226",
"h 	c #F7F147",
"i 	c #7E7F3B",
"j 	c #827E76",
"k 	c #D09F1A",
"l 	c #FCC122",
"m 	c #FCCC24",
"n 	c #817013",
"o 	c #000ACA",
"p 	c #0006F2",
"q 	c #0006F0",
"r 	c #0006EC",
"s 	c #0005C8",
"t 	c #16696A",
"u 	c #DCD636",
"v 	c #858379",
"w 	c #D6D1C4",
"x 	c #D0CBBA",
"y 	c #6F6041",
"z 	c #F5B51B",
"A 	c #FCC01E",
"B 	c #AD8417",
"C 	c #0005D6",
"D 	c #0006F8",
"E 	c #0005CC",
"F 	c #0005E2",
"G 	c #0005D2",
"H 	c #90871E",
"I 	c #746F48",
"J 	c #C9C5B3",
"K 	c #735B29",
"L 	c #F0B11A",
"M 	c #093659",
"N 	c #0006FE",
"O 	c #6F6419",
"P 	c #F4D050",
"Q 	c #FBE763",
"R 	c #30777E",
"S 	c #000ADA",
"T 	c #003DBA",
"U 	c #776E31",
"V 	c #C2C0AA",
"W 	c #705526",
"X 	c #F6AA16",
"Y 	c #EAAF30",
"Z 	c #000AD6",
"` 	c #050BFF",
" .	c #0033C4",
"..	c #EFB71F",
"+.	c #FDC52D",
"@.	c #FFCF4F",
"#.	c #0019D2",
"$.	c #514A29",
"%.	c #BCBAA2",
"&.	c #665634",
"*.	c #E0A13E",
"=.	c #0B11FF",
"-.	c #0046C6",
";.	c #EDAF1B",
">.	c #FFD041",
",.	c #004AD2",
"'.	c #0719FF",
").	c #AEAC96",
"!.	c #B6B398",
"~.	c #6C6A54",
"{.	c #D58A29",
"].	c #F2AA44",
"^.	c #1117FF",
"/.	c #0005E4",
"(.	c #9A6E0E",
"_.	c #F6B61C",
":.	c #AB8317",
"<.	c #536EE1",
"[.	c #B0AC90",
"}.	c #A7A489",
"|.	c #664510",
"1.	c #F69A2E",
"2.	c #1F5963",
"3.	c #151BFF",
"4.	c #053C55",
"5.	c #000AD2",
"6.	c #0006F6",
"7.	c #000CFE",
"8.	c #89A8AB",
"9.	c #75725D",
"0.	c #92570A",
"a.	c #090FFF",
"b.	c #6C89A4",
"c.	c #A9A587",
"d.	c #A29F80",
"e.	c #7D4B0B",
"f.	c #B56F0B",
"g.	c #003ABE",
"h.	c #010DFF",
"i.	c #1D38FF",
"j.	c #7090A0",
"k.	c #9C9976",
"l.	c #888566",
"m.	c #574C31",
"n.	c #684410",
"o.	c #2B1E05",
"p.	c #5397F3",
"q.	c #72969A",
"r.	c #96946E",
"s.	c #FBD129",
"t.	c #0E5964",
"u.	c #063A6A",
"v.	c #0063D2",
"w.	c #0F5063",
"x.	c #FEC222",
"y.	c #857113",
"z.	c #0054DE",
"A.	c #1568FF",
"B.	c #115FFF",
"C.	c #115AFF",
"D.	c #0045E0",
"E.	c #156A6D",
"F.	c #AF8617",
"G.	c #0059EC",
"H.	c #1B71FF",
"I.	c #0764FF",
"J.	c #0356FF",
"K.	c #0043EC",
"L.	c #0A4D66",
"M.	c #1D7DFF",
"N.	c #056FFF",
"O.	c #74641A",
"P.	c #F5E263",
"Q.	c #307982",
"R.	c #0053FC",
"S.	c #005DC6",
"T.	c #0061E4",
"U.	c #1F83FF",
"V.	c #034969",
"W.	c #0063DE",
"X.	c #0045E2",
"Y.	c #F1A013",
"Z.	c #006EF6",
"`.	c #278DFF",
" +	c #104572",
".+	c #1366FF",
"++	c #236BFF",
"@+	c #6D6A59",
"#+	c #CC7D0C",
"$+	c #0074EA",
"%+	c #2993FF",
"&+	c #1F6A6B",
"*+	c #0079EA",
"=+	c #004C92",
"-+	c #06535E",
";+	c #1975FF",
">+	c #1D72FF",
",+	c #88A9AE",
"'+	c #258CFF",
")+	c #2184FF",
"!+	c #1D77FF",
"~+	c #6B95AD",
"{+	c #014365",
"]+	c #1181FF",
"^+	c #2385FF",
"/+	c #2F91FF",
"(+	c #7197A5",
"_+	c #2C1E04",
":+	c #729A9C",
". . . . . . . . . . . . . . . . ",
"+ + + + + + + + + + + + + + + + ",
"@ @ @ @ @ @ @ @ @ @ @ @ @ @ @ @ ",
"# # # # $ % & * = - ; $ # # # # ",
"> > > , ' ) ! ~ { ] ^ / ( > > > ",
"_ _ , : < [ } | 1 2 3 4 5 6 _ _ ",
"7 8 9 0 a a b c d e f g h i 8 7 ",
"8 j k l m n o p p q r s t u v w ",
"x y z A B C D r E E F r G H I x ",
"J K L A M N r O P Q R S r T U J ",
"V W X Y Z `  ...+.@.Q #.q s $.V ",
"%.&.X *.F =.-.;.A l >.,.p '.).!.",
"!.~.{.].S ^./.(.z _.:.C p <.!.!.",
"[.}.|.1.2.^.3.S 4.4.5.6.7.8.!.[.",
"}.}.9.0.{.#.^.=.a.` N 7.b.c.c.c.",
"d.d.d.y e.f.g.D ` h.i.j.d.d.d.d.",
"k.k.k.k.l.m.n.o.p.q.r.k.k.k.k.k.",
"r.r.r.r.r.r.r.r.r.r.r.r.r.r.r.r.",
"+ + + + + + + + + + + + + + + + ",
". . . . . . . . . . . . . . . . ",
"+ + + + + + + + + + + + + + + + ",
"@ @ @ @ @ @ @ @ @ @ @ @ @ @ @ @ ",
"# # # # $ % & * = - ; $ # # # # ",
"> > > ( ' ) ! ~ { ] ^ / [.> > > ",
"_ _ ( : < } | | 2 2 h ] 5 6 _ _ ",
"7 8 9 0 s.s.b t.u.v.w.g h ' x 7 ",
"w j k x.m y.z.A.A.B.C.D.E.u ; w ",
"x y z A F.G.H.I.z.z.J.C.K.H I x ",
"x K z A L.M.N.O.P P.Q.R.C.S.U J ",
"V W X Y T.U.V...+.@.Q W.B.X.$.V ",
"!.&.Y.*.Z.`.V.;.A l >. +.+++!.!.",
"!.@+#+].$+%+Z.(.L _.:.G.A.p.!.!.",
"[.}.n.1.&+%+*+=+-+-+T.;+>+,+[.).",
"c.c.9.0.{.$+%+%+'+)+M.!+~+c.c.c.",
"d.d.d.~.e.f.{+]+^+)+/+(+k.}.}.k.",
"k.k.k.k.l.$.n._+b.:+k.k.k.k.k.k.",
"r.r.r.r.r.r.r.r.r.r.r.r.r.r.r.r.",
"+ + + + + + + + + + + + + + + + "};
