<?xml version="1.0" encoding="UTF-8" standalone="no"?>
<!DOCTYPE svg PUBLIC "-//W3C//DTD SVG 20010904//EN"
"http://www.w3.org/TR/2001/REC-SVG-20010904/DTD/svg10.dtd">
<!-- Created with Inkscape ("http://www.inkscape.org/") -->
<svg
   version="1.0"
   width="128"
   height="128"
   id="svg2"
   xmlns="http://www.w3.org/2000/svg"
   xmlns:sodipodi="http://sodipodi.sourceforge.net/DTD/sodipodi-0.dtd"
   xmlns:inkscape="http://www.inkscape.org/namespaces/inkscape"
   xmlns:xlink="http://www.w3.org/1999/xlink"
   sodipodi:version="0.32"
   inkscape:version="0.36"
   sodipodi:docname="/usr/local/lib/X11/themes/stark042/card_mntd_boot.svg"
   sodipodi:docbase="/usr/local/lib/X11/themes/stark042">
  <sodipodi:namedview
     id="base" />
  <defs
     id="defs4" />
  <path
     d="M 0.25300428,94.289848 C 1.322513,61.274004 21.328136,32.41275 50.439748,27.717925 C 55.799537,26.853553 64.299854,25.951966 92.741113,25.938385 L 128.45664,25.92133 L 128.44898,28.517601 C 128.43147,34.455035 125.38051,46.327967 123.70341,53.585297 C 119.53068,71.642034 108.11035,86.602924 91.474605,94.107618 C 77.874926,100.24269 73.982146,102.03584 34.363709,102.05864 L -0.4566333,102.07867 L 0.25300428,94.289848 z"
     id="path3483"
     style="font-size:12;fill:#ffffff;" />
  <path
     d="M 7.1023459,87.738968 C 9.6696981,62.996458 28.501301,41.062365 51.896737,35.564764 C 56.577726,34.464796 64.267633,34.180733 89.652999,34.170089 L 121.53104,34.156723 L 121.52421,36.191491 C 121.50858,40.844817 119.46535,50.321847 117.28853,55.837717 C 111.83665,69.652187 101.28039,81.306607 88.522572,87.596148 C 76.911097,93.320538 72.909603,93.809708 37.548,93.827578 L 6.4689559,93.843277 L 7.1023459,87.738968 z"
     id="path5053"
     style="font-size:12;"
     transform="matrix(0.946147,0.000000,0.000000,0.946147,3.446577,3.446577)" />
  <path
     d="M 74.925832,80.700558 C 89.268537,76.964758 101.38327,65.597938 107.12365,50.490497 L 108.89961,45.816527 L 81.076431,46.09093 C 69.122733,46.494001 57.350865,44.408358 46.44929,49.614827 C 34.912821,55.124537 25.779703,65.159458 21.105424,77.461178 L 19.347809,82.086838 L 44.475691,82.086838 C 64.133781,82.086838 70.762108,81.785077 74.925832,80.700558 z"
     id="path5051"
     style="font-size:12;fill:#ffffff;"
     transform="matrix(0.946147,0.000000,0.000000,0.946147,3.446577,3.446577)" />
  <path
     d="M 34.1448,70.557168 C 36.292313,66.404337 43.419619,60.445797 49.824736,57.448477 C 57.89028,53.297127 67.517263,54.235498 76.030296,54.235498 L 96.296096,53.802057 L 94.39725,57.020347 C 91.626247,61.716848 85.611587,66.916187 79.449919,69.941487 C 72.294968,73.237396 59.785173,72.864927 53.431495,72.864927 L 32.809883,73.138617 L 34.1448,70.557168 z"
     id="path5039"
     style="font-size:12;fill:#ff6200;fill-opacity:1;"
     transform="matrix(0.946147,0.000000,0.000000,0.946147,3.446577,3.446577)" />
  <g
     transform="translate(-278.0391,-461.9050)"
     id="g2478"
     style="font-size:12;">
    <g
       transform="translate(-0.5783133,0.7710844)"
       id="g2473">
      <path
         d="M 366.5,551.46632 C 349.68691,543.68211 350.12689,520.05454 367.21788,512.91523 C 380.57962,507.33371 395.95608,517.73886 395.95608,532.36218 C 395.95608,547.33588 379.97103,557.7032 366.5,551.46632 z"
         id="path2487"
         style="fill:#c7d8dc" />
      <path
         d="M 367.5,551.85943 C 365.3,551.0812 361.84938,548.68291 359.83196,546.5299 C 351.93471,538.10192 352.1613,525.93772 360.36842,517.7306 C 368.81009,509.28893 381.18991,509.28893 389.63158,517.7306 C 398.07325,526.17228 398.07325,538.55209 389.63158,546.99376 C 383.54012,553.08522 375.78504,554.79019 367.5,551.85943 z"
         id="path2485"
         style="fill:#b6ccd1" />
      <path
         d="M 368.01027,552.04668 C 362.84943,550.40318 356.63409,543.69859 355.06021,538.07723 C 350.80983,522.89636 364.78949,508.24651 379.75,512.20383 C 395.74048,516.43359 401.09187,535.33427 389.55927,546.84939 C 383.59876,552.80086 376.07596,554.61525 368.01027,552.04668 z"
         id="path2483"
         style="fill:#94b5bd" />
      <path
         d="M 368.55782,551.92282 C 360.81466,549.06081 355.81328,543.13541 354.48006,535.24415 C 352.16295,521.52932 366.30712,508.67507 379.73634,512.29118 C 394.26665,516.20379 400.13315,531.96095 391.71343,544.46114 C 387.11067,551.29455 376.29092,554.78111 368.55782,551.92282 z"
         id="path2481"
         style="fill:#76a0aa" />
      <path
         d="M 369.76405,552.41775 C 356.44761,548.15851 350.50132,533.71431 357.29324,522.12477 C 365.31181,508.44212 384.68819,508.44212 392.70675,522.12477 C 400.20503,534.91961 391.81089,551.24173 376.91903,552.82347 C 374.48856,553.08163 371.26882,552.89905 369.76405,552.41775 z"
         id="path2479"
         style="fill:#6695a0" />
      <path
         d="M 370.3582,552.42975 C 352.4864,548.04561 348.84331,523.98474 364.64883,514.72209 C 382.69225,504.14794 403.21424,524.66993 392.64009,542.71335 C 388.27554,550.16089 378.49509,554.42582 370.3582,552.42975 z"
         id="path2477"
         style="fill:#417b89" />
      <path
         d="M 370.51275,552.20329 C 349.42404,547.39852 349.6044,517.23394 370.75,512.52185 C 381.67277,510.08781 392.36587,517.00797 394.84033,528.11218 C 398.05378,542.53259 384.96345,555.49568 370.51275,552.20329 z"
         id="path2475"
         style="fill:#276a7a" />
    </g>
  </g>
</svg>
