<?xml version="1.0" encoding="UTF-8" standalone="no"?>
<!DOCTYPE svg PUBLIC "-//W3C//DTD SVG 20010904//EN"
"http://www.w3.org/TR/2001/REC-SVG-20010904/DTD/svg10.dtd">
<!-- Created with Inkscape ("http://www.inkscape.org/") -->
<svg
   version="1.0"
   width="128"
   height="128"
   id="svg2"
   xmlns="http://www.w3.org/2000/svg"
   xmlns:sodipodi="http://sodipodi.sourceforge.net/DTD/sodipodi-0.dtd"
   xmlns:inkscape="http://www.inkscape.org/namespaces/inkscape"
   xmlns:xlink="http://www.w3.org/1999/xlink"
   sodipodi:version="0.32"
   inkscape:version="0.36"
   sodipodi:docname="/usr/local/lib/X11/themes/stark042/card_mntd.svg"
   sodipodi:docbase="/usr/local/lib/X11/themes/stark042">
  <sodipodi:namedview
     id="base" />
  <defs
     id="defs4" />
  <path
     d="M 0.25300428,94.289848 C 1.322513,61.274004 21.328136,32.41275 50.439748,27.717925 C 55.799537,26.853553 64.299854,25.951966 92.741113,25.938385 L 128.45664,25.92133 L 128.44898,28.517601 C 128.43147,34.455035 125.38051,46.327967 123.70341,53.585297 C 119.53068,71.642034 108.11035,86.602924 91.474605,94.107618 C 77.874926,100.24269 73.982146,102.03584 34.363709,102.05864 L -0.4566333,102.07867 L 0.25300428,94.289848 z"
     id="path3483"
     style="font-size:12;fill:#ffffff;" />
  <path
     d="M 7.1023459,87.738968 C 9.6696981,62.996458 28.501301,41.062365 51.896737,35.564764 C 56.577726,34.464796 64.267633,34.180733 89.652999,34.170089 L 121.53104,34.156723 L 121.52421,36.191491 C 121.50858,40.844817 119.46535,50.321847 117.28853,55.837717 C 111.83665,69.652187 101.28039,81.306607 88.522572,87.596148 C 76.911097,93.320538 72.909603,93.809708 37.548,93.827578 L 6.4689559,93.843277 L 7.1023459,87.738968 z"
     id="path5053"
     style="font-size:12;"
     transform="matrix(0.946147,0.000000,0.000000,0.946147,3.446577,3.446577)" />
  <path
     d="M 74.925832,80.700558 C 89.268537,76.964758 101.38327,65.597938 107.12365,50.490497 L 108.89961,45.816527 L 81.076431,46.09093 C 69.122733,46.494001 57.350865,44.408358 46.44929,49.614827 C 34.912821,55.124537 25.779703,65.159458 21.105424,77.461178 L 19.347809,82.086838 L 44.475691,82.086838 C 64.133781,82.086838 70.762108,81.785077 74.925832,80.700558 z"
     id="path5051"
     style="font-size:12;fill:#ffffff;"
     transform="matrix(0.946147,0.000000,0.000000,0.946147,3.446577,3.446577)" />
  <path
     d="M 34.1448,70.557168 C 36.292313,66.404337 43.419619,60.445797 49.824736,57.448477 C 57.89028,53.297127 67.517263,54.235498 76.030296,54.235498 L 96.296096,53.802057 L 94.39725,57.020347 C 91.626247,61.716848 85.611587,66.916187 79.449919,69.941487 C 72.294968,73.237396 59.785173,72.864927 53.431495,72.864927 L 32.809883,73.138617 L 34.1448,70.557168 z"
     id="path5039"
     style="font-size:12;fill:#ff6200;fill-opacity:1;"
     transform="matrix(0.946147,0.000000,0.000000,0.946147,3.446577,3.446577)" />
  <path
     d="M 367.5,551.20902 C 354.997,546.61605 350.09633,531.76655 357.58518,521.16619 C 361.68032,515.36957 366.93871,512.86218 375,512.86218 C 383.10708,512.86218 388.32226,515.37298 392.5,521.28738 C 395.12572,525.0046 395.5,526.38629 395.5,532.36218 C 395.5,538.33807 395.12572,539.71976 392.5,543.43698 C 390.85,545.77287 387.72368,548.60185 385.55262,549.72359 C 380.99543,552.0782 371.90276,552.82637 367.5,551.20902 z"
     id="path2487"
     style="font-size:12;fill:#f7d6cb;"
     transform="translate(-278.3968,-460.0715)" />
  <path
     d="M 366.5,550.46632 C 356.1096,545.65572 351.46309,534.43652 355.89586,524.86218 C 363.54749,508.33544 386.45251,508.33544 394.10414,524.86218 C 401.54312,540.92962 383.01703,558.11345 366.5,550.46632 z"
     id="path2485"
     style="font-size:12;fill:#f5c9bb;"
     transform="translate(-278.3968,-460.0715)" />
  <path
     d="M 367.63726,550.89737 C 360.19307,548.24359 354.04392,539.85893 354.04392,532.36218 C 354.04392,522.13904 364.28217,512.37333 375,512.37333 C 382.77531,512.37333 390.86118,517.64711 394.13502,524.8536 C 401.25526,540.52692 384.56447,556.93174 367.63726,550.89737 z"
     id="path2483"
     style="font-size:12;fill:#efa78f;"
     transform="translate(-278.3968,-460.0715)" />
  <path
     d="M 369,551.18723 C 354.08127,546.94787 349.45923,529.34043 360.48233,518.73961 C 368.92853,510.61698 381.07147,510.61698 389.51767,518.73961 C 400.74046,529.53247 395.88078,547.05705 380.5,551.2584 C 375.79438,552.54377 373.72881,552.53099 369,551.18723 z"
     id="path2481"
     style="font-size:12;fill:#ea8766;"
     transform="translate(-278.3968,-460.0715)" />
  <path
     d="M 368.75908,550.99201 C 363.09425,548.89031 360.2691,546.72594 357.26478,542.18611 C 353.25785,536.13122 353.37624,528.1351 357.56107,522.17461 C 366.25874,509.78647 383.74126,509.78647 392.43893,522.17461 C 394.97634,525.78866 395.46667,527.43849 395.46667,532.36218 C 395.46667,537.28587 394.97634,538.9357 392.43893,542.54975 C 387.04529,550.23195 376.67535,553.929 368.75908,550.99201 z"
     id="path2479"
     style="font-size:12;fill:#e87c58;"
     transform="translate(-278.3968,-460.0715)" />
  <path
     d="M 370.5,551.44862 C 365.53311,550.20383 361.24401,547.55016 358.64387,544.11323 C 348.64762,530.89993 358.04738,513.04548 375,513.04548 C 384.82036,513.04548 392.47645,518.82859 394.94637,528.11218 C 398.49834,541.46285 384.39078,554.92989 370.5,551.44862 z"
     id="path2477"
     style="font-size:12;fill:#e2582b;"
     transform="translate(-278.3968,-460.0715)" />
  <path
     d="M 370.79914,551.35935 C 357.92072,549.04053 350.88133,534.54767 357.13462,523.2265 C 364.59005,509.72892 385.40995,509.72892 392.86539,523.2265 C 400.85792,537.69646 387.7477,554.41102 370.79914,551.35935 z"
     id="path2475"
     style="font-size:12;fill:#ff6200;fill-opacity:1;"
     transform="translate(-278.3968,-460.0715)" />
</svg>
