<?xml version="1.0" encoding="UTF-8" standalone="no"?>
<!-- Created with Inkscape (http://www.inkscape.org/) -->
<svg
   xmlns:svg="http://www.w3.org/2000/svg"
   xmlns="http://www.w3.org/2000/svg"
   version="1.0"
   width="48"
   height="48"
   viewBox="0 0 48 48"
   id="svg2"
   xml:space="preserve"><defs
   id="defs23">
		
	
			
			
			
			
			
			
		</defs>
	<rect
   width="46"
   height="44"
   rx="6.5362654"
   x="1"
   y="2"
   id="rect5161"
   style="opacity:1;fill:#ffffff;fill-opacity:1;fill-rule:nonzero;stroke:none;stroke-width:10;stroke-linejoin:miter;stroke-miterlimit:4;stroke-dasharray:none;stroke-opacity:1" /><path
   d="M 7.4075789,5.495944 C 6.1219913,5.6306901 5.1479022,6.7180454 5.1548154,8.0106568 L 5.1548154,35.751082 C 5.153206,36.418646 5.4170709,37.059462 5.8882733,37.532338 L 9.9746816,41.644941 C 10.447558,42.116144 11.088373,42.380009 11.755937,42.378399 L 40.517964,42.378399 C 41.906745,42.378261 43.032539,41.252467 43.032677,39.863686 L 43.032677,8.0106568 C 43.032539,6.6218768 41.906745,5.4960826 40.517964,5.495944 L 7.6695283,5.495944 C 7.5822712,5.4913936 7.4948361,5.4913936 7.4075789,5.495944 z M 9.7127323,9.0322584 L 38.474761,9.0322584 L 38.474761,22.391671 L 9.7127323,22.391671 L 9.7127323,9.0322584 z M 13.825336,26.504275 L 31.271156,26.504275 C 32.400782,26.504275 33.340555,27.416794 33.340555,28.547478 L 33.340555,37.820483 C 33.340555,38.951167 32.400782,39.863686 31.271156,39.863686 L 13.825336,39.863686 C 12.695709,39.863687 11.755937,38.951166 11.755937,37.820483 L 11.755937,28.547478 C 11.755937,27.416794 12.695709,26.504275 13.825336,26.504275 z"
   id="path9"
   style="fill:#303030;fill-opacity:1;fill-rule:nonzero;stroke:none;stroke-width:5.99999905;stroke-linecap:round;stroke-linejoin:round;stroke-miterlimit:4;stroke-dasharray:none;stroke-opacity:1" /><path
   d="M 21.264733,36.647984 L 15.618391,36.647984 L 15.618391,28.170545 L 21.264733,28.170545 L 21.264733,36.647984 z"
   id="path15"
   style="fill:#303030;fill-opacity:1;fill-rule:nonzero;stroke:none;stroke-miterlimit:4" />
	
<g
   transform="matrix(0.5028659,0,0,0.4857038,-155.82206,-226.59289)"
   id="layer1"><g
     transform="translate(-0.5783133,0.7710844)"
     id="g2473"><path
       d="M 366.5,551.46632 C 349.68691,543.68211 350.12689,520.05454 367.21788,512.91523 C 380.57962,507.33371 395.95608,517.73886 395.95608,532.36218 C 395.95608,547.33588 379.97103,557.7032 366.5,551.46632 z"
       id="path2487"
       style="fill:#c7d8dc" /><path
       d="M 367.5,551.85943 C 365.3,551.0812 361.84938,548.68291 359.83196,546.5299 C 351.93471,538.10192 352.1613,525.93772 360.36842,517.7306 C 368.81009,509.28893 381.18991,509.28893 389.63158,517.7306 C 398.07325,526.17228 398.07325,538.55209 389.63158,546.99376 C 383.54012,553.08522 375.78504,554.79019 367.5,551.85943 z"
       id="path2485"
       style="fill:#b6ccd1" /><path
       d="M 368.01027,552.04668 C 362.84943,550.40318 356.63409,543.69859 355.06021,538.07723 C 350.80983,522.89636 364.78949,508.24651 379.75,512.20383 C 395.74048,516.43359 401.09187,535.33427 389.55927,546.84939 C 383.59876,552.80086 376.07596,554.61525 368.01027,552.04668 z"
       id="path2483"
       style="fill:#94b5bd" /><path
       d="M 368.55782,551.92282 C 360.81466,549.06081 355.81328,543.13541 354.48006,535.24415 C 352.16295,521.52932 366.30712,508.67507 379.73634,512.29118 C 394.26665,516.20379 400.13315,531.96095 391.71343,544.46114 C 387.11067,551.29455 376.29092,554.78111 368.55782,551.92282 z"
       id="path2481"
       style="fill:#76a0aa" /><path
       d="M 369.76405,552.41775 C 356.44761,548.15851 350.50132,533.71431 357.29324,522.12477 C 365.31181,508.44212 384.68819,508.44212 392.70675,522.12477 C 400.20503,534.91961 391.81089,551.24173 376.91903,552.82347 C 374.48856,553.08163 371.26882,552.89905 369.76405,552.41775 z"
       id="path2479"
       style="fill:#6695a0" /><path
       d="M 370.3582,552.42975 C 352.4864,548.04561 348.84331,523.98474 364.64883,514.72209 C 382.69225,504.14794 403.21424,524.66993 392.64009,542.71335 C 388.27554,550.16089 378.49509,554.42582 370.3582,552.42975 z"
       id="path2477"
       style="fill:#417b89" /><path
       d="M 370.51275,552.20329 C 349.42404,547.39852 349.6044,517.23394 370.75,512.52185 C 381.67277,510.08781 392.36587,517.00797 394.84033,528.11218 C 398.05378,542.53259 384.96345,555.49568 370.51275,552.20329 z"
       id="path2475"
       style="fill:#276a7a" /></g></g></svg>