<?xml version="1.0" encoding="UTF-8" standalone="no"?>
<!DOCTYPE svg PUBLIC "-//W3C//DTD SVG 20010904//EN"
"http://www.w3.org/TR/2001/REC-SVG-20010904/DTD/svg10.dtd">
<!-- Created with Inkscape ("http://www.inkscape.org/") -->
<svg
   version="1.0"
   width="48"
   height="48"
   viewBox="0 0 48 48"
   id="svg2"
   xml:space="preserve"
   xmlns="http://www.w3.org/2000/svg"
   xmlns:xml="http://www.w3.org/XML/1998/namespace"
   xmlns:sodipodi="http://sodipodi.sourceforge.net/DTD/sodipodi-0.dtd"
   xmlns:inkscape="http://www.inkscape.org/namespaces/inkscape"
   xmlns:xlink="http://www.w3.org/1999/xlink"
   sodipodi:version="0.32"
   inkscape:version="0.36"
   sodipodi:docname="/usr/local/lib/X11/themes/stark042/floppy_mntd.svg"
   sodipodi:docbase="/usr/local/lib/X11/themes/stark042"><sodipodi:namedview
   id="base" />
<defs
   id="defs23"></defs>
<rect
   width="46"
   height="44"
   rx="6.5362654"
   x="1"
   y="2"
   id="rect5161"
   style="opacity:1;fill:#ffffff;fill-opacity:1;fill-rule:nonzero;stroke:none;stroke-width:10;stroke-linejoin:miter;stroke-miterlimit:4;stroke-dasharray:none;stroke-opacity:1" />
<path
   d="M 7.4075789,5.495944 C 6.1219913,5.6306901 5.1479022,6.7180454 5.1548154,8.0106568 L 5.1548154,35.751082 C 5.153206,36.418646 5.4170709,37.059462 5.8882733,37.532338 L 9.9746816,41.644941 C 10.447558,42.116144 11.088373,42.380009 11.755937,42.378399 L 40.517964,42.378399 C 41.906745,42.378261 43.032539,41.252467 43.032677,39.863686 L 43.032677,8.0106568 C 43.032539,6.6218768 41.906745,5.4960826 40.517964,5.495944 L 7.6695283,5.495944 C 7.5822712,5.4913936 7.4948361,5.4913936 7.4075789,5.495944 z M 9.7127323,9.0322584 L 38.474761,9.0322584 L 38.474761,22.391671 L 9.7127323,22.391671 L 9.7127323,9.0322584 z M 13.825336,26.504275 L 31.271156,26.504275 C 32.400782,26.504275 33.340555,27.416794 33.340555,28.547478 L 33.340555,37.820483 C 33.340555,38.951167 32.400782,39.863686 31.271156,39.863686 L 13.825336,39.863686 C 12.695709,39.863687 11.755937,38.951166 11.755937,37.820483 L 11.755937,28.547478 C 11.755937,27.416794 12.695709,26.504275 13.825336,26.504275 z"
   id="path9"
   style="fill:#303030;fill-opacity:1;fill-rule:nonzero;stroke:none;stroke-width:5.99999905;stroke-linecap:round;stroke-linejoin:round;stroke-miterlimit:4;stroke-dasharray:none;stroke-opacity:1" />
<path
   d="M 21.264733,36.647984 L 15.618391,36.647984 L 15.618391,28.170545 L 21.264733,28.170545 L 21.264733,36.647984 z"
   id="path15"
   style="fill:#303030;fill-opacity:1;fill-rule:nonzero;stroke:none;stroke-miterlimit:4" />
<path
   d="M 367.5,551.20902 C 354.997,546.61605 350.09633,531.76655 357.58518,521.16619 C 361.68032,515.36957 366.93871,512.86218 375,512.86218 C 383.10708,512.86218 388.32226,515.37298 392.5,521.28738 C 395.12572,525.0046 395.5,526.38629 395.5,532.36218 C 395.5,538.33807 395.12572,539.71976 392.5,543.43698 C 390.85,545.77287 387.72368,548.60185 385.55262,549.72359 C 380.99543,552.0782 371.90276,552.82637 367.5,551.20902 z"
   id="path2487"
   style="font-size:12;fill:#f7d6cb;"
   transform="matrix(0.469264,0.000000,0.000000,0.509249,-142.1963,-238.8789)" />
<path
   d="M 366.5,550.46632 C 356.1096,545.65572 351.46309,534.43652 355.89586,524.86218 C 363.54749,508.33544 386.45251,508.33544 394.10414,524.86218 C 401.54312,540.92962 383.01703,558.11345 366.5,550.46632 z"
   id="path2485"
   style="font-size:12;fill:#f5c9bb;"
   transform="matrix(0.469264,0.000000,0.000000,0.509249,-142.1963,-238.8789)" />
<path
   d="M 367.63726,550.89737 C 360.19307,548.24359 354.04392,539.85893 354.04392,532.36218 C 354.04392,522.13904 364.28217,512.37333 375,512.37333 C 382.77531,512.37333 390.86118,517.64711 394.13502,524.8536 C 401.25526,540.52692 384.56447,556.93174 367.63726,550.89737 z"
   id="path2483"
   style="font-size:12;fill:#efa78f;"
   transform="matrix(0.469264,0.000000,0.000000,0.509249,-142.1963,-238.8789)" />
<path
   d="M 369,551.18723 C 354.08127,546.94787 349.45923,529.34043 360.48233,518.73961 C 368.92853,510.61698 381.07147,510.61698 389.51767,518.73961 C 400.74046,529.53247 395.88078,547.05705 380.5,551.2584 C 375.79438,552.54377 373.72881,552.53099 369,551.18723 z"
   id="path2481"
   style="font-size:12;fill:#ea8766;"
   transform="matrix(0.469264,0.000000,0.000000,0.509249,-142.1963,-238.8789)" />
<path
   d="M 368.75908,550.99201 C 363.09425,548.89031 360.2691,546.72594 357.26478,542.18611 C 353.25785,536.13122 353.37624,528.1351 357.56107,522.17461 C 366.25874,509.78647 383.74126,509.78647 392.43893,522.17461 C 394.97634,525.78866 395.46667,527.43849 395.46667,532.36218 C 395.46667,537.28587 394.97634,538.9357 392.43893,542.54975 C 387.04529,550.23195 376.67535,553.929 368.75908,550.99201 z"
   id="path2479"
   style="font-size:12;fill:#e87c58;"
   transform="matrix(0.469264,0.000000,0.000000,0.509249,-142.1963,-238.8789)" />
<path
   d="M 370.5,551.44862 C 365.53311,550.20383 361.24401,547.55016 358.64387,544.11323 C 348.64762,530.89993 358.04738,513.04548 375,513.04548 C 384.82036,513.04548 392.47645,518.82859 394.94637,528.11218 C 398.49834,541.46285 384.39078,554.92989 370.5,551.44862 z"
   id="path2477"
   style="font-size:12;fill:#e2582b;"
   transform="matrix(0.469264,0.000000,0.000000,0.509249,-142.1963,-238.8789)" />
<path
   d="M 370.79914,551.35935 C 357.92072,549.04053 350.88133,534.54767 357.13462,523.2265 C 364.59005,509.72892 385.40995,509.72892 392.86539,523.2265 C 400.85792,537.69646 387.7477,554.41102 370.79914,551.35935 z"
   id="path2475"
   style="font-size:12;fill:#ff6200;fill-opacity:1;"
   transform="matrix(0.469264,0.000000,0.000000,0.509249,-142.1963,-238.8789)" />
</svg>
