<?xml version="1.0" encoding="UTF-8" standalone="no"?>
<!-- Created with Inkscape (http://www.inkscape.org/) -->
<svg
   xmlns:svg="http://www.w3.org/2000/svg"
   xmlns="http://www.w3.org/2000/svg"
   version="1.0"
   width="128"
   height="128"
   id="svg2">
  <defs
     id="defs4" />
  <g
     id="layer1">
    <path
       d="M 103.39286,66.125 A 44.375,44.375 0 1 1 14.642857,66.125 A 44.375,44.375 0 1 1 103.39286,66.125 z"
       transform="matrix(1.4422535,0,0,1.4422535,-20.957997,-31.529727)"
       id="path2161"
       style="opacity:1;fill:#ffffff;fill-opacity:1;fill-rule:nonzero;stroke:none;stroke-width:5.99999905;stroke-linejoin:miter;stroke-miterlimit:4;stroke-dasharray:none;stroke-opacity:1" />
    <path
       d="M 153.29064,106.15545 A 46.593285,46.593285 0 1 1 60.104073,106.15545 A 46.593285,46.593285 0 1 1 153.29064,106.15545 z"
       transform="matrix(1.100271,0,0,1.100271,-53.396008,-52.799762)"
       id="path5993"
       style="opacity:1;fill:#262729;fill-opacity:1;fill-rule:nonzero;stroke:none;stroke-width:2.49999928;stroke-linejoin:miter;stroke-miterlimit:4;stroke-dasharray:none;stroke-opacity:1" />
    <path
       d="M 202.78813,122.31789 A 24.36993,24.36993 0 1 1 154.04827,122.31789 A 24.36993,24.36993 0 1 1 202.78813,122.31789 z"
       transform="matrix(0.8134715,0,0,0.8134715,-81.138122,-35.502114)"
       id="path5997"
       style="opacity:1;fill:#262729;fill-opacity:1;fill-rule:nonzero;stroke:#ffffff;stroke-width:1.22929931;stroke-linejoin:miter;stroke-miterlimit:4;stroke-dasharray:none;stroke-opacity:1" />
    <path
       d="M 87.378192,73.199226 A 14.647212,14.647212 0 1 1 58.083768,73.199226 A 14.647212,14.647212 0 1 1 87.378192,73.199226 z"
       transform="matrix(0.9827586,0,0,0.9827586,-7.4769938,-7.937167)"
       id="path5999"
       style="opacity:1;fill:#ffffff;fill-opacity:1;fill-rule:nonzero;stroke:none;stroke-width:2;stroke-linejoin:miter;stroke-miterlimit:4;stroke-dasharray:none;stroke-opacity:1" />
    <path
       d="M 39.579102,86.815816 L 39.579102,88.271871 C 39.114249,87.838937 38.617505,87.515369 38.088867,87.301168 C 37.564772,87.086984 37.006504,86.979888 36.414062,86.979879 C 35.247391,86.979888 34.354163,87.337635 33.734375,88.053121 C 33.114581,88.764066 32.804685,89.794013 32.804688,91.142965 C 32.804685,92.48737 33.114581,93.517316 33.734375,94.232809 C 34.354163,94.943747 35.247391,95.299216 36.414062,95.299215 C 37.006504,95.299216 37.564772,95.19212 38.088867,94.977926 C 38.617505,94.763735 39.114249,94.440167 39.579102,94.007223 L 39.579102,95.449605 C 39.09602,95.777731 38.583325,96.023824 38.041016,96.187887 C 37.503248,96.351949 36.933587,96.43398 36.332031,96.43398 C 34.787105,96.43398 33.570309,95.962301 32.681641,95.018941 C 31.792968,94.071027 31.348632,92.779036 31.348633,91.142965 C 31.348632,89.502347 31.792968,88.210356 32.681641,87.266988 C 33.570309,86.319082 34.787105,85.845124 36.332031,85.845113 C 36.942702,85.845124 37.51692,85.927155 38.054688,86.091207 C 38.596997,86.250722 39.105135,86.492258 39.579102,86.815816 M 43.106445,87.164449 L 43.106445,95.100973 L 44.774414,95.100973 C 46.182611,95.100974 47.212558,94.781964 47.864258,94.143941 C 48.5205,93.505923 48.848624,92.498763 48.848633,91.122457 C 48.848624,89.755276 48.5205,88.754951 47.864258,88.12148 C 47.212558,87.483468 46.182611,87.164458 44.774414,87.164449 L 43.106445,87.164449 M 41.725586,86.029684 L 44.5625,86.029684 C 46.540358,86.029694 47.991854,86.442128 48.916992,87.266988 C 49.842113,88.087309 50.304678,89.372464 50.304688,91.122457 C 50.304678,92.881575 49.839834,94.173566 48.910156,94.998434 C 47.980461,95.823304 46.531244,96.235738 44.5625,96.235738 L 41.725586,96.235738 L 41.725586,86.029684 M 51.808594,91.84023 L 55.493164,91.84023 L 55.493164,92.961324 L 51.808594,92.961324 L 51.808594,91.84023 M 62.397461,91.450582 C 62.693678,91.550847 62.980787,91.76504 63.258789,92.09316 C 63.541334,92.421289 63.823886,92.87246 64.106445,93.446676 L 65.507812,96.235738 L 64.024414,96.235738 L 62.71875,93.617574 C 62.381504,92.933984 62.05338,92.480534 61.734375,92.257223 C 61.419917,92.03392 60.989253,91.922266 60.442383,91.922262 L 58.938477,91.922262 L 58.938477,96.235738 L 57.557617,96.235738 L 57.557617,86.029684 L 60.674805,86.029684 C 61.841466,86.029694 62.711908,86.273509 63.286133,86.761129 C 63.860344,87.248768 64.147453,87.98477 64.147461,88.969137 C 64.147453,89.611721 63.997062,90.144924 63.696289,90.568746 C 63.400058,90.992579 62.967116,91.286524 62.397461,91.450582 M 58.938477,87.164449 L 58.938477,90.787496 L 60.674805,90.787496 C 61.340164,90.787502 61.841466,90.634832 62.178711,90.329488 C 62.520501,90.019599 62.6914,89.566149 62.691406,88.969137 C 62.6914,88.372139 62.520501,87.923247 62.178711,87.622457 C 61.841466,87.317127 61.340164,87.164458 60.674805,87.164449 L 58.938477,87.164449"
       transform="translate(15.571777,5.0507627)"
       id="flowRoot6001"
       style="fill:#ffffff;fill-opacity:1" />
    <g
       transform="translate(-278.62733,-438.0279)"
       id="g2478">
      <g
         transform="translate(-0.5783133,0.7710844)"
         id="g2473">
        <path
           d="M 366.5,551.46632 C 349.68691,543.68211 350.12689,520.05454 367.21788,512.91523 C 380.57962,507.33371 395.95608,517.73886 395.95608,532.36218 C 395.95608,547.33588 379.97103,557.7032 366.5,551.46632 z"
           id="path2487"
           style="fill:#c7d8dc" />
        <path
           d="M 367.5,551.85943 C 365.3,551.0812 361.84938,548.68291 359.83196,546.5299 C 351.93471,538.10192 352.1613,525.93772 360.36842,517.7306 C 368.81009,509.28893 381.18991,509.28893 389.63158,517.7306 C 398.07325,526.17228 398.07325,538.55209 389.63158,546.99376 C 383.54012,553.08522 375.78504,554.79019 367.5,551.85943 z"
           id="path2485"
           style="fill:#b6ccd1" />
        <path
           d="M 368.01027,552.04668 C 362.84943,550.40318 356.63409,543.69859 355.06021,538.07723 C 350.80983,522.89636 364.78949,508.24651 379.75,512.20383 C 395.74048,516.43359 401.09187,535.33427 389.55927,546.84939 C 383.59876,552.80086 376.07596,554.61525 368.01027,552.04668 z"
           id="path2483"
           style="fill:#94b5bd" />
        <path
           d="M 368.55782,551.92282 C 360.81466,549.06081 355.81328,543.13541 354.48006,535.24415 C 352.16295,521.52932 366.30712,508.67507 379.73634,512.29118 C 394.26665,516.20379 400.13315,531.96095 391.71343,544.46114 C 387.11067,551.29455 376.29092,554.78111 368.55782,551.92282 z"
           id="path2481"
           style="fill:#76a0aa" />
        <path
           d="M 369.76405,552.41775 C 356.44761,548.15851 350.50132,533.71431 357.29324,522.12477 C 365.31181,508.44212 384.68819,508.44212 392.70675,522.12477 C 400.20503,534.91961 391.81089,551.24173 376.91903,552.82347 C 374.48856,553.08163 371.26882,552.89905 369.76405,552.41775 z"
           id="path2479"
           style="fill:#6695a0" />
        <path
           d="M 370.3582,552.42975 C 352.4864,548.04561 348.84331,523.98474 364.64883,514.72209 C 382.69225,504.14794 403.21424,524.66993 392.64009,542.71335 C 388.27554,550.16089 378.49509,554.42582 370.3582,552.42975 z"
           id="path2477"
           style="fill:#417b89" />
        <path
           d="M 370.51275,552.20329 C 349.42404,547.39852 349.6044,517.23394 370.75,512.52185 C 381.67277,510.08781 392.36587,517.00797 394.84033,528.11218 C 398.05378,542.53259 384.96345,555.49568 370.51275,552.20329 z"
           id="path2475"
           style="fill:#276a7a" />
      </g>
    </g>
  </g>
</svg>
