<?xml version="1.0" encoding="UTF-8" standalone="no"?>
<!-- Created with Inkscape (http://www.inkscape.org/) -->
<svg
   xmlns:svg="http://www.w3.org/2000/svg"
   xmlns="http://www.w3.org/2000/svg"
   version="1.0"
   width="128"
   height="128"
   id="svg2">
  <defs
     id="defs4" />
  <g
     id="layer1">
    <path
       d="M 103.39286,66.125 A 44.375,44.375 0 1 1 14.642857,66.125 A 44.375,44.375 0 1 1 103.39286,66.125 z"
       transform="matrix(1.4422535,0,0,1.4422535,-20.957997,-31.529727)"
       id="path2161"
       style="opacity:1;fill:#ffffff;fill-opacity:1;fill-rule:nonzero;stroke:none;stroke-width:5.99999905;stroke-linejoin:miter;stroke-miterlimit:4;stroke-dasharray:none;stroke-opacity:1" />
    <path
       d="M 153.29064,106.15545 A 46.593285,46.593285 0 1 1 60.104073,106.15545 A 46.593285,46.593285 0 1 1 153.29064,106.15545 z"
       transform="matrix(1.100271,0,0,1.100271,-53.396008,-52.799762)"
       id="path5993"
       style="opacity:1;fill:#262729;fill-opacity:1;fill-rule:nonzero;stroke:none;stroke-width:2.49999928;stroke-linejoin:miter;stroke-miterlimit:4;stroke-dasharray:none;stroke-opacity:1" />
    <path
       d="M 202.78813,122.31789 A 24.36993,24.36993 0 1 1 154.04827,122.31789 A 24.36993,24.36993 0 1 1 202.78813,122.31789 z"
       transform="matrix(0.8134715,0,0,0.8134715,-81.138122,-35.502114)"
       id="path5997"
       style="opacity:1;fill:#262729;fill-opacity:1;fill-rule:nonzero;stroke:#ffffff;stroke-width:1.22929931;stroke-linejoin:miter;stroke-miterlimit:4;stroke-dasharray:none;stroke-opacity:1" />
    <path
       d="M 87.378192,73.199226 A 14.647212,14.647212 0 1 1 58.083768,73.199226 A 14.647212,14.647212 0 1 1 87.378192,73.199226 z"
       transform="matrix(0.9827586,0,0,0.9827586,-7.4769938,-7.937167)"
       id="path5999"
       style="opacity:1;fill:#ffffff;fill-opacity:1;fill-rule:nonzero;stroke:none;stroke-width:2;stroke-linejoin:miter;stroke-miterlimit:4;stroke-dasharray:none;stroke-opacity:1" />
    <path
       d="M 39.579102,86.815816 L 39.579102,88.271871 C 39.114249,87.838937 38.617505,87.515369 38.088867,87.301168 C 37.564772,87.086984 37.006504,86.979888 36.414062,86.979879 C 35.247391,86.979888 34.354163,87.337635 33.734375,88.053121 C 33.114581,88.764066 32.804685,89.794013 32.804688,91.142965 C 32.804685,92.48737 33.114581,93.517316 33.734375,94.232809 C 34.354163,94.943747 35.247391,95.299216 36.414062,95.299215 C 37.006504,95.299216 37.564772,95.19212 38.088867,94.977926 C 38.617505,94.763735 39.114249,94.440167 39.579102,94.007223 L 39.579102,95.449605 C 39.09602,95.777731 38.583325,96.023824 38.041016,96.187887 C 37.503248,96.351949 36.933587,96.43398 36.332031,96.43398 C 34.787105,96.43398 33.570309,95.962301 32.681641,95.018941 C 31.792968,94.071027 31.348632,92.779036 31.348633,91.142965 C 31.348632,89.502347 31.792968,88.210356 32.681641,87.266988 C 33.570309,86.319082 34.787105,85.845124 36.332031,85.845113 C 36.942702,85.845124 37.51692,85.927155 38.054688,86.091207 C 38.596997,86.250722 39.105135,86.492258 39.579102,86.815816 M 43.106445,87.164449 L 43.106445,95.100973 L 44.774414,95.100973 C 46.182611,95.100974 47.212558,94.781964 47.864258,94.143941 C 48.5205,93.505923 48.848624,92.498763 48.848633,91.122457 C 48.848624,89.755276 48.5205,88.754951 47.864258,88.12148 C 47.212558,87.483468 46.182611,87.164458 44.774414,87.164449 L 43.106445,87.164449 M 41.725586,86.029684 L 44.5625,86.029684 C 46.540358,86.029694 47.991854,86.442128 48.916992,87.266988 C 49.842113,88.087309 50.304678,89.372464 50.304688,91.122457 C 50.304678,92.881575 49.839834,94.173566 48.910156,94.998434 C 47.980461,95.823304 46.531244,96.235738 44.5625,96.235738 L 41.725586,96.235738 L 41.725586,86.029684 M 51.808594,91.84023 L 55.493164,91.84023 L 55.493164,92.961324 L 51.808594,92.961324 L 51.808594,91.84023 M 62.397461,91.450582 C 62.693678,91.550847 62.980787,91.76504 63.258789,92.09316 C 63.541334,92.421289 63.823886,92.87246 64.106445,93.446676 L 65.507812,96.235738 L 64.024414,96.235738 L 62.71875,93.617574 C 62.381504,92.933984 62.05338,92.480534 61.734375,92.257223 C 61.419917,92.03392 60.989253,91.922266 60.442383,91.922262 L 58.938477,91.922262 L 58.938477,96.235738 L 57.557617,96.235738 L 57.557617,86.029684 L 60.674805,86.029684 C 61.841466,86.029694 62.711908,86.273509 63.286133,86.761129 C 63.860344,87.248768 64.147453,87.98477 64.147461,88.969137 C 64.147453,89.611721 63.997062,90.144924 63.696289,90.568746 C 63.400058,90.992579 62.967116,91.286524 62.397461,91.450582 M 58.938477,87.164449 L 58.938477,90.787496 L 60.674805,90.787496 C 61.340164,90.787502 61.841466,90.634832 62.178711,90.329488 C 62.520501,90.019599 62.6914,89.566149 62.691406,88.969137 C 62.6914,88.372139 62.520501,87.923247 62.178711,87.622457 C 61.841466,87.317127 61.340164,87.164458 60.674805,87.164449 L 58.938477,87.164449"
       transform="translate(15.571777,5.0507627)"
       id="flowRoot6001"
       style="fill:#ffffff;fill-opacity:1" />
    <g
       transform="translate(-279.21767,-435.34615)"
       id="g2478">
      <g
         transform="translate(0.4819277,-0.5783137)"
         id="g2473">
        <path
           d="M 367.5,551.20902 C 354.997,546.61605 350.09633,531.76655 357.58518,521.16619 C 361.68032,515.36957 366.93871,512.86218 375,512.86218 C 383.10708,512.86218 388.32226,515.37298 392.5,521.28738 C 395.12572,525.0046 395.5,526.38629 395.5,532.36218 C 395.5,538.33807 395.12572,539.71976 392.5,543.43698 C 390.85,545.77287 387.72368,548.60185 385.55262,549.72359 C 380.99543,552.0782 371.90276,552.82637 367.5,551.20902 z"
           id="path2487"
           style="fill:#f7d6cb" />
        <path
           d="M 366.5,550.46632 C 356.1096,545.65572 351.46309,534.43652 355.89586,524.86218 C 363.54749,508.33544 386.45251,508.33544 394.10414,524.86218 C 401.54312,540.92962 383.01703,558.11345 366.5,550.46632 z"
           id="path2485"
           style="fill:#f5c9bb" />
        <path
           d="M 367.63726,550.89737 C 360.19307,548.24359 354.04392,539.85893 354.04392,532.36218 C 354.04392,522.13904 364.28217,512.37333 375,512.37333 C 382.77531,512.37333 390.86118,517.64711 394.13502,524.8536 C 401.25526,540.52692 384.56447,556.93174 367.63726,550.89737 z"
           id="path2483"
           style="fill:#efa78f" />
        <path
           d="M 369,551.18723 C 354.08127,546.94787 349.45923,529.34043 360.48233,518.73961 C 368.92853,510.61698 381.07147,510.61698 389.51767,518.73961 C 400.74046,529.53247 395.88078,547.05705 380.5,551.2584 C 375.79438,552.54377 373.72881,552.53099 369,551.18723 z"
           id="path2481"
           style="fill:#ea8766" />
        <path
           d="M 368.75908,550.99201 C 363.09425,548.89031 360.2691,546.72594 357.26478,542.18611 C 353.25785,536.13122 353.37624,528.1351 357.56107,522.17461 C 366.25874,509.78647 383.74126,509.78647 392.43893,522.17461 C 394.97634,525.78866 395.46667,527.43849 395.46667,532.36218 C 395.46667,537.28587 394.97634,538.9357 392.43893,542.54975 C 387.04529,550.23195 376.67535,553.929 368.75908,550.99201 z"
           id="path2479"
           style="fill:#e87c58" />
        <path
           d="M 370.5,551.44862 C 365.53311,550.20383 361.24401,547.55016 358.64387,544.11323 C 348.64762,530.89993 358.04738,513.04548 375,513.04548 C 384.82036,513.04548 392.47645,518.82859 394.94637,528.11218 C 398.49834,541.46285 384.39078,554.92989 370.5,551.44862 z"
           id="path2477"
           style="fill:#e2582b" />
        <path
           d="M 370.79914,551.35935 C 357.92072,549.04053 350.88133,534.54767 357.13462,523.2265 C 364.59005,509.72892 385.40995,509.72892 392.86539,523.2265 C 400.85792,537.69646 387.7477,554.41102 370.79914,551.35935 z"
           id="path2475"
           style="fill:#df4512" />
      </g>
    </g>
  </g>
</svg>
