<?xml version="1.0" encoding="UTF-8" standalone="no"?>
<!-- Created with Inkscape (http://www.inkscape.org/) -->
<svg
   xmlns:svg="http://www.w3.org/2000/svg"
   xmlns="http://www.w3.org/2000/svg"
   version="1.0"
   width="128"
   height="128"
   id="svg2">
  <defs
     id="defs4" />
  <g
     id="layer1">
    <path
       d="M 4.7593467,88.54145 C 4.7593467,55.566558 6.0893634,45.581267 23.896783,35.300149 C 30.500268,29.008998 61.371236,30.692643 79.494408,30.542441 L 123.98989,30.137084 L 124.22952,43.54816 C 124.04253,69.764477 120.56658,80.868376 104.4053,92.584556 C 97.130696,96.667687 81.474598,97.579524 48.859131,97.346677 C 22.487115,97.158401 4.7474619,97.862916 4.7474619,97.862916 L 4.7593467,88.54145 z"
       id="path10790"
       style="fill:#ffffff;fill-opacity:1" />
    <g
       transform="matrix(0.9038385,0,0,0.9038385,6.1289608,6.1543325)"
       id="g10792">
      <path
         d="M 5.0108287,77.827235 C 5.0391548,61.653888 12.683128,49.256798 26.730732,42.601626 C 32.747022,38.428713 60.872879,39.545473 77.384502,39.445843 L 121.94464,39.176971 L 121.94231,45.949715 C 121.66442,53.858642 120.96805,57.801542 118.35805,63.098267 C 114.67173,70.579292 108.42658,77.187701 100.08027,80.598309 C 93.452533,83.306645 79.188608,83.911466 49.473376,83.757018 C 25.446415,83.632135 5,84.010153 5,84.010153 L 5.0108287,77.827235 z"
         id="path2244"
         style="fill:#e04613;fill-opacity:1" />
      <path
         d="M 5.5276798,91.865171 L 5.5276798,88.216074 L 47.867163,88.216074 C 86.277664,88.216074 90.700954,88.061767 95.5335,86.553235 C 107.92859,82.683966 116.83887,73.883593 121.09809,61.30398 L 122.3336,57.654882 L 121.82624,63.120409 C 120.48163,77.605302 107.6171,91.31427 92.376912,94.502827 C 89.252408,95.156539 73.038756,95.514269 46.535124,95.514269 L 5.5276798,95.514269 L 5.5276798,91.865171 z"
         id="path2242"
         style="fill:#262729;fill-opacity:1" />
      <path
         d="M 5.0474371,71.225281 C 5.0757632,55.051934 13.210808,42.565558 27.258411,35.910386 C 33.274701,31.737473 61.400558,32.854233 77.912181,32.754603 L 122.47232,32.485731 L 122.15749,41.445975 C 121.8796,49.354902 121.49573,51.110302 118.88573,56.407027 C 115.19941,63.888052 108.95426,70.496461 100.60795,73.907069 C 93.980212,76.615405 79.716287,77.220226 50.001055,77.065778 C 25.974094,76.940895 5.0366084,77.408199 5.0366084,77.408199 L 5.0474371,71.225281 z"
         id="path2237"
         style="fill:#262729;fill-opacity:1" />
    </g>
    <g
       transform="translate(5.9162262,0)"
       id="g10852">
      <path
         d="M 35.709317,56.305985 L 86.260329,56.308246"
         id="path2508"
         style="fill:#ffffff;fill-rule:evenodd;stroke:#ffffff;stroke-width:1.2102555px;stroke-linecap:butt;stroke-linejoin:miter;stroke-opacity:1" />
      <path
         d="M -5.5558395,76.60849 A 6.060915,6.060915 0 1 1 -17.67767,76.60849 A 6.060915,6.060915 0 1 1 -5.5558395,76.60849 z"
         transform="matrix(-4.7833242e-5,1.0829026,-1.0761923,-4.8131494e-5,113.4434,68.775674)"
         id="path2510"
         style="opacity:1;fill:#ffffff;fill-opacity:1;stroke:none;stroke-width:0.5;stroke-linecap:round;stroke-linejoin:miter;stroke-miterlimit:4;stroke-dasharray:none;stroke-dashoffset:0;stroke-opacity:1" />
      <path
         d="M 78.045139,49.684822 L 78.044575,62.438059 L 91.691769,56.696674 L 78.045139,49.684822 z"
         id="path3481"
         style="fill:#ffffff;fill-rule:evenodd;stroke:none;stroke-width:0.87988961px;stroke-linecap:butt;stroke-linejoin:miter;stroke-opacity:1" />
      <path
         d="M 46.937373,56.579961 C 46.596605,59.661799 47.557932,64.758054 52.280406,64.758265 L 68.189083,64.728404"
         id="path4452"
         style="fill:none;fill-rule:evenodd;stroke:#ffffff;stroke-width:1.2102555px;stroke-linecap:butt;stroke-linejoin:miter;stroke-opacity:1" />
      <path
         d="M 41.197706,55.993826 C 40.873251,51.901545 43.901554,46.617142 46.537872,46.741657 L 61.287039,46.777158"
         id="path4454"
         style="fill:none;fill-rule:evenodd;stroke:#ffffff;stroke-width:1.2102555px;stroke-linecap:butt;stroke-linejoin:miter;stroke-opacity:1" />
      <rect
         width="7.2990546"
         height="7.2538257"
         rx="0"
         ry="0"
         x="61.144024"
         y="-71.412781"
         transform="matrix(-4.4171322e-5,1,-1,-4.4723877e-5,0,0)"
         id="rect4456"
         style="opacity:1;fill:#ffffff;fill-opacity:1;stroke:none;stroke-width:0.5;stroke-linecap:round;stroke-linejoin:miter;stroke-miterlimit:4;stroke-dasharray:none;stroke-dashoffset:0;stroke-opacity:1" />
      <path
         d="M -18.928572,41.125 A 2.6785715,2.6785715 0 1 1 -24.285715,41.125 A 2.6785715,2.6785715 0 1 1 -18.928572,41.125 z"
         transform="matrix(-6.3777658e-5,1.4438703,-1.4349232,-6.4175328e-5,122.7055,78.068062)"
         id="path4458"
         style="opacity:1;fill:#ffffff;fill-opacity:1;stroke:none;stroke-width:0.5;stroke-linecap:round;stroke-linejoin:miter;stroke-miterlimit:4;stroke-dasharray:none;stroke-dashoffset:0;stroke-opacity:1" />
    </g>
    <g
       transform="translate(-275.41668,-461.57486)"
       id="g2486">
      <g
         transform="translate(-0.5783133,0.7710844)"
         id="g2473">
        <path
           d="M 366.5,551.46632 C 349.68691,543.68211 350.12689,520.05454 367.21788,512.91523 C 380.57962,507.33371 395.95608,517.73886 395.95608,532.36218 C 395.95608,547.33588 379.97103,557.7032 366.5,551.46632 z"
           id="path2487"
           style="fill:#c7d8dc" />
        <path
           d="M 367.5,551.85943 C 365.3,551.0812 361.84938,548.68291 359.83196,546.5299 C 351.93471,538.10192 352.1613,525.93772 360.36842,517.7306 C 368.81009,509.28893 381.18991,509.28893 389.63158,517.7306 C 398.07325,526.17228 398.07325,538.55209 389.63158,546.99376 C 383.54012,553.08522 375.78504,554.79019 367.5,551.85943 z"
           id="path2485"
           style="fill:#b6ccd1" />
        <path
           d="M 368.01027,552.04668 C 362.84943,550.40318 356.63409,543.69859 355.06021,538.07723 C 350.80983,522.89636 364.78949,508.24651 379.75,512.20383 C 395.74048,516.43359 401.09187,535.33427 389.55927,546.84939 C 383.59876,552.80086 376.07596,554.61525 368.01027,552.04668 z"
           id="path2483"
           style="fill:#94b5bd" />
        <path
           d="M 368.55782,551.92282 C 360.81466,549.06081 355.81328,543.13541 354.48006,535.24415 C 352.16295,521.52932 366.30712,508.67507 379.73634,512.29118 C 394.26665,516.20379 400.13315,531.96095 391.71343,544.46114 C 387.11067,551.29455 376.29092,554.78111 368.55782,551.92282 z"
           id="path2481"
           style="fill:#76a0aa" />
        <path
           d="M 369.76405,552.41775 C 356.44761,548.15851 350.50132,533.71431 357.29324,522.12477 C 365.31181,508.44212 384.68819,508.44212 392.70675,522.12477 C 400.20503,534.91961 391.81089,551.24173 376.91903,552.82347 C 374.48856,553.08163 371.26882,552.89905 369.76405,552.41775 z"
           id="path2479"
           style="fill:#6695a0" />
        <path
           d="M 370.3582,552.42975 C 352.4864,548.04561 348.84331,523.98474 364.64883,514.72209 C 382.69225,504.14794 403.21424,524.66993 392.64009,542.71335 C 388.27554,550.16089 378.49509,554.42582 370.3582,552.42975 z"
           id="path2477"
           style="fill:#417b89" />
        <path
           d="M 370.51275,552.20329 C 349.42404,547.39852 349.6044,517.23394 370.75,512.52185 C 381.67277,510.08781 392.36587,517.00797 394.84033,528.11218 C 398.05378,542.53259 384.96345,555.49568 370.51275,552.20329 z"
           id="path2475"
           style="fill:#276a7a" />
      </g>
    </g>
  </g>
</svg>
