<?xml version="1.0" encoding="UTF-8" standalone="no"?>
<!-- Created with Inkscape (http://www.inkscape.org/) -->
<svg
   xmlns:svg="http://www.w3.org/2000/svg"
   xmlns="http://www.w3.org/2000/svg"
   version="1.0"
   width="128"
   height="128"
   id="svg2">
  <defs
     id="defs4" />
  <g
     id="layer1">
    <path
       d="M 4.7593467,88.54145 C 4.7593467,55.566558 6.0893634,45.581267 23.896783,35.300149 C 30.500268,29.008998 61.371236,30.692643 79.494408,30.542441 L 123.98989,30.137084 L 124.22952,43.54816 C 124.04253,69.764477 120.56658,80.868376 104.4053,92.584556 C 97.130696,96.667687 81.474598,97.579524 48.859131,97.346677 C 22.487115,97.158401 4.7474619,97.862916 4.7474619,97.862916 L 4.7593467,88.54145 z"
       id="path10790"
       style="fill:#ffffff;fill-opacity:1" />
    <g
       transform="matrix(0.9038385,0,0,0.9038385,6.1289608,6.1543325)"
       id="g10792">
      <path
         d="M 5.0108287,77.827235 C 5.0391548,61.653888 12.683128,49.256798 26.730732,42.601626 C 32.747022,38.428713 60.872879,39.545473 77.384502,39.445843 L 121.94464,39.176971 L 121.94231,45.949715 C 121.66442,53.858642 120.96805,57.801542 118.35805,63.098267 C 114.67173,70.579292 108.42658,77.187701 100.08027,80.598309 C 93.452533,83.306645 79.188608,83.911466 49.473376,83.757018 C 25.446415,83.632135 5,84.010153 5,84.010153 L 5.0108287,77.827235 z"
         id="path2244"
         style="fill:#e04613;fill-opacity:1" />
      <path
         d="M 5.5276798,91.865171 L 5.5276798,88.216074 L 47.867163,88.216074 C 86.277664,88.216074 90.700954,88.061767 95.5335,86.553235 C 107.92859,82.683966 116.83887,73.883593 121.09809,61.30398 L 122.3336,57.654882 L 121.82624,63.120409 C 120.48163,77.605302 107.6171,91.31427 92.376912,94.502827 C 89.252408,95.156539 73.038756,95.514269 46.535124,95.514269 L 5.5276798,95.514269 L 5.5276798,91.865171 z"
         id="path2242"
         style="fill:#262729;fill-opacity:1" />
      <path
         d="M 5.0474371,71.225281 C 5.0757632,55.051934 13.210808,42.565558 27.258411,35.910386 C 33.274701,31.737473 61.400558,32.854233 77.912181,32.754603 L 122.47232,32.485731 L 122.15749,41.445975 C 121.8796,49.354902 121.49573,51.110302 118.88573,56.407027 C 115.19941,63.888052 108.95426,70.496461 100.60795,73.907069 C 93.980212,76.615405 79.716287,77.220226 50.001055,77.065778 C 25.974094,76.940895 5.0366084,77.408199 5.0366084,77.408199 L 5.0474371,71.225281 z"
         id="path2237"
         style="fill:#262729;fill-opacity:1" />
    </g>
    <g
       transform="translate(5.9162262,0)"
       id="g10852">
      <path
         d="M 35.709317,56.305985 L 86.260329,56.308246"
         id="path2508"
         style="fill:#ffffff;fill-rule:evenodd;stroke:#ffffff;stroke-width:1.2102555px;stroke-linecap:butt;stroke-linejoin:miter;stroke-opacity:1" />
      <path
         d="M -5.5558395,76.60849 A 6.060915,6.060915 0 1 1 -17.67767,76.60849 A 6.060915,6.060915 0 1 1 -5.5558395,76.60849 z"
         transform="matrix(-4.7833242e-5,1.0829026,-1.0761923,-4.8131494e-5,113.4434,68.775674)"
         id="path2510"
         style="opacity:1;fill:#ffffff;fill-opacity:1;stroke:none;stroke-width:0.5;stroke-linecap:round;stroke-linejoin:miter;stroke-miterlimit:4;stroke-dasharray:none;stroke-dashoffset:0;stroke-opacity:1" />
      <path
         d="M 78.045139,49.684822 L 78.044575,62.438059 L 91.691769,56.696674 L 78.045139,49.684822 z"
         id="path3481"
         style="fill:#ffffff;fill-rule:evenodd;stroke:none;stroke-width:0.87988961px;stroke-linecap:butt;stroke-linejoin:miter;stroke-opacity:1" />
      <path
         d="M 46.937373,56.579961 C 46.596605,59.661799 47.557932,64.758054 52.280406,64.758265 L 68.189083,64.728404"
         id="path4452"
         style="fill:none;fill-rule:evenodd;stroke:#ffffff;stroke-width:1.2102555px;stroke-linecap:butt;stroke-linejoin:miter;stroke-opacity:1" />
      <path
         d="M 41.197706,55.993826 C 40.873251,51.901545 43.901554,46.617142 46.537872,46.741657 L 61.287039,46.777158"
         id="path4454"
         style="fill:none;fill-rule:evenodd;stroke:#ffffff;stroke-width:1.2102555px;stroke-linecap:butt;stroke-linejoin:miter;stroke-opacity:1" />
      <rect
         width="7.2990546"
         height="7.2538257"
         rx="0"
         ry="0"
         x="61.144024"
         y="-71.412781"
         transform="matrix(-4.4171322e-5,1,-1,-4.4723877e-5,0,0)"
         id="rect4456"
         style="opacity:1;fill:#ffffff;fill-opacity:1;stroke:none;stroke-width:0.5;stroke-linecap:round;stroke-linejoin:miter;stroke-miterlimit:4;stroke-dasharray:none;stroke-dashoffset:0;stroke-opacity:1" />
      <path
         d="M -18.928572,41.125 A 2.6785715,2.6785715 0 1 1 -24.285715,41.125 A 2.6785715,2.6785715 0 1 1 -18.928572,41.125 z"
         transform="matrix(-6.3777658e-5,1.4438703,-1.4349232,-6.4175328e-5,122.7055,78.068062)"
         id="path4458"
         style="opacity:1;fill:#ffffff;fill-opacity:1;stroke:none;stroke-width:0.5;stroke-linecap:round;stroke-linejoin:miter;stroke-miterlimit:4;stroke-dasharray:none;stroke-dashoffset:0;stroke-opacity:1" />
    </g>
    <g
       transform="translate(-277.73163,-459.08474)"
       id="g2486">
      <g
         transform="translate(0.4819277,-0.5783137)"
         id="g2473">
        <path
           d="M 367.5,551.20902 C 354.997,546.61605 350.09633,531.76655 357.58518,521.16619 C 361.68032,515.36957 366.93871,512.86218 375,512.86218 C 383.10708,512.86218 388.32226,515.37298 392.5,521.28738 C 395.12572,525.0046 395.5,526.38629 395.5,532.36218 C 395.5,538.33807 395.12572,539.71976 392.5,543.43698 C 390.85,545.77287 387.72368,548.60185 385.55262,549.72359 C 380.99543,552.0782 371.90276,552.82637 367.5,551.20902 z"
           id="path2487"
           style="fill:#f7d6cb" />
        <path
           d="M 366.5,550.46632 C 356.1096,545.65572 351.46309,534.43652 355.89586,524.86218 C 363.54749,508.33544 386.45251,508.33544 394.10414,524.86218 C 401.54312,540.92962 383.01703,558.11345 366.5,550.46632 z"
           id="path2485"
           style="fill:#f5c9bb" />
        <path
           d="M 367.63726,550.89737 C 360.19307,548.24359 354.04392,539.85893 354.04392,532.36218 C 354.04392,522.13904 364.28217,512.37333 375,512.37333 C 382.77531,512.37333 390.86118,517.64711 394.13502,524.8536 C 401.25526,540.52692 384.56447,556.93174 367.63726,550.89737 z"
           id="path2483"
           style="fill:#efa78f" />
        <path
           d="M 369,551.18723 C 354.08127,546.94787 349.45923,529.34043 360.48233,518.73961 C 368.92853,510.61698 381.07147,510.61698 389.51767,518.73961 C 400.74046,529.53247 395.88078,547.05705 380.5,551.2584 C 375.79438,552.54377 373.72881,552.53099 369,551.18723 z"
           id="path2481"
           style="fill:#ea8766" />
        <path
           d="M 368.75908,550.99201 C 363.09425,548.89031 360.2691,546.72594 357.26478,542.18611 C 353.25785,536.13122 353.37624,528.1351 357.56107,522.17461 C 366.25874,509.78647 383.74126,509.78647 392.43893,522.17461 C 394.97634,525.78866 395.46667,527.43849 395.46667,532.36218 C 395.46667,537.28587 394.97634,538.9357 392.43893,542.54975 C 387.04529,550.23195 376.67535,553.929 368.75908,550.99201 z"
           id="path2479"
           style="fill:#e87c58" />
        <path
           d="M 370.5,551.44862 C 365.53311,550.20383 361.24401,547.55016 358.64387,544.11323 C 348.64762,530.89993 358.04738,513.04548 375,513.04548 C 384.82036,513.04548 392.47645,518.82859 394.94637,528.11218 C 398.49834,541.46285 384.39078,554.92989 370.5,551.44862 z"
           id="path2477"
           style="fill:#e2582b" />
        <path
           d="M 370.79914,551.35935 C 357.92072,549.04053 350.88133,534.54767 357.13462,523.2265 C 364.59005,509.72892 385.40995,509.72892 392.86539,523.2265 C 400.85792,537.69646 387.7477,554.41102 370.79914,551.35935 z"
           id="path2475"
           style="fill:#df4512" />
      </g>
    </g>
  </g>
</svg>
