/* XPM */
static char * closeA_xpm[] = {
"44 48 707 2",
"  	c #F3F8F6",
". 	c #957374",
"+ 	c #FEF9F5",
"@ 	c #FFF9F3",
"# 	c #FFF9FA",
"$ 	c #FBFBFB",
"% 	c #FBFBF9",
"& 	c #FCFBF7",
"* 	c #FBFDFA",
"= 	c #FBFDF8",
"- 	c #FBFEF7",
"; 	c #FEFDF9",
"> 	c #FDFCF8",
", 	c #FDFCFA",
"' 	c #FCFCFA",
") 	c #FBFDFC",
"! 	c #FAFCFB",
"~ 	c #FFF9FF",
"{ 	c #FFFDFF",
"] 	c #FDF8F5",
"^ 	c #FFF6F6",
"/ 	c #FFFCFD",
"( 	c #4E4E4E",
"_ 	c #F3FCFB",
": 	c #8A6364",
"< 	c #DACDC7",
"[ 	c #C1A8A1",
"} 	c #C8AAAA",
"| 	c #D2A7A1",
"1 	c #D2A7A0",
"2 	c #D3A6A0",
"3 	c #D6A79F",
"4 	c #D7A69F",
"5 	c #D7A79D",
"6 	c #DEA59E",
"7 	c #DFA69F",
"8 	c #DFA69D",
"9 	c #E0A79C",
"0 	c #DFA99F",
"a 	c #DEA89E",
"b 	c #DDA79D",
"c 	c #DCA79F",
"d 	c #DAA89F",
"e 	c #D9A79E",
"f 	c #D8A89E",
"g 	c #D8A7A0",
"h 	c #CFA9A0",
"i 	c #CAA89E",
"j 	c #D2ACA3",
"k 	c #D1A8A2",
"l 	c #D8B7B2",
"m 	c #594A45",
"n 	c #D7D8D2",
"o 	c #946263",
"p 	c #DBC4BC",
"q 	c #C8A295",
"r 	c #C89C99",
"s 	c #C8A19C",
"t 	c #C9A09C",
"u 	c #CCA09D",
"v 	c #CDA09B",
"w 	c #D0A09C",
"x 	c #D2A19C",
"y 	c #D3A09C",
"z 	c #DBA09C",
"A 	c #DCA19B",
"B 	c #DDA29C",
"C 	c #DDA29A",
"D 	c #DEA39B",
"E 	c #DEA499",
"F 	c #DCA199",
"G 	c #DBA19D",
"H 	c #D8A19C",
"I 	c #D6A19B",
"J 	c #D1A09C",
"K 	c #CEA19C",
"L 	c #CAA19B",
"M 	c #C9A09E",
"N 	c #C69E9F",
"O 	c #DABFC4",
"P 	c #454348",
"Q 	c #CCDEE0",
"R 	c #946055",
"S 	c #CFC6C9",
"T 	c #C39B91",
"U 	c #C99A90",
"V 	c #C89B96",
"W 	c #CB9C96",
"X 	c #CD9C97",
"Y 	c #CF9D96",
"Z 	c #D19C96",
"` 	c #D29D95",
" .	c #D49D96",
"..	c #E29993",
"+.	c #D19D8F",
"@.	c #E39D9B",
"#.	c #D7999C",
"$.	c #8E7676",
"%.	c #505B61",
"&.	c #55586B",
"*.	c #50575F",
"=.	c #8E7571",
"-.	c #DA9EA0",
";.	c #8C7271",
">.	c #4E5864",
",.	c #555867",
"'.	c #5D5763",
").	c #8C706F",
"!.	c #DE9E9C",
"~.	c #D79E97",
"{.	c #D59E97",
"].	c #D39E96",
"^.	c #D09E97",
"/.	c #CF9E97",
"(.	c #CE9D96",
"_.	c #CD9E96",
":.	c #CE9D8F",
"<.	c #CC9C9A",
"[.	c #C89B98",
"}.	c #C79C95",
"|.	c #C89C93",
"1.	c #D2B8BB",
"2.	c #574136",
"3.	c #C9DDE4",
"4.	c #915B51",
"5.	c #CEC2C4",
"6.	c #C3928B",
"7.	c #C7928C",
"8.	c #C6948B",
"9.	c #C7958C",
"0.	c #CA958D",
"a.	c #CB958B",
"b.	c #CE958C",
"c.	c #CF958A",
"d.	c #D0968B",
"e.	c #D2968C",
"f.	c #D69289",
"g.	c #D49B90",
"h.	c #D49784",
"i.	c #D4958E",
"j.	c #59585E",
"k.	c #F9F8FF",
"l.	c #FFF8FE",
"m.	c #FFFBFF",
"n.	c #535562",
"o.	c #80726F",
"p.	c #625A65",
"q.	c #F4FEFF",
"r.	c #FEF9FF",
"s.	c #F4FCFE",
"t.	c #525B60",
"u.	c #D99588",
"v.	c #DC938C",
"w.	c #DC938D",
"x.	c #DA938D",
"y.	c #D8938C",
"z.	c #D6938B",
"A.	c #D4938D",
"B.	c #D3928C",
"C.	c #D2938C",
"D.	c #CC9388",
"E.	c #CA9492",
"F.	c #C99391",
"G.	c #C79691",
"H.	c #D3B3B6",
"I.	c #573C35",
"J.	c #CBDCE4",
"K.	c #90564B",
"L.	c #CDBFBF",
"M.	c #BF8A82",
"N.	c #C28B84",
"O.	c #C28D87",
"P.	c #C38C85",
"Q.	c #C48D86",
"R.	c #C68D84",
"S.	c #C88D85",
"T.	c #C98D83",
"U.	c #CC8D84",
"V.	c #CD8E85",
"W.	c #D09086",
"X.	c #D1928B",
"Y.	c #CF8B82",
"Z.	c #D6968A",
"`.	c #90696C",
" +	c #58596D",
".+	c #F3FBFF",
"++	c #FFFFEE",
"@+	c #F9FDFF",
"#+	c #5B5765",
"$+	c #F4F5FA",
"%+	c #FFFEFF",
"&+	c #FFFFFF",
"*+	c #565769",
"=+	c #886E6F",
"-+	c #D78F80",
";+	c #D38F86",
">+	c #D18E85",
",+	c #CF8F86",
"'+	c #CA8E84",
")+	c #CA8E86",
"!+	c #C88C81",
"~+	c #C68C8A",
"{+	c #C48A88",
"]+	c #C18D82",
"^+	c #D1B1B4",
"/+	c #523932",
"(+	c #CBDFE8",
"_+	c #8A4C41",
":+	c #C7B9B8",
"<+	c #B47E74",
"[+	c #B9827B",
"}+	c #BA807C",
"|+	c #BB817D",
"1+	c #BD827C",
"2+	c #BF827D",
"3+	c #C1827B",
"4+	c #C3837A",
"5+	c #C6837B",
"6+	c #C7837A",
"7+	c #C9857A",
"8+	c #CE8380",
"9+	c #D48686",
"0+	c #CB8579",
"a+	c #D07D79",
"b+	c #896976",
"c+	c #F6FFF5",
"d+	c #FAF5F1",
"e+	c #FFF6FB",
"f+	c #FEFFFF",
"g+	c #FBF7F8",
"h+	c #5D515F",
"i+	c #8B666D",
"j+	c #CE8282",
"k+	c #CE8479",
"l+	c #D0837B",
"m+	c #D0837D",
"n+	c #CD827C",
"o+	c #CC837C",
"p+	c #C9827C",
"q+	c #C7827D",
"r+	c #C5827C",
"s+	c #C38475",
"t+	c #BC7F7A",
"u+	c #BB8279",
"v+	c #B88276",
"w+	c #CCACAD",
"x+	c #49322A",
"y+	c #C4DFE6",
"z+	c #884238",
"A+	c #CBB3AF",
"B+	c #B36D63",
"C+	c #B6716A",
"D+	c #B67068",
"E+	c #B77169",
"F+	c #BA7168",
"G+	c #BE7167",
"H+	c #C07266",
"I+	c #C27366",
"J+	c #C67468",
"K+	c #C67466",
"L+	c #C67564",
"M+	c #CE6F69",
"N+	c #CB7566",
"O+	c #D07563",
"P+	c #D37569",
"Q+	c #D2736D",
"R+	c #906765",
"S+	c #555369",
"T+	c #E8EBF4",
"U+	c #E2EADB",
"V+	c #E3EAE3",
"W+	c #5A5E61",
"X+	c #896162",
"Y+	c #CF7769",
"Z+	c #D2796B",
"`+	c #D0736C",
" @	c #CA7767",
".@	c #C97867",
"+@	c #C67768",
"@@	c #C47767",
"#@	c #C27668",
"$@	c #BE7668",
"%@	c #BB7667",
"&@	c #C07466",
"*@	c #BE736D",
"=@	c #BC716B",
"-@	c #B87268",
";@	c #B47266",
">@	c #CAA2A3",
",@	c #462921",
"'@	c #CCE0E9",
")@	c #72241A",
"!@	c #BB9690",
"~@	c #9B3E37",
"{@	c #9A3C3A",
"]@	c #9A4131",
"^@	c #9B4232",
"/@	c #9E4331",
"(@	c #A24331",
"_@	c #A44330",
":@	c #A84530",
"<@	c #AA462F",
"[@	c #AC4630",
"}@	c #AE462D",
"|@	c #BA4534",
"1@	c #B54432",
"2@	c #BA462F",
"3@	c #BD432C",
"4@	c #AE4937",
"5@	c #7A4E4B",
"6@	c #585568",
"7@	c #E6E8F4",
"8@	c #EBECEE",
"9@	c #E1EBE2",
"0@	c #525864",
"a@	c #754E4F",
"b@	c #B14A41",
"c@	c #BD4020",
"d@	c #BD4334",
"e@	c #BC4330",
"f@	c #BB4430",
"g@	c #B84331",
"h@	c #B64331",
"i@	c #B14231",
"j@	c #AF4130",
"k@	c #AC4131",
"l@	c #AB4131",
"m@	c #9E3E30",
"n@	c #9D4039",
"o@	c #9D3E38",
"p@	c #994137",
"q@	c #964237",
"r@	c #B88083",
"s@	c #3B120C",
"t@	c #CFD9E3",
"u@	c #722015",
"v@	c #BD958D",
"w@	c #9A352B",
"x@	c #94332C",
"y@	c #983727",
"z@	c #993828",
"A@	c #9C3828",
"B@	c #9F3827",
"C@	c #A23926",
"D@	c #A73A26",
"E@	c #A93A26",
"F@	c #AB3B25",
"G@	c #B13D26",
"H@	c #B53C27",
"I@	c #B63427",
"J@	c #B93F2A",
"K@	c #B43B28",
"L@	c #7A4B45",
"M@	c #5B585F",
"N@	c #E0E0DE",
"O@	c #E4DEDE",
"P@	c #E9DDEB",
"Q@	c #DFE2E9",
"R@	c #E2E4DF",
"S@	c #5D4D67",
"T@	c #854D4C",
"U@	c #B73E2D",
"V@	c #C03A1F",
"W@	c #B63C25",
"X@	c #B43C24",
"Y@	c #B23B25",
"Z@	c #AF3A26",
"`@	c #AB3B27",
" #	c #A93A27",
".#	c #A53A26",
"+#	c #A43927",
"@#	c #A03B29",
"##	c #9F3A32",
"$#	c #9D362D",
"%#	c #97372B",
"&#	c #91382A",
"*#	c #B67C7B",
"=#	c #381008",
"-#	c #D3DDE6",
";#	c #711F13",
">#	c #BD998D",
",#	c #9A3D2C",
"'#	c #994135",
")#	c #9C3E36",
"!#	c #9D3F35",
"~#	c #A13F34",
"{#	c #A43F33",
"]#	c #A73F32",
"^#	c #AA4032",
"/#	c #B14334",
"(#	c #BC452F",
"_#	c #854B4A",
":#	c #5C5662",
"<#	c #CED9DF",
"[#	c #E0DBDF",
"}#	c #E0DFDB",
"|#	c #535561",
"1#	c #DBDFDE",
"2#	c #D7DAD1",
"3#	c #DCDBE0",
"4#	c #505165",
"5#	c #77524A",
"6#	c #C4422C",
"7#	c #B94432",
"8#	c #B74431",
"9#	c #B44331",
"0#	c #B24332",
"a#	c #AE4333",
"b#	c #AB4133",
"c#	c #A74133",
"d#	c #A0412B",
"e#	c #9E4132",
"f#	c #9F3F31",
"g#	c #9A412F",
"h#	c #964331",
"i#	c #B98682",
"j#	c #341206",
"k#	c #C9DEE3",
"l#	c #6C240E",
"m#	c #BAA2A0",
"n#	c #954A33",
"o#	c #9F4545",
"p#	c #9C4A3C",
"q#	c #9D4A3C",
"r#	c #A04A3B",
"s#	c #A24B3A",
"t#	c #A74C3A",
"u#	c #A94C3A",
"v#	c #AD4E3C",
"w#	c #AE4F3B",
"x#	c #AD513A",
"y#	c #B4543E",
"z#	c #B74B2F",
"A#	c #B84C40",
"B#	c #5C5954",
"C#	c #CFD2DB",
"D#	c #D9D8DD",
"E#	c #D6D7DB",
"F#	c #515966",
"G#	c #855352",
"H#	c #615353",
"I#	c #CEDCE7",
"J#	c #D4D8D9",
"K#	c #D5D4DC",
"L#	c #60555D",
"M#	c #B54F43",
"N#	c #BC4F3A",
"O#	c #BA4F3B",
"P#	c #B74E3B",
"Q#	c #B44D3C",
"R#	c #B04C3C",
"S#	c #AD4B3E",
"T#	c #AA4A3E",
"U#	c #9C4B47",
"V#	c #A14842",
"W#	c #A5493E",
"X#	c #964E38",
"Y#	c #994C3C",
"Z#	c #B48A7C",
"`#	c #430E18",
" $	c #CBDFE0",
".$	c #7D2A1A",
"+$	c #BB9F9C",
"@$	c #9E583E",
"#$	c #A24F49",
"$$	c #A25448",
"%$	c #A35549",
"&$	c #A55649",
"*$	c #A85648",
"=$	c #AA5747",
"-$	c #AE5746",
";$	c #B15848",
">$	c #B25947",
",$	c #B75C3F",
"'$	c #B55E43",
")$	c #BD6245",
"!$	c #B65E50",
"~$	c #6C5E5D",
"{$	c #605A68",
"]$	c #5A5664",
"^$	c #875755",
"/$	c #A55F55",
"($	c #7C5E60",
"_$	c #595468",
":$	c #58555C",
"<$	c #63535D",
"[$	c #755757",
"}$	c #BB5F48",
"|$	c #BA6048",
"1$	c #B75F47",
"2$	c #B55F48",
"3$	c #B35E49",
"4$	c #AF5D48",
"5$	c #AD5C4B",
"6$	c #AA5B4A",
"7$	c #A85B4B",
"8$	c #AF5743",
"9$	c #A95843",
"0$	c #A85744",
"a$	c #AA5445",
"b$	c #A3574A",
"c$	c #B29B89",
"d$	c #42151C",
"e$	c #C3E0DB",
"f$	c #802922",
"g$	c #C6A7AD",
"h$	c #A56758",
"i$	c #A66261",
"j$	c #A86459",
"k$	c #A96558",
"l$	c #AB6559",
"m$	c #AE6658",
"n$	c #B06758",
"o$	c #B36757",
"p$	c #B66959",
"q$	c #B76A5A",
"r$	c #B96759",
"s$	c #BB6E5E",
"t$	c #C06A53",
"u$	c #C66751",
"v$	c #BE705C",
"w$	c #B76653",
"x$	c #C26C55",
"y$	c #BC6E57",
"z$	c #BA6E57",
"A$	c #C86F51",
"B$	c #C06759",
"C$	c #C3715B",
"D$	c #B96A59",
"E$	c #B87564",
"F$	c #BA7053",
"G$	c #BE6C57",
"H$	c #BD6B56",
"I$	c #BB6A57",
"J$	c #B86958",
"K$	c #B4685A",
"L$	c #B3675A",
"M$	c #B06659",
"N$	c #B46556",
"O$	c #9F6A58",
"P$	c #AC615C",
"Q$	c #AD6566",
"R$	c #A66A6C",
"S$	c #B89A9A",
"T$	c #4B2031",
"U$	c #D3DEE4",
"V$	c #7D2E29",
"W$	c #C9ACAE",
"X$	c #A37261",
"Y$	c #A77366",
"Z$	c #AF6F66",
"`$	c #B26F66",
" %	c #B47065",
".%	c #B67066",
"+%	c #B77165",
"@%	c #BB7367",
"#%	c #BC7466",
"$%	c #C07764",
"%%	c #BD7868",
"&%	c #C37666",
"*%	c #C47B68",
"=%	c #C97364",
"-%	c #C87B67",
";%	c #C87565",
">%	c #C5776A",
",%	c #C8785D",
"'%	c #C67A60",
")%	c #C07860",
"!%	c #CB7E6A",
"~%	c #C57A63",
"{%	c #C5745F",
"]%	c #CB7868",
"^%	c #C27A61",
"/%	c #C17960",
"(%	c #BF7960",
"_%	c #BE7761",
":%	c #BB7760",
"<%	c #B97761",
"[%	c #B87562",
"}%	c #B77662",
"|%	c #B67269",
"1%	c #B26F67",
"2%	c #AD766F",
"3%	c #AD7B72",
"4%	c #C19C93",
"5%	c #958F83",
"6%	c #6E4D56",
"7%	c #C5DFDC",
"8%	c #86413A",
"9%	c #E2C5C9",
"0%	c #C8A39B",
"a%	c #CCA59E",
"b%	c #C4A9A0",
"c%	c #C6A9A1",
"d%	c #C7ABA0",
"e%	c #C8AA9F",
"f%	c #C9ABA0",
"g%	c #CBADA2",
"h%	c #CDADA0",
"i%	c #CDB1A3",
"j%	c #C6AA9C",
"k%	c #D6B0A7",
"l%	c #CBAFA1",
"m%	c #D8AD9C",
"n%	c #D0B29A",
"o%	c #D8AEA0",
"p%	c #D7AFA3",
"q%	c #D4B096",
"r%	c #D6B1A1",
"s%	c #D8AFA9",
"t%	c #D2ABA4",
"u%	c #D6ABA4",
"v%	c #DBB1A1",
"w%	c #E1B2A2",
"x%	c #DAA699",
"y%	c #D7ACA5",
"z%	c #D7ACA6",
"A%	c #D4ABA5",
"B%	c #D3AAA4",
"C%	c #D1AAA5",
"D%	c #D0A9A4",
"E%	c #CFA7A5",
"F%	c #CEA8A5",
"G%	c #CBA9A7",
"H%	c #C8A9A4",
"I%	c #D3ABA9",
"J%	c #BAA39B",
"K%	c #98857F",
"L%	c #373536",
"M%	c #B6C2D0",
"N%	c #95B4C8",
"O%	c #57251C",
"P%	c #462627",
"Q%	c #4E2521",
"R%	c #55261E",
"S%	c #52281C",
"T%	c #53291D",
"U%	c #54281D",
"V%	c #54281B",
"W%	c #55291C",
"X%	c #562B1B",
"Y%	c #572C1C",
"Z%	c #552C26",
"`%	c #593127",
" &	c #5F2C2B",
".&	c #522B24",
"+&	c #603225",
"@&	c #553425",
"#&	c #5E312E",
"$&	c #582B26",
"%&	c #5C2E31",
"&&	c #5B2A2E",
"*&	c #5E2E2E",
"=&	c #543228",
"-&	c #583024",
";&	c #543427",
">&	c #5F2D30",
",&	c #553028",
"'&	c #542F27",
")&	c #532E26",
"!&	c #522D25",
"~&	c #512C26",
"{&	c #4E281F",
"]&	c #52231B",
"^&	c #48261A",
"/&	c #61352C",
"(&	c #7E5855",
"_&	c #B2C5BF",
":&	c #8CAEB7",
"<&	c #6D9CB0",
"[&	c #CFD5D1",
"}&	c #CADAE7",
"|&	c #C8D8E5",
"1&	c #C8D5DD",
"2&	c #CAD6E6",
"3&	c #CBD7E5",
"4&	c #CBD7E3",
"5&	c #CCD8E4",
"6&	c #C9D5E5",
"7&	c #CBDDDF",
"8&	c #CAD3DA",
"9&	c #CEDBE4",
"0&	c #CBDBDB",
"a&	c #C5D7DB",
"b&	c #CDD5E0",
"c&	c #CFDDDE",
"d&	c #C9DBE7",
"e&	c #C4D9DE",
"f&	c #D2DCE5",
"g&	c #C3D7DE",
"h&	c #CDDFE3",
"i&	c #C0DEE0",
"j&	c #C7DBE2",
"k&	c #C2DFDD",
"l&	c #CCDBDE",
"m&	c #CBDADD",
"n&	c #CAD9DC",
"o&	c #C7DBDC",
"p&	c #C4E4E3",
"q&	c #C6D9DF",
"r&	c #CFD8E1",
"s&	c #C7D8E0",
"t&	c #8FBAC3",
"u&	c #64A3B2",
"v&	c #6AA0BC",
"w&	c #66AAAB",
"x&	c #65A9AA",
"                                                                                        ",
". + @ # $ $ $ $ % % & & * * * = = = - - ; ; > > ; ; > > , , , ' ' * ) ! ~ { , ] ^ / ( _ ",
": < [ } | | 1 2 3 4 5 5 6 7 7 8 8 9 9 9 0 a a a a a a b c c d e f g 4 3 | h i j k l m n ",
"o p q r s t u v w x y y z z z A B C D E D C C C C C C F G G H H I I y y J K L M N O P Q ",
"R S T U V W W X Y Z `  ...+.@.#.$.%.&.*.=.-.;.>.,.'.).!.~.{. .].^./.(._.:.<.[.}.|.1.2.3.",
"4.5.6.7.8.9.0.a.b.c.d.e.f.g.h.i.j.k.l.m.n.o.p.q.r.s.t.u.v.w.x.y.z.A.B.C.D.E.F.G.8.H.I.J.",
"K.L.M.N.O.P.Q.R.S.T.U.V.W.X.Y.Z.`. +.+++@+#+$+%+&+*+=+-+;+;+>+,+V.'+)+S.!+~+{+O.]+^+/+(+",
"_+:+<+[+}+|+1+2+3+4+5+6+7+8+9+0+a+b+,.c+d+e+f+g+h+i+j+k+l+m+n+o+p+q+r+r+s+2+t+u+v+w+x+y+",
"z+A+B+C+D+E+F+G+H+I+J+K+L+M+N+O+P+Q+R+S+T+U+V+W+X+Y+Z+`+ @.@+@@@#@$@%@%@&@*@=@-@;@>@,@'@",
")@!@~@{@]@^@/@(@_@:@<@[@}@|@1@2@3@4@5@6@7@8@9@0@a@b@c@d@e@f@g@h@i@j@k@l@m@n@o@p@q@r@s@t@",
"u@v@w@x@y@z@A@B@C@D@E@F@G@H@I@J@K@L@M@N@O@P@Q@R@S@T@U@V@W@X@Y@Z@`@ #.#+#@###$#%#&#*#=#-#",
";#>#,#'#)#!#~#{#]#^#k@j@/#/#(#g@_#:#<#[#}#|#1#2#3#4#5#6#7#8#9#0#a#b#c#c#d#e#f#g#h#i#j#k#",
"l#m#n#o#p#q#r#s#t#u#v#w#x#y#z#A#B#C#D#E#F#G#H#I#J#K#L#M#N#O#P#Q#R#S#T#T#U#V#W#X#Y#Z#`# $",
".$+$@$#$$$%$&$*$=$-$;$>$,$'$)$!$~${$]$,.^$/$($_$:$<$[$}$|$1$2$3$4$5$6$7$8$9$0$a$b$c$d$e$",
"f$g$h$i$j$k$l$m$n$o$p$q$r$s$t$u$v$w$x$y$z$A$t$B$C$D$E$F$G$H$I$J$p$K$L$M$N$O$P$Q$R$S$T$U$",
"V$W$X$Y$Z$`$`$ %.%+%@%#%$%%%&%*%=%-%;%>%,%'%)%!%~%{%]%K+^%/%(%_%:%<%[%}%|%1%2%3%4%5%6%7%",
"8%9%0%a%b%b%c%d%e%f%g%h%i%j%k%l%m%n%o%p%q%r%s%t%u%v%w%x%y%z%A%B%C%D%E%F%G%H%I%J%K%L%M%N%",
"O%P%Q%R%S%T%U%U%V%W%X%Y%Z%`% &.&+&@&#&$&%&&&*&=&-&;&Z%>&,&,&'&)&)&!&~&~&{&]&^&/&(&_&:&<&",
"[&}&|&1&2&3&3&3&3&4&5&5&6&7&8&9&0&a&b&c&d&e&f&g&h&i&j&k&l&l&m&m&m&m&n&n&o&p&q&r&s&t&u&v&",
"w&w&w&w&w&w&w&w&w&w&w&w&w&w&w&w&w&w&w&w&w&w&w&w&w&w&w&w&w&w&w&w&w&w&w&w&w&w&w&w&w&w&w&w&",
"w&w&w&w&w&w&w&w&w&w&w&w&w&w&w&w&w&w&w&w&w&w&w&w&w&w&w&w&w&w&w&w&w&w&w&w&w&w&w&w&w&w&w&w&",
"x&x&x&x&x&x&x&x&x&x&x&x&x&x&x&x&x&x&x&x&x&x&x&x&x&x&x&x&x&x&x&x&x&x&x&x&x&x&x&x&x&x&x&x&",
"w&w&w&w&w&w&w&w&w&w&w&w&w&w&w&w&w&w&w&w&w&w&w&w&w&w&w&w&w&w&w&w&w&w&w&w&w&w&w&w&w&w&w&w&",
"w&w&w&w&w&w&w&w&w&w&w&w&w&w&w&w&w&w&w&w&w&w&w&w&w&w&w&w&w&w&w&w&w&w&w&w&w&w&w&w&w&w&w&w&",
"                                                                                        ",
". + @ # $ $ $ $ % % & & * * * = = = - - ; ; > > ; ; > > , , , ' ' * ) ! ~ { , ] ^ / ( _ ",
": < [ } | | 1 2 3 4 5 5 6 7 7 8 8 9 9 9 0 a a a a a a b c c d e f g 4 3 | h i j k l m n ",
"o p q r s t u v w x y y z z z A B C D E D C C C C C C F G G H H I I y y J K L M N O P Q ",
"R S T U V W W X Y Z `  ...+.@.#.$.%.&.*.=.-.;.>.,.'.).!.~.{. .].^./.(._.:.<.[.}.|.1.2.3.",
"4.5.6.7.8.9.0.a.b.c.d.e.f.g.h.i.j.k.l.m.n.o.p.q.r.s.t.u.v.w.x.y.z.A.B.C.D.E.F.G.8.H.I.J.",
"K.L.M.N.O.P.Q.R.S.T.U.V.W.X.Y.Z.`. +.+++@+#+$+%+&+*+=+-+;+;+>+,+V.'+)+S.!+~+{+O.]+^+/+(+",
"_+:+<+[+}+|+1+2+3+4+5+6+7+8+9+0+a+b+,.c+d+e+f+g+h+i+j+k+l+m+n+o+p+q+r+r+s+2+t+u+v+w+x+y+",
"z+A+B+C+D+E+F+G+H+I+J+K+L+M+N+O+P+Q+R+S+T+U+V+W+X+Y+Z+`+ @.@+@@@#@$@%@%@&@*@=@-@;@>@,@'@",
")@!@~@{@]@^@/@(@_@:@<@[@}@|@1@2@3@4@5@6@7@8@9@0@a@b@c@d@e@f@g@h@i@j@k@l@m@n@o@p@q@r@s@t@",
"u@v@w@x@y@z@A@B@C@D@E@F@G@H@I@J@K@L@M@N@O@P@Q@R@S@T@U@V@W@X@Y@Z@`@ #.#+#@###$#%#&#*#=#-#",
";#>#,#'#)#!#~#{#]#^#k@j@/#/#(#g@_#:#<#[#}#|#1#2#3#4#5#6#7#8#9#0#a#b#c#c#d#e#f#g#h#i#j#k#",
"l#m#n#o#p#q#r#s#t#u#v#w#x#y#z#A#B#C#D#E#F#G#H#I#J#K#L#M#N#O#P#Q#R#S#T#T#U#V#W#X#Y#Z#`# $",
".$+$@$#$$$%$&$*$=$-$;$>$,$'$)$!$~${$]$,.^$/$($_$:$<$[$}$|$1$2$3$4$5$6$7$8$9$0$a$b$c$d$e$",
"f$g$h$i$j$k$l$m$n$o$p$q$r$s$t$u$v$w$x$y$z$A$t$B$C$D$E$F$G$H$I$J$p$K$L$M$N$O$P$Q$R$S$T$U$",
"V$W$X$Y$Z$`$`$ %.%+%@%#%$%%%&%*%=%-%;%>%,%'%)%!%~%{%]%K+^%/%(%_%:%<%[%}%|%1%2%3%4%5%6%7%",
"8%9%0%a%b%b%c%d%e%f%g%h%i%j%k%l%m%n%o%p%q%r%s%t%u%v%w%x%y%z%A%B%C%D%E%F%G%H%I%J%K%L%M%N%",
"O%P%Q%R%S%T%U%U%V%W%X%Y%Z%`% &.&+&@&#&$&%&&&*&=&-&;&Z%>&,&,&'&)&)&!&~&~&{&]&^&/&(&_&:&<&",
"[&}&|&1&2&3&3&3&3&4&5&5&6&7&8&9&0&a&b&c&d&e&f&g&h&i&j&k&l&l&m&m&m&m&n&n&o&p&q&r&s&t&u&v&",
"w&w&w&w&w&w&w&w&w&w&w&w&w&w&w&w&w&w&w&w&w&w&w&w&w&w&w&w&w&w&w&w&w&w&w&w&w&w&w&w&w&w&w&w&",
"w&w&w&w&w&w&w&w&w&w&w&w&w&w&w&w&w&w&w&w&w&w&w&w&w&w&w&w&w&w&w&w&w&w&w&w&w&w&w&w&w&w&w&w&",
"x&x&x&x&x&x&x&x&x&x&x&x&x&x&x&x&x&x&x&x&x&x&x&x&x&x&x&x&x&x&x&x&x&x&x&x&x&x&x&x&x&x&x&x&",
"w&w&w&w&w&w&w&w&w&w&w&w&w&w&w&w&w&w&w&w&w&w&w&w&w&w&w&w&w&w&w&w&w&w&w&w&w&w&w&w&w&w&w&w&",
"w&w&w&w&w&w&w&w&w&w&w&w&w&w&w&w&w&w&w&w&w&w&w&w&w&w&w&w&w&w&w&w&w&w&w&w&w&w&w&w&w&w&w&w&"};
