/* XPM */
static char * closeO_xpm[] = {
"44 48 689 2",
"  	c None",
". 	c #F3F8F6",
"+ 	c #B35557",
"@ 	c #FFF9F5",
"# 	c #FFF9F3",
"$ 	c #FFF9FA",
"% 	c #FEF8F8",
"& 	c #FEF9F6",
"* 	c #FEFAF6",
"= 	c #FFFDF9",
"- 	c #FEFCF8",
"; 	c #FFFEF7",
"> 	c #FEFBF8",
", 	c #FFFBF9",
"' 	c #FEFAF8",
") 	c #FEFBFA",
"! 	c #FEF9F8",
"~ 	c #FFF9FF",
"{ 	c #FFFDFF",
"] 	c #FEF7F4",
"^ 	c #FFF7F7",
"/ 	c #FFFDFE",
"( 	c #603C3C",
"_ 	c #FEF5F2",
": 	c #A34B4D",
"< 	c #FDB0A5",
"[ 	c #E28980",
"} 	c #EA8888",
"| 	c #F5877F",
"1 	c #F5867D",
"2 	c #F6867E",
"3 	c #F9897D",
"4 	c #FA857C",
"5 	c #FA867A",
"6 	c #FE877E",
"7 	c #FE8980",
"8 	c #FE8A7E",
"9 	c #FE8D7E",
"0 	c #FE8C80",
"a 	c #FE887C",
"b 	c #FD897D",
"c 	c #FC887C",
"d 	c #FA8B7C",
"e 	c #FA877E",
"f 	c #F18D7F",
"g 	c #EC897C",
"h 	c #F58F81",
"i 	c #F48980",
"j 	c #FA9790",
"k 	c #693935",
"l 	c #F9BBB1",
"m 	c #AF4747",
"n 	c #FEA69A",
"o 	c #EB8473",
"p 	c #EB7A77",
"q 	c #EA827A",
"r 	c #EA817C",
"s 	c #EE7E7C",
"t 	c #F07E78",
"u 	c #F27F7A",
"v 	c #F57F79",
"w 	c #F6807A",
"x 	c #FE807A",
"y 	c #FE837A",
"z 	c #FE857C",
"A 	c #FE897A",
"B 	c #FE8178",
"C 	c #FA807A",
"D 	c #F98279",
"E 	c #F4807A",
"F 	c #F17F79",
"G 	c #EC827A",
"H 	c #EA807E",
"I 	c #E77D7F",
"J 	c #FD9DA4",
"K 	c #583437",
"L 	c #E9C3C7",
"M 	c #AB493F",
"N 	c #EFA7AC",
"O 	c #E47D70",
"P 	c #EB7B6F",
"Q 	c #EB7973",
"R 	c #ED7D75",
"S 	c #F07A74",
"T 	c #F17E75",
"U 	c #F47D74",
"V 	c #F57C73",
"W 	c #F67D74",
"X 	c #FE7E78",
"Y 	c #F47F6C",
"Z 	c #FE8380",
"` 	c #FA7679",
" .	c #AB5959",
"..	c #674B4F",
"+.	c #734D5E",
"@.	c #68484F",
"#.	c #AC5854",
"$.	c #FD7B7E",
"%.	c #A95755",
"&.	c #684A54",
"*.	c #704C59",
"=.	c #734752",
"-.	c #A85654",
";.	c #FE7F7C",
">.	c #FA7D74",
",.	c #F87D74",
"'.	c #F37E75",
").	c #F17C73",
"!.	c #F08074",
"~.	c #F17F6D",
"{.	c #EE7A78",
"].	c #EB7875",
"^.	c #E97B73",
"/.	c #EB7D71",
"(.	c #F4969A",
"_.	c #653129",
":.	c #E6C8D3",
"<.	c #A4483E",
"[.	c #EFA1A5",
"}.	c #E57269",
"|.	c #EA736A",
"1.	c #E8766A",
"2.	c #EA766A",
"3.	c #EC756C",
"4.	c #EE7568",
"5.	c #F17569",
"6.	c #F37669",
"7.	c #F57669",
"8.	c #F97167",
"9.	c #F77A6D",
"0.	c #F77A61",
"a.	c #F6756C",
"b.	c #6E484C",
"c.	c #FFF9FE",
"d.	c #FFFBFF",
"e.	c #6E4854",
"f.	c #995A57",
"g.	c #764A53",
"h.	c #FDF7FC",
"i.	c #FDF5FA",
"j.	c #684A4E",
"k.	c #FC7866",
"l.	c #FE746A",
"m.	c #FE726C",
"n.	c #FD726B",
"o.	c #FA746A",
"p.	c #F97369",
"q.	c #F7726B",
"r.	c #F77069",
"s.	c #F57369",
"t.	c #EF7265",
"u.	c #EC7370",
"v.	c #EB726F",
"w.	c #EA746E",
"x.	c #F69095",
"y.	c #642D28",
"z.	c #E9C7D3",
"A.	c #A0453C",
"B.	c #EE9E9E",
"C.	c #E26A60",
"D.	c #E46C62",
"E.	c #E46F66",
"F.	c #E56C63",
"G.	c #E66D64",
"H.	c #E96E61",
"I.	c #EB6C63",
"J.	c #EB6E61",
"K.	c #EF6B61",
"L.	c #F06C62",
"M.	c #F37163",
"N.	c #F47268",
"O.	c #F26A60",
"P.	c #F97867",
"Q.	c #AD4D52",
"R.	c #774F61",
"S.	c #FEF4FE",
"T.	c #FEFFEF",
"U.	c #FEFAFE",
"V.	c #734955",
"W.	c #FEF0F7",
"X.	c #FFFFFF",
"Y.	c #744C5C",
"Z.	c #A35355",
"`.	c #FA705E",
" +	c #F76E63",
".+	c #F46C62",
"++	c #F16E65",
"@+	c #EC6F62",
"#+	c #ED6D63",
"$+	c #EB6C5F",
"%+	c #E86B68",
"&+	c #E66966",
"*+	c #E46D60",
"=+	c #F38F94",
"-+	c #5F2A25",
";+	c #E9CBD9",
">+	c #963F36",
",+	c #E79B99",
"'+	c #D55F53",
")+	c #DA635A",
"!+	c #DB615B",
"~+	c #DC625C",
"{+	c #DF615B",
"]+	c #E1615B",
"^+	c #E46258",
"/+	c #E56359",
"(+	c #E96359",
"_+	c #EA6258",
":+	c #EC6658",
"<+	c #F2605C",
"[+	c #F76363",
"}+	c #EE6456",
"|+	c #F35B57",
"1+	c #A34F5D",
"2+	c #FEFFF5",
"3+	c #FEF2EE",
"4+	c #FFF7FB",
"5+	c #FEF4F5",
"6+	c #6F414C",
"7+	c #A44E56",
"8+	c #F25E5E",
"9+	c #F26556",
"0+	c #F36459",
"a+	c #F3625B",
"b+	c #F16159",
"c+	c #EF6359",
"d+	c #EC615A",
"e+	c #EA615A",
"f+	c #E8615A",
"g+	c #E56453",
"h+	c #DE5E58",
"i+	c #DD6457",
"j+	c #DA6454",
"k+	c #EE8A8D",
"l+	c #56231E",
"m+	c #E0CAD6",
"n+	c #92352E",
"o+	c #EC958E",
"p+	c #D54B41",
"q+	c #D85248",
"r+	c #D85046",
"s+	c #DA5146",
"t+	c #DC5146",
"u+	c #E15045",
"v+	c #E35243",
"w+	c #E55343",
"x+	c #E95445",
"y+	c #EA5242",
"z+	c #E95441",
"A+	c #F24E46",
"B+	c #EF5843",
"C+	c #F45640",
"D+	c #F75645",
"E+	c #F6524A",
"F+	c #AB4D4B",
"G+	c #73495C",
"H+	c #FEDEEC",
"I+	c #FEDFC8",
"J+	c #FEDCD0",
"K+	c #6F4D4F",
"L+	c #A04A4A",
"M+	c #F25646",
"N+	c #F65948",
"O+	c #F35149",
"P+	c #ED5845",
"Q+	c #EC5844",
"R+	c #E95845",
"S+	c #E75845",
"T+	c #E55845",
"U+	c #E15745",
"V+	c #DD5745",
"W+	c #E35543",
"X+	c #E1524B",
"Y+	c #DF5049",
"Z+	c #DB5045",
"`+	c #D65144",
" @	c #EC8083",
".@	c #511C17",
"+@	c #EBCBDA",
"@@	c #781B14",
"#@	c #DC7870",
"$@	c #A5332D",
"%@	c #A43330",
"&@	c #A43728",
"*@	c #A53829",
"=@	c #A73829",
"-@	c #AB3829",
";@	c #AC3728",
">@	c #B23726",
",@	c #B53925",
"'@	c #B83924",
")@	c #B93823",
"!@	c #D12E1D",
"~@	c #C83020",
"{@	c #CE311C",
"]@	c #D12F19",
"^@	c #C03826",
"/@	c #893F3D",
"(@	c #744A5A",
"_@	c #FEDCEE",
":@	c #FEDCDF",
"<@	c #FEDDCE",
"[@	c #6C4A54",
"}@	c #844041",
"|@	c #CB2F27",
"1@	c #C73417",
"2@	c #D72D1B",
"3@	c #D12C1B",
"4@	c #D0311C",
"5@	c #CD2E1D",
"6@	c #CA2F1E",
"7@	c #C03122",
"8@	c #BD3223",
"9@	c #B93325",
"0@	c #B73225",
"a@	c #A63428",
"b@	c #A8342E",
"c@	c #A3362D",
"d@	c #A0362E",
"e@	c #DA5E61",
"f@	c #410B07",
"g@	c #EFC3D3",
"h@	c #781710",
"i@	c #DE776C",
"j@	c #A32C23",
"k@	c #9C2924",
"l@	c #A02C20",
"m@	c #A12D21",
"n@	c #A32D21",
"o@	c #A62D20",
"p@	c #A9301F",
"q@	c #AE3020",
"r@	c #B03120",
"s@	c #B1301F",
"t@	c #B9311F",
"u@	c #BF301D",
"v@	c #C2281C",
"w@	c #C8301C",
"x@	c #BE2D1E",
"y@	c #883E38",
"z@	c #70484E",
"A@	c #FEC4C0",
"B@	c #FEC4C4",
"C@	c #FECADF",
"D@	c #FECAD6",
"E@	c #FECFC6",
"F@	c #744056",
"G@	c #933F3F",
"H@	c #C72D1D",
"I@	c #CC2E14",
"J@	c #C02F1C",
"K@	c #BB2F1D",
"L@	c #BA301E",
"M@	c #B63220",
"N@	c #B13221",
"O@	c #AC3020",
"P@	c #AC3120",
"Q@	c #A83222",
"R@	c #A8302A",
"S@	c #A52B25",
"T@	c #9F2C23",
"U@	c #9A2E22",
"V@	c #D85A5A",
"W@	c #3B0A05",
"X@	c #F4C6D5",
"Y@	c #76180E",
"Z@	c #DE7C6C",
"`@	c #A23324",
" #	c #A2372C",
".#	c #A6322C",
"+#	c #A6342C",
"@#	c #AB342B",
"##	c #AE332A",
"$#	c #B33127",
"%#	c #B63326",
"&#	c #C33223",
"*#	c #D1301B",
"=#	c #933D3D",
"-#	c #714751",
";#	c #EEC0CA",
">#	c #FEBEC5",
",#	c #FEC5BE",
"'#	c #6C4852",
")#	c #FEBDBC",
"!#	c #F9C2B3",
"~#	c #FEBEC7",
"{#	c #6F4759",
"]#	c #86433C",
"^#	c #DC2C14",
"/#	c #CE2E1E",
"(#	c #CA321E",
"_#	c #C63020",
":#	c #C23122",
"<#	c #BD3325",
"[#	c #B23528",
"}#	c #A83624",
"|#	c #A73529",
"1#	c #A33527",
"2#	c #A03628",
"3#	c #DA6862",
"4#	c #370903",
"5#	c #E5C7CF",
"6#	c #701B0A",
"7#	c #D98381",
"8#	c #9E3D2A",
"9#	c #B13333",
"0#	c #A83B30",
"a#	c #AB3B2F",
"b#	c #AD3B2F",
"c#	c #AF3C2D",
"d#	c #B83B2A",
"e#	c #BB3A29",
"f#	c #C23A28",
"g#	c #C33927",
"h#	c #C03D28",
"i#	c #CE3C24",
"j#	c #C93A1D",
"k#	c #D72E21",
"l#	c #6D4743",
"m#	c #EFBBC8",
"n#	c #FBBBC4",
"o#	c #F7BBC2",
"p#	c #6C4C57",
"q#	c #964242",
"r#	c #724242",
"s#	c #EFC7D9",
"t#	c #F4BABC",
"u#	c #F6BAC7",
"v#	c #72444B",
"w#	c #D43124",
"x#	c #D9331D",
"y#	c #D7351F",
"z#	c #D13621",
"A#	c #CD3323",
"B#	c #C63526",
"C#	c #C33729",
"D#	c #BE342A",
"E#	c #AF3835",
"F#	c #B33731",
"G#	c #B7372D",
"H#	c #A0412E",
"I#	c #A53F31",
"J#	c #D56C5B",
"K#	c #49090F",
"L#	c #E7C5C7",
"M#	c #842114",
"N#	c #DB817D",
"O#	c #AD472F",
"P#	c #B93A33",
"Q#	c #B83F32",
"R#	c #BA3F32",
"S#	c #BD3E31",
"T#	c #C13D2F",
"U#	c #C53F2D",
"V#	c #C93E2B",
"W#	c #D03D2A",
"X#	c #D23C28",
"Y#	c #D44322",
"Z#	c #D44124",
"`#	c #E14521",
" $	c #D93D2D",
".$	c #7E4D4C",
"+$	c #774B57",
"@$	c #724854",
"#$	c #984644",
"$$	c #C44036",
"%$	c #8E4C4E",
"&$	c #74485A",
"*$	c #6D454B",
"=$	c #74424A",
"-$	c #854747",
";$	c #DF4025",
">$	c #DD4325",
",$	c #DA4224",
"'$	c #D83F26",
")$	c #D44028",
"!$	c #CD422B",
"~$	c #CB402D",
"{$	c #C6402E",
"]$	c #C44230",
"^$	c #C93F29",
"/$	c #C0412C",
"($	c #BF422D",
"_$	c #C33B2D",
":$	c #BB4033",
"<$	c #D2806A",
"[$	c #4A0E12",
"}$	c #DFCDC5",
"|$	c #87201B",
"1$	c #E78790",
"2$	c #C64938",
"3$	c #C74141",
"4$	c #CA4638",
"5$	c #CB4537",
"6$	c #CD4537",
"7$	c #D04836",
"8$	c #D24836",
"9$	c #D54835",
"0$	c #D94A37",
"a$	c #DA4B38",
"b$	c #DB4637",
"c$	c #DE4F3C",
"d$	c #E44E30",
"e$	c #EA482E",
"f$	c #E15039",
"g$	c #DA4830",
"h$	c #E55033",
"i$	c #DF5135",
"j$	c #DD5135",
"k$	c #EC522E",
"l$	c #E44736",
"m$	c #E65138",
"n$	c #DB4A37",
"o$	c #DB5741",
"p$	c #DD5531",
"q$	c #E14D35",
"r$	c #E04C34",
"s$	c #DE4C34",
"t$	c #DC4834",
"u$	c #D74A37",
"v$	c #D64738",
"w$	c #D24638",
"x$	c #D74633",
"y$	c #BC513C",
"z$	c #CE413A",
"A$	c #CE4444",
"B$	c #C7494C",
"C$	c #D87A7A",
"D$	c #551722",
"E$	c #F4C4CE",
"F$	c #862520",
"G$	c #EA8C8F",
"H$	c #C45640",
"I$	c #C85546",
"J$	c #D14F45",
"K$	c #D44E44",
"L$	c #D84E44",
"M$	c #DA5042",
"N$	c #DD5345",
"O$	c #DF5643",
"P$	c #E45740",
"Q$	c #E05846",
"R$	c #E65744",
"S$	c #E75C45",
"T$	c #EC5642",
"U$	c #EC5C44",
"V$	c #E85748",
"W$	c #EC5B3A",
"X$	c #EA5D3C",
"Y$	c #E4583C",
"Z$	c #EF5F47",
"`$	c #E85B40",
" %	c #E8543C",
".%	c #EE5946",
"+%	c #E55E3F",
"@%	c #E55D3D",
"#%	c #E35C3D",
"$%	c #E1593F",
"%%	c #DE593E",
"&%	c #DB593F",
"*%	c #DB553F",
"=%	c #DA5940",
"-%	c #D95247",
";%	c #D45046",
">%	c #CD584F",
",%	c #CE5E52",
"'%	c #E37C71",
")%	c #B27466",
"!%	c #7E3E46",
"~%	c #E0C9C4",
"{%	c #91342F",
"]%	c #FEAAB0",
"^%	c #EA847A",
"/%	c #EE877C",
"(%	c #E58B7F",
"_%	c #E78A81",
":%	c #E98E7F",
"<%	c #EA8D7E",
"[%	c #EA8F80",
"}%	c #ED9081",
"|%	c #EF917F",
"1%	c #EF9381",
"2%	c #E88C7A",
"3%	c #F99385",
"4%	c #ED917F",
"5%	c #FA927A",
"6%	c #F29778",
"7%	c #FA8F7E",
"8%	c #FA9180",
"9%	c #F69674",
"0%	c #F9967F",
"a%	c #FA9088",
"b%	c #F58C81",
"c%	c #F98A81",
"d%	c #FE937E",
"e%	c #FE9A86",
"f%	c #FD8777",
"g%	c #FA8A82",
"h%	c #FA8C84",
"i%	c #F68C84",
"j%	c #F68A82",
"k%	c #F38B83",
"l%	c #F28A82",
"m%	c #F18683",
"n%	c #F18883",
"o%	c #ED8885",
"p%	c #EA8982",
"q%	c #F68986",
"r%	c #DA877C",
"s%	c #B66A62",
"t%	c #472526",
"u%	c #D6B0C2",
"v%	c #B3A3BB",
"w%	c #601B14",
"x%	c #511B1C",
"y%	c #591B17",
"z%	c #5E1B16",
"A%	c #5A1C14",
"B%	c #5B1D15",
"C%	c #5D1D15",
"D%	c #5D1C13",
"E%	c #5E1D14",
"F%	c #5F1E13",
"G%	c #601F14",
"H%	c #60211C",
"I%	c #63231D",
"J%	c #6A2020",
"K%	c #5C1F1A",
"L%	c #6A251C",
"M%	c #5F261B",
"N%	c #692423",
"O%	c #621F1C",
"P%	c #682224",
"Q%	c #662023",
"R%	c #692323",
"S%	c #5F251D",
"T%	c #62231A",
"U%	c #5F261D",
"V%	c #6A2223",
"W%	c #61241D",
"X%	c #5F231D",
"Y%	c #5E221C",
"Z%	c #5D211B",
"`%	c #5C201C",
" &	c #581C16",
".&	c #5B1813",
"+&	c #501B12",
"@&	c #6D2821",
"#&	c #8E4846",
"$&	c #CFB1A9",
"%&	c #A89CA7",
"&&	c #82839C",
"*&	c #EEBCB6",
"=&	c #EAC8DB",
"-&	c #E8C6D8",
";&	c #E8BECB",
">&	c #EBC5DB",
",&	c #ECC4D9",
"'&	c #EBC3D5",
")&	c #ECC4D6",
"!&	c #EAC4DA",
"~&	c #E7C3C6",
"{&	c #E9BBC6",
"]&	c #EEC4D3",
"^&	c #E7BFBF",
"/&	c #E2BEC5",
"(&	c #EEC0D0",
"_&	c #ECC2C4",
":&	c #E8C8DA",
"<&	c #E0C2CA",
"[&	c #F3C5D4",
"}&	c #E0C2CD",
"|&	c #EBC5CC",
"1&	c #D9C7CA",
"2&	c #E5C5D0",
"3&	c #DCCAC6",
"4&	c #EAC0C5",
"5&	c #E8C0C5",
"6&	c #E7BFC4",
"7&	c #E3C1C3",
"8&	c #DCCECC",
"9&	c #E4C2CC",
"0&	c #EFC1CF",
"a&	c #E6C2CF",
"b&	c #A4A3AF",
"c&	c #778D9F",
"d&	c #7C86AA",
"e&	c #66AAAB",
"f&	c #65A9AA",
". . . . . . . . . . . . . . . . . . . . . . . . . . . . . . . . . . . . . . . . . . . . ",
"+ @ # $ % % % % & & * * = = = - - - ; ; = = > > = = > > , , , ' ' = ) ! ~ { , ] ^ / ( _ ",
": < [ } | | 1 2 3 4 5 5 6 7 7 8 8 9 9 9 0 8 8 8 8 8 8 a 8 8 b c d e 4 3 | f g h i j k l ",
"m n o p q r s t u v w w x x x y z y z A z y y y y y y B x x C C D D w w E F G H I J K L ",
"M N O P Q R R S T U V W X Y Z `  ...+.@.#.$.%.&.*.=.-.;.>.,.W W '.T ).!.~.{.].^./.(._.:.",
"<.[.}.|.1.2.3.4.5.5.6.7.8.9.0.a.b.~ c.d.e.f.g.h.~ i.j.k.l.m.n.o.p.q.r.s.t.u.v.w.1.x.y.z.",
"A.B.C.D.E.F.G.H.I.J.K.L.M.N.O.P.Q.R.S.T.U.V.W.X.X.Y.Z.`. + +.+++L.@+#+I.$+%+&+E.*+=+-+;+",
">+,+'+)+!+~+{+]+^+/+(+_+:+<+[+}+|+1+*.2+3+4+X.5+6+7+8+9+0+a+b+c+d+e+f+f+g+]+h+i+j+k+l+m+",
"n+o+p+q+r+s+t+u+v+w+x+y+z+A+B+C+D+E+F+G+H+I+J+K+L+M+N+O+P+Q+R+S+T+U+V+V+W+X+Y+Z+`+ @.@+@",
"@@#@$@%@&@*@=@-@;@>@,@'@)@!@~@{@]@^@/@(@_@:@<@[@}@|@1@2@3@4@5@6@7@8@9@0@a@b@b@c@d@e@f@g@",
"h@i@j@k@l@m@n@o@p@q@r@s@t@u@v@w@x@y@z@A@B@C@D@E@F@G@H@I@J@K@L@M@N@r@O@P@Q@R@S@T@U@V@W@X@",
"Y@Z@`@ #.#+#@###$#%#9@8@&#&#*#5@=#-#;#>#,#'#)#!#~#{#]#^#/#(#_#:#<#9@[#[#}#|#|#1#2#3#4#5#",
"6#7#8#9#0#a#b#c#d#e#f#g#h#i#j#k#l#m#n#o#p#q#r#s#t#u#v#w#x#y#z#A#B#C#D#D#E#F#G#H#I#J#K#L#",
"M#N#O#P#Q#R#S#T#U#V#W#X#Y#Z#`# $.$+$@$*.#$$$%$&$*$=$-$;$>$,$'$)$!$~${$]$^$/$($_$:$<$[$}$",
"|$1$2$3$4$5$6$7$8$9$0$a$b$c$d$e$f$g$h$i$j$k$d$l$m$n$o$p$q$r$s$t$0$u$v$w$x$y$z$A$B$C$D$E$",
"F$G$H$I$J$K$K$`+L$M$N$O$P$Q$R$S$T$U$T$V$W$X$Y$Z$`$ %.%y++%@%#%$%%%&%*%=%-%;%>%,%'%)%!%~%",
"{%]%^%/%(%(%_%:%<%[%}%|%1%2%3%4%5%6%7%8%9%0%a%b%c%d%e%f%g%h%i%j%k%l%m%n%o%p%q%r%s%t%u%v%",
"w%x%y%z%A%B%C%C%D%E%F%G%H%I%J%K%L%M%N%O%P%Q%R%S%T%U%H%V%W%W%X%Y%Y%Z%`%`% &.&+&@&#&$&%&&&",
"*&=&-&;&>&,&,&,&,&'&)&)&!&~&{&]&^&/&(&_&:&<&[&}&|&1&2&3&4&4&5&5&5&5&6&6&7&8&9&0&a&b&c&d&",
"e&e&e&e&e&e&e&e&e&e&e&e&e&e&e&e&e&e&e&e&e&e&e&e&e&e&e&e&e&e&e&e&e&e&e&e&e&e&e&e&e&e&e&e&",
"e&e&e&e&e&e&e&e&e&e&e&e&e&e&e&e&e&e&e&e&e&e&e&e&e&e&e&e&e&e&e&e&e&e&e&e&e&e&e&e&e&e&e&e&",
"f&f&f&f&f&f&f&f&f&f&f&f&f&f&f&f&f&f&f&f&f&f&f&f&f&f&f&f&f&f&f&f&f&f&f&f&f&f&f&f&f&f&f&f&",
"e&e&e&e&e&e&e&e&e&e&e&e&e&e&e&e&e&e&e&e&e&e&e&e&e&e&e&e&e&e&e&e&e&e&e&e&e&e&e&e&e&e&e&e&",
"e&e&e&e&e&e&e&e&e&e&e&e&e&e&e&e&e&e&e&e&e&e&e&e&e&e&e&e&e&e&e&e&e&e&e&e&e&e&e&e&e&e&e&e&",
". . . . . . . . . . . . . . . . . . . . . . . . . . . . . . . . . . . . . . . . . . . . ",
"+ @ # $ % % % % & & * * = = = - - - ; ; = = > > = = > > , , , ' ' = ) ! ~ { , ] ^ / ( _ ",
": < [ } | | 1 2 3 4 5 5 6 7 7 8 8 9 9 9 0 8 8 8 8 8 8 a 8 8 b c d e 4 3 | f g h i j k l ",
"m n o p q r s t u v w w x x x y z y z A z y y y y y y B x x C C D D w w E F G H I J K L ",
"M N O P Q R R S T U V W X Y Z `  ...+.@.#.$.%.&.*.=.-.;.>.,.W W '.T ).!.~.{.].^./.(._.:.",
"<.[.}.|.1.2.3.4.5.5.6.7.8.9.0.a.b.~ c.d.e.f.g.h.~ i.j.k.l.m.n.o.p.q.r.s.t.u.v.w.1.x.y.z.",
"A.B.C.D.E.F.G.H.I.J.K.L.M.N.O.P.Q.R.S.T.U.V.W.X.X.Y.Z.`. + +.+++L.@+#+I.$+%+&+E.*+=+-+;+",
">+,+'+)+!+~+{+]+^+/+(+_+:+<+[+}+|+1+*.2+3+4+X.5+6+7+8+9+0+a+b+c+d+e+f+f+g+]+h+i+j+k+l+m+",
"n+o+p+q+r+s+t+u+v+w+x+y+z+A+B+C+D+E+F+G+H+I+J+K+L+M+N+O+P+Q+R+S+T+U+V+V+W+X+Y+Z+`+ @.@+@",
"@@#@$@%@&@*@=@-@;@>@,@'@)@!@~@{@]@^@/@(@_@:@<@[@}@|@1@2@3@4@5@6@7@8@9@0@a@b@b@c@d@e@f@g@",
"h@i@j@k@l@m@n@o@p@q@r@s@t@u@v@w@x@y@z@A@B@C@D@E@F@G@H@I@J@K@L@M@N@r@O@P@Q@R@S@T@U@V@W@X@",
"Y@Z@`@ #.#+#@###$#%#9@8@&#&#*#5@=#-#;#>#,#'#)#!#~#{#]#^#/#(#_#:#<#9@[#[#}#|#|#1#2#3#4#5#",
"6#7#8#9#0#a#b#c#d#e#f#g#h#i#j#k#l#m#n#o#p#q#r#s#t#u#v#w#x#y#z#A#B#C#D#D#E#F#G#H#I#J#K#L#",
"M#N#O#P#Q#R#S#T#U#V#W#X#Y#Z#`# $.$+$@$*.#$$$%$&$*$=$-$;$>$,$'$)$!$~${$]$^$/$($_$:$<$[$}$",
"|$1$2$3$4$5$6$7$8$9$0$a$b$c$d$e$f$g$h$i$j$k$d$l$m$n$o$p$q$r$s$t$0$u$v$w$x$y$z$A$B$C$D$E$",
"F$G$H$I$J$K$K$`+L$M$N$O$P$Q$R$S$T$U$T$V$W$X$Y$Z$`$ %.%y++%@%#%$%%%&%*%=%-%;%>%,%'%)%!%~%",
"{%]%^%/%(%(%_%:%<%[%}%|%1%2%3%4%5%6%7%8%9%0%a%b%c%d%e%f%g%h%i%j%k%l%m%n%o%p%q%r%s%t%u%v%",
"w%x%y%z%A%B%C%C%D%E%F%G%H%I%J%K%L%M%N%O%P%Q%R%S%T%U%H%V%W%W%X%Y%Y%Z%`%`% &.&+&@&#&$&%&&&",
"*&=&-&;&>&,&,&,&,&'&)&)&!&~&{&]&^&/&(&_&:&<&[&}&|&1&2&3&4&4&5&5&5&5&6&6&7&8&9&0&a&b&c&d&",
"e&e&e&e&e&e&e&e&e&e&e&e&e&e&e&e&e&e&e&e&e&e&e&e&e&e&e&e&e&e&e&e&e&e&e&e&e&e&e&e&e&e&e&e&",
"e&e&e&e&e&e&e&e&e&e&e&e&e&e&e&e&e&e&e&e&e&e&e&e&e&e&e&e&e&e&e&e&e&e&e&e&e&e&e&e&e&e&e&e&",
"f&f&f&f&f&f&f&f&f&f&f&f&f&f&f&f&f&f&f&f&f&f&f&f&f&f&f&f&f&f&f&f&f&f&f&f&f&f&f&f&f&f&f&f&",
"e&e&e&e&e&e&e&e&e&e&e&e&e&e&e&e&e&e&e&e&e&e&e&e&e&e&e&e&e&e&e&e&e&e&e&e&e&e&e&e&e&e&e&e&",
"e&e&e&e&e&e&e&e&e&e&e&e&e&e&e&e&e&e&e&e&e&e&e&e&e&e&e&e&e&e&e&e&e&e&e&e&e&e&e&e&e&e&e&e&"};
