/* XPM */
static char * frameATR_xpm[] = {
"5 27 48 1",
" 	c None",
".	c #F0F4F5",
"+	c #A19EA9",
"@	c #B3C3C0",
"#	c #C8E1DE",
"$	c #D8E0F5",
"%	c #727675",
"&	c #77A8AF",
"*	c #71A8AF",
"=	c #A9CBCC",
"-	c #E4E7E0",
";	c #7CADB1",
">	c #7AA7AC",
",	c #80A9AF",
"'	c #B8DFE6",
")	c #9BA0A3",
"!	c #78A9AD",
"~	c #7CACB0",
"{	c #7CA7AD",
"]	c #84ADB3",
"^	c #F4F9FC",
"/	c #76A9AC",
"(	c #7AABAF",
"_	c #80B0B4",
":	c #77A7AB",
"<	c #7AADB0",
"[	c #75A8AB",
"}	c #7CAFB2",
"|	c #F4F8FB",
"1	c #78AEB0",
"2	c #76ACAE",
"3	c #F9FDFF",
"4	c #79AAAE",
"5	c #7DB0B3",
"6	c #7AB0B2",
"7	c #F5F9FC",
"8	c #7BABAF",
"9	c #79ACAF",
"0	c #F9FAFE",
"a	c #7DAAAF",
"b	c #7BACB0",
"c	c #F8F9FD",
"d	c #7AABB0",
"e	c #7BACB1",
"f	c #FAF9FF",
"g	c #7CADB2",
"h	c #F9F8FE",
"i	c #F5F8FD",
"     ",
"     ",
"     ",
"     ",
"     ",
".+   ",
"@#$% ",
"&*=- ",
";>,')",
"!~{]^",
"/(_:^",
"<[<}|",
"<1223",
"45617",
"8(490",
"a~bbc",
"ddeef",
"deeef",
"eeeef",
"eeeef",
"deegh",
"deegh",
"ddeeh",
"ddddh",
"ddddi",
"ddddi",
"ddddi"};
