/* XPM */
static char * frameATL_xpm[] = {
"5 27 48 1",
" 	c None",
".	c #A19EA9",
"+	c #F0F4F5",
"@	c #727675",
"#	c #D8E0F5",
"$	c #C8E1DE",
"%	c #B3C3C0",
"&	c #E4E7E0",
"*	c #A9CBCC",
"=	c #71A8AF",
"-	c #77A8AF",
";	c #9BA0A3",
">	c #B8DFE6",
",	c #80A9AF",
"'	c #7AA7AC",
")	c #7CADB1",
"!	c #F4F9FC",
"~	c #84ADB3",
"{	c #7CA7AD",
"]	c #7CACB0",
"^	c #78A9AD",
"/	c #77A7AB",
"(	c #80B0B4",
"_	c #7AABAF",
":	c #76A9AC",
"<	c #F4F8FB",
"[	c #7CAFB2",
"}	c #7AADB0",
"|	c #75A8AB",
"1	c #F9FDFF",
"2	c #76ACAE",
"3	c #78AEB0",
"4	c #F5F9FC",
"5	c #7AB0B2",
"6	c #7DB0B3",
"7	c #79AAAE",
"8	c #F9FAFE",
"9	c #79ACAF",
"0	c #7BABAF",
"a	c #F8F9FD",
"b	c #7BACB0",
"c	c #7DAAAF",
"d	c #FAF9FF",
"e	c #7BACB1",
"f	c #7AABB0",
"g	c #F9F8FE",
"h	c #7CADB2",
"i	c #F5F8FD",
"     ",
"     ",
"     ",
"     ",
"     ",
"   .+",
" @#$%",
" &*=-",
";>,')",
"!~{]^",
"!/(_:",
"<[}|}",
"1223}",
"43567",
"897_0",
"abb]c",
"deeff",
"deeef",
"deeee",
"deeee",
"gheef",
"gheef",
"geeff",
"gffff",
"iffff",
"iffff",
"iffff"};
