/* XPM */
static char * bottom_active_xpm[] = {
"10 6 6 1",
" 	c None",
".	c #58B6CF",
"+	c #5AB4CE",
"@	c #5CBBCF",
"#	c #57B8C9",
"$	c #2DD4FF",
"..........",
"..........",
"..........",
"+.+.++.++.",
"@#@#@@#@@#",
"$$$$$$$$$$"};
