/* XPM */
static char * bottom_right_active_xpm[] = {
"25 25 22 1",
" 	c None",
".	c #58B6CF",
"+	c #2DD4FF",
"@	c #57B5CE",
"#	c #57B5CF",
"$	c #57B6CF",
"%	c #58B5CF",
"&	c #29CFFF",
"*	c #5AB8D1",
"=	c #31D6F6",
"-	c #2FB2C4",
";	c #5AB4CE",
">	c #59B7D0",
",	c #57B7CF",
"'	c #5AB6D0",
")	c #5CBBCF",
"!	c #57B8C9",
"~	c #56B7C8",
"{	c #57B6C9",
"]	c #57B6CD",
"^	c #59BDD8",
"/	c #32ADBC",
"                   .....+",
"                   .....+",
"                   .....+",
"                   .....+",
"                   .....+",
"                   .....+",
"                   .....+",
"                   .....+",
"                   .....+",
"                   .....+",
"                   ....@+",
"                   ....#+",
"                   ....$+",
"                   ....%+",
"                   .....+",
"                   .....+",
"                   .....+",
"                   ....@+",
"                  ......+",
"........................&",
".......................*=",
".......................+-",
";.>;,...>;,...,......'+- ",
")!!)~!!!!)~!!!~!!{].^+/  ",
"+++++++++++++++++++++-   "};
