/* XPM */
static char * right_active_xpm[] = {
"6 20 6 1",
" 	c None",
".	c #6C9EB5",
"+	c #6C9FB4",
"@	c #22C5E4",
"#	c #6B9DB4",
"$	c #23C6E5",
"....+@",
"####+$",
"....+@",
"####+$",
"....+@",
"####+$",
"####+$",
"....+@",
"####+$",
"....+@",
"####+$",
"....+@",
"####+$",
"....+@",
"####+$",
"....+@",
"####+$",
"####+$",
"....+@",
"####+$"};
