/* XPM */
static char * left_active_xpm[] = {
"6 20 4 1",
" 	c None",
".	c #F3F6FB",
"+	c #79ACAF",
"@	c #79ACB0",
".++@@@",
".++@@@",
".++@@@",
".++@@@",
".++@@@",
".++@@@",
".++@@@",
".++@@@",
".++@@@",
".++@@@",
".++@@@",
".++@@@",
".++@@@",
".++@@@",
".++@@@",
".++@@@",
".++@@@",
".++@@@",
".++@@@",
".++@@@"};
