/* XPM */
static char * bottom_left_active_xpm[] = {
"25 25 83 1",
" 	c None",
".	c #F3F6FB",
"+	c #79ACAF",
"@	c #79ACB0",
"#	c #76ACB2",
"$	c #75ADB3",
"%	c #77ADB1",
"&	c #74AEB4",
"*	c #6EAFBA",
"=	c #F1F5FA",
"-	c #77ACB1",
";	c #76ADB3",
">	c #75AEB4",
",	c #74AEB5",
"'	c #71AFB7",
")	c #6EB0BA",
"!	c #6CB1BC",
"~	c #69B2BF",
"{	c #67B3C1",
"]	c #65B4C3",
"^	c #63B5C5",
"/	c #60B6C8",
"(	c #5CB6CC",
"_	c #5BB6CD",
":	c #5AB6CE",
"<	c #59B6CF",
"[	c #58B6CF",
"}	c #D1ECF5",
"|	c #73AFB6",
"1	c #73AFB5",
"2	c #70B0B8",
"3	c #6FB1B9",
"4	c #6EB2BA",
"5	c #6DB3BB",
"6	c #6CB4BC",
"7	c #6BB5BD",
"8	c #6AB6BE",
"9	c #68B6C0",
"0	c #67B6C1",
"a	c #66B6C2",
"b	c #65B6C3",
"c	c #63B6C5",
"d	c #61B6C7",
"e	c #5EB6CA",
"f	c #84CCDF",
"g	c #68B5C1",
"h	c #6EB1BA",
"i	c #71B0B7",
"j	c #64B6C4",
"k	c #62B6C6",
"l	c #5DB6CA",
"m	c #48B9CC",
"n	c #51BED6",
"o	c #68B2C0",
"p	c #6DB1BB",
"q	c #6DB2BB",
"r	c #6CB3BC",
"s	c #6AB4BD",
"t	c #68B5BF",
"u	c #65B6C2",
"v	c #62B6C5",
"w	c #5FB7C8",
"x	c #59B6CE",
"y	c #57B7CF",
"z	c #5AB4CE",
"A	c #59B7D0",
"B	c #32B4C8",
"C	c #57BBD1",
"D	c #65B3C1",
"E	c #61B6C4",
"F	c #5DB6C6",
"G	c #5AB7C8",
"H	c #57B8C9",
"I	c #56B7C8",
"J	c #5ABACC",
"K	c #5CBBCF",
"L	c #46C4E3",
"M	c #3DCBEF",
"N	c #38CEF3",
"O	c #3FC8EB",
"P	c #3BCBF0",
"Q	c #30D2FB",
"R	c #2DD4FF",
".++@@@                   ",
".++@@@                   ",
".++@@@                   ",
".++@@@                   ",
".++@@@                   ",
".++@@@                   ",
".++@@@                   ",
".++@@@                   ",
".++@@@                   ",
".++@@@                   ",
".++@@@                   ",
".++@@@                   ",
".++@@@                   ",
".++@@@                   ",
".++@@@                   ",
".++@@@                   ",
".++@@@                   ",
".++@#$                   ",
".+@%$&*                  ",
"=@-;>,')!~{]^/(_:<[[[[[[[",
"}|1&&1'234567890abcde_<[[",
"fgh2'2i234567890ajkl_[[[[",
" mno!pphqrstuvwl(x[[yzA[z",
"  BCd]{{DEFGHHIJHHHHIKHHK",
"   BLMNOPQRRRRRRRRRRRRRRR"};
