/* XPM */
static char * maximizeI_xpm[] = {
"25 48 379 2",
"  	c None",
". 	c #F3F8F6",
"+ 	c #9B9893",
"@ 	c #FCF9F4",
"# 	c #FFFFFA",
"$ 	c #FDFEF9",
"% 	c #FAFCF7",
"& 	c #FCFEF9",
"* 	c #FDFCF8",
"= 	c #FFF7FA",
"- 	c #FFF9FF",
"; 	c #FCFBF9",
"> 	c #F8FCFD",
", 	c #738088",
"' 	c #D7E4EC",
") 	c #B9CAD2",
"! 	c #BACCD6",
"~ 	c #B9CDD6",
"{ 	c #B8CCD5",
"] 	c #BBCDD7",
"^ 	c #B5D1D4",
"/ 	c #BAD2D2",
"( 	c #CCE0E1",
"_ 	c #6D7C81",
": 	c #DCEBF0",
"< 	c #BACBD2",
"[ 	c #B6CAD1",
"} 	c #B7CED6",
"| 	c #B8CCD3",
"1 	c #B9CDD4",
"2 	c #B6CDD5",
"3 	c #B5CDD9",
"4 	c #C1CEE1",
"5 	c #B5C8CE",
"6 	c #D2DFE5",
"7 	c #6C7A7D",
"8 	c #DFE6EC",
"9 	c #B4CFD6",
"0 	c #B6CCD7",
"a 	c #B0CED0",
"b 	c #B4CFDA",
"c 	c #818398",
"d 	c #525564",
"e 	c #58566B",
"f 	c #4F5965",
"g 	c #53585E",
"h 	c #535760",
"i 	c #4E5766",
"j 	c #5A596B",
"k 	c #535763",
"l 	c #525662",
"m 	c #838699",
"n 	c #B3CED9",
"o 	c #B1CED2",
"p 	c #B4CFD8",
"q 	c #B6CED2",
"r 	c #CFDCE4",
"s 	c #687679",
"t 	c #DAE1E7",
"u 	c #ABC8CE",
"v 	c #B1C7D2",
"w 	c #B3C7CE",
"x 	c #B2CACE",
"y 	c #AFC5D0",
"z 	c #545665",
"A 	c #FAFFFF",
"B 	c #F8FBFF",
"C 	c #F9F6FF",
"D 	c #FAFDFF",
"E 	c #FFFCFF",
"F 	c #F9FCFF",
"G 	c #FBF8FF",
"H 	c #F9FDFF",
"I 	c #FBFFFF",
"J 	c #555766",
"K 	c #B3CAD0",
"L 	c #ADCBD3",
"M 	c #AFC8CF",
"N 	c #AFC8CD",
"O 	c #CAD8E1",
"P 	c #647376",
"Q 	c #D8DFE5",
"R 	c #A4C1C7",
"S 	c #A9C1CD",
"T 	c #AAC1C9",
"U 	c #ABBEC5",
"V 	c #AFC1CD",
"W 	c #54545E",
"X 	c #F5FAF6",
"Y 	c #FDFFFA",
"Z 	c #FFFBFF",
"` 	c #FCFDFF",
" .	c #FDFFF9",
"..	c #F5FAF4",
"+.	c #B0C2CE",
"@.	c #ADBFC9",
"#.	c #A7C2CB",
"$.	c #A9C1CB",
"%.	c #AAC3C8",
"&.	c #C6D7DF",
"*.	c #596B6D",
"=.	c #D2DBE0",
"-.	c #97B8BF",
";.	c #9DB9C5",
">.	c #9DB8C1",
",.	c #9DB8C3",
"'.	c #9DB3C0",
").	c #595963",
"!.	c #FDFFFC",
"~.	c #55545A",
"{.	c #4E5B63",
"].	c #525961",
"^.	c #525963",
"/.	c #555459",
"(.	c #FAFDF6",
"_.	c #5A5A64",
":.	c #9EB4C1",
"<.	c #9FB9C6",
"[.	c #A2B6C1",
"}.	c #A3B6C4",
"|.	c #A3B7C2",
"1.	c #BED1D8",
"2.	c #526569",
"3.	c #CBD8DE",
"4.	c #89ABB4",
"5.	c #8DADBA",
"6.	c #8DADB8",
"7.	c #87AFBB",
"8.	c #92B2BF",
"9.	c #515362",
"0.	c #E7E7E9",
"a.	c #EAEBED",
"b.	c #535967",
"c.	c #8CA8B6",
"d.	c #90ADBB",
"e.	c #90ADBD",
"f.	c #8DA8B9",
"g.	c #535965",
"h.	c #E9EBEA",
"i.	c #E6E6E6",
"j.	c #515360",
"k.	c #94B4C3",
"l.	c #89B1BD",
"m.	c #92AEBA",
"n.	c #8FAFBC",
"o.	c #91ABB8",
"p.	c #B3CAD2",
"q.	c #344C50",
"r.	c #ADBEC5",
"s.	c #5D858F",
"t.	c #5E8393",
"u.	c #5E8491",
"v.	c #548490",
"w.	c #5C8191",
"x.	c #53586B",
"y.	c #EAE9EF",
"z.	c #E8E9EE",
"A.	c #525868",
"B.	c #607F91",
"C.	c #638495",
"D.	c #638497",
"E.	c #618092",
"F.	c #515767",
"G.	c #E8E9ED",
"H.	c #EAE9EE",
"I.	c #5E8395",
"J.	c #578795",
"K.	c #5E8A95",
"L.	c #5A8A96",
"M.	c #628694",
"N.	c #8FACB4",
"O.	c #314D51",
"P.	c #ABBFC8",
"Q.	c #517D88",
"R.	c #50798B",
"S.	c #507A8A",
"T.	c #537E8E",
"U.	c #567A8A",
"V.	c #505769",
"W.	c #E1E5E8",
"X.	c #DFE0E2",
"Y.	c #565461",
"Z.	c #4E5E6B",
"`.	c #4B5763",
" +	c #4A5662",
".+	c #55535E",
"++	c #DFE1E0",
"@+	c #E1E5E6",
"#+	c #4F5666",
"$+	c #597C8F",
"%+	c #558090",
"&+	c #4F808F",
"*+	c #597E90",
"=+	c #8BA9B3",
"-+	c #2F4C52",
";+	c #ACC2CD",
">+	c #507E8B",
",+	c #537E91",
"'+	c #527F92",
")+	c #597E8E",
"!+	c #58798A",
"~+	c #515A69",
"{+	c #D4DAD8",
"]+	c #DEE0DB",
"^+	c #E1D8DD",
"/+	c #DAD9DE",
"(+	c #E3DADD",
"_+	c #E2D9DE",
":+	c #DBDAE0",
"<+	c #E0D7DA",
"[+	c #DEE1DA",
"}+	c #D5DBD9",
"|+	c #515B67",
"1+	c #5A7B8C",
"2+	c #5B8092",
"3+	c #5F7E93",
"4+	c #578096",
"5+	c #617D95",
"6+	c #8CAAB4",
"7+	c #354C52",
"8+	c #ADC4CC",
"9+	c #5A7F88",
"0+	c #568494",
"a+	c #558299",
"b+	c #56829B",
"c+	c #5D8094",
"d+	c #475967",
"e+	c #D3D6DD",
"f+	c #DED8DA",
"g+	c #DBD2D3",
"h+	c #DCD8D9",
"i+	c #D8D8DA",
"j+	c #D7D7D9",
"k+	c #DAD6D7",
"l+	c #D9D0D1",
"m+	c #DDD7D9",
"n+	c #D4D7DE",
"o+	c #495B69",
"p+	c #608397",
"q+	c #58849D",
"r+	c #5B8998",
"s+	c #548896",
"t+	c #5C8597",
"u+	c #95AABB",
"v+	c #3C5059",
"w+	c #B2C6D1",
"x+	c #668894",
"y+	c #6287A1",
"z+	c #60849C",
"A+	c #688499",
"B+	c #576A7B",
"C+	c #555D6A",
"D+	c #535561",
"E+	c #555763",
"F+	c #515763",
"G+	c #4E5864",
"H+	c #525864",
"I+	c #565864",
"J+	c #525460",
"K+	c #525A67",
"L+	c #556879",
"M+	c #69859A",
"N+	c #6589A1",
"O+	c #64849D",
"P+	c #6A90A7",
"Q+	c #68869E",
"R+	c #98ABBC",
"S+	c #405161",
"T+	c #B2C3D3",
"U+	c #6F8C9E",
"V+	c #698DA3",
"W+	c #6789A5",
"X+	c #6291A1",
"Y+	c #6391A1",
"Z+	c #6990A1",
"`+	c #64879A",
" @	c #7192A5",
".@	c #6E91A5",
"+@	c #678DA2",
"@@	c #6A93A7",
"#@	c #658BA0",
"$@	c #6C8FA3",
"%@	c #688B9E",
"&@	c #6E95A6",
"*@	c #6694A4",
"=@	c #7093A6",
"-@	c #63899C",
";@	c #708FA3",
">@	c #9CB8C6",
",@	c #415868",
"'@	c #BAD1E1",
")@	c #7293A4",
"!@	c #7196A9",
"~@	c #7294AD",
"{@	c #7397A7",
"]@	c #7396A9",
"^@	c #6D90A4",
"/@	c #7799B2",
"(@	c #7395AE",
"_@	c #6F93AD",
":@	c #7296AE",
"<@	c #7195AD",
"[@	c #7397AF",
"}@	c #7498B0",
"|@	c #7195AF",
"1@	c #7496AF",
"2@	c #789AB3",
"3@	c #7598AB",
"4@	c #779BAB",
"5@	c #6F97B1",
"6@	c #719DB6",
"7@	c #7598AE",
"8@	c #99BDC9",
"9@	c #54626B",
"0@	c #D3E1EA",
"a@	c #B0C7CF",
"b@	c #B2CAD6",
"c@	c #B4C7D6",
"d@	c #B1C5CE",
"e@	c #B5CBD9",
"f@	c #AFC6D6",
"g@	c #ADC4D4",
"h@	c #B0C6D4",
"i@	c #B9CCDA",
"j@	c #B0C4CF",
"k@	c #B1C5D0",
"l@	c #BBCEDC",
"m@	c #B2C8D6",
"n@	c #AEC5D5",
"o@	c #B0C7D7",
"p@	c #B0C6D1",
"q@	c #B3C7D0",
"r@	c #B5C9D2",
"s@	c #B3C6CD",
"t@	c #AEC6CA",
"u@	c #2F4141",
"v@	c #304242",
"w@	c #304946",
"x@	c #2A4443",
"y@	c #304445",
"z@	c #324549",
"A@	c #2E4145",
"B@	c #2E4346",
"C@	c #34474B",
"D@	c #304244",
"E@	c #354545",
"F@	c #344443",
"G@	c #334342",
"H@	c #324242",
"I@	c #2E4042",
"J@	c #314649",
"K@	c #2F4246",
"L@	c #314448",
"M@	c #2F464C",
"N@	c #2B444B",
"O@	c #37494D",
"P@	c #354346",
"Q@	c #CFD6E6",
"R@	c #D0D8E5",
"S@	c #C9D7E2",
"T@	c #CAD8E3",
"U@	c #CFD5E3",
"V@	c #C3D9E6",
"W@	c #C9DFEA",
"X@	c #C5D9E4",
"Y@	c #CADEE7",
"Z@	c #C7DBE4",
"`@	c #C5D9E2",
" #	c #C8DCE5",
".#	c #C9DDE6",
"+#	c #C3D7E2",
"@#	c #CAE0EB",
"##	c #C6DCE9",
"$#	c #CCDAE3",
"%#	c #C6D8E4",
"&#	c #C8DAE4",
"*#	c #C7DAE8",
"=#	c #66AAAB",
"-#	c #65A9AA",
". . . . . . . . . . . . . . . . . . . . . . . . . ",
"+ @ # $ % & & & & & & & & * * * * * * * * = - ; > ",
", ' ) ! ~ { { ~ ~ ~ ~ ~ ~ ] ] ] ] ] ] ] ] ^ ~ / ( ",
"_ : < [ } | | | 1 1 1 1 1 2 2 2 2 2 2 2 2 3 4 5 6 ",
"7 8 9 0 [ a b c d d e f g h i j k l m n o p { q r ",
"s t u v w x y z A B C D E E F G H I J y K L M N O ",
"P Q R S T U V W X Y Z ` = = ` E  ...W +.@.#.$.%.&.",
"*.=.-.;.>.,.'.).!.% ~.{.].^.{./.(.& _.:.<.[.}.|.1.",
"2.3.4.5.6.7.8.9.0.a.b.c.d.e.f.g.h.i.j.k.l.m.n.o.p.",
"q.r.s.t.u.v.w.x.y.z.A.B.C.D.E.F.G.H.A.I.J.K.L.M.N.",
"O.P.Q.R.S.T.U.V.W.X.Y.Z.`. +Z..+++@+#+$+%+T.&+*+=+",
"-+;+>+,+'+)+!+~+{+]+^+/+(+_+:+<+[+}+|+1+2+3+4+5+6+",
"7+8+9+0+a+b+c+d+e+f+g+h+i+j+k+l+m+n+o+p+q+r+s+t+u+",
"v+w+x+t+y+z+A+B+C+D+E+F+G+G+H+I+J+K+L+M+N+O+P+Q+R+",
"S+T+U+V+W+X+Y+Z+`+ @.@+@@@@@#@$@ @%@&@*@X+=@-@;@>@",
",@'@)@!@~@{@]@^@/@(@_@:@<@[@}@|@1@2@.@3@4@5@6@7@8@",
"9@0@a@b@c@d@y e@f@g@h@i@j@k@l@m@n@o@e@p@q@r@p.s@t@",
"u@v@w@x@y@z@A@B@B@C@D@E@F@G@H@I@C@J@J@K@L@M@N@O@P@",
"Q@R@S@T@U@V@W@X@Y@Z@`@`@ #.#Z@ # # #+#@###$#%#&#*#",
"=#=#=#=#=#=#=#=#=#=#=#=#=#=#=#=#=#=#=#=#=#=#=#=#=#",
"=#=#=#=#=#=#=#=#=#=#=#=#=#=#=#=#=#=#=#=#=#=#=#=#=#",
"-#-#-#-#-#-#-#-#-#-#-#-#-#-#-#-#-#-#-#-#-#-#-#-#-#",
"=#=#=#=#=#=#=#=#=#=#=#=#=#=#=#=#=#=#=#=#=#=#=#=#=#",
"=#=#=#=#=#=#=#=#=#=#=#=#=#=#=#=#=#=#=#=#=#=#=#=#=#",
". . . . . . . . . . . . . . . . . . . . . . . . . ",
"+ @ # $ % & & & & & & & & * * * * * * * * = - ; > ",
", ' ) ! ~ { { ~ ~ ~ ~ ~ ~ ] ] ] ] ] ] ] ] ^ ~ / ( ",
"_ : < [ } | | | 1 1 1 1 1 2 2 2 2 2 2 2 2 3 4 5 6 ",
"7 8 9 0 [ a b c d d e f g h i j k l m n o p { q r ",
"s t u v w x y z A B C D E E F G H I J y K L M N O ",
"P Q R S T U V W X Y Z ` = = ` E  ...W +.@.#.$.%.&.",
"*.=.-.;.>.,.'.).!.% ~.{.].^.{./.(.& _.:.<.[.}.|.1.",
"2.3.4.5.6.7.8.9.0.a.b.c.d.e.f.g.h.i.j.k.l.m.n.o.p.",
"q.r.s.t.u.v.w.x.y.z.A.B.C.D.E.F.G.H.A.I.J.K.L.M.N.",
"O.P.Q.R.S.T.U.V.W.X.Y.Z.`. +Z..+++@+#+$+%+T.&+*+=+",
"-+;+>+,+'+)+!+~+{+]+^+/+(+_+:+<+[+}+|+1+2+3+4+5+6+",
"7+8+9+0+a+b+c+d+e+f+g+h+i+j+k+l+m+n+o+p+q+r+s+t+u+",
"v+w+x+t+y+z+A+B+C+D+E+F+G+G+H+I+J+K+L+M+N+O+P+Q+R+",
"S+T+U+V+W+X+Y+Z+`+ @.@+@@@@@#@$@ @%@&@*@X+=@-@;@>@",
",@'@)@!@~@{@]@^@/@(@_@:@<@[@}@|@1@2@.@3@4@5@6@7@8@",
"9@0@a@b@c@d@y e@f@g@h@i@j@k@l@m@n@o@e@p@q@r@p.s@t@",
"u@v@w@x@y@z@A@B@B@C@D@E@F@G@H@I@C@J@J@K@L@M@N@O@P@",
"Q@R@S@T@U@V@W@X@Y@Z@`@`@ #.#Z@ # # #+#@###$#%#&#*#",
"=#=#=#=#=#=#=#=#=#=#=#=#=#=#=#=#=#=#=#=#=#=#=#=#=#",
"=#=#=#=#=#=#=#=#=#=#=#=#=#=#=#=#=#=#=#=#=#=#=#=#=#",
"-#-#-#-#-#-#-#-#-#-#-#-#-#-#-#-#-#-#-#-#-#-#-#-#-#",
"=#=#=#=#=#=#=#=#=#=#=#=#=#=#=#=#=#=#=#=#=#=#=#=#=#",
"=#=#=#=#=#=#=#=#=#=#=#=#=#=#=#=#=#=#=#=#=#=#=#=#=#"};
