/* XPM */
static char * minimizeA_xpm[] = {
"25 48 399 2",
"  	c None",
". 	c #F3F8F6",
"+ 	c #65605D",
"@ 	c #FDF8F4",
"# 	c #FFFEF9",
"$ 	c #FDFFF9",
"% 	c #FDFEF9",
"& 	c #FCF8F7",
"* 	c #FCFBF7",
"= 	c #FEFDF9",
"- 	c #FDFCF8",
"; 	c #F8FAF5",
"> 	c #FFFFFB",
", 	c #F7F6F1",
"' 	c #303E4B",
") 	c #D6E0EA",
"! 	c #BECFD6",
"~ 	c #B7CED4",
"{ 	c #B8CFD7",
"] 	c #BED0DC",
"^ 	c #BCCED8",
"/ 	c #BACCD6",
"( 	c #BBCDD7",
"_ 	c #B9CBD5",
": 	c #B8CAD4",
"< 	c #BBCFD8",
"[ 	c #B6C8D2",
"} 	c #D1E2EA",
"| 	c #293B47",
"1 	c #D3E0E9",
"2 	c #BBCED4",
"3 	c #B5D1D4",
"4 	c #B3D0D4",
"5 	c #B7D0D7",
"6 	c #B6CFD4",
"7 	c #B7D0D5",
"8 	c #B4CDD2",
"9 	c #B3CCD1",
"0 	c #B3CAD2",
"a 	c #B9CDD4",
"b 	c #CADBE2",
"c 	c #283C43",
"d 	c #D8E1EA",
"e 	c #B9CCDA",
"f 	c #B7CFCF",
"g 	c #BACED7",
"h 	c #B8D0DA",
"i 	c #B4CCD6",
"j 	c #B7CED6",
"k 	c #B7CBD2",
"l 	c #BCD0D7",
"m 	c #B6CCD7",
"n 	c #B4CFDA",
"o 	c #B6CED2",
"p 	c #B1D0D3",
"q 	c #B3D0D6",
"r 	c #BCCAD5",
"s 	c #B6C9D0",
"t 	c #B7CCD1",
"u 	c #B4CDD4",
"v 	c #CFD9E3",
"w 	c #263D43",
"x 	c #D3DDE6",
"y 	c #B3C7D0",
"z 	c #B0C6D3",
"A 	c #B0CAC9",
"B 	c #B3C9D4",
"C 	c #B5C8CF",
"D 	c #B5C9D2",
"E 	c #B4C8D1",
"F 	c #B5C7D1",
"G 	c #B6CAD3",
"H 	c #B4C8D3",
"I 	c #B9CAD4",
"J 	c #B2CAD4",
"K 	c #B2C4D0",
"L 	c #ABC6CD",
"M 	c #ABC8CE",
"N 	c #ADC6CD",
"O 	c #AFC7CB",
"P 	c #ADC8CF",
"Q 	c #CBD8E1",
"R 	c #273F43",
"S 	c #CDDAE0",
"T 	c #ACC3CB",
"U 	c #A9C3D0",
"V 	c #A9C7C7",
"W 	c #ACC4CE",
"X 	c #ACC3C9",
"Y 	c #B0C7CD",
"Z 	c #ABC4CB",
"` 	c #A9C1CB",
" .	c #A9C4CD",
"..	c #A7C0C7",
"+.	c #AEC5CD",
"@.	c #AFC0D0",
"#.	c #A7C1CE",
"$.	c #A8C4CF",
"%.	c #ACC4D0",
"&.	c #AAC2CE",
"*.	c #A3C4CB",
"=.	c #A4C5CC",
"-.	c #A9C2C9",
";.	c #A7C0C4",
">.	c #A5C2CA",
",.	c #C8D4E0",
"'.	c #263F43",
").	c #C4D5DC",
"!.	c #9FBCC4",
"~.	c #9EBBC9",
"{.	c #9ABCBD",
"].	c #9BB9C4",
"^.	c #9ABBC2",
"/.	c #96B7BE",
"(.	c #A0BEC6",
"_.	c #9ABBC4",
":.	c #9CBEC8",
"<.	c #96B8C2",
"[.	c #A0BEC8",
"}.	c #9BB8BE",
"|.	c #9EB9CA",
"1.	c #99BBC7",
"2.	c #9CBDC6",
"3.	c #9EB9C4",
"4.	c #A1BCC7",
"5.	c #9CBCC7",
"6.	c #9CB8C3",
"7.	c #A1B1BE",
"8.	c #9CB9BF",
"9.	c #99B7C1",
"0.	c #BFCDD8",
"a.	c #254145",
"b.	c #8EAFB8",
"c.	c #8FB0BF",
"d.	c #8EB6B8",
"e.	c #91B2C1",
"f.	c #8EB2C0",
"g.	c #92B0BB",
"h.	c #91ACB5",
"i.	c #95B0B9",
"j.	c #92AEBA",
"k.	c #96B3C1",
"l.	c #8DA8B3",
"m.	c #9AAEB7",
"n.	c #95ACBE",
"o.	c #93AFBA",
"p.	c #99B2B9",
"q.	c #8FA9B6",
"r.	c #90B1C0",
"s.	c #8FAFBC",
"t.	c #94AAB8",
"u.	c #8DAEB7",
"v.	c #87ABB7",
"w.	c #B5C7D3",
"x.	c #233F43",
"y.	c #A1B8C0",
"z.	c #658995",
"A.	c #5E8596",
"B.	c #5D888F",
"C.	c #618699",
"D.	c #648398",
"E.	c #576A7B",
"F.	c #515B65",
"G.	c #535A62",
"H.	c #4C5662",
"I.	c #4F5B69",
"J.	c #505A66",
"K.	c #545863",
"L.	c #51586A",
"M.	c #4E5760",
"N.	c #50575D",
"O.	c #515862",
"P.	c #576D7B",
"Q.	c #5E8896",
"R.	c #5C8A97",
"S.	c #5A828E",
"T.	c #5C828D",
"U.	c #5B8291",
"V.	c #93A9B7",
"W.	c #223F45",
"X.	c #99B1BB",
"Y.	c #58808C",
"Z.	c #527D90",
"`.	c #53828C",
" +	c #567F95",
".+	c #58768E",
"++	c #4B5D6B",
"@+	c #F9FAFE",
"#+	c #FFFAFA",
"$+	c #FEFCFF",
"%+	c #FCFCFF",
"&+	c #FBFAFF",
"*+	c #FEF9FF",
"=+	c #FAFAFF",
"-+	c #FEFDFF",
";+	c #FFFBFB",
">+	c #FDF8FF",
",+	c #4E5B6B",
"'+	c #567C8F",
")+	c #518291",
"!+	c #538190",
"~+	c #4E7A87",
"{+	c #4C7A89",
"]+	c #8CA6B7",
"^+	c #244149",
"/+	c #97B2BD",
"(+	c #5A8190",
"_+	c #568398",
":+	c #568692",
"<+	c #568098",
"[+	c #5B7F95",
"}+	c #4A5E67",
"|+	c #DBDDD8",
"1+	c #E3DCD2",
"2+	c #DFDAD4",
"3+	c #DDDDDD",
"4+	c #DCDCDC",
"5+	c #E1DDDC",
"6+	c #D8DDE1",
"7+	c #DBDDDA",
"8+	c #E1D9D6",
"9+	c #E4D9DF",
"0+	c #4F5666",
"a+	c #5F7F94",
"b+	c #59869B",
"c+	c #567F91",
"d+	c #548291",
"e+	c #4D7C8E",
"f+	c #8AA7B9",
"g+	c #2D3741",
"h+	c #A0B8C4",
"i+	c #528B96",
"j+	c #59839B",
"k+	c #5A879C",
"l+	c #588695",
"m+	c #638495",
"n+	c #495969",
"o+	c #D8D4E2",
"p+	c #DED3DB",
"q+	c #DBD5D7",
"r+	c #D7D7D9",
"s+	c #D6D7DC",
"t+	c #D8D5E0",
"u+	c #DBD7D4",
"v+	c #D7D3D2",
"w+	c #DBD9DE",
"x+	c #D3D5E1",
"y+	c #4D5A6B",
"z+	c #637F94",
"A+	c #5F899F",
"B+	c #55899E",
"C+	c #5C8599",
"D+	c #588290",
"E+	c #8AACB5",
"F+	c #33444C",
"G+	c #9FB7C1",
"H+	c #5A8E9B",
"I+	c #6589A3",
"J+	c #668BA5",
"K+	c #628B9F",
"L+	c #566C79",
"M+	c #555B67",
"N+	c #5A5A62",
"O+	c #53585C",
"P+	c #4F5A5C",
"Q+	c #525D63",
"R+	c #525963",
"S+	c #545C5F",
"T+	c #545B61",
"U+	c #50575F",
"V+	c #535D69",
"W+	c #5A6C7A",
"X+	c #6F8B99",
"Y+	c #638898",
"Z+	c #608B9B",
"`+	c #64889E",
" @	c #658A9C",
".@	c #8CACB7",
"+@	c #404E57",
"@@	c #A4B5BF",
"#@	c #7AA2AE",
"$@	c #718BA4",
"%@	c #6B8AA6",
"&@	c #7092AB",
"*@	c #629BAF",
"=@	c #6795AD",
"-@	c #698DA7",
";@	c #6D8FA8",
">@	c #6C92A7",
",@	c #6C97AA",
"'@	c #6A90A5",
")@	c #6E91A7",
"!@	c #6A8FA9",
"~@	c #6D92AC",
"{@	c #6E93AD",
"]@	c #688DA7",
"^@	c #6991AB",
"/@	c #6793AC",
"(@	c #6593AB",
"_@	c #6999B0",
":@	c #6E8DA9",
"<@	c #6E91A5",
"[@	c #97B4C4",
"}@	c #547177",
"|@	c #597579",
"1@	c #92C2C4",
"2@	c #7FA5B0",
"3@	c #6F9FAB",
"4@	c #669AA5",
"5@	c #6C9AAA",
"6@	c #7096A9",
"7@	c #7A9DB3",
"8@	c #7498B0",
"9@	c #739CB2",
"0@	c #6D96AA",
"a@	c #769CAF",
"b@	c #7595AA",
"c@	c #769AB2",
"d@	c #749AB1",
"e@	c #7096AD",
"f@	c #789EB3",
"g@	c #7498AE",
"h@	c #799EB1",
"i@	c #7699AD",
"j@	c #7797AC",
"k@	c #7799B2",
"l@	c #7499AC",
"m@	c #97B8C9",
"n@	c #35434C",
"o@	c #536F73",
"p@	c #A8B9C3",
"q@	c #B3CED5",
"r@	c #AFCAD3",
"s@	c #B2C9D1",
"t@	c #B7CBD6",
"u@	c #B1C4D2",
"v@	c #B0C5D6",
"w@	c #B3CDDC",
"x@	c #AFC9D6",
"y@	c #B5CBD8",
"z@	c #B5C8D6",
"A@	c #B3C6D4",
"B@	c #B2C8D5",
"C@	c #B1C9D5",
"D@	c #B0CBD6",
"E@	c #B3CBD7",
"F@	c #B1C7D4",
"G@	c #B6C9D7",
"H@	c #B5C7D5",
"I@	c #AFC5D3",
"J@	c #B2CDD8",
"K@	c #B0C7CF",
"L@	c #7CAAB7",
"M@	c #B0CAD7",
"N@	c #59767E",
"O@	c #434F5B",
"P@	c #2E4148",
"Q@	c #2C3D45",
"R@	c #2E3D44",
"S@	c #2C3A43",
"T@	c #2E3F47",
"U@	c #2B3D47",
"V@	c #2C3E48",
"W@	c #273943",
"X@	c #2D3E45",
"Y@	c #2B3C43",
"Z@	c #2D4046",
"`@	c #2C3F46",
" #	c #293D44",
".#	c #2A3C46",
"+#	c #2F414B",
"@#	c #2D4247",
"##	c #264243",
"$#	c #2D4746",
"%#	c #679CAE",
"&#	c #89A7BF",
"*#	c #AFD0E1",
"=#	c #C4D5E7",
"-#	c #BFD6E4",
";#	c #C5D8E7",
">#	c #C7DBE2",
",#	c #BFD6DC",
"'#	c #C3DBDF",
")#	c #C4DCE0",
"!#	c #C0D8DC",
"~#	c #C7DEE4",
"{#	c #C1DADF",
"]#	c #C6DEE2",
"^#	c #C2DADE",
"/#	c #C6DBE0",
"(#	c #C1D9DD",
"_#	c #C6DDE3",
":#	c #C0D7DD",
"<#	c #C4DDE2",
"[#	c #CDD6E7",
"}#	c #C4D4E3",
"|#	c #C5D5E2",
"1#	c #66AAAB",
"2#	c #65A9AA",
". . . . . . . . . . . . . . . . . . . . . . . . . ",
"+ @ # $ % & * * * * * * * * = = = = - - - - ; > , ",
"' ) ! ~ { ] ^ ^ ^ ^ ^ ^ ^ ^ / ( ( / _ : : : < [ } ",
"| 1 2 3 4 5 ~ ~ ~ ~ ~ ~ ~ ~ 6 7 7 6 8 8 9 8 0 a b ",
"c d / e f g h i h j k l m n o p q ( r s k r t u v ",
"w x y z A B C D E E F F G H I J J K G L M N O P Q ",
"R S T U V W X Y Z `  .W ..+.@.#.$.%.&.*.=.-.;.>.,.",
"'.).!.~.{.].^./.(._.:.<.[.}.|.1.2.3.4.5.6.7.8.9.0.",
"a.2 b.c.d.e.f.g.h.i.j.k.l.m.n.o.p.m.q.r.s.t.u.v.w.",
"x.y.z.A.B.C.D.E.F.G.H.I.J.K.L.M.N.O.P.Q.R.S.T.U.V.",
"W.X.Y.Z.`. +.+++@+#+$+%+&+*+=+-+;+>+,+'+)+!+~+{+]+",
"^+/+(+_+:+<+[+}+|+1+2+3+4+5+6+7+8+9+0+a+b+c+d+e+f+",
"g+h+i+j+k+l+m+n+o+p+q+r+s+t+u+v+w+x+y+z+A+B+C+D+E+",
"F+G+H+I+J+K+z.L+M+N+O+P+Q+R+S+T+U+V+W+X+Y+Z+`+ @.@",
"+@@@#@$@%@&@*@=@-@;@>@,@'@)@!@~@{@]@^@/@(@_@:@<@[@",
"}@|@1@2@3@4@5@6@7@8@9@0@a@b@c@d@e@f@g@h@i@j@k@l@m@",
"%.n@o@p@q@r@s@t@u@v@w@x@y@z@A@B@C@D@E@F@G@H@I@J@K@",
"L@M@N@O@P@Q@R@S@T@U@U@V@W@T@X@Y@Z@`@ #.#+#U@@###$#",
"%#&#*#=#-#;#>#,#'#'#)#!#~#{#!#]#^#/#(#_#:#<#[#}#|#",
"1#1#1#1#1#1#1#1#1#1#1#1#1#1#1#1#1#1#1#1#1#1#1#1#1#",
"1#1#1#1#1#1#1#1#1#1#1#1#1#1#1#1#1#1#1#1#1#1#1#1#1#",
"2#2#2#2#2#2#2#2#2#2#2#2#2#2#2#2#2#2#2#2#2#2#2#2#2#",
"1#1#1#1#1#1#1#1#1#1#1#1#1#1#1#1#1#1#1#1#1#1#1#1#1#",
"1#1#1#1#1#1#1#1#1#1#1#1#1#1#1#1#1#1#1#1#1#1#1#1#1#",
". . . . . . . . . . . . . . . . . . . . . . . . . ",
"+ @ # $ % & * * * * * * * * = = = = - - - - ; > , ",
"' ) ! ~ { ] ^ ^ ^ ^ ^ ^ ^ ^ / ( ( / _ : : : < [ } ",
"| 1 2 3 4 5 ~ ~ ~ ~ ~ ~ ~ ~ 6 7 7 6 8 8 9 8 0 a b ",
"c d / e f g h i h j k l m n o p q ( r s k r t u v ",
"w x y z A B C D E E F F G H I J J K G L M N O P Q ",
"R S T U V W X Y Z `  .W ..+.@.#.$.%.&.*.=.-.;.>.,.",
"'.).!.~.{.].^./.(._.:.<.[.}.|.1.2.3.4.5.6.7.8.9.0.",
"a.2 b.c.d.e.f.g.h.i.j.k.l.m.n.o.p.m.q.r.s.t.u.v.w.",
"x.y.z.A.B.C.D.E.F.G.H.I.J.K.L.M.N.O.P.Q.R.S.T.U.V.",
"W.X.Y.Z.`. +.+++@+#+$+%+&+*+=+-+;+>+,+'+)+!+~+{+]+",
"^+/+(+_+:+<+[+}+|+1+2+3+4+5+6+7+8+9+0+a+b+c+d+e+f+",
"g+h+i+j+k+l+m+n+o+p+q+r+s+t+u+v+w+x+y+z+A+B+C+D+E+",
"F+G+H+I+J+K+z.L+M+N+O+P+Q+R+S+T+U+V+W+X+Y+Z+`+ @.@",
"+@@@#@$@%@&@*@=@-@;@>@,@'@)@!@~@{@]@^@/@(@_@:@<@[@",
"}@|@1@2@3@4@5@6@7@8@9@0@a@b@c@d@e@f@g@h@i@j@k@l@m@",
"%.n@o@p@q@r@s@t@u@v@w@x@y@z@A@B@C@D@E@F@G@H@I@J@K@",
"L@M@N@O@P@Q@R@S@T@U@U@V@W@T@X@Y@Z@`@ #.#+#U@@###$#",
"%#&#*#=#-#;#>#,#'#'#)#!#~#{#!#]#^#/#(#_#:#<#[#}#|#",
"1#1#1#1#1#1#1#1#1#1#1#1#1#1#1#1#1#1#1#1#1#1#1#1#1#",
"1#1#1#1#1#1#1#1#1#1#1#1#1#1#1#1#1#1#1#1#1#1#1#1#1#",
"2#2#2#2#2#2#2#2#2#2#2#2#2#2#2#2#2#2#2#2#2#2#2#2#2#",
"1#1#1#1#1#1#1#1#1#1#1#1#1#1#1#1#1#1#1#1#1#1#1#1#1#",
"1#1#1#1#1#1#1#1#1#1#1#1#1#1#1#1#1#1#1#1#1#1#1#1#1#"};
