/* XPM */
static char * minimizeO_xpm[] = {
"25 48 392 2",
"  	c None",
". 	c #F3F8F6",
"+ 	c #496979",
"@ 	c #FCF8F6",
"# 	c #FFFEF9",
"$ 	c #FBFFF9",
"% 	c #FCFEFA",
"& 	c #FBF9FA",
"* 	c #FAFBF9",
"= 	c #FEFDFA",
"- 	c #FCFCFA",
"; 	c #F6FAF8",
"> 	c #FFFFFB",
", 	c #F2F6F3",
"' 	c #1B4261",
") 	c #CEE6F2",
"! 	c #B0D6E4",
"~ 	c #A9D4E3",
"{ 	c #ABD5E5",
"] 	c #B1D7E9",
"^ 	c #AED4E6",
"/ 	c #ACD4E4",
"( 	c #ADD5E5",
"_ 	c #ABD3E3",
": 	c #AAD2E2",
"< 	c #AED6E6",
"[ 	c #A7CFE1",
"} 	c #CAE8F2",
"| 	c #173E59",
"1 	c #CBE6F1",
"2 	c #ADD6E3",
"3 	c #A7D8E3",
"4 	c #A5D6E3",
"5 	c #A9D6E5",
"6 	c #A8D5E2",
"7 	c #A9D6E3",
"8 	c #A5D4E1",
"9 	c #A3D3E1",
"0 	c #A4D1E2",
"a 	c #ABD4E3",
"b 	c #C0E0EC",
"c 	c #163F56",
"d 	c #D0E6F2",
"e 	c #ADD5E7",
"f 	c #A7D5DF",
"g 	c #ABD7E7",
"h 	c #A6D3E4",
"i 	c #AAD6E4",
"j 	c #A8D2E2",
"k 	c #AFD6E5",
"l 	c #A9D3E5",
"m 	c #A7D6E7",
"n 	c #A7D4E1",
"o 	c #A2D7E2",
"p 	c #A5D6E5",
"q 	c #AFD1E3",
"r 	c #A7D0DF",
"s 	c #A8D2E0",
"t 	c #A6D3E2",
"u 	c #C5DFED",
"v 	c #153F55",
"w 	c #CBE3EF",
"x 	c #A4CEE0",
"y 	c #A1CEE3",
"z 	c #9FD0DB",
"A 	c #A5D1E3",
"B 	c #A6CFDE",
"C 	c #A6D0E2",
"D 	c #A5CFE1",
"E 	c #A6CEE0",
"F 	c #A8D1E2",
"G 	c #A6CFE2",
"H 	c #ABD1E3",
"I 	c #A3D1E3",
"J 	c #A2CCE0",
"K 	c #9ACDDE",
"L 	c #9BD0DF",
"M 	c #9CCDDE",
"N 	c #9ECEDC",
"O 	c #9DCFDF",
"P 	c #C0DEEC",
"Q 	c #154155",
"R 	c #C3DFEB",
"S 	c #9CCBDC",
"T 	c #9ACBE0",
"U 	c #97CDD9",
"V 	c #9CCBDE",
"W 	c #9BCADB",
"X 	c #A0CEDE",
"Y 	c #9ACCDC",
"Z 	c #98CADC",
"` 	c #98CBDE",
" .	c #95C7D9",
"..	c #9ECDDE",
"+.	c #A0C9E0",
"@.	c #97CADF",
"#.	c #99CCDF",
"$.	c #9CCCE0",
"%.	c #9ACADE",
"&.	c #92CBDC",
"*.	c #94CCDC",
"=.	c #97C8DB",
"-.	c #96C8D6",
";.	c #95CADB",
">.	c #BDDAEB",
",.	c #B7DBE9",
"'.	c #8EC4D6",
").	c #8DC4DB",
"!.	c #87C2D1",
"~.	c #8AC2D6",
"{.	c #87C2D5",
"].	c #83BED1",
"^.	c #8EC6D8",
"/.	c #88C3D6",
"(.	c #8AC6DA",
"_.	c #83BFD5",
":.	c #8EC5DA",
"<.	c #88C0D2",
"[.	c #8DC2DB",
"}.	c #87C3D9",
"|.	c #8AC5D8",
"1.	c #8CC0D6",
"2.	c #8FC3D9",
"3.	c #8BC4D9",
"4.	c #8AC0D6",
"5.	c #8FB9D1",
"6.	c #89C0D3",
"7.	c #86BFD4",
"8.	c #B2D4E6",
"9.	c #144356",
"0.	c #7AB6CC",
"a.	c #7CB9D2",
"b.	c #7ABECC",
"c.	c #7EBBD4",
"d.	c #7BB9D3",
"e.	c #7FB8CF",
"f.	c #7CB3CA",
"g.	c #81B7CD",
"h.	c #7EB7CE",
"i.	c #84BBD4",
"j.	c #78B1C8",
"k.	c #86B6CC",
"l.	c #83B5D1",
"m.	c #7FB7CF",
"n.	c #85BACD",
"o.	c #7BB2CB",
"p.	c #7DBAD3",
"q.	c #7CB7D0",
"r.	c #80B2CC",
"s.	c #79B5CB",
"t.	c #73B3CB",
"u.	c #124054",
"v.	c #8FC1D3",
"w.	c #4791B3",
"x.	c #418CB3",
"y.	c #4091AC",
"z.	c #448FB6",
"A.	c #478DB5",
"B.	c #3A7198",
"C.	c #366280",
"D.	c #38617E",
"E.	c #315C7D",
"F.	c #346184",
"G.	c #356281",
"H.	c #395F7F",
"I.	c #365F86",
"J.	c #345D7A",
"K.	c #355F79",
"L.	c #365F7E",
"M.	c #3A7398",
"N.	c #4192B3",
"O.	c #3F95B5",
"P.	c #3D8AAB",
"Q.	c #3F8BAB",
"R.	c #3E8BAE",
"S.	c #7FB1CB",
"T.	c #124156",
"U.	c #85B9CF",
"V.	c #3B88A9",
"W.	c #3684AC",
"X.	c #378AA9",
"Y.	c #3986B3",
"Z.	c #3C7DAA",
"`.	c #306386",
" +	c #FAFCFE",
".+	c #FFFBFC",
"++	c #FEFEFE",
"@+	c #FDFEFF",
"#+	c #FCFCFE",
"$+	c #FEFAFE",
"%+	c #FCFDFE",
"&+	c #FFFBFB",
"*+	c #FDFAFE",
"=+	c #336087",
"-+	c #3985AD",
";+	c #358AAD",
">+	c #3788AD",
",+	c #3382A3",
"'+	c #3180A5",
")+	c #78AFCC",
"!+	c #13425B",
"~+	c #83BAD1",
"{+	c #3D89AD",
"]+	c #398BB5",
"^+	c #398FAF",
"/+	c #3988B5",
"(+	c #3E88B2",
"_+	c #306482",
":+	c #D1E1E5",
"<+	c #D7DEDF",
"[+	c #D4DDE0",
"}+	c #D2E0E8",
"|+	c #D0E0E8",
"1+	c #D7E0E7",
"2+	c #CFE2EB",
"3+	c #D1E1E7",
"4+	c #D6DCE2",
"5+	c #D7D9E7",
"6+	c #355C81",
"7+	c #4287B2",
"8+	c #3C8EB8",
"9+	c #3987AF",
"0+	c #3888AE",
"a+	c #3284AA",
"b+	c #77B0CD",
"c+	c #193B55",
"d+	c #8EC1D6",
"e+	c #3694B2",
"f+	c #3C8BB8",
"g+	c #3D8FB9",
"h+	c #3B90B3",
"i+	c #458DB3",
"j+	c #2F5E83",
"k+	c #CBD8EB",
"l+	c #CED3E4",
"m+	c #CDD7E3",
"n+	c #CBDCE5",
"o+	c #CADCE8",
"p+	c #CCD9EA",
"q+	c #CFDBE1",
"r+	c #CAD7E0",
"s+	c #D0DDE8",
"t+	c #C9DBEB",
"u+	c #325F86",
"v+	c #4688B2",
"w+	c #4292BC",
"x+	c #3892BC",
"y+	c #3F8EB7",
"z+	c #3B89AD",
"A+	c #76B3CA",
"B+	c #1E4962",
"C+	c #8CBFD4",
"D+	c #3E97B8",
"E+	c #4C91BC",
"F+	c #4F92BD",
"G+	c #4694BC",
"H+	c #3A7496",
"I+	c #396383",
"J+	c #3F617D",
"K+	c #395F77",
"L+	c #356277",
"M+	c #37657F",
"N+	c #37607F",
"O+	c #3A647A",
"P+	c #39627D",
"Q+	c #355E7B",
"R+	c #386384",
"S+	c #3E7496",
"T+	c #5593B3",
"U+	c #4693B6",
"V+	c #4393B9",
"W+	c #4891BA",
"X+	c #4993B9",
"Y+	c #78B5CC",
"Z+	c #285470",
"`+	c #92BED2",
" @	c #64AAC4",
".@	c #5B94BB",
"+@	c #5692BC",
"@@	c #5B99C1",
"#@	c #4EA1C4",
"$@	c #529CC2",
"%@	c #5394BD",
"&@	c #5896BE",
"*@	c #579ABD",
"=@	c #569EC0",
"-@	c #5598BB",
";@	c #5999BD",
">@	c #5596BF",
",@	c #589BC2",
"'@	c #599CC3",
")@	c #5499C0",
"!@	c #509AC0",
"~@	c #56A1C4",
"{@	c #5995BF",
"]@	c #599ABB",
"^@	c #86BDD6",
"/@	c #397993",
"(@	c #3D7D95",
"_@	c #80C9D6",
":@	c #6BADC5",
"<@	c #59A5C1",
"[@	c #4FA2BD",
"}@	c #56A1C0",
"|@	c #5B9DBF",
"1@	c #66A7C8",
"2@	c #5FA0C5",
"3@	c #5FA4C7",
"4@	c #589FC0",
"5@	c #62A5C4",
"6@	c #609DC0",
"7@	c #61A2C7",
"8@	c #60A3C6",
"9@	c #5B9DC3",
"0@	c #64A6C8",
"a@	c #5F9FC3",
"b@	c #64A7C6",
"c@	c #61A2C3",
"d@	c #629FC2",
"e@	c #63A2C7",
"f@	c #5EA0C2",
"g@	c #86BFDA",
"h@	c #1F4963",
"i@	c #38778E",
"j@	c #96C2D6",
"k@	c #A5D5E3",
"l@	c #A0D0E2",
"m@	c #A3D0E1",
"n@	c #AAD3E4",
"o@	c #A2CCE2",
"p@	c #A2CEE4",
"q@	c #A7D6E9",
"r@	c #A2D1E4",
"s@	c #A8D2E6",
"t@	c #A8D0E4",
"u@	c #A5CFE3",
"v@	c #A4D0E4",
"w@	c #A3D0E3",
"x@	c #A2D2E4",
"y@	c #A5D2E5",
"z@	c #A3CFE3",
"A@	c #A9D1E5",
"B@	c #A7CFE3",
"C@	c #A0CDE2",
"D@	c #A4D4E6",
"E@	c #A1CEDF",
"F@	c #69B3CB",
"G@	c #A3D2E5",
"H@	c #3D7D9B",
"I@	c #2A5474",
"J@	c #1A445C",
"K@	c #194059",
"L@	c #1A4058",
"M@	c #193D57",
"N@	c #1B425B",
"O@	c #18405A",
"P@	c #19405B",
"Q@	c #153B55",
"R@	c #194259",
"S@	c #183F56",
"T@	c #19445B",
"U@	c #174057",
"V@	c #173F59",
"W@	c #1A4560",
"X@	c #19465B",
"Y@	c #154555",
"Z@	c #194C5B",
"`@	c #53A2C3",
" #	c #76B0D2",
".#	c #A4D8EC",
"+#	c #BCDDF0",
"@#	c #B5DEEF",
"##	c #BCE0F0",
"$#	c #BDE1ED",
"%#	c #B3DDE9",
"&#	c #B8E0EA",
"*#	c #B9E1EB",
"=#	c #B3DEE9",
"-#	c #BEE3EE",
";#	c #B5E0EB",
">#	c #BCE4EC",
",#	c #B6DFEA",
"'#	c #BBE0EB",
")#	c #B5DEE9",
"!#	c #BCE3EE",
"~#	c #B5DDE9",
"{#	c #B9E2ED",
"]#	c #C4DDF0",
"^#	c #BADCEE",
"/#	c #BBDDED",
"(#	c #66AAAB",
"_#	c #65A9AA",
". . . . . . . . . . . . . . . . . . . . . . . . . ",
"+ @ # $ % & * * * * * * * * = = = = - - - - ; > , ",
"' ) ! ~ { ] ^ ^ ^ ^ ^ ^ ^ ^ / ( ( / _ : : : < [ } ",
"| 1 2 3 4 5 ~ ~ ~ ~ ~ ~ ~ ~ 6 7 7 6 8 8 9 8 0 a b ",
"c d / e f ( g h g i j k l m n o p ( q r j q s t u ",
"v w x y z A B C D D E E F G H I I J F K L M N O P ",
"Q R S T U V W X Y Z ` V  ...+.@.#.$.%.&.*.=.-.;.>.",
"Q ,.'.).!.~.{.].^./.(._.:.<.[.}.|.1.2.3.4.5.6.7.8.",
"9.2 0.a.b.c.d.e.f.g.h.i.j.k.l.m.n.k.o.p.q.r.s.t.G ",
"u.v.w.x.y.z.A.B.C.D.E.F.G.H.I.J.K.L.M.N.O.P.Q.R.S.",
"T.U.V.W.X.Y.Z.`. +.+++@+#+$+%+++&+*+=+-+;+>+,+'+)+",
"!+~+{+]+^+/+(+_+:+<+[+}+|+1+2+3+4+5+6+7+8+9+0+a+b+",
"c+d+e+f+g+h+i+j+k+l+m+n+o+p+q+r+s+t+u+v+w+x+y+z+A+",
"B+C+D+E+F+G+w.H+I+J+K+L+M+N+O+P+Q+R+S+T+U+V+W+X+Y+",
"Z+`+ @.@+@@@#@$@%@&@*@=@-@;@>@,@'@%@)@$@!@~@{@]@^@",
"/@(@_@:@<@[@}@|@1@2@3@4@5@6@7@8@9@0@a@b@c@d@e@f@g@",
"$.h@i@j@k@l@m@n@o@p@q@r@s@t@u@v@w@x@y@z@A@B@C@D@E@",
"F@G@H@I@J@K@L@M@N@O@O@P@Q@N@R@S@T@R@U@V@W@O@X@Y@Z@",
"`@ #.#+#@###$#%#&#&#*#=#-#;#=#>#,#'#)#!#~#{#]#^#/#",
"(#(#(#(#(#(#(#(#(#(#(#(#(#(#(#(#(#(#(#(#(#(#(#(#(#",
"(#(#(#(#(#(#(#(#(#(#(#(#(#(#(#(#(#(#(#(#(#(#(#(#(#",
"_#_#_#_#_#_#_#_#_#_#_#_#_#_#_#_#_#_#_#_#_#_#_#_#_#",
"(#(#(#(#(#(#(#(#(#(#(#(#(#(#(#(#(#(#(#(#(#(#(#(#(#",
"(#(#(#(#(#(#(#(#(#(#(#(#(#(#(#(#(#(#(#(#(#(#(#(#(#",
". . . . . . . . . . . . . . . . . . . . . . . . . ",
"+ @ # $ % & * * * * * * * * = = = = - - - - ; > , ",
"' ) ! ~ { ] ^ ^ ^ ^ ^ ^ ^ ^ / ( ( / _ : : : < [ } ",
"| 1 2 3 4 5 ~ ~ ~ ~ ~ ~ ~ ~ 6 7 7 6 8 8 9 8 0 a b ",
"c d / e f ( g h g i j k l m n o p ( q r j q s t u ",
"v w x y z A B C D D E E F G H I I J F K L M N O P ",
"Q R S T U V W X Y Z ` V  ...+.@.#.$.%.&.*.=.-.;.>.",
"Q ,.'.).!.~.{.].^./.(._.:.<.[.}.|.1.2.3.4.5.6.7.8.",
"9.2 0.a.b.c.d.e.f.g.h.i.j.k.l.m.n.k.o.p.q.r.s.t.G ",
"u.v.w.x.y.z.A.B.C.D.E.F.G.H.I.J.K.L.M.N.O.P.Q.R.S.",
"T.U.V.W.X.Y.Z.`. +.+++@+#+$+%+++&+*+=+-+;+>+,+'+)+",
"!+~+{+]+^+/+(+_+:+<+[+}+|+1+2+3+4+5+6+7+8+9+0+a+b+",
"c+d+e+f+g+h+i+j+k+l+m+n+o+p+q+r+s+t+u+v+w+x+y+z+A+",
"B+C+D+E+F+G+w.H+I+J+K+L+M+N+O+P+Q+R+S+T+U+V+W+X+Y+",
"Z+`+ @.@+@@@#@$@%@&@*@=@-@;@>@,@'@%@)@$@!@~@{@]@^@",
"/@(@_@:@<@[@}@|@1@2@3@4@5@6@7@8@9@0@a@b@c@d@e@f@g@",
"$.h@i@j@k@l@m@n@o@p@q@r@s@t@u@v@w@x@y@z@A@B@C@D@E@",
"F@G@H@I@J@K@L@M@N@O@O@P@Q@N@R@S@T@R@U@V@W@O@X@Y@Z@",
"`@ #.#+#@###$#%#&#&#*#=#-#;#=#>#,#'#)#!#~#{#]#^#/#",
"(#(#(#(#(#(#(#(#(#(#(#(#(#(#(#(#(#(#(#(#(#(#(#(#(#",
"(#(#(#(#(#(#(#(#(#(#(#(#(#(#(#(#(#(#(#(#(#(#(#(#(#",
"_#_#_#_#_#_#_#_#_#_#_#_#_#_#_#_#_#_#_#_#_#_#_#_#_#",
"(#(#(#(#(#(#(#(#(#(#(#(#(#(#(#(#(#(#(#(#(#(#(#(#(#",
"(#(#(#(#(#(#(#(#(#(#(#(#(#(#(#(#(#(#(#(#(#(#(#(#(#"};
