/* XPM */
static char * maximizeO_xpm[] = {
"25 48 369 2",
"  	c None",
". 	c #F3F8F6",
"+ 	c #8AA3A4",
"@ 	c #FBF9F5",
"# 	c #FFFFFB",
"$ 	c #FCFEFA",
"% 	c #F9FCF8",
"& 	c #FCFCFA",
"* 	c #FFF7FA",
"= 	c #FFF9FE",
"- 	c #F9FDFD",
"; 	c #5D8E9F",
"> 	c #D3EAF1",
", 	c #AFD2DD",
"' 	c #B0D4E0",
") 	c #B0D5E0",
"! 	c #AFD4DF",
"~ 	c #B1D5E1",
"{ 	c #ACD9DE",
"] 	c #B0D8DC",
"^ 	c #C5E6E9",
"/ 	c #578A97",
"( 	c #D8EFF4",
"_ 	c #B0D3DC",
": 	c #ADD2DB",
"< 	c #AED6E0",
"[ 	c #AFD4DD",
"} 	c #B0D5DE",
"| 	c #ADD5DF",
"1 	c #ACD6E2",
"2 	c #B9D6E9",
"3 	c #ABD1D9",
"4 	c #CCE5EC",
"5 	c #568994",
"6 	c #DBEBF1",
"7 	c #AAD6E0",
"8 	c #ADD4E1",
"9 	c #A6D5DA",
"0 	c #ABD8E3",
"a 	c #728FA8",
"b 	c #3E6078",
"c 	c #435F7F",
"d 	c #3B6479",
"e 	c #3F6473",
"f 	c #3F6375",
"g 	c #3A617A",
"h 	c #446380",
"i 	c #3E6378",
"j 	c #3E6076",
"k 	c #7391A9",
"l 	c #AAD7E2",
"m 	c #A8D6DC",
"n 	c #ABD6E1",
"o 	c #ACD6DC",
"p 	c #C9E2EB",
"q 	c #53848F",
"r 	c #D5E7ED",
"s 	c #A1D0D9",
"t 	c #A8CFDC",
"u 	c #A9CFD9",
"v 	c #A8D2D8",
"w 	c #A5CFDB",
"x 	c #3F627B",
"y 	c #FBFFFE",
"z 	c #FAFDFE",
"A 	c #F8F8FE",
"B 	c #FCFEFE",
"C 	c #FFFDFE",
"D 	c #FBFAFE",
"E 	c #FAFEFE",
"F 	c #41637B",
"G 	c #A9D2DB",
"H 	c #A3D3DD",
"I 	c #A4D0DA",
"J 	c #A4D0D8",
"K 	c #C3E0E9",
"L 	c #4E818C",
"M 	c #D3E5EB",
"N 	c #99CAD3",
"O 	c #9ECAD8",
"P 	c #9FCAD5",
"Q 	c #9FC7D1",
"R 	c #A4CAD8",
"S 	c #405F72",
"T 	c #F5FBF9",
"U 	c #FDFFFB",
"V 	c #FFFBFE",
"W 	c #FDFEFF",
"X 	c #FCFFF9",
"Y 	c #F3FBF7",
"Z 	c #A5CBD9",
"` 	c #A1C8D5",
" .	c #9CCBD6",
"..	c #9ECAD6",
"+.	c #9ECCD4",
"@.	c #BFDEE7",
"#.	c #447982",
"$.	c #CBE1E7",
"%.	c #8AC2CC",
"&.	c #91C3D1",
"*.	c #91C1CD",
"=.	c #91C1CF",
"-.	c #91BECD",
";.	c #446578",
">.	c #FDFFFD",
",.	c #405F6E",
"'.	c #3A6778",
").	c #3E6476",
"!.	c #3E6478",
"~.	c #415F6D",
"{.	c #F9FDF7",
"].	c #456679",
"^.	c #92BECE",
"/.	c #94C3D2",
"(.	c #96C0CE",
"_.	c #97C0D1",
":.	c #97C1CF",
"<.	c #B5D8E1",
"[.	c #3E717E",
"}.	c #C4DEE6",
"|.	c #7CB6C2",
"1.	c #80B8C8",
"2.	c #80B6C6",
"3.	c #7AB8C8",
"4.	c #86BCCC",
"5.	c #3D5E77",
"6.	c #E2EBEE",
"7.	c #E7EFF1",
"8.	c #3E647C",
"9.	c #7EB3C4",
"0.	c #83B8C9",
"a.	c #83B7CB",
"b.	c #80B2C6",
"c.	c #3E647A",
"d.	c #E5EEEF",
"e.	c #E1EAEB",
"f.	c #3D5E75",
"g.	c #89BECF",
"h.	c #7CBACA",
"i.	c #84B9C8",
"j.	c #82BACA",
"k.	c #84B6C6",
"l.	c #AAD2DC",
"m.	c #235661",
"n.	c #A1C6D1",
"o.	c #4792A5",
"p.	c #4892AA",
"q.	c #4893A8",
"r.	c #3E91A6",
"s.	c #4690A8",
"t.	c #3E6380",
"u.	c #E6EDF2",
"v.	c #E4EDF2",
"w.	c #3E637C",
"x.	c #4A8CA8",
"y.	c #4C92AC",
"z.	c #4C91AE",
"A.	c #4A8EAA",
"B.	c #3D627B",
"C.	c #E5EDF1",
"D.	c #4891AC",
"E.	c #4193AB",
"F.	c #4898AC",
"G.	c #4398AD",
"H.	c #4B93AB",
"I.	c #82B5C2",
"J.	c #205662",
"K.	c #A0C9D4",
"L.	c #3C8A9E",
"M.	c #3B86A1",
"N.	c #3B879F",
"O.	c #3D8BA5",
"P.	c #4086A0",
"Q.	c #3C617E",
"R.	c #DCEAEE",
"S.	c #D9E5E9",
"T.	c #415E75",
"U.	c #3A6A80",
"V.	c #376177",
"W.	c #366076",
"X.	c #405D72",
"Y.	c #D9E6E7",
"Z.	c #DCEAEC",
"`.	c #3B617B",
" +	c #4288A6",
".+	c #3F8DA7",
"++	c #398DA5",
"@+	c #438CA7",
"#+	c #7DB3C1",
"$+	c #1F5563",
"%+	c #A2CCD8",
"&+	c #3B8AA1",
"*+	c #3D8AA7",
"=+	c #3C8BA8",
"-+	c #428DA6",
";+	c #4284A0",
">+	c #3D647D",
",+	c #CDE0E1",
"'+	c #D7E5E3",
")+	c #D8DBE2",
"!+	c #D3DFE5",
"~+	c #DBDEE3",
"{+	c #D9DCE3",
"]+	c #D3DFE7",
"^+	c #D8DBE0",
"/+	c #D7E5E2",
"(+	c #CEE1E2",
"_+	c #3D667B",
":+	c #4489A2",
"<+	c #458EA9",
"[+	c #498BA9",
"}+	c #418DAD",
"|+	c #4A8BAC",
"1+	c #7EB4C2",
"2+	c #245664",
"3+	c #A2CDD8",
"4+	c #438C9F",
"5+	c #4090AA",
"6+	c #3F8EAF",
"7+	c #408EB2",
"8+	c #478EAB",
"9+	c #33647B",
"0+	c #CBDDE5",
"a+	c #D5DCE1",
"b+	c #D2D7DC",
"c+	c #D4DDE0",
"d+	c #D0DEE2",
"e+	c #CFDCE1",
"f+	c #D1DBDF",
"g+	c #D0D6DA",
"h+	c #D4DBE0",
"i+	c #CCDDE6",
"j+	c #35667D",
"k+	c #4A91AE",
"l+	c #4290B4",
"m+	c #4498B0",
"n+	c #3D96AD",
"o+	c #4592AF",
"p+	c #88B4C8",
"q+	c #2A5A6C",
"r+	c #4F96AB",
"s+	c #4D93B7",
"t+	c #4A91B2",
"u+	c #5392AF",
"v+	c #417691",
"w+	c #406980",
"x+	c #406278",
"y+	c #3D6277",
"z+	c #3A6378",
"A+	c #416379",
"B+	c #3E5F74",
"C+	c #3E657C",
"D+	c #3F748F",
"E+	c #5493B0",
"F+	c #5195B5",
"G+	c #4F91B3",
"H+	c #5B9AB7",
"I+	c #5492B2",
"J+	c #8BB5C9",
"K+	c #2D5B75",
"L+	c #A9CDDD",
"M+	c #5E98B0",
"N+	c #5799B5",
"O+	c #5593B7",
"P+	c #4D9FB7",
"Q+	c #4E9FB6",
"R+	c #569DB4",
"S+	c #4D94B1",
"T+	c #629CB4",
"U+	c #5F9CB5",
"V+	c #5599B5",
"W+	c #5B9EB7",
"X+	c #5198B5",
"Y+	c #5B9AB5",
"Z+	c #5496B2",
"`+	c #5EA0B6",
" @	c #53A1B7",
".@	c #619CB5",
"+@	c #4D98B3",
"@@	c #619BB3",
"#@	c #90C2D2",
"$@	c #2E637C",
"%@	c #B3D9E9",
"&@	c #639DB3",
"*@	c #63A0B7",
"=@	c #65A0BB",
"-@	c #64A2B6",
";@	c #659FB7",
">@	c #5D9BB5",
",@	c #6BA4BF",
"'@	c #66A1BC",
")@	c #629EBA",
"!@	c #64A0BC",
"~@	c #649FBA",
"{@	c #65A1BD",
"]@	c #67A2BD",
"^@	c #6CA5C0",
"/@	c #67A3B9",
"(@	c #69A5B9",
"_@	c #62A1BE",
":@	c #65A7C3",
"<@	c #68A3BC",
"[@	c #8EC6D4",
"}@	c #3F6F81",
"|@	c #CEE8F0",
"1@	c #A6D0DA",
"2@	c #A8D2E0",
"3@	c #AAD0E0",
"4@	c #A7CED9",
"5@	c #ACD3E2",
"6@	c #A6CFE0",
"7@	c #A4CDDE",
"8@	c #A6CFDE",
"9@	c #B1D5E3",
"0@	c #A6CDDA",
"a@	c #A7CEDB",
"b@	c #B4D6E4",
"c@	c #A8D1E0",
"d@	c #A5CEDF",
"e@	c #A7D0E1",
"f@	c #A6D0DC",
"g@	c #A9D0DB",
"h@	c #ABD2DD",
"i@	c #A8CED8",
"j@	c #A3CED5",
"k@	c #204A50",
"l@	c #214B51",
"m@	c #225558",
"n@	c #1C4C52",
"o@	c #214D55",
"p@	c #224F5A",
"q@	c #1F4A55",
"r@	c #1E4C56",
"s@	c #23515D",
"t@	c #214A53",
"u@	c #254F55",
"v@	c #244E54",
"w@	c #234C53",
"x@	c #224B52",
"y@	c #1F4851",
"z@	c #214F59",
"A@	c #204B56",
"B@	c #214E59",
"C@	c #204F5C",
"D@	c #1C4C5A",
"E@	c #26535E",
"F@	c #254D57",
"G@	c #CADEEC",
"H@	c #CAE0EC",
"I@	c #C2DEEA",
"J@	c #C3DFEB",
"K@	c #C8DCEA",
"L@	c #BEE1EC",
"M@	c #C4E6F0",
"N@	c #BFE0EB",
"O@	c #C5E5ED",
"P@	c #C1E2EB",
"Q@	c #BEE0EA",
"R@	c #C2E3EC",
"S@	c #C4E4EC",
"T@	c #BCDEEA",
"U@	c #C5E7F1",
"V@	c #C1E4EF",
"W@	c #C5E0EB",
"X@	c #BFDFEB",
"Y@	c #C1E0EB",
"Z@	c #C2E1EE",
"`@	c #66AAAB",
" #	c #65A9AA",
". . . . . . . . . . . . . . . . . . . . . . . . . ",
"+ @ # $ % $ $ $ $ $ $ $ $ & & & & & & & & * = & - ",
"; > , ' ) ! ! ) ) ) ) ) ) ~ ~ ~ ~ ~ ~ ~ ~ { ) ] ^ ",
"/ ( _ : < [ [ [ } } } } } | | | | | | | | 1 2 3 4 ",
"5 6 7 8 : 9 0 a b b c d e f g h i j k l m n ! o p ",
"q r s t u v w x y z A B C C z D E y F w G H I J K ",
"L M N O P Q R S T U V W * * W C X Y S Z `  ...+.@.",
"#.$.%.&.*.=.-.;.>.% ,.'.).!.'.~.{.$ ].^./.(._.:.<.",
"[.}.|.1.2.3.4.5.6.7.8.9.0.a.b.c.d.e.f.g.h.i.j.k.l.",
"m.n.o.p.q.r.s.t.u.v.w.x.y.z.A.B.C.u.w.D.E.F.G.H.I.",
"J.K.L.M.N.O.P.Q.R.S.T.U.V.W.U.X.Y.Z.`. +.+O.++@+#+",
"$+%+&+*+=+-+;+>+,+'+)+!+~+{+]+^+/+(+_+:+<+[+}+|+1+",
"2+3+4+5+6+7+8+9+0+a+b+c+d+e+f+g+h+i+j+k+l+m+n+o+p+",
"q+t r+o+s+t+u+v+w+j x+y+z+z+i A+B+C+D+E+F+G+H+I+J+",
"K+L+M+N+O+P+Q+R+S+T+U+V+W+W+X+Y+T+Z+`+ @P+.@+@@@#@",
"$@%@&@*@=@-@;@>@,@'@)@!@~@{@]@!@]@^@U+/@(@_@:@<@[@",
"}@|@1@2@3@4@w 5@6@7@8@9@0@a@b@c@d@e@5@f@g@h@l.i@j@",
"k@l@m@n@o@p@q@r@r@s@t@u@v@w@x@y@s@z@z@A@B@C@D@E@F@",
"G@H@I@J@K@L@M@N@O@P@Q@Q@R@S@P@R@R@R@T@U@V@W@X@Y@Z@",
"`@`@`@`@`@`@`@`@`@`@`@`@`@`@`@`@`@`@`@`@`@`@`@`@`@",
"`@`@`@`@`@`@`@`@`@`@`@`@`@`@`@`@`@`@`@`@`@`@`@`@`@",
" # # # # # # # # # # # # # # # # # # # # # # # # #",
"`@`@`@`@`@`@`@`@`@`@`@`@`@`@`@`@`@`@`@`@`@`@`@`@`@",
"`@`@`@`@`@`@`@`@`@`@`@`@`@`@`@`@`@`@`@`@`@`@`@`@`@",
". . . . . . . . . . . . . . . . . . . . . . . . . ",
"+ @ # $ % $ $ $ $ $ $ $ $ & & & & & & & & * = & - ",
"; > , ' ) ! ! ) ) ) ) ) ) ~ ~ ~ ~ ~ ~ ~ ~ { ) ] ^ ",
"/ ( _ : < [ [ [ } } } } } | | | | | | | | 1 2 3 4 ",
"5 6 7 8 : 9 0 a b b c d e f g h i j k l m n ! o p ",
"q r s t u v w x y z A B C C z D E y F w G H I J K ",
"L M N O P Q R S T U V W * * W C X Y S Z `  ...+.@.",
"#.$.%.&.*.=.-.;.>.% ,.'.).!.'.~.{.$ ].^./.(._.:.<.",
"[.}.|.1.2.3.4.5.6.7.8.9.0.a.b.c.d.e.f.g.h.i.j.k.l.",
"m.n.o.p.q.r.s.t.u.v.w.x.y.z.A.B.C.u.w.D.E.F.G.H.I.",
"J.K.L.M.N.O.P.Q.R.S.T.U.V.W.U.X.Y.Z.`. +.+O.++@+#+",
"$+%+&+*+=+-+;+>+,+'+)+!+~+{+]+^+/+(+_+:+<+[+}+|+1+",
"2+3+4+5+6+7+8+9+0+a+b+c+d+e+f+g+h+i+j+k+l+m+n+o+p+",
"q+t r+o+s+t+u+v+w+j x+y+z+z+i A+B+C+D+E+F+G+H+I+J+",
"K+L+M+N+O+P+Q+R+S+T+U+V+W+W+X+Y+T+Z+`+ @P+.@+@@@#@",
"$@%@&@*@=@-@;@>@,@'@)@!@~@{@]@!@]@^@U+/@(@_@:@<@[@",
"}@|@1@2@3@4@w 5@6@7@8@9@0@a@b@c@d@e@5@f@g@h@l.i@j@",
"k@l@m@n@o@p@q@r@r@s@t@u@v@w@x@y@s@z@z@A@B@C@D@E@F@",
"G@H@I@J@K@L@M@N@O@P@Q@Q@R@S@P@R@R@R@T@U@V@W@X@Y@Z@",
"`@`@`@`@`@`@`@`@`@`@`@`@`@`@`@`@`@`@`@`@`@`@`@`@`@",
"`@`@`@`@`@`@`@`@`@`@`@`@`@`@`@`@`@`@`@`@`@`@`@`@`@",
" # # # # # # # # # # # # # # # # # # # # # # # # #",
"`@`@`@`@`@`@`@`@`@`@`@`@`@`@`@`@`@`@`@`@`@`@`@`@`@",
"`@`@`@`@`@`@`@`@`@`@`@`@`@`@`@`@`@`@`@`@`@`@`@`@`@"};
