/* XPM */
static char * title_1_active_xpm[] = {
"10 22 9 1",
" 	c None",
".	c #F1F7F5",
"+	c #6FACB1",
"@	c #69ADAC",
"#	c #6AABAD",
"$	c #69AAAC",
"%	c #67ABAC",
"&	c #68ACAD",
"*	c #66AAAB",
"..........",
"++++++++++",
"@@@@@@@@@@",
"##########",
"##########",
"##########",
"##########",
"$$$$$$$$$$",
"%%%%%%%%%%",
"%%%%%%%%%%",
"%%%%%%%%%%",
"%%%%%%%%%%",
"%%%%%%%%%%",
"&&&&&&&&&&",
"&&&&&&&&&&",
"&&&&&&&&&&",
"&&&&&&&&&&",
"%%%%%%%%%%",
"%%%%%%%%%%",
"**********",
"**********",
"**********"};
