/* XPM */
static char * closeA_xpm[] = {
"22 52 220 2",
"  	c None",
". 	c #9C7757",
"+ 	c #D3BE7D",
"@ 	c #D1BC7C",
"# 	c #D0BA7B",
"$ 	c #CFB879",
"% 	c #CEB779",
"& 	c #CDB678",
"* 	c #B1A27B",
"= 	c #716C6B",
"- 	c #353557",
"; 	c #3D3B58",
"> 	c #71696B",
", 	c #B1A27C",
"' 	c #CCB577",
") 	c #BFAB79",
"! 	c #3E3C59",
"~ 	c #52529A",
"{ 	c #888ECA",
"] 	c #A0A2D2",
"^ 	c #8A8ECB",
"/ 	c #505398",
"( 	c #3C3D59",
"_ 	c #CAB276",
": 	c #BEA979",
"< 	c #13144D",
"[ 	c #7279BF",
"} 	c #CDD1EC",
"| 	c #CFD3EC",
"1 	c #CFD3EE",
"2 	c #CED4EC",
"3 	c #CED2ED",
"4 	c #7279C1",
"5 	c #15144E",
"6 	c #C8AF74",
"7 	c #C7AE73",
"8 	c #3C3C5C",
"9 	c #2E67C1",
"0 	c #9DB2DF",
"a 	c #A1C2E3",
"b 	c #A4C2E4",
"c 	c #A4C2E6",
"d 	c #A3C1E3",
"e 	c #A2C3E6",
"f 	c #2F68C2",
"g 	c #393959",
"h 	c #C6AD73",
"i 	c #AE9D7A",
"j 	c #070B6C",
"k 	c #4067C6",
"l 	c #69A7DA",
"m 	c #69A7D8",
"n 	c #6AA8D9",
"o 	c #3F66C5",
"p 	c #060A6B",
"q 	c #AE9D79",
"r 	c #C3A971",
"s 	c #716C6E",
"t 	c #0E32A0",
"u 	c #1E59BF",
"v 	c #4481D1",
"w 	c #4C8FD5",
"x 	c #4E93D4",
"y 	c #5195D4",
"z 	c #4E94D2",
"A 	c #1D58BE",
"B 	c #716B70",
"C 	c #C1A76F",
"D 	c #2E3A63",
"E 	c #1851B8",
"F 	c #3474CE",
"G 	c #427FD2",
"H 	c #478CD7",
"I 	c #4A92DA",
"J 	c #4C95D9",
"K 	c #4C95DA",
"L 	c #4991D9",
"M 	c #417FD4",
"N 	c #1A51B8",
"O 	c #2E3862",
"P 	c #BFA46D",
"Q 	c #303963",
"R 	c #3169C6",
"S 	c #478CD9",
"T 	c #559CDE",
"U 	c #5BA3DE",
"V 	c #61A9E3",
"W 	c #62ABE0",
"X 	c #62ABE2",
"Y 	c #61AAE1",
"Z 	c #5CA3E1",
"` 	c #559BE0",
" .	c #478CDA",
"..	c #2F3862",
"+.	c #BCA16B",
"@.	c #72706F",
"#.	c #3E6EC3",
"$.	c #58A4E2",
"%.	c #63AEE7",
"&.	c #72BAEA",
"*.	c #76BDE9",
"=.	c #79C0EC",
"-.	c #76BFEC",
";.	c #71BBEC",
">.	c #62AFE7",
",.	c #3C6EC3",
"'.	c #717070",
").	c #BA9E6A",
"!.	c #A79476",
"~.	c #395AA7",
"{.	c #67BAEC",
"].	c #73C4EF",
"^.	c #85CEEF",
"/.	c #8FD1F3",
"(.	c #91D3F3",
"_.	c #90D2F2",
":.	c #85D0F0",
"<.	c #365AA6",
"[.	c #B89B68",
"}.	c #B79A67",
"|.	c #4E5873",
"1.	c #60A8DA",
"2.	c #8DD7F2",
"3.	c #95DBF4",
"4.	c #A1E4F4",
"5.	c #A2E4F4",
"6.	c #A4E3F4",
"7.	c #95DCF2",
"8.	c #61A7DA",
"9.	c #B59866",
"0.	c #AD956F",
"a.	c #425F89",
"b.	c #70BBDA",
"c.	c #B3ECF3",
"d.	c #B8F2F4",
"e.	c #B8F4F4",
"f.	c #B8F5F6",
"g.	c #B7F3F4",
"h.	c #B4EDF6",
"i.	c #71BADB",
"j.	c #455D8B",
"k.	c #B29464",
"l.	c #AC926D",
"m.	c #58667A",
"n.	c #4E8DAC",
"o.	c #82BBD6",
"p.	c #9CD2EA",
"q.	c #9BD2E7",
"r.	c #59677B",
"s.	c #AB926D",
"t.	c #B09262",
"u.	c #AF9161",
"v.	c #A38F73",
"w.	c #7A7776",
"x.	c #485A72",
"y.	c #4E5B70",
"z.	c #7B7877",
"A.	c #AD8E5F",
"B.	c #AB8B5E",
"C.	c #A8885C",
"D.	c #A7865B",
"E.	c #A48359",
"F.	c #A17F57",
"G.	c #A07D55",
"H.	c #9E7B54",
"I.	c #9C937F",
"J.	c #5E5D68",
"K.	c #393857",
"L.	c #5E5A68",
"M.	c #9B9281",
"N.	c #AEA180",
"O.	c #393858",
"P.	c #373958",
"Q.	c #AC9E81",
"R.	c #37385C",
"S.	c #353659",
"T.	c #9C9182",
"U.	c #39456C",
"V.	c #4D5577",
"W.	c #7A8CAE",
"X.	c #788CAE",
"Y.	c #4E5678",
"Z.	c #66A2D2",
"`.	c #9B9180",
" +	c #5F606E",
".+	c #4880C0",
"++	c #3A476F",
"@+	c #5F5F70",
"#+	c #2A3763",
"$+	c #426EA8",
"%+	c #36395D",
"&+	c #416FAA",
"*+	c #2A3562",
"=+	c #2C3764",
"-+	c #507DAE",
";+	c #373A5D",
">+	c #373B5E",
",+	c #517FAF",
"'+	c #2B3663",
")+	c #636772",
"!+	c #67A4D1",
"~+	c #404C70",
"{+	c #424F73",
"]+	c #67A5D4",
"^+	c #626673",
"/+	c #9A9082",
"(+	c #4B5B7B",
"_+	c #78A2B8",
":+	c #4B5C7B",
"<+	c #70BEE9",
"[+	c #4B5674",
"}+	c #A6947E",
"|+	c #A6937E",
"1+	c #55667B",
"2+	c #56677C",
"3+	c #A6947F",
"4+	c #9B8F84",
"5+	c #70737C",
"6+	c #4B5A71",
"7+	c #71747C",
". . . . . . . . . . . . . . . . . . . . . . ",
"+ + + + + + + + + + + + + + + + + + + + + + ",
"@ @ @ @ @ @ @ @ @ @ @ @ @ @ @ @ @ @ @ @ @ @ ",
"# # # # # # # # # # # # # # # # # # # # # # ",
"$ $ $ $ $ $ $ $ $ $ $ $ $ $ $ $ $ $ $ $ $ $ ",
"% % % % % % % & * = - ; > , & % % % % % % % ",
"' ' ' ' ' ' ) ! ~ { ] ] ^ / ( ) ' ' ' ' ' ' ",
"_ _ _ _ _ : < [ } | 1 | 2 3 4 5 : _ _ _ _ _ ",
"6 6 6 6 7 8 9 0 a b c d a e 0 f g 7 6 6 6 6 ",
"h h h h i j k l m n m l l n m o p q h h h h ",
"r r r r s t u v w x y y z w v A t B r r r r ",
"C C C C D E F G H I J K L H M F N O C C C C ",
"P P P P Q R S T U V W X Y Z `  .R ..P P P P ",
"+.+.+.+.@.#.$.%.&.*.=.=.-.;.>.$.,.'.+.+.+.+.",
").).).).!.~.{.].^./.(._./.:.].{.<.!.).).).).",
"[.[.[.[.}.|.1.2.3.4.5.6.4.7.2.8.|.}.[.[.[.[.",
"9.9.9.9.9.0.a.b.c.d.e.f.g.h.i.j.0.9.9.9.9.9.",
"k.k.k.k.k.k.l.m.n.o.p.q.o.n.r.s.k.k.k.k.k.k.",
"t.t.t.t.t.t.t.u.v.w.x.y.z.v.u.t.t.t.t.t.t.t.",
"A.A.A.A.A.A.A.A.A.A.A.A.A.A.A.A.A.A.A.A.A.A.",
"B.B.B.B.B.B.B.B.B.B.B.B.B.B.B.B.B.B.B.B.B.B.",
"C.C.C.C.C.C.C.C.C.C.C.C.C.C.C.C.C.C.C.C.C.C.",
"D.D.D.D.D.D.D.D.D.D.D.D.D.D.D.D.D.D.D.D.D.D.",
"E.E.E.E.E.E.E.E.E.E.E.E.E.E.E.E.E.E.E.E.E.E.",
"F.F.F.F.F.F.F.F.F.F.F.F.F.F.F.F.F.F.F.F.F.F.",
"G.G.G.G.G.G.G.G.G.G.G.G.G.G.G.G.G.G.G.G.G.G.",
"H.H.H.H.H.H.H.H.H.H.H.H.H.H.H.H.H.H.H.H.H.H.",
"+ + + + + + + + + + + + + + + + + + + + + + ",
"@ @ @ @ @ @ @ @ @ @ @ @ @ @ @ @ @ @ @ @ @ @ ",
"# # # # # # # # # # # # # # # # # # # # # # ",
"$ $ $ $ $ $ $ $ $ $ $ $ $ $ $ $ $ $ $ $ $ $ ",
"% % % % % % % % % % % % % % % % % % % % % % ",
"' ' ' ' ' ' ' ' I.J.- K.L.M.' ' ' ' ' ' ' ' ",
"_ _ _ _ _ _ N.O.~ { ] ] ^ / P.N._ _ _ _ _ _ ",
"6 6 6 6 6 Q.< [ } | 1 | 2 3 4 5 Q.6 6 6 6 6 ",
"h h h h h R.9 0 a b c d a e 0 f S.h h h h h ",
"r r r r T.j k l U.V.W.X.Y.U.Z.o p `.r r r r ",
"C C C C  +t u v .+U.++++U..+v A t @+C C C C ",
"P P P P #+E F G H $+%+%+&+H M F N *+P P P P ",
"+.+.+.+.=+R S T U -+;+>+,+Z `  .R '++.+.+.+.",
").).).).)+#.$.%.!+~+{+{+~+]+>.$.,.^+).).).).",
"[.[.[.[./+~.{.].U.(+_+_+:+U.<+{.<./+[.[.[.[.",
"9.9.9.9.9.[+1.2.3.4.5.6.4.7.2.8.[+9.9.9.9.9.",
"k.k.k.k.k.}+a.b.c.d.e.f.g.h.i.j.}+k.k.k.k.k.",
"t.t.t.t.t.t.|+1+n.o.p.q.o.n.2+3+t.t.t.t.t.t.",
"A.A.A.A.A.A.A.A.4+5+x.6+7+4+A.A.A.A.A.A.A.A.",
"B.B.B.B.B.B.B.B.B.B.B.B.B.B.B.B.B.B.B.B.B.B.",
"C.C.C.C.C.C.C.C.C.C.C.C.C.C.C.C.C.C.C.C.C.C.",
"D.D.D.D.D.D.D.D.D.D.D.D.D.D.D.D.D.D.D.D.D.D.",
"E.E.E.E.E.E.E.E.E.E.E.E.E.E.E.E.E.E.E.E.E.E.",
"F.F.F.F.F.F.F.F.F.F.F.F.F.F.F.F.F.F.F.F.F.F.",
"G.G.G.G.G.G.G.G.G.G.G.G.G.G.G.G.G.G.G.G.G.G."};
