/* XPM */
static char * closeO_xpm[] = {
"22 52 205 2",
"  	c None",
". 	c #9C7757",
"+ 	c #D3BE7D",
"@ 	c #D1BC7C",
"# 	c #D0BA7B",
"$ 	c #CFB879",
"% 	c #CEB779",
"& 	c #CDB678",
"* 	c #B1A37E",
"= 	c #6C6A7D",
"- 	c #2B2B7B",
"; 	c #333379",
"> 	c #6C657D",
", 	c #B1A27F",
"' 	c #CCB577",
") 	c #BFAB7B",
"! 	c #32307B",
"~ 	c #3232CE",
"{ 	c #727EEC",
"] 	c #9094EC",
"^ 	c #757EED",
"/ 	c #3037CC",
"( 	c #2F337C",
"_ 	c #CAB276",
": 	c #BEA979",
"< 	c #00037E",
"[ 	c #5967E7",
"} 	c #C3C9FB",
"| 	c #C5CDFB",
"1 	c #C5CBFD",
"2 	c #C3CEFB",
"3 	c #C4CAFC",
"4 	c #5866EA",
"5 	c #030080",
"6 	c #C8AF74",
"7 	c #C7AE73",
"8 	c #2F3183",
"9 	c #0563FF",
"0 	c #85ADFF",
"a 	c #8DC5FF",
"b 	c #91C5FF",
"c 	c #93C3FF",
"d 	c #8FC4FF",
"e 	c #91C7FF",
"f 	c #2C2E80",
"g 	c #C6AD73",
"h 	c #AE9D7C",
"i 	c #000790",
"j 	c #195AFF",
"k 	c #51AFFF",
"l 	c #51B3FF",
"m 	c #1759FF",
"n 	c #00078E",
"o 	c #AD9D7C",
"p 	c #C3A971",
"q 	c #6A6B80",
"r 	c #002FC6",
"s 	c #005BF2",
"t 	c #2782FF",
"u 	c #3398FF",
"v 	c #339DFF",
"w 	c #379FFF",
"x 	c #31A0FF",
"y 	c #005AF0",
"z 	c #6A6982",
"A 	c #C1A76F",
"B 	c #143195",
"C 	c #0051E6",
"D 	c #1578FF",
"E 	c #2581FF",
"F 	c #2F91FF",
"G 	c #3599FF",
"H 	c #0052E8",
"I 	c #142B93",
"J 	c #BFA46D",
"K 	c #172D94",
"L 	c #0B67FF",
"M 	c #3192FF",
"N 	c #43A4FF",
"O 	c #49ABFF",
"P 	c #51B7FF",
"Q 	c #4DADFF",
"R 	c #45A1FF",
"S 	c #3393FF",
"T 	c #162B93",
"U 	c #BCA16B",
"V 	c #6C7281",
"W 	c #1568FF",
"X 	c #57B6FF",
"Y 	c #69C1FF",
"Z 	c #6BC6FF",
"` 	c #71C8FF",
" .	c #6DC6FF",
"..	c #69C5FF",
"+.	c #57BAFF",
"@.	c #136CFF",
"#.	c #6A7183",
"$.	c #BA9E6A",
"%.	c #A79578",
"&.	c #024CF2",
"*.	c #61C5FF",
"=.	c #6DCDFF",
"-.	c #7FD6FF",
";.	c #8BD7FF",
">.	c #8DDBFF",
",.	c #8BDAFF",
"'.	c #81DAFF",
").	c #004FF0",
"!.	c #B89B68",
"~.	c #B79A67",
"{.	c #3F5797",
"].	c #49B4FF",
"^.	c #89DFFF",
"/.	c #93E2FF",
"(.	c #9DEBFF",
"_.	c #9FEAFF",
":.	c #91E4FF",
"<.	c #4BB5FF",
"[.	c #B59866",
"}.	c #AD956F",
"|.	c #2261C0",
"1.	c #57CEFF",
"2.	c #ADF6FF",
"3.	c #B3FCFF",
"4.	c #B3FEFF",
"5.	c #B1F5FF",
"6.	c #59CAFF",
"7.	c #255CC1",
"8.	c #B29464",
"9.	c #AB926E",
"0.	c #4B6D9A",
"a.	c #2BA3E1",
"b.	c #65CEFF",
"c.	c #8FDBFF",
"d.	c #8BE0FF",
"e.	c #4C6E9B",
"f.	c #B09262",
"g.	c #AF9161",
"h.	c #A38F75",
"i.	c #757A86",
"j.	c #396299",
"k.	c #416191",
"l.	c #767B86",
"m.	c #AD8E5F",
"n.	c #AB8B5E",
"o.	c #A8885C",
"p.	c #A7865B",
"q.	c #A48359",
"r.	c #A17F57",
"s.	c #A07D55",
"t.	c #9C9585",
"u.	c #585B7E",
"v.	c #2F2F79",
"w.	c #58557E",
"x.	c #9B9386",
"y.	c #ADA083",
"z.	c #2D2C7C",
"A.	c #2A2F7D",
"B.	c #AC9E83",
"C.	c #2A2D84",
"D.	c #272A81",
"E.	c #9C9287",
"F.	c #24409A",
"G.	c #3E509C",
"H.	c #6A8DCC",
"I.	c #6A8FCC",
"J.	c #3F519D",
"K.	c #47AFFF",
"L.	c #9A9385",
"M.	c #585F85",
"N.	c #1E86FC",
"O.	c #24419E",
"P.	c #575D87",
"Q.	c #0F2E97",
"R.	c #106EEE",
"S.	c #292F85",
"T.	c #0E74F2",
"U.	c #0F2795",
"V.	c #122A96",
"W.	c #3083E0",
"X.	c #2B3183",
"Y.	c #2A3286",
"Z.	c #3288E0",
"`.	c #112895",
" +	c #5B6988",
".+	c #2D4A9B",
"++	c #2F4C9F",
"@+	c #4BB1FF",
"#+	c #5A688A",
"$+	c #999188",
"%+	c #395CA3",
"&+	c #64B2DA",
"*+	c #395EA3",
"=+	c #67C8FF",
"-+	c #3C5599",
";+	c #A59480",
">+	c #A69480",
",+	c #486C9D",
"'+	c #496D9E",
")+	c #A59481",
"!+	c #9B9089",
"~+	c #6A768F",
"{+	c #3E6194",
"]+	c #6B7790",
"^+	c #9A9089",
". . . . . . . . . . . . . . . . . . . . . . ",
"+ + + + + + + + + + + + + + + + + + + + + + ",
"@ @ @ @ @ @ @ @ @ @ @ @ @ @ @ @ @ @ @ @ @ @ ",
"# # # # # # # # # # # # # # # # # # # # # # ",
"$ $ $ $ $ $ $ $ $ $ $ $ $ $ $ $ $ $ $ $ $ $ ",
"% % % % % % % & * = - ; > , & % % % % % % % ",
"' ' ' ' ' ' ) ! ~ { ] ] ^ / ( ) ' ' ' ' ' ' ",
"_ _ _ _ _ : < [ } | 1 | 2 3 4 5 : _ _ _ _ _ ",
"6 6 6 6 7 8 9 0 a b c d a e 0 9 f 7 6 6 6 6 ",
"g g g g h i j k l l l k k l l m n o g g g g ",
"p p p p q r s t u v w w x u t y r z p p p p ",
"A A A A B C D E F G w w u F t D H I A A A A ",
"J J J J K L M N O l P l l Q R S L T J J J J ",
"U U U U V W O X Y Z ` `  ...+.O @.#.U U U U ",
"$.$.$.$.%.&.*.=.-.;.>.,.;.'.=.*.).%.$.$.$.$.",
"!.!.!.!.~.{.].^./.(.(._.(.:.^.<.{.~.!.!.!.!.",
"[.[.[.[.[.}.|.1.2.3.4.4.4.5.6.7.}.[.[.[.[.[.",
"8.8.8.8.8.8.9.0.a.b.c.d.b.a.e.9.8.8.8.8.8.8.",
"f.f.f.f.f.f.f.g.h.i.j.k.l.h.g.f.f.f.f.f.f.f.",
"m.m.m.m.m.m.m.m.m.m.m.m.m.m.m.m.m.m.m.m.m.m.",
"n.n.n.n.n.n.n.n.n.n.n.n.n.n.n.n.n.n.n.n.n.n.",
"o.o.o.o.o.o.o.o.o.o.o.o.o.o.o.o.o.o.o.o.o.o.",
"p.p.p.p.p.p.p.p.p.p.p.p.p.p.p.p.p.p.p.p.p.p.",
"q.q.q.q.q.q.q.q.q.q.q.q.q.q.q.q.q.q.q.q.q.q.",
"r.r.r.r.r.r.r.r.r.r.r.r.r.r.r.r.r.r.r.r.r.r.",
"s.s.s.s.s.s.s.s.s.s.s.s.s.s.s.s.s.s.s.s.s.s.",
". . . . . . . . . . . . . . . . . . . . . . ",
"+ + + + + + + + + + + + + + + + + + + + + + ",
"@ @ @ @ @ @ @ @ @ @ @ @ @ @ @ @ @ @ @ @ @ @ ",
"# # # # # # # # # # # # # # # # # # # # # # ",
"$ $ $ $ $ $ $ $ $ $ $ $ $ $ $ $ $ $ $ $ $ $ ",
"% % % % % % % % % % % % % % % % % % % % % % ",
"' ' ' ' ' ' ' ' t.u.- v.w.x.' ' ' ' ' ' ' ' ",
"_ _ _ _ _ _ y.z.~ { ] ] ^ / A.y._ _ _ _ _ _ ",
"6 6 6 6 6 B.< [ } | 1 | 2 3 4 5 B.6 6 6 6 6 ",
"g g g g g C.9 0 a b c d a e 0 9 D.g g g g g ",
"p p p p E.i j k F.G.H.I.J.F.K.m n L.p p p p ",
"A A A A M.r s t N.F.O.O.F.N.t y r P.A A A A ",
"J J J J Q.C D E F R.S.S.T.F t D H U.J J J J ",
"U U U U V.L M N O W.X.Y.Z.Q R S L `.U U U U ",
"$.$.$.$. +W O X K..+++++.+@++.O @.#+$.$.$.$.",
"!.!.!.!.$+&.*.=.F.%+&+&+*+F.=+*.).$+!.!.!.!.",
"[.[.[.[.[.-+].^./.(.(._.(.:.^.<.-+[.[.[.[.[.",
"8.8.8.8.8.;+|.1.2.3.4.4.4.5.6.7.;+8.8.8.8.8.",
"f.f.f.f.f.f.>+,+a.b.c.d.b.a.'+)+f.f.f.f.f.f.",
"m.m.m.m.m.m.m.m.!+~+j.{+]+^+m.m.m.m.m.m.m.m.",
"n.n.n.n.n.n.n.n.n.n.n.n.n.n.n.n.n.n.n.n.n.n.",
"o.o.o.o.o.o.o.o.o.o.o.o.o.o.o.o.o.o.o.o.o.o.",
"p.p.p.p.p.p.p.p.p.p.p.p.p.p.p.p.p.p.p.p.p.p.",
"q.q.q.q.q.q.q.q.q.q.q.q.q.q.q.q.q.q.q.q.q.q.",
"r.r.r.r.r.r.r.r.r.r.r.r.r.r.r.r.r.r.r.r.r.r.",
"s.s.s.s.s.s.s.s.s.s.s.s.s.s.s.s.s.s.s.s.s.s."};
