/* XPM */
static char * dframeATL_xpm[] = {
"23 23 17 1",
" 	c None",
".	c #757575",
"+	c #FFFFFF",
"@	c #FEFEFE",
"#	c #FDFDFD",
"$	c #FBFBFB",
"%	c #F8F8F8",
"&	c #F6F6F6",
"*	c #F3F3F3",
"=	c #F0F0F0",
"-	c #EBECEE",
";	c #EBEBEB",
">	c #E9E7E8",
",	c #E7E7E9",
"'	c #E6E6E6",
")	c #D9D9D9",
"!	c #B2B2B2",
"     ..................",
"   ..++++++++++++++++++",
"  .++++++++++++++++++++",
" .+++++++++++++++++++++",
" .++                   ",
".+++                   ",
".+++                   ",
".+++                   ",
".+++                   ",
".++@                   ",
".++#                   ",
".++$                   ",
".++%                   ",
".++&                   ",
".++*                   ",
".++=                   ",
".++-                   ",
".++;                   ",
".++>                   ",
".++,                   ",
".++'                   ",
".++)                   ",
".++!                   "};
