/* XPM */
static char * frameATR_xpm[] = {
"23 23 73 1",
" 	c None",
".	c #93761E",
"+	c #93761F",
"@	c #94761E",
"#	c #AF912D",
"$	c #AF912C",
"%	c #AF902D",
"&	c #705B13",
"*	c #705B14",
"=	c #C1A438",
"-	c #C1A539",
";	c #C0A538",
">	c #CBB544",
",	c #CBB444",
"'	c #AE912C",
")	c #AE902C",
"!	c #C1A439",
"~	c #C0A438",
"{	c #C0A539",
"]	c #CCB444",
"^	c #CCB545",
"/	c #D3BF4D",
"(	c #D3BF4C",
"_	c #D2BF4C",
":	c #D7C753",
"<	c #D8C753",
"[	c #D3BE4D",
"}	c #D2BE4E",
"|	c #D2BE4D",
"1	c #D3BE4E",
"2	c #CAAF44",
"3	c #CAB045",
"4	c #CAAF45",
"5	c #BCA239",
"6	c #BCA139",
"7	c #BCA13A",
"8	c #AC922D",
"9	c #AB912D",
"0	c #AC912C",
"a	c #AB912C",
"b	c #AF932C",
"c	c #AE932D",
"d	c #AF932D",
"e	c #B99A31",
"f	c #B99931",
"g	c #B89A31",
"h	c #C4A93C",
"i	c #C3A93D",
"j	c #D1BE4C",
"k	c #D0BD4C",
"l	c #D0BE4C",
"m	c #D1BD4B",
"n	c #DBCC57",
"o	c #DCCC57",
"p	c #DCCC56",
"q	c #E6DA62",
"r	c #E7DA62",
"s	c #E7DA61",
"t	c #F1E76D",
"u	c #F1E76C",
"v	c #F2E76D",
"w	c #F1E86C",
"x	c #F0E46C",
"y	c #F0E56C",
"z	c #F0E56B",
"A	c #ECDD67",
"B	c #ECDE67",
"C	c #E1D05D",
"D	c #E1CF5E",
"E	c #E1CF5D",
"F	c #D1BC4F",
"G	c #D1BB4F",
"H	c #D1BC4E",
".+.@+.@.+.@.+..+.@     ",
"#$#%$#%#$#%#$##$#%&*   ",
"=-=;-=;=-=;=-==-=;.+@  ",
">,>>,>>>,>>>,>>,>>')%' ",
"                   !~{ ",
"                   ,>]^",
"                   /(_(",
"                   :<:<",
"                   [}|1",
"                   2324",
"                   5677",
"                   890a",
"                   bccd",
"                   efgg",
"                   hiih",
"                   jklm",
"                   nnop",
"                   qrrs",
"                   tuvw",
"                   xyzz",
"                   AABB",
"                   CDEE",
"                   FGHH"};
