/* XPM */
static char * frameABL_xpm[] = {
"23 23 66 1",
" 	c None",
".	c #3F3B08",
"+	c #403B08",
"@	c #403B09",
"#	c #705B14",
"$	c #705A14",
"%	c #93761E",
"&	c #93761F",
"*	c #94761E",
"=	c #AF912D",
"-	c #AF912C",
";	c #AF902D",
">	c #C1A438",
",	c #C1A539",
"'	c #C0A538",
")	c #CBB544",
"!	c #CBB444",
"~	c #D3BF4C",
"{	c #D2BF4C",
"]	c #D7C753",
"^	c #D8C753",
"/	c #D3BE4D",
"(	c #D3BE4E",
"_	c #CAB045",
":	c #CAB044",
"<	c #BCA13A",
"[	c #BDA239",
"}	c #BCA139",
"|	c #AB912D",
"1	c #AC922D",
"2	c #AC912C",
"3	c #AF922C",
"4	c #AE922D",
"5	c #AE932C",
"6	c #B89A31",
"7	c #B89931",
"8	c #B89A32",
"9	c #C3AA3C",
"0	c #C4A93C",
"a	c #C3A93D",
"b	c #D0BE4B",
"c	c #D1BE4B",
"d	c #D1BD4B",
"e	c #DCCC57",
"f	c #DCCC56",
"g	c #E7DA62",
"h	c #F2E76D",
"i	c #F1E76D",
"j	c #F1E86D",
"k	c #F0E56C",
"l	c #F0E46C",
"m	c #F0E56B",
"n	c #F1E56B",
"o	c #F0E46B",
"p	c #ECDD67",
"q	c #EBDD67",
"r	c #ECDE67",
"s	c #EBDE67",
"t	c #E1D05D",
"u	c #E1CF5D",
"v	c #E1CF5E",
"w	c #D1BC4E",
"x	c #D1BB4F",
"y	c #D2BB4F",
"z	c #D1BC4F",
"A	c #D1BB4E",
".+.@                   ",
"###$                   ",
"%&%*                   ",
"=-=;                   ",
">,>'                   ",
")!))                   ",
"~{~~                   ",
"]^]^                   ",
"/(/(                   ",
"_:_:                   ",
"<[<}                   ",
"|1|2                   ",
"3435                   ",
"6768                   ",
"909a                   ",
"bcbd                   ",
"eeef                   ",
"gggg                   ",
"hihj                   ",
"klkmnomooonmnmmkmmmlkmm",
"ppppqpqqpqprppspprqpprr",
"tttuuuvttuuttuutuuutvuu",
"wwwxwwxxyzxxwzzwAwxzxww"};
