/* XPM */
static char * frameATL_xpm[] = {
"23 23 55 1",
" 	c None",
".	c #93761E",
"+	c #93761F",
"@	c #94761E",
"#	c #705A14",
"$	c #6F5B13",
"%	c #AF912D",
"&	c #AF912C",
"*	c #AF902D",
"=	c #C1A438",
"-	c #C1A539",
";	c #C0A538",
">	c #AF902C",
",	c #CBB544",
"'	c #CBB444",
")	c #D3BF4C",
"!	c #D2BF4C",
"~	c #D7C753",
"{	c #D8C753",
"]	c #D3BE4D",
"^	c #D3BE4E",
"/	c #CAB045",
"(	c #CAB044",
"_	c #BCA13A",
":	c #BDA239",
"<	c #BCA139",
"[	c #AB912D",
"}	c #AC922D",
"|	c #AC912C",
"1	c #AF922C",
"2	c #AE922D",
"3	c #AE932C",
"4	c #B89A31",
"5	c #B89931",
"6	c #B89A32",
"7	c #C3AA3C",
"8	c #C4A93C",
"9	c #C3A93D",
"0	c #D0BE4B",
"a	c #D1BE4B",
"b	c #D1BD4B",
"c	c #DCCC57",
"d	c #DCCC56",
"e	c #E7DA62",
"f	c #F2E76D",
"g	c #F1E76D",
"h	c #F1E86D",
"i	c #F0E56C",
"j	c #F0E46C",
"k	c #F0E56B",
"l	c #ECDD67",
"m	c #E1D05D",
"n	c #E1CF5D",
"o	c #D1BC4E",
"p	c #D1BB4F",
"     .+.@+.@.+..+.@.+.@",
"   #$%&%*&%*%&%%&%*%&%*",
"  .@@=-=;-=;=-==-=;=-=;",
" &%*>,',,',,,',,',,,',,",
" -=;                   ",
",',,                   ",
")!))                   ",
"~{~{                   ",
"]^]^                   ",
"/(/(                   ",
"_:_<                   ",
"[}[|                   ",
"1213                   ",
"4546                   ",
"7879                   ",
"0a0b                   ",
"cccd                   ",
"eeee                   ",
"fgfh                   ",
"ijik                   ",
"llll                   ",
"mmmn                   ",
"ooop                   "};
