/* XPM */
static char * frameABR_xpm[] = {
"23 23 78 1",
" 	c None",
".	c #403B09",
"+	c #705B14",
"@	c #705B13",
"#	c #6F5B14",
"$	c #93761F",
"%	c #94761E",
"&	c #93761E",
"*	c #AE902C",
"=	c #AF902D",
"-	c #AE912C",
";	c #AF912D",
">	c #C1A439",
",	c #C0A438",
"'	c #C0A539",
")	c #C0A538",
"!	c #CBB444",
"~	c #CBB544",
"{	c #CCB444",
"]	c #CCB545",
"^	c #D3BF4D",
"/	c #D3BF4C",
"(	c #D2BF4C",
"_	c #D7C753",
":	c #D8C753",
"<	c #D3BE4D",
"[	c #D2BE4E",
"}	c #D2BE4D",
"|	c #D3BE4E",
"1	c #CAAF44",
"2	c #CAB045",
"3	c #CAAF45",
"4	c #BCA239",
"5	c #BCA139",
"6	c #BCA13A",
"7	c #AC922D",
"8	c #AB912D",
"9	c #AC912C",
"0	c #AB912C",
"a	c #AF932C",
"b	c #AE932D",
"c	c #AF932D",
"d	c #B99A31",
"e	c #B99931",
"f	c #B89A31",
"g	c #C4A93C",
"h	c #C3A93D",
"i	c #D1BE4C",
"j	c #D0BD4C",
"k	c #D0BE4C",
"l	c #D1BD4B",
"m	c #DBCC57",
"n	c #DCCC57",
"o	c #DCCC56",
"p	c #E6DA62",
"q	c #E7DA62",
"r	c #E7DA61",
"s	c #F1E76D",
"t	c #F1E76C",
"u	c #F2E76D",
"v	c #F1E86C",
"w	c #F0E56C",
"x	c #F0E46C",
"y	c #F0E56B",
"z	c #F1E56B",
"A	c #F0E46B",
"B	c #ECDD67",
"C	c #EBDD67",
"D	c #ECDE67",
"E	c #EBDE67",
"F	c #E1D05D",
"G	c #E1CF5D",
"H	c #E1CF5E",
"I	c #D1BC4E",
"J	c #D1BB4F",
"K	c #D2BB4F",
"L	c #D1BC4F",
"M	c #D1BB4E",
"                   ....",
"                   +@@#",
"                   $%%&",
"                   *=-;",
"                   >,')",
"                   !~{]",
"                   ^/(/",
"                   _:_:",
"                   <[}|",
"                   1213",
"                   4566",
"                   7890",
"                   abbc",
"                   deff",
"                   ghhg",
"                   ijkl",
"                   mmno",
"                   pqqr",
"                   stuv",
"wxwyzAyAAAzyzyywyyyxwyy",
"BBBBCBCCBCBDBBEBBDCBBDD",
"FFFGGGHFFGGFFGGFGGGFHGG",
"IIIJIIJJKLJJILLIMIJLJII"};
