/* XPM */
static char * restoreO_xpm[] = {
"22 52 232 2",
"  	c None",
". 	c #9C7757",
"+ 	c #D3BE7D",
"@ 	c #D1BC7C",
"# 	c #D0BA7B",
"$ 	c #CFB879",
"% 	c #CEB779",
"& 	c #AD9267",
"* 	c #A7432B",
"= 	c #AF070B",
"- 	c #B30F06",
"; 	c #A7412D",
"> 	c #CCB577",
", 	c #AA100C",
"' 	c #F0340E",
") 	c #FF8E67",
"! 	c #FFBC93",
"~ 	c #FFBC8F",
"{ 	c #FF9065",
"] 	c #EE310C",
"^ 	c #B10D05",
"/ 	c #CAB276",
"( 	c #AC0C00",
"_ 	c #FF8E57",
": 	c #FFE4BD",
"< 	c #FFE4C1",
"[ 	c #FFDBBB",
"} 	c #FFDCBF",
"| 	c #FFE9B9",
"1 	c #FFE5BF",
"2 	c #FF8D55",
"3 	c #B00800",
"4 	c #C8AF74",
"5 	c #CAA960",
"6 	c #A3230D",
"7 	c #FF731F",
"8 	c #FFD8A1",
"9 	c #FFC893",
"0 	c #FFC98F",
"a 	c #FFCA91",
"b 	c #FFCB93",
"c 	c #FFC88D",
"d 	c #FFCD91",
"e 	c #FFDAA9",
"f 	c #FF6E1F",
"g 	c #A8240A",
"h 	c #C6AD73",
"i 	c #BA3D00",
"j 	c #FF962F",
"k 	c #FFB865",
"l 	c #FFBD5F",
"m 	c #FFBD67",
"n 	c #FFBE61",
"o 	c #FFBA61",
"p 	c #FFB967",
"q 	c #FF952D",
"r 	c #BA3900",
"s 	c #C3A971",
"t 	c #9B5C4B",
"u 	c #E26A00",
"v 	c #FF8605",
"w 	c #FF9519",
"x 	c #FFA633",
"y 	c #FFB137",
"z 	c #FFB43F",
"A 	c #FFA337",
"B 	c #FF9A17",
"C 	c #FF8A01",
"D 	c #E26500",
"E 	c #9D5D46",
"F 	c #C1A76F",
"G 	c #AB3E0E",
"H 	c #F88000",
"I 	c #FF8F0B",
"J 	c #FF9711",
"K 	c #FFA81F",
"L 	c #FFB72B",
"M 	c #FFBE33",
"N 	c #FFB72D",
"O 	c #FFA921",
"P 	c #FF9813",
"Q 	c #FF9307",
"R 	c #F67F00",
"S 	c #A84011",
"T 	c #BFA46D",
"U 	c #994820",
"V 	c #FF9205",
"W 	c #FFA11B",
"X 	c #FFAF25",
"Y 	c #FFBF37",
"Z 	c #FFCC43",
"` 	c #FFD74D",
" .	c #FFDA47",
"..	c #FFC437",
"+.	c #FFB027",
"@.	c #FFA619",
"#.	c #A64419",
"$.	c #BCA16B",
"%.	c #99714F",
"&.	c #F69600",
"*.	c #FFBF35",
"=.	c #FFDB4B",
"-.	c #FFE25D",
";.	c #FFEF65",
">.	c #FFEB63",
",.	c #FFEA5B",
"'.	c #FFDB49",
").	c #FFC333",
"!.	c #FFB32F",
"~.	c #996D4A",
"{.	c #BA9E6A",
"].	c #D47D00",
"^.	c #FFCF3D",
"/.	c #FFD649",
"(.	c #FFF15B",
"_.	c #FFF36F",
":.	c #FFFA77",
"<.	c #FFFD75",
"[.	c #FFEA5D",
"}.	c #FFD34B",
"|.	c #FFD237",
"1.	c #AA946F",
"2.	c #B89B68",
"3.	c #906433",
"4.	c #FFD21F",
"5.	c #FFF771",
"6.	c #FFFD79",
"7.	c #FEFF81",
"8.	c #FEFF83",
"9.	c #FFFB81",
"0.	c #FFF773",
"a.	c #FFEA59",
"b.	c #8F6634",
"c.	c #B59866",
"d.	c #B0925A",
"e.	c #A67F17",
"f.	c #FFEF3D",
"g.	c #FFFA79",
"h.	c #FFFE81",
"i.	c #FBFF89",
"j.	c #FBFF87",
"k.	c #FFFE83",
"l.	c #FFEF3B",
"m.	c #A47D15",
"n.	c #B29464",
"o.	c #B0915C",
"p.	c #D4CF40",
"q.	c #F2F860",
"r.	c #FAFF6B",
"s.	c #FCFE70",
"t.	c #F6F85C",
"u.	c #D5D33F",
"v.	c #AD915F",
"w.	c #B09262",
"x.	c #B0925B",
"y.	c #A48F60",
"z.	c #969152",
"A.	c #918E50",
"B.	c #A39278",
"C.	c #AD8E5F",
"D.	c #AB8B5E",
"E.	c #A8885C",
"F.	c #A7865B",
"G.	c #A48359",
"H.	c #A17F57",
"I.	c #A07D55",
"J.	c #B69B6B",
"K.	c #A5452B",
"L.	c #AD070B",
"M.	c #B10F06",
"N.	c #AF9068",
"O.	c #A80F0C",
"P.	c #EE330E",
"Q.	c #FF8D65",
"R.	c #FF8F63",
"S.	c #EC310C",
"T.	c #AC0E06",
"U.	c #AA0C00",
"V.	c #AE0800",
"W.	c #A1220D",
"X.	c #A3240B",
"Y.	c #B83D00",
"Z.	c #FFB763",
"`.	c #FFBC65",
" +	c #8C4C00",
".+	c #FF942B",
"++	c #B83800",
"@+	c #995B4B",
"#+	c #E06900",
"$+	c #FF8503",
"%+	c #FF9517",
"&+	c #FFA531",
"*+	c #FFB135",
"=+	c #865500",
"-+	c #FF9915",
";+	c #FE8900",
">+	c #E06400",
",+	c #9C5C46",
"'+	c #A93E0E",
")+	c #864900",
"!+	c #865200",
"~+	c #8C5200",
"{+	c #A63F11",
"]+	c #FF9103",
"^+	c #FFA019",
"/+	c #8C5600",
"(+	c #845700",
"_+	c #8E6100",
":+	c #FFA517",
"<+	c #A4441A",
"[+	c #976C4C",
"}+	c #FFC231",
"|+	c #FFB22D",
"1+	c #986C49",
"2+	c #B29667",
"3+	c #FFD647",
"4+	c #8E4D00",
"5+	c #8C4200",
"6+	c #FFD249",
"7+	c #906333",
"8+	c #FDFF7F",
"9+	c #FFFA7F",
"0+	c #FFD21D",
"a+	c #8E6534",
"b+	c #A57E17",
"c+	c #A37C15",
"d+	c #D4CF3F",
"e+	c #D5D33E",
"f+	c #AB9372",
"g+	c #A19277",
"h+	c #A78B5C",
"i+	c #A29178",
". . . . . . . . . . . . . . . . . . . . . . ",
"+ + + + + + + + + + + + + + + + + + + + + + ",
"@ @ @ @ @ @ @ @ @ @ @ @ @ @ @ @ @ @ @ @ @ @ ",
"# # # # # # # # # # # # # # # # # # # # # # ",
"$ $ $ $ $ $ $ $ $ $ $ $ $ $ $ $ $ $ $ $ $ $ ",
"% % % % % % % % & * = - ; % % % % % % % % % ",
"> > > > > > > , ' ) ! ~ { ] ^ > > > > > > > ",
"/ / / / / / ( _ : < [ } | 1 2 3 / / / / / / ",
"4 4 4 4 5 6 7 8 9 0 a b c d e f g 4 4 4 4 4 ",
"h h h h h i j k l m n n m o p q r h h h h h ",
"s s s s t u v w x y z z y A B C D E s s s s ",
"F F F F G H I J K L M M N O P Q R S F F F F ",
"T T T T U V W X Y Z `  .Z ..+.@.V #.T T T T ",
"$.$.$.$.%.&.N *.=.-.;.>.,.'.).!.&.~.$.$.$.$.",
"{.{.{.{.{.].^./.(._.:.<._.[.}.|.].1.{.{.{.{.",
"2.2.2.2.2.3.4.,.5.6.7.8.9.0.a.4.b.2.2.2.2.2.",
"c.c.c.c.c.d.e.f.g.h.i.j.k.:.l.m.d.c.c.c.c.c.",
"n.n.n.n.n.n.o.n.p.q.r.s.t.u.v.o.n.n.n.n.n.n.",
"w.w.w.w.w.w.w.w.x.y.z.A.y.B.w.w.w.w.w.w.w.w.",
"C.C.C.C.C.C.C.C.C.C.C.C.C.C.C.C.C.C.C.C.C.C.",
"D.D.D.D.D.D.D.D.D.D.D.D.D.D.D.D.D.D.D.D.D.D.",
"E.E.E.E.E.E.E.E.E.E.E.E.E.E.E.E.E.E.E.E.E.E.",
"F.F.F.F.F.F.F.F.F.F.F.F.F.F.F.F.F.F.F.F.F.F.",
"G.G.G.G.G.G.G.G.G.G.G.G.G.G.G.G.G.G.G.G.G.G.",
"H.H.H.H.H.H.H.H.H.H.H.H.H.H.H.H.H.H.H.H.H.H.",
"I.I.I.I.I.I.I.I.I.I.I.I.I.I.I.I.I.I.I.I.I.I.",
". . . . . . . . . . . . . . . . . . . . . . ",
"+ + + + + + + + + + + + + + + + + + + + + + ",
"@ @ @ @ @ @ @ @ @ @ @ @ @ @ @ @ @ @ @ @ @ @ ",
"# # # # # # # # # # # # # # # # # # # # # # ",
"$ $ $ $ $ $ $ $ $ $ $ $ $ $ $ $ $ $ $ $ $ $ ",
"% % % % % % % % % % % % % % % % % % % % % % ",
"> > > > > > > > > > > > > > > > > > > > > > ",
"/ / / / / / / / J.K.L.M.; N./ / / / / / / / ",
"4 4 4 4 4 4 4 O.P.Q.! ~ R.S.T.4 4 4 4 4 4 4 ",
"h h h h h h U._ : < [ } | 1 2 V.h h h h h h ",
"s s s s s W.7 8 9 0 a b c d e f X.s s s s s ",
"F F F F F Y.q Z.l `. + +`.o k .+++F F F F F ",
"T T T T @+#+$+%+&+*+=+=+y A -+;+>+,+T T T T ",
"$.$.$.$.'+R I J  +)+=+=+!+~+J Q R {+$.$.$.$.",
"{.{.{.{.U ]+^+X /+(+!+!+_+/+X :+]+<+{.{.{.{.",
"2.2.2.2.[+&.L M '.-.!+!+,. .}+|+&.1+2.2.2.2.",
"c.c.c.c.2+].^.3+(._.4+5+_.[.6+|.].c.c.c.c.c.",
"n.n.n.n.n.7+4.,.5.6.8+8.9+0.a.0+a+n.n.n.n.n.",
"w.w.w.w.w.w.b+f.g.h.i.j.k.:.l.c+w.w.w.w.w.w.",
"C.C.C.C.C.C.C.C.d+q.r.s.t.e+C.f+C.C.C.C.C.C.",
"D.D.D.D.D.D.D.D.g+D.h+h+D.i+D.D.D.D.D.D.D.D.",
"E.E.E.E.E.E.E.E.E.E.E.E.E.E.E.E.E.E.E.E.E.E.",
"F.F.F.F.F.F.F.F.F.F.F.F.F.F.F.F.F.F.F.F.F.F.",
"G.G.G.G.G.G.G.G.G.G.G.G.G.G.G.G.G.G.G.G.G.G.",
"H.H.H.H.H.H.H.H.H.H.H.H.H.H.H.H.H.H.H.H.H.H.",
"I.I.I.I.I.I.I.I.I.I.I.I.I.I.I.I.I.I.I.I.I.I."};
