/* XPM */
static char * maximizeA_xpm[] = {
"22 52 221 2",
"  	c None",
". 	c #9C7757",
"+ 	c #D3BE7D",
"@ 	c #D1BC7C",
"# 	c #D0BA7B",
"$ 	c #CFB879",
"% 	c #CEB779",
"& 	c #988140",
"* 	c #7E4D41",
"= 	c #722A2B",
"- 	c #752D2A",
"; 	c #7F4D43",
"> 	c #9F896F",
", 	c #CCB577",
"' 	c #C0AB78",
") 	c #702D2C",
"! 	c #A85241",
"~ 	c #D69984",
"{ 	c #E8BCA1",
"] 	c #E5BCA0",
"^ 	c #D69A82",
"/ 	c #A6503F",
"( 	c #722D29",
"_ 	c #CAB276",
": 	c #BBA779",
"< 	c #74241D",
"[ 	c #D79573",
"} 	c #F5E0C3",
"| 	c #F6E1C6",
"1 	c #F7D9BF",
"2 	c #F6DAC4",
"3 	c #F2E2C1",
"4 	c #F6E1C4",
"5 	c #D49373",
"6 	c #78231E",
"7 	c #B7A47A",
"8 	c #C8AF74",
"9 	c #6A342B",
"0 	c #CE7440",
"a 	c #F4D3A6",
"b 	c #EFC59B",
"c 	c #EDC498",
"d 	c #F0C598",
"e 	c #EFC69A",
"f 	c #EBC499",
"g 	c #EDC79A",
"h 	c #F5D5AC",
"i 	c #CB7343",
"j 	c #6D352A",
"k 	c #C6AD73",
"l 	c #9E8C72",
"m 	c #95390A",
"n 	c #E18C3C",
"o 	c #E7B171",
"p 	c #E4B26D",
"q 	c #E8B371",
"r 	c #E5B46F",
"s 	c #E6B46D",
"t 	c #E9B470",
"u 	c #E6B16D",
"v 	c #E8B171",
"w 	c #E28C39",
"x 	c #973609",
"y 	c #9D8C73",
"z 	c #C3A971",
"A 	c #7C5E56",
"B 	c #BC5F0F",
"C 	c #DD7C13",
"D 	c #DE8A27",
"E 	c #E19C41",
"F 	c #E3A443",
"G 	c #E4A94B",
"H 	c #E3A445",
"I 	c #E49A43",
"J 	c #DB8B28",
"K 	c #DD7D0F",
"L 	c #BB5E10",
"M 	c #7C5E53",
"N 	c #C1A76F",
"O 	c #72432E",
"P 	c #CE7615",
"Q 	c #DE861A",
"R 	c #DD8C20",
"S 	c #E09C2D",
"T 	c #E4A836",
"U 	c #E3AF3F",
"V 	c #E5B03C",
"W 	c #E4A838",
"X 	c #E29C2D",
"Y 	c #DE8D21",
"Z 	c #DD8517",
"` 	c #CD7615",
" .	c #70432F",
"..	c #BFA46D",
"+.	c #6E4936",
"@.	c #D08220",
"#.	c #E19527",
"$.	c #E2A332",
"%.	c #E7B23E",
"&.	c #EAC04A",
"*.	c #ECC951",
"=.	c #E9CB4F",
"-.	c #E7B43F",
";.	c #E1A135",
">.	c #DF9627",
",.	c #D1811E",
"'.	c #754834",
").	c #BCA16B",
"!.	c #806957",
"~.	c #C4831D",
"{.	c #E5AA36",
"].	c #E5B23F",
"^.	c #E9CB53",
"/.	c #F0D760",
"(.	c #F2E366",
"_.	c #F2E064",
":.	c #EEDA5F",
"<.	c #E8CA52",
"[.	c #E4B33D",
"}.	c #E7A836",
"|.	c #806854",
"1.	c #BA9E6A",
"2.	c #9F8C74",
"3.	c #A06B1D",
"4.	c #E8BE45",
"5.	c #EBC74F",
"6.	c #EDE060",
"7.	c #F6EB6D",
"8.	c #F7F175",
"9.	c #F7F473",
"0.	c #F5E96F",
"a.	c #F0DE60",
"b.	c #EDC64F",
"c.	c #E7C041",
"d.	c #9F6B1F",
"e.	c #9D8C74",
"f.	c #B89B68",
"g.	c #785D3F",
"h.	c #D0B13D",
"i.	c #F7EE6F",
"j.	c #F5F378",
"k.	c #F8F87E",
"l.	c #F8FA7F",
"m.	c #F8F37D",
"n.	c #F6EE71",
"o.	c #EDDB5F",
"p.	c #CFB03C",
"q.	c #775E40",
"r.	c #B59866",
"s.	c #AB977B",
"t.	c #856C2C",
"u.	c #D6CB57",
"v.	c #F3F07B",
"w.	c #F6F581",
"x.	c #F7FA85",
"y.	c #F5FA84",
"z.	c #F6F483",
"A.	c #F3EE78",
"B.	c #D5CC57",
"C.	c #846B29",
"D.	c #AB977C",
"E.	c #B29464",
"F.	c #AC977B",
"G.	c #877945",
"H.	c #B7B453",
"I.	c #D2D678",
"J.	c #DCE07F",
"K.	c #DFDF85",
"L.	c #D3D574",
"M.	c #B8B652",
"N.	c #857844",
"O.	c #AC977D",
"P.	c #B09262",
"Q.	c #A29377",
"R.	c #9A9155",
"S.	c #A7905C",
"T.	c #A39278",
"U.	c #AD8E5F",
"V.	c #AB8B5E",
"W.	c #A8885C",
"X.	c #A7865B",
"Y.	c #A48359",
"Z.	c #A17F57",
"`.	c #A07D55",
" +	c #9E7B54",
".+	c #9D896D",
"++	c #7D4D41",
"@+	c #9E886E",
"#+	c #C6AF76",
"$+	c #712D29",
"%+	c #C4AC74",
"&+	c #BDA777",
"*+	c #6C352A",
"=+	c #9D8B72",
"-+	c #713D00",
";+	c #9C8B73",
">+	c #694200",
",+	c #693A00",
"'+	c #6A4100",
")+	c #6F4000",
"!+	c #6F4400",
"~+	c #674400",
"{+	c #6E4D06",
"]+	c #744834",
"^+	c #806856",
"/+	c #806753",
"(+	c #B59A52",
"_+	c #733D00",
":+	c #6F3500",
"<+	c #9C8B74",
"[+	c #AA967B",
"}+	c #AB967A",
"|+	c #A58B5A",
"1+	c #998452",
"2+	c #AB967C",
"3+	c #A19277",
"4+	c #9B8C5D",
"5+	c #919050",
"6+	c #8F8E4F",
"7+	c #9B8C5F",
"8+	c #A29178",
". . . . . . . . . . . . . . . . . . . . . . ",
"+ + + + + + + + + + + + + + + + + + + + + + ",
"@ @ @ @ @ @ @ @ @ @ @ @ @ @ @ @ @ @ @ @ @ @ ",
"# # # # # # # # # # # # # # # # # # # # # # ",
"$ $ $ $ $ $ $ $ $ $ $ $ $ $ $ $ $ $ $ $ $ $ ",
"% % % % % % % % & * = - ; > % % % % % % % % ",
", , , , , , ' ) ! ~ { ] ^ / ( ' , , , , , , ",
"_ _ _ _ _ : < [ } | 1 2 3 4 5 6 7 _ _ _ _ _ ",
"8 8 8 8 8 9 0 a b c d e f g h i j 8 8 8 8 8 ",
"k k k k l m n o p q r s t u v w x y k k k k ",
"z z z z A B C D E F G G H I J K L M z z z z ",
"N N N N O P Q R S T U V W X Y Z `  .N N N N ",
"........+.@.#.$.%.&.*.=.&.-.;.>.,.'.........",
").).).).!.~.{.].^./.(._.:.<.[.}.~.|.).).).).",
"1.1.1.1.2.3.4.5.6.7.8.9.0.a.b.c.d.e.1.1.1.1.",
"f.f.f.f.f.g.h.:.i.j.k.l.m.n.o.p.q.f.f.f.f.f.",
"r.r.r.r.r.s.t.u.v.w.x.y.z.A.B.C.D.r.r.r.r.r.",
"E.E.E.E.E.E.F.G.H.I.J.K.L.M.N.O.E.E.E.E.E.E.",
"P.P.P.P.P.P.P.P.Q.P.R.S.P.T.P.P.P.P.P.P.P.P.",
"U.U.U.U.U.U.U.U.U.U.U.U.U.U.U.U.U.U.U.U.U.U.",
"V.V.V.V.V.V.V.V.V.V.V.V.V.V.V.V.V.V.V.V.V.V.",
"W.W.W.W.W.W.W.W.W.W.W.W.W.W.W.W.W.W.W.W.W.W.",
"X.X.X.X.X.X.X.X.X.X.X.X.X.X.X.X.X.X.X.X.X.X.",
"Y.Y.Y.Y.Y.Y.Y.Y.Y.Y.Y.Y.Y.Y.Y.Y.Y.Y.Y.Y.Y.Y.",
"Z.Z.Z.Z.Z.Z.Z.Z.Z.Z.Z.Z.Z.Z.Z.Z.Z.Z.Z.Z.Z.Z.",
"`.`.`.`.`.`.`.`.`.`.`.`.`.`.`.`.`.`.`.`.`.`.",
" + + + + + + + + + + + + + + + + + + + + + +",
". . . . . . . . . . . . . . . . . . . . . . ",
"+ + + + + + + + + + + + + + + + + + + + + + ",
"@ @ @ @ @ @ @ @ @ @ @ @ @ @ @ @ @ @ @ @ @ @ ",
"# # # # # # # # # # # # # # # # # # # # # # ",
"$ $ $ $ $ $ $ $ $ $ $ $ $ $ $ $ $ $ $ $ $ $ ",
"% % % % % % % % % % % % % % % % % % % % % % ",
", , , , , , , , .+++= - ; @+, , , , , , , , ",
"_ _ _ _ _ _ #+) ! ~ { ] ^ / $+_ _ _ _ _ _ _ ",
"8 8 8 8 8 %+< [ } | 1 2 3 4 5 6 &+8 8 8 8 8 ",
"k k k k k 9 0 a b c d e f g h i *+k k k k k ",
"z z z z =+m n o p q -+-+t u v w x ;+z z z z ",
"N N N N A B C D E F >+>+H I J K L M N N N N ",
"........O P Q R -+,+>+>+'+)+R Z `  .........",
").).).).+.@.#.$.!+~+'+'+{+!+$.>.,.]+).).).).",
"1.1.1.1.^+~.{.].^./.'+'+:.<.[.}.~./+1.1.1.1.",
"f.f.f.f.(+3.4.5.6.7._+:+0.a.b.c.d.<+f.f.f.f.",
"r.r.r.r.r.g.h.:.i.j.k.l.m.n.o.p.q.r.r.r.r.r.",
"E.E.E.E.E.[+t.u.v.w.x.y.z.A.B.C.E.E.E.E.E.E.",
"P.P.P.P.P.P.}+|+H.I.J.K.L.M.1+2+P.P.P.P.P.P.",
"U.U.U.U.U.U.U.U.3+4+5+6+7+8+U.U.U.U.U.U.U.U.",
"V.V.V.V.V.V.V.V.V.V.V.V.V.V.V.V.V.V.V.V.V.V.",
"W.W.W.W.W.W.W.W.W.W.W.W.W.W.W.W.W.W.W.W.W.W.",
"X.X.X.X.X.X.X.X.X.X.X.X.X.X.X.X.X.X.X.X.X.X.",
"Y.Y.Y.Y.Y.Y.Y.Y.Y.Y.Y.Y.Y.Y.Y.Y.Y.Y.Y.Y.Y.Y.",
"Z.Z.Z.Z.Z.Z.Z.Z.Z.Z.Z.Z.Z.Z.Z.Z.Z.Z.Z.Z.Z.Z."};
