/* XPM */
static char * menubutton_xpm[] = {
"20 10 49 1",
" 	c None",
".	c #6D6D6D",
"+	c #575757",
"@	c #595959",
"#	c #898988",
"$	c #818181",
"%	c #D0D0D0",
"&	c #F0F0F0",
"*	c #F7F7F7",
"=	c #F6F6F6",
"-	c #888888",
";	c #777777",
">	c #CECECE",
",	c #F1F1F1",
"'	c #F3F3F3",
")	c #F4F4F4",
"!	c #858585",
"~	c #A5A5A5",
"{	c #C8C8C8",
"]	c #D4D4D4",
"^	c #D9D9D9",
"/	c #DADADA",
"(	c #D8D8D8",
"_	c #848485",
":	c #7F7F7F",
"<	c #B7B7B7",
"[	c #C4C4C4",
"}	c #C5C5C5",
"|	c #CACACA",
"1	c #CBCBCB",
"2	c #CCCCCC",
"3	c #C3C3C3",
"4	c #D5D5D5",
"5	c #DCDCDC",
"6	c #DEDEDE",
"7	c #E0E0E0",
"8	c #DFDFDF",
"9	c #909090",
"0	c #C1C1C1",
"a	c #D7D7D7",
"b	c #E6E6E6",
"c	c #F9F9F9",
"d	c #F8F8F8",
"e	c #DDDDDD",
"f	c #FFFFFF",
"g	c #A2A2A2",
"h	c #7D7D7D",
"i	c #F5F5F5",
"j	c #AF912D",
"   .+@@@@@@@@@@+.   ",
" #$%&**==**==**&%$- ",
" ;>,'))))))))))',>; ",
"!~{]^/^^((((^^/^]{~_",
":<[}|1221||1221|}[<:",
"!3%45676877867654%3!",
"90ab'c*cdccdc*c'ba09",
" !e&ffffffffffff&e! ",
" gh3iffffffffffi3hj ",
"   :+@@@@@@@@@@+:   "};
