/* XPM */
static char * menuButtonI_xpm[] = {
"26 52 24 1",
" 	c None",
".	c #FFFFFF",
"+	c #FCFCFC",
"@	c #FDFDFD",
"#	c #FEFEFE",
"$	c #FBFBFB",
"%	c #FAFAFA",
"&	c #F8F8F8",
"*	c #F6F6F6",
"=	c #F5F5F5",
"-	c #F3F3F3",
";	c #F0F0F0",
">	c #E9ECEE",
",	c #EAECEE",
"'	c #EBECEE",
")	c #EBECED",
"!	c #EAEBEE",
"~	c #E9E9E9",
"{	c #EAEAEA",
"]	c #EBEBEB",
"^	c #E9E7E8",
"/	c #E9E6E8",
"(	c #E9E6E7",
"_	c #E9E7E7",
"..........................",
"..........................",
"..........................",
"..........................",
"..........................",
"..........................",
"..........................",
"..........................",
"..........................",
"++@#######################",
"@@@++@@@@@@@@@@@@@@@@@@@@@",
"@@@++@@@@@@@@@@@@@@@@@@@@@",
"$$$$$%%%$$$$$$$$$$$$$$$$$$",
"$$$$$%%%$$$$$$$$$$$$$$$$$$",
"&&&&&&&&&&&&&&&&&&&&&&&&&&",
"&&&&&&&&&&&&&&&&&&&&&&&&&&",
"*******==*****************",
"--------------------------",
"--------------------------",
";;;;;;;;;;;;;;;;;;;;;;;;;;",
";;;;;;;;;;;;;;;;;;;;;;;;;;",
">,'))!!!''''''''''''''''''",
">,'))!!!''''''''''''''''''",
"~{]]]{{{]]]]]]]]]]]]]]]]]]",
"^^^/(_^^^^^^^^^^^^^^^^^^^^",
"^^^/(_^^^^^^^^^^^^^^^^^^^^",
"..........................",
"..........................",
"..........................",
"..........................",
"..........................",
"..........................",
"..........................",
"..........................",
"..........................",
"++@#######################",
"@@@++@@@@@@@@@@@@@@@@@@@@@",
"@@@++@@@@@@@@@@@@@@@@@@@@@",
"$$$$$%%%$$$$$$$$$$$$$$$$$$",
"$$$$$%%%$$$$$$$$$$$$$$$$$$",
"&&&&&&&&&&&&&&&&&&&&&&&&&&",
"&&&&&&&&&&&&&&&&&&&&&&&&&&",
"*******==*****************",
"--------------------------",
"--------------------------",
";;;;;;;;;;;;;;;;;;;;;;;;;;",
";;;;;;;;;;;;;;;;;;;;;;;;;;",
">,'))!!!''''''''''''''''''",
">,'))!!!''''''''''''''''''",
"~{]]]{{{]]]]]]]]]]]]]]]]]]",
"^^^/(_^^^^^^^^^^^^^^^^^^^^",
"^^^/(_^^^^^^^^^^^^^^^^^^^^"};
