/* XPM */
static char * minimizeA_xpm[] = {
"22 52 157 2",
"  	c None",
". 	c #AA8960",
"+ 	c #D3BE7D",
"@ 	c #D1BC7C",
"# 	c #D0BA7B",
"$ 	c #CFB879",
"% 	c #CEB779",
"& 	c #988240",
"* 	c #4A6042",
"= 	c #1B4925",
"- 	c #204C27",
"; 	c #918B6C",
"> 	c #CCB577",
", 	c #AC9D79",
"' 	c #204726",
") 	c #417A43",
"! 	c #87B787",
"~ 	c #ABD0A4",
"{ 	c #CAB276",
"] 	c #0F481D",
"^ 	c #88B87E",
"/ 	c #D2EDC2",
"( 	c #D6EDC1",
"_ 	c #D0E9C1",
": 	c #AC9E79",
"< 	c #C8AF74",
"[ 	c #1B4722",
"} 	c #5A9F4F",
"| 	c #C3E7A7",
"1 	c #B2DB99",
"2 	c #B1DA94",
"3 	c #B2DB97",
"4 	c #1C4823",
"5 	c #C6AD73",
"6 	c #958C6F",
"7 	c #056114",
"8 	c #66B849",
"9 	c #93CF6D",
"0 	c #91CC6E",
"a 	c #93CF6F",
"b 	c #93D16C",
"c 	c #67B94A",
"d 	c #046013",
"e 	c #C3A971",
"f 	c #54674B",
"g 	c #228920",
"h 	c #4CAB2B",
"i 	c #5EB533",
"j 	c #6FC33A",
"k 	c #76C744",
"l 	c #7CC949",
"m 	c #55674C",
"n 	c #C1A76F",
"o 	c #285029",
"p 	c #42A12B",
"q 	c #56B428",
"r 	c #54B625",
"s 	c #61C129",
"t 	c #6BC933",
"u 	c #73CD3A",
"v 	c #54B528",
"w 	c #40A22B",
"x 	c #294F29",
"y 	c #BFA46D",
"z 	c #305528",
"A 	c #4BAA2A",
"B 	c #6AC42F",
"C 	c #78CF42",
"D 	c #85D64D",
"E 	c #8CD955",
"F 	c #2F5329",
"G 	c #BCA16B",
"H 	c #5A694F",
"I 	c #499C26",
"J 	c #74C832",
"K 	c #79CC40",
"L 	c #8DD859",
"M 	c #9CE164",
"N 	c #A2E66D",
"O 	c #75C734",
"P 	c #499D24",
"Q 	c #5A6D4D",
"R 	c #BA9E6A",
"S 	c #A09170",
"T 	c #337E1F",
"U 	c #88CC45",
"V 	c #8CD550",
"W 	c #A4E469",
"X 	c #B0E974",
"Y 	c #B9EF7D",
"Z 	c #337F1D",
"` 	c #9F9170",
" .	c #B89B68",
"..	c #41663A",
"+.	c #6FB739",
"@.	c #ADE26C",
"#.	c #B1E775",
"$.	c #BEEE80",
"%.	c #C3F386",
"&.	c #6DB839",
"*.	c #B59866",
"=.	c #AC8E50",
"-.	c #3E7228",
";.	c #97CA54",
">.	c #CDF18D",
",.	c #CBF18E",
"'.	c #CCF28D",
").	c #3F7329",
"!.	c #A9967A",
"~.	c #B29464",
"{.	c #A9977B",
"].	c #597A42",
"^.	c #86B04E",
"/.	c #B3D47D",
"(.	c #C3E08C",
"_.	c #B09262",
":.	c #B19356",
"<.	c #7E8A5D",
"[.	c #708D4D",
"}.	c #718C4D",
"|.	c #9D9278",
"1.	c #AD8E5F",
"2.	c #AB8B5E",
"3.	c #A8885C",
"4.	c #A7865B",
"5.	c #A48359",
"6.	c #A17F57",
"7.	c #A07D55",
"8.	c #9E7B54",
"9.	c #9C7757",
"0.	c #908A6B",
"a.	c #4A5F42",
"b.	c #C4AC74",
"c.	c #1A4722",
"d.	c #948B6E",
"e.	c #54664B",
"f.	c #5A694E",
"g.	c #0C3E00",
"h.	c #124300",
"i.	c #164400",
"j.	c #154200",
"k.	c #1B4700",
"l.	c #124000",
"m.	c #5A6C4D",
"n.	c #968C72",
"o.	c #144900",
"p.	c #1C5201",
"q.	c #28580D",
"r.	c #2B5A0D",
"s.	c #2C5B08",
"t.	c #1B4B00",
"u.	c #958C72",
"v.	c #A48549",
"w.	c #A6884E",
"x.	c #99793E",
"y.	c #997A3E",
"z.	c #9D9178",
". . . . . . . . . . . . . . . . . . . . . . ",
"+ + + + + + + + + + + + + + + + + + + + + + ",
"@ @ @ @ @ @ @ @ @ @ @ @ @ @ @ @ @ @ @ @ @ @ ",
"# # # # # # # # # # # # # # # # # # # # # # ",
"$ $ $ $ $ $ $ $ $ $ $ $ $ $ $ $ $ $ $ $ $ $ ",
"% % % % % % % % & * = - * ; % % % % % % % % ",
"> > > > > > , ' ) ! ~ ~ ! ) ' , > > > > > > ",
"{ { { { { , ] ^ / ( _ _ ( / ^ ] : { { { { { ",
"< < < < < [ } | 1 2 3 3 2 1 | } 4 < < < < < ",
"5 5 5 5 6 7 8 9 0 a b b a 0 9 c d 6 5 5 5 5 ",
"e e e e f g h i j k l l k j i h g m e e e e ",
"n n n n o p q r s t u u t s r v w x n n n n ",
"y y y y z A s B C D E E D C B s A F y y y y ",
"G G G G H I J K L M N N M L K O P Q G G G G ",
"R R R R S T U V W X Y Y X W V U Z ` R R R R ",
" . . . . ...+.@.#.$.%.%.$.#.@.&... . . . . .",
"*.*.*.*.*.=.-.;.>.,.'.'.,.>.;.).!.*.*.*.*.*.",
"~.~.~.~.~.~.{.].^./.(.(./.^.].{.~.~.~.~.~.~.",
"_._._._._._._._.:.<.[.}.<.|._._._._._._._._.",
"1.1.1.1.1.1.1.1.1.1.1.1.1.1.1.1.1.1.1.1.1.1.",
"2.2.2.2.2.2.2.2.2.2.2.2.2.2.2.2.2.2.2.2.2.2.",
"3.3.3.3.3.3.3.3.3.3.3.3.3.3.3.3.3.3.3.3.3.3.",
"4.4.4.4.4.4.4.4.4.4.4.4.4.4.4.4.4.4.4.4.4.4.",
"5.5.5.5.5.5.5.5.5.5.5.5.5.5.5.5.5.5.5.5.5.5.",
"6.6.6.6.6.6.6.6.6.6.6.6.6.6.6.6.6.6.6.6.6.6.",
"7.7.7.7.7.7.7.7.7.7.7.7.7.7.7.7.7.7.7.7.7.7.",
"8.8.8.8.8.8.8.8.8.8.8.8.8.8.8.8.8.8.8.8.8.8.",
"9.9.9.9.9.9.9.9.9.9.9.9.9.9.9.9.9.9.9.9.9.9.",
"+ + + + + + + + + + + + + + + + + + + + + + ",
"@ @ @ @ @ @ @ @ @ @ @ @ @ @ @ @ @ @ @ @ @ @ ",
"# # # # # # # # # # # # # # # # # # # # # # ",
"$ $ $ $ $ $ $ $ $ $ $ $ $ $ $ $ $ $ $ $ $ $ ",
"% % % % % % % % % % % % % % % % % % % % % % ",
"> > > > > > > > 0.a.= - a.0.> > > > > > > > ",
"{ { { { { { { ' ) ! ~ ~ ! ) ' { { { { { { { ",
"< < < < < b.] ^ / ( _ _ ( / ^ ] b.< < < < < ",
"5 5 5 5 5 c.} | 1 2 3 3 2 1 | } 4 5 5 5 5 5 ",
"e e e e d.7 8 9 0 a b b a 0 9 c d d.e e e e ",
"n n n n e.g h i j k l l k j i h g m n n n n ",
"y y y y o p q r s t u u t s r v w x y y y y ",
"G G G G z A s B C D E E D C B s A F G G G G ",
"R R R R f.I J K g.h.i.j.k.l.K O P m.R R R R ",
" . . . .n.T U V o.p.q.r.s.t.V U Z u. . . . .",
"*.*.*.*.*...+.@.#.$.%.%.$.#.@.&...*.*.*.*.*.",
"~.~.~.~.~.v.-.;.>.,.'.'.,.>.;.).w.~.~.~.~.~.",
"_._._._._._.x.].^./.(.(./.^.].y._._._._._._.",
"1.1.1.1.1.1.1.1.z.<.[.}.<.z.1.1.1.1.1.1.1.1.",
"2.2.2.2.2.2.2.2.2.2.2.2.2.2.2.2.2.2.2.2.2.2.",
"3.3.3.3.3.3.3.3.3.3.3.3.3.3.3.3.3.3.3.3.3.3.",
"4.4.4.4.4.4.4.4.4.4.4.4.4.4.4.4.4.4.4.4.4.4.",
"5.5.5.5.5.5.5.5.5.5.5.5.5.5.5.5.5.5.5.5.5.5.",
"8.8.8.8.8.8.8.8.8.8.8.8.8.8.8.8.8.8.8.8.8.8."};
