/* XPM */
static char * minimizeO_xpm[] = {
"22 52 144 2",
"  	c None",
". 	c #9C7757",
"+ 	c #D3BE7D",
"@ 	c #D1BC7C",
"# 	c #D0BA7B",
"$ 	c #CFB879",
"% 	c #CEB779",
"& 	c #B9962A",
"* 	c #4C793C",
"= 	c #057D1F",
"- 	c #0E7A1F",
"; 	c #9F9668",
"> 	c #CCB577",
", 	c #117421",
"' 	c #29A92C",
") 	c #7AD27A",
"! 	c #A4E896",
"~ 	c #CAB276",
"{ 	c #00761C",
"] 	c #7ED86C",
"^ 	c #D1FFB5",
"/ 	c #D7FFB3",
"( 	c #CFFDB3",
"_ 	c #C8AF74",
": 	c #08771A",
"< 	c #44D62C",
"[ 	c #C5FF97",
"} 	c #B0FC82",
"| 	c #B2FD7B",
"1 	c #B1FD7F",
"2 	c #09781B",
"3 	c #C6AD73",
"4 	c #A2956B",
"5 	c #008416",
"6 	c #59F024",
"7 	c #8FFF4B",
"8 	c #8EFB4D",
"9 	c #90FF4D",
"0 	c #5AF125",
"a 	c #008215",
"b 	c #C3A971",
"c 	c #598046",
"d 	c #05C200",
"e 	c #3DEC00",
"f 	c #53FC00",
"g 	c #6BFF11",
"h 	c #73FF1F",
"i 	c #7BFF23",
"j 	c #5B7F49",
"k 	c #C1A76F",
"l 	c #197A1B",
"m 	c #2BE200",
"n 	c #4FF000",
"o 	c #60FE00",
"p 	c #69FF0F",
"q 	c #71FF1B",
"r 	c #4AF200",
"s 	c #26E400",
"t 	c #1B781B",
"u 	c #BFA46D",
"v 	c #2A8316",
"w 	c #3DEA00",
"x 	c #6AFF07",
"y 	c #76FF23",
"z 	c #86FF35",
"A 	c #8FFF3D",
"B 	c #277E1A",
"C 	c #BCA16B",
"D 	c #62804C",
"E 	c #42D800",
"F 	c #79FF0D",
"G 	c #79FF1F",
"H 	c #8DFF41",
"I 	c #A0FF53",
"J 	c #A8FF61",
"K 	c #7AFF0F",
"L 	c #618746",
"M 	c #BA9E6A",
"N 	c #A9986E",
"O 	c #27B800",
"P 	c #90FF23",
"Q 	c #90FF37",
"R 	c #A8FF5B",
"S 	c #B7FF69",
"T 	c #BDFF77",
"U 	c #2BB600",
"V 	c #A6976F",
"W 	c #B89B68",
"X 	c #3B8F2B",
"Y 	c #6FFF05",
"Z 	c #B4FF5B",
"` 	c #C5FF79",
" .	c #C9FF83",
"..	c #69FF05",
"+.	c #B59866",
"@.	c #C29637",
"#.	c #38B103",
"$.	c #A4FF2F",
"%.	c #D3FF87",
"&.	c #D1FF89",
"*.	c #D4FF89",
"=.	c #39B105",
"-.	c #B49B76",
";.	c #B29464",
">.	c #B49C76",
",.	c #5CA62B",
"'.	c #94E32D",
").	c #C1FF5F",
"!.	c #D1FF77",
"~.	c #B09262",
"{.	c #D1A334",
"].	c #91A850",
"^.	c #7DBD31",
"/.	c #80BA33",
"(.	c #AA9A74",
"_.	c #AD8E5F",
":.	c #AB8B5E",
"<.	c #A8885C",
"[.	c #A7865B",
"}.	c #A48359",
"|.	c #A17F57",
"1.	c #A07D55",
"2.	c #9E9667",
"3.	c #4D793C",
"4.	c #06791B",
"5.	c #597F47",
"6.	c #63824A",
"7.	c #125E00",
"8.	c #1A6400",
"9.	c #216400",
"0.	c #206200",
"a.	c #276800",
"b.	c #1B6000",
"c.	c #628647",
"d.	c #1E6A00",
"e.	c #267200",
"f.	c #2F8400",
"g.	c #368600",
"h.	c #378200",
"i.	c #266C00",
"j.	c #BA8C31",
"k.	c #BB8D32",
"l.	c #B2842D",
"m.	c #B2852D",
". . . . . . . . . . . . . . . . . . . . . . ",
"+ + + + + + + + + + + + + + + + + + + + + + ",
"@ @ @ @ @ @ @ @ @ @ @ @ @ @ @ @ @ @ @ @ @ @ ",
"# # # # # # # # # # # # # # # # # # # # # # ",
"$ $ $ $ $ $ $ $ $ $ $ $ $ $ $ $ $ $ $ $ $ $ ",
"% % % % % % % % & * = - * ; % % % % % % % % ",
"> > > > > > > , ' ) ! ! ) ' , > > > > > > > ",
"~ ~ ~ ~ ~ ~ { ] ^ / ( ( / ^ ] { ~ ~ ~ ~ ~ ~ ",
"_ _ _ _ _ : < [ } | 1 1 | } [ < 2 _ _ _ _ _ ",
"3 3 3 3 4 5 6 7 8 9 9 9 9 8 7 0 a 4 3 3 3 3 ",
"b b b b c d e f g h i i h g f e d j b b b b ",
"k k k k l m n n o p q q p o n r s t k k k k ",
"u u u u v w o x y z A A z y x o w B u u u u ",
"C C C C D E F G H I J J I H G K E L C C C C ",
"M M M M N O P Q R S T T S R Q P U V M M M M ",
"W W W W W X Y Z S `  . .` S Z ..X W W W W W ",
"+.+.+.+.+.@.#.$.%.&.*.*.&.%.$.=.-.+.+.+.+.+.",
";.;.;.;.;.;.>.,.'.).!.!.).'.,.>.;.;.;.;.;.;.",
"~.~.~.~.~.~.~.~.{.].^./.].(.~.~.~.~.~.~.~.~.",
"_._._._._._._._._._._._._._._._._._._._._._.",
":.:.:.:.:.:.:.:.:.:.:.:.:.:.:.:.:.:.:.:.:.:.",
"<.<.<.<.<.<.<.<.<.<.<.<.<.<.<.<.<.<.<.<.<.<.",
"[.[.[.[.[.[.[.[.[.[.[.[.[.[.[.[.[.[.[.[.[.[.",
"}.}.}.}.}.}.}.}.}.}.}.}.}.}.}.}.}.}.}.}.}.}.",
"|.|.|.|.|.|.|.|.|.|.|.|.|.|.|.|.|.|.|.|.|.|.",
"1.1.1.1.1.1.1.1.1.1.1.1.1.1.1.1.1.1.1.1.1.1.",
". . . . . . . . . . . . . . . . . . . . . . ",
"+ + + + + + + + + + + + + + + + + + + + + + ",
"@ @ @ @ @ @ @ @ @ @ @ @ @ @ @ @ @ @ @ @ @ @ ",
"# # # # # # # # # # # # # # # # # # # # # # ",
"$ $ $ $ $ $ $ $ $ $ $ $ $ $ $ $ $ $ $ $ $ $ ",
"% % % % % % % % % % % % % % % % % % % % % % ",
"> > > > > > > > > > > > > > > > > > > > > > ",
"~ ~ ~ ~ ~ ~ ~ ~ 2.3.= - 3.2.~ ~ ~ ~ ~ ~ ~ ~ ",
"_ _ _ _ _ _ _ , ' ) ! ! ) ' , _ _ _ _ _ _ _ ",
"3 3 3 3 3 3 { ] ^ / ( ( / ^ ] { 3 3 3 3 3 3 ",
"b b b b b 4.< [ } | 1 1 | } [ < 2 b b b b b ",
"k k k k k 5 6 7 8 9 9 9 9 8 7 0 a k k k k k ",
"u u u u 5.d e f g h i i h g f e d j u u u u ",
"C C C C l m n n o p q q p o n r s t C C C C ",
"M M M M v w o x y z A A z y x o w B M M M M ",
"W W W W 6.E F G 7.8.9.0.a.b.G K E c.W W W W ",
"+.+.+.+.+.O P Q d.e.f.g.h.i.Q P U +.+.+.+.+.",
";.;.;.;.;.X Y Z S `  . .` S Z ..X ;.;.;.;.;.",
"~.~.~.~.~.j.#.$.%.&.*.*.&.%.$.=.k.~.~.~.~.~.",
"_._._._._._.l.,.'.).!.!.).'.,.m._._._._._._.",
":.:.:.:.:.:.:.:.:.].^./.].:.:.:.:.:.:.:.:.:.",
"<.<.<.<.<.<.<.<.<.<.<.<.<.<.<.<.<.<.<.<.<.<.",
"[.[.[.[.[.[.[.[.[.[.[.[.[.[.[.[.[.[.[.[.[.[.",
"}.}.}.}.}.}.}.}.}.}.}.}.}.}.}.}.}.}.}.}.}.}.",
"|.|.|.|.|.|.|.|.|.|.|.|.|.|.|.|.|.|.|.|.|.|.",
"1.1.1.1.1.1.1.1.1.1.1.1.1.1.1.1.1.1.1.1.1.1."};
