/* XPM */
static char * closeI_xpm[] = {
"22 52 75 1",
" 	c None",
".	c #FFFFFF",
"+	c #F9F9F9",
"@	c #D9D9D9",
"#	c #BEBEBE",
"$	c #ADADAD",
"%	c #AFAFAF",
"&	c #BDBDBD",
"*	c #DADADA",
"=	c #E7E7E7",
"-	c #B1B1B1",
";	c #C5C5C5",
">	c #DBDBDB",
",	c #E8E8E8",
"'	c #DCDCDC",
")	c #C4C4C4",
"!	c #B0B0B0",
"~	c #F2F2F2",
"{	c #F4F4F4",
"]	c #F3F3F3",
"^	c #DDDDDD",
"/	c #FAFAFA",
"(	c #CFCFCF",
"_	c #EFEFEF",
":	c #EEEEEE",
"<	c #EDEDED",
"[	c #F0F0F0",
"}	c #FDFDFD",
"|	c #FEFEFE",
"1	c #B4B4B4",
"2	c #D1D1D1",
"3	c #E3E3E3",
"4	c #E4E4E4",
"5	c #E5E5E5",
"6	c #B5B5B5",
"7	c #FCFCFC",
"8	c #BFBFBF",
"9	c #C0C0C0",
"0	c #CBCBCB",
"a	c #D5D5D5",
"b	c #DEDEDE",
"c	c #DFDFDF",
"d	c #D6D6D6",
"e	c #CACACA",
"f	c #ABABAB",
"g	c #D0D0D0",
"h	c #D7D7D7",
"i	c #D4D4D4",
"j	c #D3D3D3",
"k	c #AAAAAA",
"l	c #FBFBFB",
"m	c #C7C7C7",
"n	c #E0E0E0",
"o	c #C6C6C6",
"p	c #E1E1E1",
"q	c #EBEBEB",
"r	c #E9E9E9",
"s	c #E6E6E6",
"t	c #E2E2E2",
"u	c #C8C8C8",
"v	c #F8F8F8",
"w	c #F7F7F7",
"x	c #F1F1F1",
"y	c #F6F6F6",
"z	c #BBBBBB",
"A	c #BCBCBC",
"B	c #F5F5F5",
"C	c #EAECEE",
"D	c #EBECEE",
"E	c #EBECED",
"F	c #EAEBEE",
"G	c #EAEAEA",
"H	c #E9E7E8",
"I	c #E9E6E8",
"J	c #E9E7E7",
"......................",
"......................",
"......................",
"......................",
"......................",
".......+@#$%&*+.......",
"......=-;>,,')-=......",
".....,!'~{]]{~^!,.....",
"..../!(_:<_[<:_(%/....",
"}}||*123445443426*||||",
"}}}7890a>^bc^*de88}}}}",
"}}}7f8eg2adhijg08k}}}}",
"llll$mjh'cnnc'hjo%llll",
"llll&mh^p=qrst^du&llll",
"vvvv*9't,::[:rp^8*vvvv",
"vvvvw6>,:x]]x:r>6wvvvv",
"yyyyy=z5]yyyy~sz=yyyyy",
"]]]]]]sAh_BB_hAs]]]]]]",
"]]]]]]]x'u##o'x]]]]]]]",
"[[[[[[[[[[[[[[[[[[[[[[",
"[[[[[[[[[[[[[[[[[[[[[[",
"CDDEDFDDDDDDDDDDDDDDDD",
"CDDEDFDDDDDDDDDDDDDDDD",
"GqqqqGqqqqqqqqqqqqqqqq",
"HHHIJHHHHHHHHHHHHHHHHH",
"HHHIJHHHHHHHHHHHHHHHHH",
"......................",
"......................",
"......................",
"......................",
"......................",
"......................",
".......+@#$%&*+.......",
"......=-;>,,')-=......",
".....,!'~{]]{~^!,.....",
"}}||+!(_:<_[<:_(%+||||",
"}}}7*123445443426*}}}}",
"}}}7890a>^bc^*de88}}}}",
"llllf8eg2adhijg08kllll",
"llll$mjh'cnnc'hjo%llll",
"vvvvAmh^p=qrst^duAvvvv",
"vvvv*9't,::[:rp^8*vvvv",
"yyyyB6>,:x]]x:r>6Byyyy",
"]]]]]sz5]yyyy~szs]]]]]",
"]]]]]]sAh_BB_hAs]]]]]]",
"[[[[[[[_>m##o>_[[[[[[[",
"[[[[[[[[[[[[[[[[[[[[[[",
"CDDEDFDDDDDDDDDDDDDDDD",
"CDDEDFDDDDDDDDDDDDDDDD",
"GqqqqGqqqqqqqqqqqqqqqq",
"HHHIJHHHHHHHHHHHHHHHHH",
"HHHIJHHHHHHHHHHHHHHHHH"};
