/* XPM */
static char * restoreA_xpm[] = {
"22 52 254 2",
"  	c None",
". 	c #D1BC7C",
"+ 	c #CFB97A",
"@ 	c #CEB778",
"# 	c #CCB577",
"$ 	c #CAB276",
"% 	c #C7AF74",
"& 	c #C3AE79",
"* 	c #9D8A6D",
"= 	c #7E4D41",
"- 	c #722A2B",
"; 	c #752D2A",
"> 	c #7F4D43",
", 	c #9F896F",
"' 	c #C3AD79",
") 	c #C4AB72",
"! 	c #AF9E7B",
"~ 	c #702D2C",
"{ 	c #A85241",
"] 	c #D69984",
"^ 	c #E8BCA1",
"/ 	c #E5BCA0",
"( 	c #D69A82",
"_ 	c #A6503F",
": 	c #722D29",
"< 	c #AF9D7B",
"[ 	c #C2A870",
"} 	c #AF9E7C",
"| 	c #74241D",
"1 	c #D79573",
"2 	c #F5E0C3",
"3 	c #F6E1C6",
"4 	c #F7D9BF",
"5 	c #F6DAC4",
"6 	c #F2E2C1",
"7 	c #F6E1C4",
"8 	c #D49373",
"9 	c #78231E",
"0 	c #AE9E7D",
"a 	c #BFA56D",
"b 	c #BFA467",
"c 	c #6A342B",
"d 	c #CE7440",
"e 	c #F4D3A6",
"f 	c #EFC59B",
"g 	c #EDC498",
"h 	c #F0C598",
"i 	c #EFC69A",
"j 	c #EBC499",
"k 	c #EDC79A",
"l 	c #F5D5AC",
"m 	c #CB7343",
"n 	c #6D352A",
"o 	c #BDA674",
"p 	c #BCA16B",
"q 	c #9E8C72",
"r 	c #95390A",
"s 	c #E18C3C",
"t 	c #E7B171",
"u 	c #E4B26D",
"v 	c #E8B371",
"w 	c #E5B46F",
"x 	c #E6B46D",
"y 	c #E9B470",
"z 	c #E6B16D",
"A 	c #E8B171",
"B 	c #E28C39",
"C 	c #973609",
"D 	c #9D8C73",
"E 	c #B99E69",
"F 	c #7C5E56",
"G 	c #BC5F0F",
"H 	c #DD7C13",
"I 	c #DE8A27",
"J 	c #E19C41",
"K 	c #E3A443",
"L 	c #E4A94B",
"M 	c #E3A445",
"N 	c #E49A43",
"O 	c #DB8B28",
"P 	c #DD7D0F",
"Q 	c #BB5E10",
"R 	c #7C5E53",
"S 	c #B79A67",
"T 	c #72432E",
"U 	c #CE7615",
"V 	c #DE861A",
"W 	c #DD8C20",
"X 	c #E09C2D",
"Y 	c #E4A836",
"Z 	c #E3AF3F",
"` 	c #E5B03C",
" .	c #E4A838",
"..	c #E29C2D",
"+.	c #DE8D21",
"@.	c #DD8517",
"#.	c #CD7615",
"$.	c #70432F",
"%.	c #B39665",
"&.	c #6E4936",
"*.	c #D08220",
"=.	c #E19527",
"-.	c #E2A332",
";.	c #E7B23E",
">.	c #EAC04A",
",.	c #ECC951",
"'.	c #E9CB4F",
").	c #E7B43F",
"!.	c #E1A135",
"~.	c #DF9627",
"{.	c #D1811E",
"].	c #754834",
"^.	c #B09262",
"/.	c #806957",
"(.	c #C4831D",
"_.	c #E5AA36",
":.	c #E5B23F",
"<.	c #E9CB53",
"[.	c #F0D760",
"}.	c #F2E366",
"|.	c #F2E064",
"1.	c #EEDA5F",
"2.	c #E8CA52",
"3.	c #E4B33D",
"4.	c #E7A836",
"5.	c #806854",
"6.	c #AD8F5F",
"7.	c #9F8C74",
"8.	c #A06B1D",
"9.	c #E8BE45",
"0.	c #EBC74F",
"a.	c #EDE060",
"b.	c #F6EB6D",
"c.	c #F7F175",
"d.	c #F7F473",
"e.	c #F5E96F",
"f.	c #F0DE60",
"g.	c #EDC64F",
"h.	c #E7C041",
"i.	c #9F6B1F",
"j.	c #9D8C74",
"k.	c #AA8A5D",
"l.	c #AA8A57",
"m.	c #785D3F",
"n.	c #D0B13D",
"o.	c #F7EE6F",
"p.	c #F5F378",
"q.	c #F8F87E",
"r.	c #F8FA7F",
"s.	c #F8F37D",
"t.	c #F6EE71",
"u.	c #EDDB5F",
"v.	c #CFB03C",
"w.	c #775E40",
"x.	c #A8875B",
"y.	c #AA8B48",
"z.	c #856C2C",
"A.	c #D6CB57",
"B.	c #F3F07B",
"C.	c #F6F581",
"D.	c #F7FA85",
"E.	c #F5FA84",
"F.	c #F6F483",
"G.	c #F3EE78",
"H.	c #D5CC57",
"I.	c #846B29",
"J.	c #A5845A",
"K.	c #AC8C49",
"L.	c #877945",
"M.	c #B7B453",
"N.	c #D2D678",
"O.	c #DCE07F",
"P.	c #DFDF85",
"Q.	c #D3D574",
"R.	c #B8B652",
"S.	c #857844",
"T.	c #A18057",
"U.	c #A48454",
"V.	c #B39549",
"W.	c #938C5D",
"X.	c #90914F",
"Y.	c #8F8E4F",
"Z.	c #938C5F",
"`.	c #A39278",
" +	c #9F7D54",
".+	c #9D7952",
"++	c #9B7751",
"@+	c #997550",
"#+	c #97724E",
"$+	c #97714F",
"%+	c #9B7555",
"&+	c #A7865E",
"*+	c #C3AA72",
"=+	c #D3BE7D",
"-+	c #CDB678",
";+	c #CBB477",
">+	c #C9B075",
",+	c #C6AD73",
"'+	c #C2AC78",
")+	c #9D896D",
"!+	c #7D4D41",
"~+	c #9E886E",
"{+	c #C3AC78",
"]+	c #C3A970",
"^+	c #AE9D7A",
"/+	c #712D29",
"(+	c #AE9C79",
"_+	c #C0A66E",
":+	c #AD9D7C",
"<+	c #BEA36C",
"[+	c #BCA573",
"}+	c #6C352A",
"|+	c #BCA473",
"1+	c #BA9F6A",
"2+	c #9D8B72",
"3+	c #713D00",
"4+	c #9C8B73",
"5+	c #B89B68",
"6+	c #694200",
"7+	c #B59765",
"8+	c #693A00",
"9+	c #6A4100",
"0+	c #6F4000",
"a+	c #B19363",
"b+	c #6F4400",
"c+	c #674400",
"d+	c #6E4D06",
"e+	c #744834",
"f+	c #AE9060",
"g+	c #806856",
"h+	c #806753",
"i+	c #AB8C5E",
"j+	c #9E8A74",
"k+	c #733D00",
"l+	c #6F3500",
"m+	c #9C8B74",
"n+	c #A9885C",
"o+	c #A98957",
"p+	c #A6855A",
"q+	c #A18243",
"r+	c #A18244",
"s+	c #A38258",
"t+	c #99793E",
"u+	c #AB967C",
"v+	c #A07E56",
"w+	c #9B7A4E",
"x+	c #A19277",
"y+	c #928B5D",
"z+	c #928B5F",
"A+	c #A29178",
"B+	c #9E7B53",
"C+	c #9C7852",
"D+	c #98734F",
"E+	c #96714D",
". . . . . . . . . . . . . . . . . . . . . . ",
"+ + + + + + + + + + + + + + + + + + + + + + ",
"@ @ @ @ @ @ @ @ @ @ @ @ @ @ @ @ @ @ @ @ @ @ ",
"# # # # # # # # # # # # # # # # # # # # # # ",
"$ $ $ $ $ $ $ $ $ $ $ $ $ $ $ $ $ $ $ $ $ $ ",
"% % % % % % % & * = - ; > , ' % % % % % % % ",
") ) ) ) ) ) ! ~ { ] ^ / ( _ : < ) ) ) ) ) ) ",
"[ [ [ [ [ } | 1 2 3 4 5 6 7 8 9 0 [ [ [ [ [ ",
"a a a a b c d e f g h i j k l m n o a a a a ",
"p p p p q r s t u v w x y z A B C D p p p p ",
"E E E E F G H I J K L L M N O P Q R E E E E ",
"S S S S T U V W X Y Z `  ...+.@.#.$.S S S S ",
"%.%.%.%.&.*.=.-.;.>.,.'.>.).!.~.{.].%.%.%.%.",
"^.^.^.^./.(._.:.<.[.}.|.1.2.3.4.(.5.^.^.^.^.",
"6.6.6.6.7.8.9.0.a.b.c.d.e.f.g.h.i.j.6.6.6.6.",
"k.k.k.k.l.m.n.1.o.p.q.r.s.t.u.v.w.l.k.k.k.k.",
"x.x.x.x.x.y.z.A.B.C.D.E.F.G.H.I.y.x.x.x.x.x.",
"J.J.J.J.J.J.K.L.M.N.O.P.Q.R.S.K.J.J.J.J.J.J.",
"T.T.T.T.T.T.T.U.V.W.X.Y.Z.`.U.T.T.T.T.T.T.T.",
" + + + + + + + + + + + + + + + + + + + + + +",
".+.+.+.+.+.+.+.+.+.+.+.+.+.+.+.+.+.+.+.+.+.+",
"++++++++++++++++++++++++++++++++++++++++++++",
"@+@+@+@+@+@+@+@+@+@+@+@+@+@+@+@+@+@+@+@+@+@+",
"#+#+#+#+#+#+#+#+#+#+#+#+#+#+#+#+#+#+#+#+#+#+",
"$+$+$+$+$+$+$+$+$+$+$+$+$+$+$+$+$+$+$+$+$+$+",
"%+%+%+%+%+%+%+%+%+%+%+%+%+%+%+%+%+%+%+%+%+%+",
"&+&+&+&+&+&+&+&+&+&+&+&+&+&+&+&+&+&+&+&+&+&+",
"*+*+*+*+*+*+*+*+*+*+*+*+*+*+*+*+*+*+*+*+*+*+",
"=+=+=+=+=+=+=+=+=+=+=+=+=+=+=+=+=+=+=+=+=+=+",
"@ @ @ @ @ @ @ @ @ @ @ @ @ @ @ @ @ @ @ @ @ @ ",
"-+-+-+-+-+-+-+-+-+-+-+-+-+-+-+-+-+-+-+-+-+-+",
";+;+;+;+;+;+;+;+;+;+;+;+;+;+;+;+;+;+;+;+;+;+",
">+>+>+>+>+>+>+>+>+>+>+>+>+>+>+>+>+>+>+>+>+>+",
",+,+,+,+,+,+,+'+)+!+- ; > ~+{+,+,+,+,+,+,+,+",
"]+]+]+]+]+]+^+~ { ] ^ / ( _ /+(+]+]+]+]+]+]+",
"_+_+_+_+_+^+| 1 2 3 4 5 6 7 8 9 :+_+_+_+_+_+",
"<+<+<+<+[+c d e f g h i j k l m }+|+<+<+<+<+",
"1+1+1+1+2+r s t u v 3+3+y z A B C 4+1+1+1+1+",
"5+5+5+5+F G H I J K 6+6+M N O P Q R 5+5+5+5+",
"7+7+7+7+T U V W 3+8+6+6+9+0+W @.#.$.7+7+7+7+",
"a+a+a+a+&.*.=.-.b+c+9+9+d+b+-.~.{.e+a+a+a+a+",
"f+f+f+f+g+(._.:.<.[.9+9+1.2.3.4.(.h+f+f+f+f+",
"i+i+i+i+j+8.9.0.a.b.k+l+e.f.g.h.i.m+i+i+i+i+",
"n+n+n+n+o+m.n.1.o.p.q.r.s.t.u.v.w.o+n+n+n+n+",
"p+p+p+p+p+q+z.A.B.C.D.E.F.G.H.I.r+p+p+p+p+p+",
"s+s+s+s+s+s+t+L.M.N.O.P.Q.R.S.u+s+s+s+s+s+s+",
"v+v+v+v+v+v+v+w+x+y+X.Y.z+A+w+v+v+v+v+v+v+v+",
"B+B+B+B+B+B+B+B+B+B+B+B+B+B+B+B+B+B+B+B+B+B+",
"C+C+C+C+C+C+C+C+C+C+C+C+C+C+C+C+C+C+C+C+C+C+",
"@+@+@+@+@+@+@+@+@+@+@+@+@+@+@+@+@+@+@+@+@+@+",
"D+D+D+D+D+D+D+D+D+D+D+D+D+D+D+D+D+D+D+D+D+D+",
"E+E+E+E+E+E+E+E+E+E+E+E+E+E+E+E+E+E+E+E+E+E+"};
