/* XPM */
static char *desktop_xpm[] = {
"16 16 247 2",
"  	c None",
"BA	c #FFFFFA",
"CA	c #FEFCF9",
"DA	c #FEFCFA",
"EA	c #FFFEFA",
"FA	c #FFFDFA",
"GA	c #FEFDFA",
"HA	c #FFFCF9",
"IA	c #AFC9E8",
"JA	c #3C7CCB",
"KA	c #719FD7",
"LA	c #6F9ED6",
"MA	c #2B71C4",
"NA	c #206AC1",
"OA	c #3678C4",
"PA	c #4883C8",
"QA	c #4984C8",
"RA	c #568CCC",
"SA	c #5B8FCD",
"TA	c #5C8FCD",
"UA	c #6797D1",
"VA	c #C7D8EC",
"WA	c #CFD5DC",
"XA	c #558ED2",
"YA	c #C2D4EA",
"ZA	c #DDE6F0",
"aA	c #8AAFDC",
"bA	c #71A0D6",
"cA	c #2E73C4",
"dA	c #4582C7",
"eA	c #4D86C8",
"fA	c #4F87C9",
"gA	c #5E91CE",
"hA	c #6092CE",
"iA	c #6696D0",
"jA	c #739ED4",
"kA	c #7BA4D6",
"lA	c #98B8E0",
"mA	c #D4D8DD",
"nA	c #CDD3DA",
"oA	c #558ED3",
"pA	c #88ADDC",
"qA	c #96B8DF",
"rA	c #76A2D8",
"sA	c #84ABDB",
"tA	c #73A1D6",
"uA	c #4E87C9",
"vA	c #5089C9",
"wA	c #6193CF",
"xA	c #6193CE",
"yA	c #5F91CE",
"zA	c #6C9AD2",
"0A	c #7AA4D6",
"1A	c #7CA5D7",
"2A	c #96B7DF",
"3A	c #D2D7DB",
"4A	c #558DD2",
"5A	c #93B4DB",
"6A	c #9FBBDE",
"7A	c #6295D3",
"8A	c #83ABDB",
"9A	c #86ACDC",
"+A	c #6D9CD3",
"/A	c #548BCA",
"AB	c #6093CF",
"BB	c #6293CF",
"CB	c #729ED4",
"DB	c #7DA5D7",
"EB	c #7BA4D7",
"FB	c #D2D6DB",
"GB	c #538DD2",
"HB	c #AFC6E1",
"IB	c #BACDE4",
"JB	c #5089CF",
"KB	c #80A9DA",
"LB	c #88AEDC",
"MB	c #8AAEDB",
"NB	c #558CCB",
"OB	c #598ECC",
"PB	c #6294CF",
"QB	c #75A0D5",
"RB	c #568ED2",
"SB	c #7DA6D7",
"TB	c #86ABD9",
"UB	c #3D7DCA",
"VB	c #7DA7D9",
"WB	c #89AFDC",
"XB	c #90B2DD",
"YB	c #75A1D5",
"ZB	c #77A2D5",
"aB	c #528CD2",
"bB	c #CDD9E7",
"cB	c #D9E1EA",
"dB	c #3476C9",
"eB	c #79A4D8",
"fB	c #8BAFDD",
"gB	c #8EB1DC",
"hB	c #90B3DE",
"iB	c #75A0D4",
"jB	c #7CA5D6",
"kB	c #93B5DF",
"lB	c #5890D3",
"mB	c #578DD0",
"nB	c #5D91D0",
"oB	c #286FC6",
"pB	c #709ED6",
"qB	c #8CB0DD",
"rB	c #8DB0DC",
"sB	c #90B2DE",
"tB	c #80A9D9",
"uB	c #6E9BD3",
"vB	c #6E9CD5",
"wB	c #82ABDD",
"xB	c #D0D5DB",
"yB	c #5B91D4",
"zB	c #2970C6",
"0B	c #2A71C6",
"1B	c #6194D3",
"2B	c #8EB2DD",
"3B	c #91B3DE",
"4B	c #8EB1DD",
"5B	c #6395CF",
"6B	c #6495D0",
"7B	c #79A3D6",
"8B	c #6697D4",
"9B	c #568DD1",
"+B	c #6A9BD8",
"/B	c #CCD3DA",
"AC	c #2C72C7",
"BC	c #568DD0",
"CC	c #8EB0DC",
"DC	c #92B4DE",
"EC	c #6E9CD3",
"FC	c #5F92CE",
"GC	c #749FD5",
"HC	c #739FD6",
"IC	c #5C91D2",
"JC	c #4280CC",
"KC	c #5A91D3",
"LC	c #CBD1D9",
"MC	c #518BCF",
"NC	c #8FB2DD",
"OC	c #78A3D6",
"PC	c #7BA5D6",
"QC	c #77A2D6",
"RC	c #6898D4",
"SC	c #518AD0",
"TC	c #3477C9",
"UC	c #2C72C6",
"VC	c #6497D5",
"WC	c #CED3DA",
"XC	c #CBD1D8",
"YC	c #2870C6",
"ZC	c #538BCF",
"aC	c #7FA7D8",
"bC	c #74A0D5",
"cC	c #739FD5",
"dC	c #5F93D3",
"eC	c #2D73C7",
"fC	c #4683CB",
"gC	c #5B8ECE",
"hC	c #7FA8D9",
"iC	c #CAD1D8",
"jC	c #89AEDB",
"kC	c #709DD5",
"lC	c #5A90D2",
"mC	c #2F74C7",
"nC	c #3678C8",
"oC	c #5A8FCE",
"pC	c #81A9D9",
"qC	c #CAD0D7",
"rC	c #2B71C6",
"sC	c #266EC5",
"tC	c #75A1D7",
"uC	c #8FB1DD",
"vC	c #92B5DE",
"wC	c #729FD5",
"xC	c #5B90D2",
"yC	c #3A7BCA",
"zC	c #3B7BC9",
"0C	c #C9CFD7",
"1C	c #5A90D3",
"2C	c #3075C8",
"3C	c #85ABDB",
"4C	c #94B5DF",
"5C	c #7EA6D7",
"6C	c #7AA3D6",
"7C	c #6294D4",
"8C	c #5C91D3",
"9C	c #5189D0",
"+C	c #3276C7",
"/C	c #5B8FCE",
"AD	c #4D87CD",
"BD	c #8FB1DB",
"CD	c #97B7DE",
"DD	c #9AB9DF",
"ED	c #86ABD7",
"FD	c #6294D2",
"GD	c #6596D3",
"HD	c #4481CB",
"ID	c #5188CC",
"JD	c #6997CF",
"KD	c #6696CF",
"LD	c #C5CAD0",
"MD	c #6396D5",
"ND	c #3074C8",
"OD	c #6C84A3",
"PD	c #81878C",
"QD	c #D4D9DF",
"RD	c #C9D0D9",
"SD	c #C7CFD9",
"TD	c #C8D0D9",
"UD	c #C0CAD7",
"VD	c #C6CFD8",
"WD	c #C2CCD9",
"XD	c #6998CF",
"YD	c #5D90CD",
"ZD	c #CBCFD4",
"aD	c #C0D1E4",
"bD	c #6296D5",
"cD	c #6397D5",
"dD	c #BAC2CD",
"eD	c #BDC1C4",
"fD	c #E9EAEF",
"gD	c #E6E9ED",
"hD	c #E6E9EC",
"iD	c #EAECEE",
"jD	c #E9ECEE",
"kD	c #E7EAEE",
"lD	c #E8EAEE",
"mD	c #ECEDEF",
"nD	c #8BAFDB",
"oD	c #84ACDB",
"pD	c #CDDAE9",
"qD	c #CDCAC5",
"rD	c #D1CDC8",
"sD	c #CBCAC9",
"tD	c #CACAC9",
"uD	c #C9C9C9",
"vD	c #CACACA",
"wD	c #CBCBCA",
"xD	c #CBCBCB",
"yD	c #CCCCCC",
"zD	c #CECCCC",
"0D	c #CDCCCC",
"1D	c #D4D1CD",
"2D	c #D1CECA",
"                                ",
"  BACABABAFAFAGAGAGAGAGAGAGAHA  ",
"  JAKAMANAPAQASASASASASASATAUA  ",
"nApAqAsAtAeAvAwAwAwAwAyAzA1AkA3A",
"nA5A6A8A9AeA/AABwAwAhACBDBEBkAFB",
"nASBTBVBWBYBTAwAwAwAZB1A1A1AkAFB",
"nAbBcBeBfBhBiAwAhAiB1A1A1AjBkAFB",
"nAzB0B1B2B3B4BhA6B1A1AEB1A8B9BnA",
"/B0BACBCXBDChBFCGCkAjBkAHCJCoBnA",
"XC0BACZCXBkBkBbC1A1AcCSCeCfCgCxB",
"iC0BACdCXBkBkB1AjBkClCmCnCBBhAxB",
"0C0BrC3CXBDCkB5C6C8C9C/CwAwAhAxB",
"0C0BrCBDCDCDCDED6CGDHDJDJDwAhAxB",
"  bDcDeDfDgDgDhDiDiDjDlDlDnDoD  ",
"  qDrDtDuDvDvDxDxDyDyD0D0D1D2D  ",
"                                "
};
