/* XPM */
static char * linux_xpm[] = {
"57 20 660 2",
"  	c None",
". 	c #95775E",
"+ 	c #9F8164",
"@ 	c #A68966",
"# 	c #A58960",
"$ 	c #A68B60",
"% 	c #A68B62",
"& 	c #A78A65",
"* 	c #A78A67",
"= 	c #A78B66",
"- 	c #A78B64",
"; 	c #A78A68",
"> 	c #A88965",
", 	c #A98967",
"' 	c #A88967",
") 	c #A78A6A",
"! 	c #A78A69",
"~ 	c #A68963",
"{ 	c #A98C62",
"] 	c #9C7E5A",
"^ 	c #836446",
"/ 	c #8D7052",
"( 	c #AC906D",
"_ 	c #CEB289",
": 	c #CEB384",
"< 	c #CDB282",
"[ 	c #CEB287",
"} 	c #CEB285",
"| 	c #CEB383",
"1 	c #CEB382",
"2 	c #CEB381",
"3 	c #D1B67C",
"4 	c #D0B57E",
"5 	c #D1AF7A",
"6 	c #E29E50",
"7 	c #F08A2B",
"8 	c #F87C18",
"9 	c #FA7510",
"0 	c #F87716",
"a 	c #F0842E",
"b 	c #E27045",
"c 	c #D2252A",
"d 	c #DC061A",
"e 	c #E10C1F",
"f 	c #E0222C",
"g 	c #D84C45",
"h 	c #CCA77D",
"i 	c #CFB286",
"j 	c #CDB288",
"k 	c #CCB387",
"l 	c #CDB383",
"m 	c #CFB485",
"n 	c #CCB081",
"o 	c #967952",
"p 	c #765737",
"q 	c #8E724E",
"r 	c #B0956C",
"s 	c #D6BC8C",
"t 	c #D3BA83",
"u 	c #D4BB82",
"v 	c #D5BC85",
"w 	c #D3B984",
"x 	c #D3B985",
"y 	c #D3BA82",
"z 	c #D3BA7F",
"A 	c #D3BB7D",
"B 	c #D6BF74",
"C 	c #EDD742",
"D 	c #FBD71D",
"E 	c #FECB17",
"F 	c #FDC419",
"G 	c #EBB339",
"H 	c #E37D2E",
"I 	c #FA6008",
"J 	c #FE6107",
"K 	c #FD6107",
"L 	c #FE6208",
"M 	c #FF6608",
"N 	c #E98A38",
"O 	c #BF3E30",
"P 	c #C40416",
"Q 	c #C70014",
"R 	c #C80015",
"S 	c #C67056",
"T 	c #D3B980",
"U 	c #D3BA81",
"V 	c #D2BA82",
"W 	c #D2BB82",
"X 	c #D1BB81",
"Y 	c #D3BB7E",
"Z 	c #D4BA81",
"` 	c #D1B584",
" .	c #907249",
"..	c #745632",
"+.	c #8E724C",
"@.	c #B19669",
"#.	c #D2B984",
"$.	c #CEB579",
"%.	c #CEB677",
"&.	c #D0B87A",
"*.	c #CFB77A",
"=.	c #CFB77B",
"-.	c #CFB877",
";.	c #CFB875",
">.	c #CFB876",
",.	c #F0D333",
"'.	c #FEBD15",
").	c #FDB213",
"!.	c #FEB313",
"~.	c #FBB517",
"{.	c #E6A52F",
"].	c #E77224",
"^.	c #FD6108",
"/.	c #FE6207",
"(.	c #FF6207",
"_.	c #E28437",
":.	c #C42324",
"<.	c #C70015",
"[.	c #BC5741",
"}.	c #CFB874",
"|.	c #CDB876",
"1.	c #CFB67A",
"2.	c #CDB27E",
"3.	c #907447",
"4.	c #765832",
"5.	c #8C7049",
"6.	c #CDB47F",
"7.	c #CEB679",
"8.	c #CDB575",
"9.	c #CBB373",
"0.	c #CCB475",
"a.	c #CCB574",
"b.	c #CCB571",
"c.	c #CCB573",
"d.	c #CCB479",
"e.	c #CCB47A",
"f.	c #FBC61E",
"g.	c #FEB213",
"h.	c #FDB314",
"i.	c #FCB313",
"j.	c #FDB414",
"k.	c #FEB414",
"l.	c #F0B123",
"m.	c #E08E37",
"n.	c #F56410",
"o.	c #EE6713",
"p.	c #F16611",
"q.	c #F6620B",
"r.	c #FB6107",
"s.	c #F56107",
"t.	c #CB7041",
"u.	c #C40E1C",
"v.	c #C20014",
"w.	c #B86E4C",
"x.	c #CAB670",
"y.	c #CAB671",
"z.	c #CAB573",
"A.	c #CCB478",
"B.	c #CEB47B",
"C.	c #CBB17A",
"D.	c #907445",
"E.	c #75572F",
"F.	c #8D704C",
"G.	c #B0946A",
"H.	c #C9AE7C",
"I.	c #C9AF76",
"J.	c #C9AF72",
"K.	c #C9AF71",
"L.	c #C8AF73",
"M.	c #C8AF71",
"N.	c #C8B06E",
"O.	c #C8B071",
"P.	c #C8AE78",
"Q.	c #C8AE7A",
"R.	c #C8AE79",
"S.	c #FDC016",
"T.	c #F2AF18",
"U.	c #EDA61F",
"V.	c #EC9E1D",
"W.	c #EEA71D",
"X.	c #F4AF18",
"Y.	c #EDAC1C",
"Z.	c #CF9E46",
"`.	c #C39A67",
" +	c #BC9D6B",
".+	c #BD9763",
"++	c #C67F42",
"@+	c #E2681C",
"#+	c #E96412",
"$+	c #DD6819",
"%+	c #D67E32",
"&+	c #BF4D3E",
"*+	c #B41F24",
"=+	c #C2A76F",
"-+	c #C7B070",
";+	c #C6B071",
">+	c #C5B072",
",+	c #C6B074",
"'+	c #C9AE7A",
")+	c #CAB079",
"!+	c #C6AB74",
"~+	c #8E7242",
"{+	c #765931",
"]+	c #8E6F50",
"^+	c #B0936C",
"/+	c #C6AA7C",
"(+	c #C4A974",
"_+	c #C4A971",
":+	c #C5AA72",
"<+	c #C4A972",
"[+	c #C4AA6F",
"}+	c #C4AA6E",
"|+	c #C4A973",
"1+	c #EEB81E",
"2+	c #CD7E32",
"3+	c #C55942",
"4+	c #C6634B",
"5+	c #C68047",
"6+	c #C99A3F",
"7+	c #CB9F3C",
"8+	c #C2A25E",
"9+	c #C19B64",
"0+	c #C98945",
"a+	c #E9882D",
"b+	c #EB812B",
"c+	c #D08A55",
"d+	c #D8413B",
"e+	c #C19C6D",
"f+	c #C3A973",
"g+	c #C3A972",
"h+	c #C3AA73",
"i+	c #C1AA75",
"j+	c #C3A975",
"k+	c #C2A671",
"l+	c #8B6F40",
"m+	c #765831",
"n+	c #8E7052",
"o+	c #B1926E",
"p+	c #C2A579",
"q+	c #BFA371",
"r+	c #BEA36D",
"s+	c #BFA46E",
"t+	c #BFA370",
"u+	c #BFA36F",
"v+	c #BFA46D",
"w+	c #BFA56B",
"x+	c #BFA56A",
"y+	c #D48B3D",
"z+	c #DB2E30",
"A+	c #CC3326",
"B+	c #D2722B",
"C+	c #E67F26",
"D+	c #E08433",
"E+	c #CB9856",
"F+	c #BEA46A",
"G+	c #E58830",
"H+	c #FF6208",
"I+	c #D27C31",
"J+	c #CF0417",
"K+	c #B65847",
"L+	c #BEA372",
"M+	c #BFA372",
"N+	c #BEA373",
"O+	c #BEA275",
"P+	c #BFA46C",
"Q+	c #C0A56D",
"R+	c #BCA16E",
"S+	c #8A6E42",
"T+	c #765833",
"U+	c #8E6F4F",
"V+	c #B0926D",
"W+	c #BEA175",
"X+	c #BA9E6C",
"Y+	c #BCA16B",
"Z+	c #BCA06D",
"`+	c #BB9F6E",
" @	c #BB9F70",
".@	c #BB9F6F",
"+@	c #BBA06D",
"@@	c #BBA169",
"#@	c #BBA167",
"$@	c #DC3C36",
"%@	c #BD2E26",
"&@	c #E38C24",
"*@	c #FF7400",
"=@	c #F56400",
"-@	c #E86A0D",
";@	c #E46E14",
">@	c #CB8B45",
",@	c #BBA166",
"'@	c #D4853F",
")@	c #EC6512",
"!@	c #E86610",
"~@	c #CB6F38",
"{@	c #DD091C",
"]@	c #B52528",
"^@	c #BD9F6E",
"/@	c #BD9E70",
"(@	c #BC9F71",
"_@	c #BC9F6F",
":@	c #BBA168",
"<@	c #BA9E6E",
"[@	c #8B6E45",
"}@	c #775936",
"|@	c #8E6F4D",
"1@	c #B0936B",
"2@	c #BA9E6F",
"3@	c #B49965",
"4@	c #B69B66",
"5@	c #B69B67",
"6@	c #B69A69",
"7@	c #B69A6B",
"8@	c #B69A6A",
"9@	c #B69A68",
"0@	c #D50D1E",
"a@	c #C07538",
"b@	c #FF7200",
"c@	c #F66303",
"d@	c #C66F2A",
"e@	c #B18855",
"f@	c #C77835",
"g@	c #D87425",
"h@	c #B59564",
"i@	c #B79B64",
"j@	c #C27E44",
"k@	c #CE4E2D",
"l@	c #DC2C2F",
"m@	c #D30116",
"n@	c #B70B19",
"o@	c #B89B64",
"p@	c #B99A65",
"q@	c #B99967",
"r@	c #B9996A",
"s@	c #B8996A",
"t@	c #B69B6B",
"u@	c #B5996C",
"v@	c #8A6C46",
"w@	c #775839",
"x@	c #8E6F4E",
"y@	c #B0926C",
"z@	c #B5986C",
"A@	c #B19463",
"B@	c #B29662",
"C@	c #B29661",
"D@	c #B29563",
"E@	c #B29565",
"F@	c #B39465",
"G@	c #B29465",
"H@	c #B29467",
"I@	c #C90619",
"J@	c #D38334",
"K@	c #FF6700",
"L@	c #F36608",
"M@	c #B2804C",
"N@	c #BD8F57",
"O@	c #D67A29",
"P@	c #B28657",
"Q@	c #B19467",
"R@	c #B79B61",
"S@	c #C5AC54",
"T@	c #D3B645",
"U@	c #D2B13C",
"V@	c #BA8D5C",
"W@	c #DA1A27",
"X@	c #D50016",
"Y@	c #C80014",
"Z@	c #B70214",
"`@	c #B3955F",
" #	c #B49560",
".#	c #B39562",
"+#	c #B29564",
"@#	c #B19566",
"##	c #B19567",
"$#	c #B09266",
"%#	c #886A42",
"&#	c #775837",
"*#	c #AF916F",
"=#	c #B0916A",
"-#	c #AE8F62",
";#	c #AF905F",
">#	c #AD8F5C",
",#	c #AE8E5D",
"'#	c #AE8E5F",
")#	c #AE8D61",
"!#	c #AD8E60",
"~#	c #C90D1C",
"{#	c #C06E36",
"]#	c #FD6600",
"^#	c #FA6502",
"/#	c #D87121",
"(#	c #C38B46",
"_#	c #D7842B",
":#	c #D37422",
"<#	c #B19053",
"[#	c #D2B03D",
"}#	c #E8BE2B",
"|#	c #F1C122",
"1#	c #FCC416",
"2#	c #D0A52B",
"3#	c #BF744C",
"4#	c #C3131F",
"5#	c #B12D2A",
"6#	c #C00316",
"7#	c #B40918",
"8#	c #AD8E5E",
"9#	c #AB8F60",
"0#	c #AA8F61",
"a#	c #AE8F61",
"b#	c #AD8E5F",
"c#	c #89693E",
"d#	c #7A5933",
"e#	c #906F4F",
"f#	c #B1906F",
"g#	c #AE8E68",
"h#	c #A9895F",
"i#	c #A98A5B",
"j#	c #A98A59",
"k#	c #AA8A5A",
"l#	c #AA8A5B",
"m#	c #AA895B",
"n#	c #AA895D",
"o#	c #AA895E",
"p#	c #AA895C",
"q#	c #C62226",
"r#	c #B72E28",
"s#	c #D57121",
"t#	c #F36300",
"u#	c #FE6700",
"v#	c #F26B07",
"w#	c #D9690F",
"x#	c #B5793F",
"y#	c #AC8C5A",
"z#	c #C49E3C",
"A#	c #E2A919",
"B#	c #F9B014",
"C#	c #E7A315",
"D#	c #AE914B",
"E#	c #D34239",
"F#	c #AF312D",
"G#	c #C19534",
"H#	c #CB1B22",
"I#	c #AC1F22",
"J#	c #A88A5B",
"K#	c #A68B5D",
"L#	c #A68A5E",
"M#	c #A9895C",
"N#	c #AB8A5D",
"O#	c #A98A5D",
"P#	c #87673D",
"Q#	c #795933",
"R#	c #AA8964",
"S#	c #A5845C",
"T#	c #A6865A",
"U#	c #A78658",
"V#	c #A88759",
"W#	c #A8865B",
"X#	c #A8865C",
"Y#	c #A8875B",
"Z#	c #B7483B",
"`#	c #C70115",
" $	c #C33027",
".$	c #C95928",
"+$	c #CB6823",
"@$	c #C36F2B",
"#$	c #AF7B46",
"$$	c #A7865A",
"%$	c #A68458",
"&$	c #AE874C",
"*$	c #CF992C",
"=$	c #CF9926",
"-$	c #B18251",
";$	c #BE4439",
">$	c #C58733",
",$	c #C7A33A",
"'$	c #DF0F1D",
")$	c #A34434",
"!$	c #AA8659",
"~$	c #A98659",
"{$	c #A78759",
"]$	c #A6885A",
"^$	c #A6875C",
"/$	c #A7875B",
"($	c #A7875A",
"_$	c #A48559",
":$	c #85653D",
"<$	c #7A5A34",
"[$	c #906E50",
"}$	c #B29070",
"|$	c #A78561",
"1$	c #A17F59",
"2$	c #A48259",
"3$	c #A28056",
"4$	c #A38055",
"5$	c #A38056",
"6$	c #A37F58",
"7$	c #A38058",
"8$	c #A28057",
"9$	c #A5724F",
"0$	c #C50115",
"a$	c #C90316",
"b$	c #C9121F",
"c$	c #CF151E",
"d$	c #C12B29",
"e$	c #A27651",
"f$	c #A78752",
"g$	c #B18F4B",
"h$	c #C4A139",
"i$	c #BF9C33",
"j$	c #C19A35",
"k$	c #C79F2F",
"l$	c #C29D38",
"m$	c #DE3C2E",
"n$	c #C40316",
"o$	c #A2704C",
"p$	c #A57F54",
"q$	c #A58054",
"r$	c #A38054",
"s$	c #A28055",
"t$	c #A18056",
"u$	c #9F7F56",
"v$	c #83633C",
"w$	c #7A5A35",
"x$	c #926F51",
"y$	c #B28F70",
"z$	c #A3815F",
"A$	c #9C7A55",
"B$	c #9F7C55",
"C$	c #9D7A53",
"D$	c #9E7A53",
"E$	c #9E7B53",
"F$	c #9D7B54",
"G$	c #9F7A54",
"H$	c #9E7A54",
"I$	c #AC3D33",
"J$	c #C50015",
"K$	c #C90015",
"L$	c #CB0015",
"M$	c #CA0115",
"N$	c #C41922",
"O$	c #BA5335",
"P$	c #BE9635",
"Q$	c #C7A332",
"R$	c #CAB233",
"S$	c #C2A037",
"T$	c #D33E2B",
"U$	c #D73126",
"V$	c #DA3C28",
"W$	c #E01D21",
"X$	c #D20016",
"Y$	c #A03B31",
"Z$	c #9E7850",
"`$	c #A17951",
" %	c #A07A51",
".%	c #9E7B52",
"+%	c #9D7A52",
"@%	c #9D7C53",
"#%	c #9D7D56",
"$%	c #82623C",
"%%	c #7A5935",
"&%	c #917051",
"*%	c #B18F6F",
"=%	c #9F7C5C",
"-%	c #987652",
";%	c #997752",
">%	c #9B7853",
",%	c #9A7752",
"'%	c #9A7652",
")%	c #997751",
"!%	c #9A6F4C",
"~%	c #AE2024",
"{%	c #C90818",
"]%	c #C72D26",
"^%	c #C35033",
"/%	c #CB4F33",
"(%	c #DE2627",
"_%	c #D70318",
":%	c #CA0216",
"<%	c #CA0417",
"[%	c #A31D21",
"}%	c #986E4C",
"|%	c #9C7651",
"1%	c #9C7751",
"2%	c #9B7751",
"3%	c #9A7751",
"4%	c #9A7852",
"5%	c #987752",
"6%	c #83623F",
"7%	c #775634",
"8%	c #8C6D4E",
"9%	c #B49374",
"0%	c #9D7B5C",
"a%	c #947252",
"b%	c #977653",
"c%	c #967452",
"d%	c #967351",
"e%	c #967450",
"f%	c #957451",
"g%	c #957450",
"h%	c #976749",
"i%	c #A91F23",
"j%	c #C30015",
"k%	c #C80216",
"l%	c #CA0518",
"m%	c #CB0518",
"n%	c #CB0115",
"o%	c #A01E21",
"p%	c #946648",
"q%	c #977450",
"r%	c #96744F",
"s%	c #967451",
"t%	c #947351",
"u%	c #826140",
"v%	c #795837",
"w%	c #927455",
"x%	c #A18363",
"y%	c #987859",
"z%	c #947455",
"A%	c #947454",
"B%	c #967454",
"C%	c #967354",
"D%	c #967453",
"E%	c #957453",
"F%	c #957454",
"G%	c #946C50",
"H%	c #9D3932",
"I%	c #B60113",
"J%	c #C60015",
"K%	c #B30012",
"L%	c #973831",
"M%	c #936B50",
"N%	c #947453",
"O%	c #967555",
"P%	c #947353",
"Q%	c #816040",
"R%	c #866949",
"S%	c #725535",
"T%	c #7B5D3E",
"U%	c #7F6044",
"V%	c #7C5D40",
"W%	c #7F6041",
"X%	c #7F5F40",
"Y%	c #805F40",
"Z%	c #805F3F",
"`%	c #7E5F42",
" &	c #7E5E41",
".&	c #7F543C",
"+&	c #8C322A",
"@&	c #9F161D",
"#&	c #AD0616",
"$&	c #B10113",
"%&	c #AC0616",
"&&	c #9F151D",
"*&	c #8A312A",
"=&	c #7D5E41",
"-&	c #7D6040",
";&	c #7E5F40",
">&	c #7E5F41",
",&	c #7F5F42",
"'&	c #775638",
")&	c #785737",
". + @ # $ % & * = - & ; ; ; ; ; ; ; ; ; ; ; ; ; ; ; ; ; ; ; ; ; ; ; ; ; ; > , ' ; ) ) ; ; ; ; ; ; ; ; ; ! ~ { ] ^ ",
"/ ( _ : < : [ [ [ } : | | | | | | | | | 1 2 3 4 5 6 7 8 9 0 a b c d e f g h i [ [ j k : | | | | | | | | l m n o p ",
"q r s t u v w x w y z A A A A A A A A B C D E F G H I J K K L M N O P Q R S T U V W X Y A A A A A A A A A Z `  ...",
"+.@.#.$.%.&.*.=.*.-.;.;.>.>.>.>.>.>.>.,.'.).).!.~.{.].L K ^./.K (._.:.<.R [.;.}.|.|.|.;.>.>.>.>.>.>.>.>.>.1.2.3.4.",
"5.@.6.7.8.9.0.0.a.b.c.d.e.e.e.e.e.e.e.f.g.h.i.j.k.l.m.n.o.p.q.r.^.s.t.u.v.w.b.x.y.y.z.A.e.e.e.e.e.e.e.e.e.B.C.D.E.",
"F.G.H.I.J.K.L.L.M.N.O.P.Q.R.R.R.Q.R.R.S.T.U.V.W.X.Y.Z.`. +.+++@+#+$+%+&+*+=+O.-+;+>+,+P.'+R.R.R.Q.R.R.Q.Q.)+!+~+{+",
"]+^+/+(+_+:+_+<+[+}+[+|+|+|+|+|+|+|+|+1+2+3+4+5+6+7+8+|+|+|+|+9+0+a+b+c+d+e+f+g+h+i+j+|+|+|+|+|+|+|+|+|+|+!+k+l+m+",
"n+o+p+q+r+s+t+t+u+v+w+x+x+x+x+x+x+x+x+y+z+A+B+C+D+E+F+x+F+x+x+x+G+M H+I+J+K+L+M+N+O+N+P+x+x+x+x+x+x+x+x+x+Q+R+S+T+",
"U+V+W+X+Y+Z+`+ @.@+@@@#@#@#@#@#@#@#@#@$@%@&@*@=@-@;@>@#@,@#@#@#@'@)@!@~@{@]@Z+^@/@(@_@:@#@#@#@#@#@#@#@#@#@Y+<@[@}@",
"|@1@2@3@4@5@6@7@8@6@9@6@6@6@6@6@6@6@6@0@a@b@c@d@e@f@g@h@9@6@6@6@i@j@k@l@m@n@o@p@q@r@s@6@6@6@6@6@6@6@6@6@6@t@u@v@w@",
"x@y@z@A@B@C@D@E@F@G@E@H@H@H@H@H@H@H@H@I@J@K@L@M@H@N@O@P@Q@R@S@T@U@V@W@X@Y@Z@`@ #.#+#@###H@H@H@H@H@H@H@H@H@H@$#%#&#",
"U+*#=#-#;#>#>#,#'#)#)#!#!#!#!#!#!#!#!#~#{#]#^#/#(#_#:#<#[#}#|#1#2#3#4#5#6#7#'#8#9#0#0#!#!#!#!#!#!#!#!#!#!#a#b#c#d#",
"e#f#g#h#i#j#k#l#m#n#o#p#p#p#p#p#p#p#p#q#r#s#t#u#v#w#x#y#z#A#B#C#D#E#F#G#H#I#m#l#J#K#L#M#p#p#p#p#p#p#p#p#p#N#O#P#Q#",
"e#f#R#S#T#U#V#V#W#X#X#Y#Y#Y#Y#Y#Y#Y#Y#Z#`# $.$+$@$#$$$Y#%$&$*$=$-$;$>$,$'$)$!$~${$]$^$/$Y#Y#Y#Y#Y#Y#Y#Y#Y#($_$:$<$",
"[$}$|$1$2$3$4$5$5$6$7$8$3$3$3$3$3$3$3$9$0$a$b$c$d$e$f$g$3$3$h$i$j$k$l$m$n$o$p$q$r$s$3$3$3$3$3$3$3$3$3$3$3$t$u$v$w$",
"x$y$z$A$B$C$D$E$F$G$H$D$D$D$D$D$D$D$D$D$I$J$K$L$M$N$O$P$Q$R$S$T$U$V$W$X$Y$Z$`$ %.%+%D$D$D$D$D$D$D$D$D$D$C$@%#%$%%%",
"&%*%=%-%;%>%,%,%'%'%,%,%)%)%)%)%)%)%)%)%!%~%<.Q <.K${%]%^%/%(%_%:%<%L$[%}%|%1%|%2%3%3%)%)%)%)%)%)%)%)%)%)%4%5%6%7%",
"8%9%0%a%b%c%d%d%e%e%e%e%f%g%g%g%f%g%g%f%g%h%i%j%K$Y@Y@k%l%m%n%K$K$v.o%p%g%q%q%q%e%r%s%e%f%g%g%g%f%g%g%g%f%f%t%u%v%",
"w%x%y%z%z%A%B%C%D%c%E%F%z%z%z%z%z%z%z%z%z%z%G%H%I%J%K$R R R K$<.K%L%M%z%z%E%E%E%N%E%F%A%z%z%z%z%z%z%z%z%z%O%P%Q%v%",
"R%S%T%U%V%W%X%Y%Y%Z%Z%`%`%`%`%`%`%`%`%`%`%`%`% &.&+&@&#&$&%&&&*&.&=&`%`%`%-&-&-&;&;&;&>&`%`%`%`%`%`%`%`%`%,&Y%'&)&"};
