/* XPM */
static char * taskbuttonactive_xpm[] = {
"1 30 30 1",
" 	c #886A72",
".	c #A8A2A4",
"+	c #AD9AA1",
"@	c #A59098",
"#	c #A18F99",
"$	c #9F8794",
"%	c #9C8691",
"&	c #9F8286",
"*	c #9B7B81",
"=	c #A07A83",
"-	c #A3757E",
";	c #A56F76",
">	c #AD7071",
",	c #AE6C64",
"'	c #944C3C",
")	c #9B503C",
"!	c #A15936",
"~	c #AC633A",
"{	c #B7693B",
"]	c #BE6D35",
"^	c #C5742F",
"/	c #CE7F2E",
"(	c #D08728",
"_	c #D08E24",
":	c #D79B2B",
"<	c #E2A521",
"[	c #E4AC0E",
"}	c #E9BE25",
"|	c #D8B45E",
"1	c #7E5C4F",
" ",
".",
"+",
"@",
"#",
"$",
"%",
"&",
"*",
"=",
"-",
";",
">",
",",
"'",
")",
"!",
"~",
"{",
"]",
"^",
"/",
"(",
"_",
":",
"<",
"[",
"}",
"|",
"1"};
