/* XPM */
static char * closeO_xpm[] = {
"16 38 222 2",
"  	c None",
". 	c #737D73",
"+ 	c #323032",
"@ 	c #F6F2EE",
"# 	c #F0ECE6",
"$ 	c #C2BFBA",
"% 	c #67662D",
"& 	c #959287",
"* 	c #EEECE2",
"= 	c #DEEFCF",
"- 	c #E0EFD1",
"; 	c #C7C4BF",
"> 	c #656341",
", 	c #E9E5DD",
"' 	c #BCB9B2",
") 	c #78883A",
"! 	c #FCFB60",
"~ 	c #ABA42D",
"{ 	c #05D200",
"] 	c #00E600",
"^ 	c #00E000",
"/ 	c #00EC00",
"( 	c #FBED53",
"_ 	c #736629",
": 	c #E2DFD4",
"< 	c #B7B5AB",
"[ 	c #7D8040",
"} 	c #FCFB74",
"| 	c #FFEB49",
"1 	c #FFE535",
"2 	c #7E781A",
"3 	c #00D200",
"4 	c #456220",
"5 	c #F8EC6E",
"6 	c #FED454",
"7 	c #F4CC2A",
"8 	c #6D5223",
"9 	c #DCD9CC",
"0 	c #6C5A36",
"a 	c #FFF849",
"b 	c #FDDD2D",
"c 	c #585E12",
"d 	c #40D000",
"e 	c #EDE267",
"f 	c #FDCE2B",
"g 	c #FECE26",
"h 	c #EEBB20",
"i 	c #55350B",
"j 	c #CECBC6",
"k 	c #ADAA9F",
"l 	c #867924",
"m 	c #FFD42B",
"n 	c #E2CD58",
"o 	c #FED360",
"p 	c #FFC323",
"q 	c #F6BC20",
"r 	c #A67E14",
"s 	c #847F70",
"t 	c #D6D3C4",
"u 	c #D0CCBA",
"v 	c #11F400",
"w 	c #FFCC33",
"x 	c #AA7D12",
"y 	c #47CC1E",
"z 	c #C9C6B3",
"A 	c #06F000",
"B 	c #847314",
"C 	c #FEC220",
"D 	c #FEBB1C",
"E 	c #FDB419",
"F 	c #17C400",
"G 	c #17FF11",
"H 	c #C2C0AA",
"I 	c #00F000",
"J 	c #00C800",
"K 	c #C19E25",
"L 	c #E0A016",
"M 	c #1EB600",
"N 	c #00FE00",
"O 	c #BCBAA2",
"P 	c #15FF09",
"Q 	c #65722C",
"R 	c #FDCD65",
"S 	c #FDBA2B",
"T 	c #FEB518",
"U 	c #FBA611",
"V 	c #7D5B09",
"W 	c #34FF25",
"X 	c #B6B398",
"Y 	c #6DDD53",
"Z 	c #F9CD6F",
"` 	c #FEB94C",
" .	c #FDAE15",
"..	c #FCA00E",
"+.	c #584D06",
"@.	c #87D369",
"#.	c #B0AD90",
"$.	c #665D40",
"%.	c #EEC162",
"&.	c #FFB555",
"*.	c #FEAB1A",
"=.	c #BD790D",
"-.	c #A0690A",
";.	c #FC930A",
">.	c #EF8B09",
",.	c #5B4321",
"'.	c #A9A687",
").	c #A3A183",
"!.	c #66511E",
"~.	c #FBB039",
"{.	c #24C000",
"].	c #05DC00",
"^.	c #A56407",
"/.	c #FC9208",
"(.	c #E98605",
"_.	c #5B3709",
":.	c #99977B",
"<.	c #A2A080",
"[.	c #838265",
"}.	c #65460F",
"|.	c #F0980E",
"1.	c #BE780A",
"2.	c #2DBE00",
"3.	c #07FF07",
"4.	c #0FD800",
"5.	c #E77E03",
"6.	c #9C9A76",
"7.	c #9C997E",
"8.	c #7E7C5E",
"9.	c #574D31",
"0.	c #829E62",
"a.	c #969A72",
"b.	c #646048",
"c.	c #472B09",
"d.	c #96946E",
"e.	c #AAA78C",
"f.	c #E4EDCB",
"g.	c #727152",
"h.	c #C1BEB7",
"i.	c #8C8D59",
"j.	c #F9F58F",
"k.	c #6EB816",
"l.	c #8BF600",
"m.	c #8DE313",
"n.	c #8D8E56",
"o.	c #FDFB6B",
"p.	c #847E3E",
"q.	c #BBB8AF",
"r.	c #FBFD93",
"s.	c #FEF966",
"t.	c #959630",
"u.	c #81CF05",
"v.	c #97ED01",
"w.	c #748933",
"x.	c #FEF268",
"y.	c #FFEA3B",
"z.	c #807636",
"A.	c #FFF847",
"B.	c #6E8626",
"C.	c #EEEC88",
"D.	c #FEF074",
"E.	c #FDDA33",
"F.	c #675D2F",
"G.	c #B3B0A3",
"H.	c #94913A",
"I.	c #FFF443",
"J.	c #F7E83F",
"K.	c #E5DE73",
"L.	c #FEEE7E",
"M.	c #FFE63D",
"N.	c #BDA02B",
"O.	c #8F8C7D",
"P.	c #82BF2B",
"Q.	c #94932C",
"R.	c #98F309",
"S.	c #80BF07",
"T.	c #9B922B",
"U.	c #7C940E",
"V.	c #BCEA1C",
"W.	c #97F208",
"X.	c #A6F400",
"Y.	c #78A10B",
"Z.	c #C7BB3B",
"`.	c #ECC12C",
" +	c #6C7412",
".+	c #CDF200",
"++	c #9EE81E",
"@+	c #9BE202",
"#+	c #8A9141",
"$+	c #FDEA85",
"%+	c #997E21",
"&+	c #ADCB05",
"*+	c #C1E030",
"=+	c #A6CA50",
"-+	c #F9E78F",
";+	c #FEDC66",
">+	c #FFD131",
",+	c #84711C",
"'+	c #ADB860",
")+	c #726F50",
"!+	c #F0DC80",
"~+	c #FED872",
"{+	c #CFA125",
"]+	c #B18A23",
"^+	c #FCBD24",
"/+	c #746A34",
"(+	c #D39B23",
"_+	c #7A8111",
":+	c #97A80A",
"<+	c #B48820",
"[+	c #FFB821",
"}+	c #F6A820",
"|+	c #87866B",
"1+	c #786226",
"2+	c #728012",
"3+	c #C6F000",
"4+	c #8DA010",
"5+	c #B7821D",
"6+	c #725122",
"7+	c #A1A862",
"8+	c #A1A763",
"9+	c #6E6B52",
". . . . . . . . . . . . . . . . ",
"+ + + + + + + + + + + + + + + + ",
"@ @ @ @ @ @ @ @ @ @ @ @ @ @ @ @ ",
"# # # $ % & * = - # ; > $ # # # ",
", * ' ) ! ~ { ] ^ / ) ( _ ' * * ",
": < [ } | 1 2 3 ] 4 5 6 7 8 < : ",
"9 0 a | 1 1 b c d e 6 f g h i - ",
"j k l b b b m 7 n o f p q r s t ",
"u u v 2 m g g g w p p q x y u u ",
"z z A 3 B g g p C D E x F G z z ",
"H H I / J K p D q E L M N G H H ",
"O O P ] Q R S E T T U V / W O O ",
"X X Y 4 Z ` E  . .U U ..+.@.X X ",
"#.#.$.%.&.*.U =.-.....;.>.,.'.#.",
"'.).!.~.*.U =.{.].^.;./.(._.:.'.",
").<.[.}.|.1.2.3.3.4.^.5._.[.<.<.",
"6.7.:.8.i 9.6.@.0.a.b.c.8.7.6.7.",
"d.d.d.d.d.d.d.d.d.d.d.d.d.d.d.d.",
"+ + + + + + + + + + + + + + + + ",
". . . . . . . . . . . . . . . . ",
"+ + + + + + + + + + + + + + + + ",
"@ @ @ @ @ @ @ @ @ @ @ @ @ @ @ @ ",
"# # # ; [ e.# f.f.# j g.; # * * ",
", , h.i.j.~ k.l.l.m.n.o.p.' * , ",
": q.n.r.s.a t.u.v.w.j.x.y.z.' : ",
"9 g.s.s.a A.A.2 B.C.D.y.y.E.F.9 ",
"t G.H.I.A.I.I.J.K.L.y.M.E.N.O.t ",
"u u P.Q.y.y.y.y.| M.1 E.N.) u u ",
"z z R.S.T.y.M.1 1 E.E.K U.V.z z ",
"H H W.X.Y.Z.1 1 E.E.`. +.+V.H H ",
"O O ++@+#+$+E.E.b m f %+&+*+O O ",
"X X =+) -+;+>+m f f f p ,+'+X X ",
"#.#.)+!+~+>+f {+]+p p ^+E 0 e.#.",
"'.)./+6 w g (+_+:+<+^+[+}+8 & '.",
"<.<.|+1+`.(+2+3+.+4+5+}+6+|+<.<.",
"6.6.6.[.8 0 6.7+8+6.9+,.[.6.6.6.",
"d.d.d.d.d.d.d.d.d.d.d.d.d.d.d.d.",
"+ + + + + + + + + + + + + + + + "};
