/* XPM */
static char * maximizeO_xpm[] = {
"16 38 235 2",
"  	c None",
". 	c #737D73",
"+ 	c #323032",
"@ 	c #F6F2EE",
"# 	c #F0ECE6",
"$ 	c #D9D5CF",
"% 	c #88867A",
"& 	c #8C8B50",
"* 	c #949342",
"= 	c #93923F",
"- 	c #8D8C4D",
"; 	c #858377",
"> 	c #DBD8D1",
", 	c #E9E5DD",
"' 	c #A8A79E",
") 	c #8A8744",
"! 	c #F4F26A",
"~ 	c #FEFD6A",
"{ 	c #FEF55A",
"] 	c #FEF34C",
"^ 	c #FFF049",
"/ 	c #F2DA3E",
"( 	c #85772B",
"_ 	c #A6A39C",
": 	c #E2DFD4",
"< 	c #A6A844",
"[ 	c #FDFC63",
"} 	c #F7EC43",
"| 	c #F3E333",
"1 	c #FDE22F",
"2 	c #FDDE2F",
"3 	c #FCD72C",
"4 	c #99811F",
"5 	c #DCD9CC",
"6 	c #D6D2C4",
"7 	c #817637",
"8 	c #AAA226",
"9 	c #465B0F",
"0 	c #36C000",
"a 	c #41C400",
"b 	c #4F5D0F",
"c 	c #BDA121",
"d 	c #FCD228",
"e 	c #FEC222",
"f 	c #6E5922",
"g 	c #DCD636",
"h 	c #656A16",
"i 	c #00CA00",
"j 	c #00EC00",
"k 	c #00F200",
"l 	c #817013",
"m 	c #FCCB24",
"n 	c #D09F1A",
"o 	c #827F76",
"p 	c #D0CCBA",
"q 	c #747048",
"r 	c #868A2C",
"s 	c #00D200",
"t 	c #00E400",
"u 	c #00CC00",
"v 	c #00F800",
"w 	c #00D600",
"x 	c #AD8417",
"y 	c #FEC11E",
"z 	c #F6B61C",
"A 	c #605F3E",
"B 	c #C9C6B3",
"C 	c #766F32",
"D 	c #35BA00",
"E 	c #00E200",
"F 	c #767E30",
"G 	c #F5E563",
"H 	c #F4D050",
"I 	c #70651A",
"J 	c #00FE00",
"K 	c #335A0A",
"L 	c #F8B118",
"M 	c #735B29",
"N 	c #C2C0AA",
"O 	c #514B29",
"P 	c #28D200",
"Q 	c #FBE763",
"R 	c #FFCF4F",
"S 	c #FCC42C",
"T 	c #F0B820",
"U 	c #2AC400",
"V 	c #05FF05",
"W 	c #EBB031",
"X 	c #F6AA16",
"Y 	c #705726",
"Z 	c #BCBAA2",
"` 	c #AEAC96",
" .	c #13FF07",
"..	c #40D200",
"+.	c #FFD041",
"@.	c #EDAF1B",
"#.	c #0BFF0B",
"$.	c #E0A53E",
"%.	c #F0A116",
"&.	c #675735",
"*.	c #B6B398",
"=.	c #6BE153",
"-.	c #F0B11A",
";.	c #9B6F0F",
">.	c #05DA00",
",.	c #F2AA44",
"'.	c #CC810C",
").	c #6C6A56",
"!.	c #B0AD92",
"~.	c #A6AB89",
"{.	c #06FE00",
"].	c #3B5606",
"^.	c #15FF15",
"/.	c #55631F",
"(.	c #F69F2E",
"_.	c #684410",
":.	c #A7A489",
"<.	c #A9A687",
"[.	c #A3CF7B",
"}.	c #14D200",
"|.	c #D48A2A",
"1.	c #93580B",
"2.	c #76745C",
"3.	c #A2A080",
"4.	c #8EA070",
"5.	c #32FF1D",
"6.	c #B46F0C",
"7.	c #7D4B0B",
"8.	c #9C9A76",
"9.	c #959A72",
"0.	c #7F9C60",
"a.	c #2B1F05",
"b.	c #888768",
"c.	c #96946E",
"d.	c #939187",
"e.	c #989864",
"f.	c #9E9F59",
"g.	c #918F83",
"h.	c #AEABA4",
"i.	c #98975C",
"j.	c #F3F48A",
"k.	c #FFFD89",
"l.	c #FEFD76",
"m.	c #F4EE54",
"n.	c #928D40",
"o.	c #B0AF5E",
"p.	c #FCFB5E",
"q.	c #FEF344",
"r.	c #A39F35",
"s.	c #D3CFC3",
"t.	c #BEB93C",
"u.	c #7B811B",
"v.	c #718F15",
"w.	c #7C8224",
"x.	c #CABE38",
"y.	c #FFEA3B",
"z.	c #E2E14C",
"A.	c #75B408",
"B.	c #A6F400",
"C.	c #ACF400",
"D.	c #B6F200",
"E.	c #BCF200",
"F.	c #83A60A",
"G.	c #9A912A",
"H.	c #FDE335",
"I.	c #DEBF30",
"J.	c #8E8C82",
"K.	c #827E58",
"L.	c #A79B35",
"M.	c #7FC406",
"N.	c #9BDB03",
"O.	c #7C9A14",
"P.	c #B2D703",
"Q.	c #C7F200",
"R.	c #94B208",
"S.	c #B9A72D",
"T.	c #608315",
"U.	c #96D305",
"V.	c #8D9147",
"W.	c #F6F182",
"X.	c #F6E768",
"Y.	c #8B812F",
"Z.	c #B8CD05",
"`.	c #D1F000",
" +	c #FAD630",
".+	c #85733B",
"++	c #76941C",
"@+	c #FBF483",
"#+	c #FEEB6A",
"$+	c #FFE641",
"%+	c #FBD833",
"&+	c #888114",
"*+	c #E2F000",
"=+	c #99A20C",
"-+	c #EDCF45",
";+	c #9EE71F",
">+	c #79901E",
",+	c #FEED5A",
"'+	c #817819",
")+	c #EDF000",
"!+	c #A8B20A",
"~+	c #E3C655",
"{+	c #786B48",
"]+	c #ACD250",
"^+	c #8BB509",
"/+	c #B7A22D",
"(+	c #B39027",
"_+	c #B1AB09",
":+	c #939B15",
"<+	c #F5CF5B",
"[+	c #DDA325",
"}+	c #787564",
"|+	c #AEB088",
"1+	c #A5EB0F",
"2+	c #88A80A",
"3+	c #8B8333",
"4+	c #FCC246",
"5+	c #A8A58A",
"6+	c #A8B56D",
"7+	c #B0EE0A",
"8+	c #DCF000",
"9+	c #8A9212",
"0+	c #A87824",
"a+	c #A3A971",
"b+	c #AFD42E",
"c+	c #BAEF03",
"d+	c #B8D903",
"e+	c #767C12",
"f+	c #BE9124",
"g+	c #8E6A24",
"h+	c #A1A662",
"i+	c #443B1E",
"j+	c #7D6027",
"k+	c #655D41",
"l+	c #8B8A6B",
". . . . . . . . . . . . . . . . ",
"+ + + + + + + + + + + + + + + + ",
"@ @ @ @ @ @ @ @ @ @ @ @ @ @ @ @ ",
"# # # # $ % & * = - ; > # # # # ",
", , , ' ) ! ~ { ] ^ / ( _ , , , ",
": : ' < [ } | | 1 1 2 3 4 ' : : ",
"5 6 7 ] 8 9 0 a b c d d e f 6 5 ",
"6 ; g h i j k k k i l m e n o 6 ",
"p q r s j t u u j v w x y z A p ",
"B C D j E F G H I j J K y L M B ",
"N O i j P Q R S T U V w W X Y N ",
"Z `  .k ..+.e y @.a #.E $.%.&.Z ",
"*.*.=.k w x z -.;.t #.>.,.'.).*.",
"!.!.~.{.v s ].].>.^.^./.(._.:.!.",
"<.<.<.[.{.J J #.#.#.}.|.1.2.~.~.",
"3.3.3.3.4.5.J V v 0 6.7.).3.3.3.",
"8.8.8.8.8.8.9.0.a._.O b.8.8.8.8.",
"c.c.c.c.c.c.c.c.c.c.c.c.c.c.c.c.",
"+ + + + + + + + + + + + + + + + ",
". . . . . . . . . . . . . . . . ",
"+ + + + + + + + + + + + + + + + ",
"@ @ @ @ @ @ @ @ @ @ @ @ @ @ @ @ ",
"# # # # > d.e.f.f.e.g.> # # # # ",
", , , h.i.j.k.l.~ [ m.n.h., , , ",
": : h.o.k.p.] q.q.q.q.q.r.h.: : ",
"5 s.- [ t.u.v.v.w.x.y.y.y.7 s.5 ",
"6 g.z.r A.B.C.D.E.F.G.y.H.I.J.6 ",
"p K.L.M.B.N.O.O.P.Q.R.S.H.3 K.p ",
"B ) T.B.U.V.W.X.Y.Z.`.u.H. +.+B ",
"Z A A.B.++@+#+$+%+&+*+=+-+3 .+N ",
"Z h.;+C.>+,+y.1  +'+)+!+~+S {+*.",
"*.*.]+C.^+/+%+3 (+_+)+:+<+[+}+*.",
"!.!.|+1+D.2+'+'+=+)+*+3+4+M 5+!.",
"~.~.<.6+7+E.Q.`.8+8+9+$.0+0.:.:.",
"3.3.3.3.a+b+c+Q.d+e+f+g+2.3.3.3.",
"8.8.8.8.8.8.8.h+i+j+k+l+8.8.8.8.",
"c.c.c.c.c.c.c.c.c.c.c.c.c.c.c.c.",
"+ + + + + + + + + + + + + + + + "};
