/* XPM */
static char * minimizeO_xpm[] = {
"16 38 230 2",
"  	c None",
". 	c #737D73",
"+ 	c #323032",
"@ 	c #F6F2EE",
"# 	c #F0ECE6",
"$ 	c #BEBBB6",
"% 	c #807F66",
"& 	c #86847A",
"* 	c #EEECE2",
"= 	c #DEEDCF",
"- 	c #E0EFD1",
"; 	c #E9E5DD",
"> 	c #878375",
", 	c #FBF94B",
"' 	c #8E813E",
") 	c #6DDC64",
"! 	c #00EC00",
"~ 	c #00E000",
"{ 	c #00F600",
"] 	c #77E16F",
"^ 	c #E2DFD4",
"/ 	c #94B484",
"( 	c #697228",
"_ 	c #00E600",
": 	c #0FFF09",
"< 	c #C9D5BD",
"[ 	c #DCD9CC",
"} 	c #8C8C5C",
"| 	c #FBF54D",
"1 	c #5A6713",
"2 	c #1CFF17",
"3 	c #D9D8C9",
"4 	c #D6D3C4",
"5 	c #929152",
"6 	c #FBED4F",
"7 	c #6B6A15",
"8 	c #00F200",
"9 	c #00D600",
"0 	c #05C600",
"a 	c #D0CCBA",
"b 	c #97944B",
"c 	c #FBE14D",
"d 	c #947E1A",
"e 	c #0FD200",
"f 	c #507022",
"g 	c #95893D",
"h 	c #D2B656",
"i 	c #F7CD5B",
"j 	c #FFCA4B",
"k 	c #B9881F",
"l 	c #7B7769",
"m 	c #C9C6B3",
"n 	c #FFDC4F",
"o 	c #EDC527",
"p 	c #80751A",
"q 	c #9A8D3A",
"r 	c #CDB753",
"s 	c #FCD262",
"t 	c #FFC555",
"u 	c #FDBC3F",
"v 	c #FDBC2F",
"w 	c #FDB419",
"x 	c #FCAD16",
"y 	c #735A2B",
"z 	c #BCBAA2",
"A 	c #FFD24B",
"B 	c #FECD24",
"C 	c #FFCA29",
"D 	c #FFCB3F",
"E 	c #FDC53D",
"F 	c #FEB822",
"G 	c #F8A514",
"H 	c #7A5A22",
"I 	c #C2C0AA",
"J 	c #B6B398",
"K 	c #6B6447",
"L 	c #FDBC31",
"M 	c #FEC324",
"N 	c #FEBB1C",
"O 	c #F3AD17",
"P 	c #E8A014",
"Q 	c #B57C0F",
"R 	c #97640B",
"S 	c #D79413",
"T 	c #F79D0F",
"U 	c #715221",
"V 	c #A19E85",
"W 	c #68541E",
"X 	c #E7AA19",
"Y 	c #F5AF19",
"Z 	c #8E620C",
"` 	c #455006",
" .	c #13C800",
"..	c #705A16",
"+.	c #F6961A",
"@.	c #6A512A",
"#.	c #B0AD90",
"$.	c #9E9D82",
"%.	c #2FC800",
"&.	c #3A5305",
"*.	c #56C000",
"=.	c #05CA00",
"-.	c #11FF11",
";.	c #15FF15",
">.	c #0BFF0B",
",.	c #5C6523",
"'.	c #F49126",
").	c #5F5237",
"!.	c #A9A687",
"~.	c #A3CF7B",
"{.	c #06FE00",
"].	c #00FE00",
"^.	c #17FF11",
"/.	c #EA7E1E",
"(.	c #615941",
"_.	c #A2A080",
":.	c #8EA070",
"<.	c #32FF1D",
"[.	c #07FF07",
"}.	c #42FF29",
"|.	c #97A175",
"1.	c #894D21",
"2.	c #BD630B",
"3.	c #706F58",
"4.	c #9C9A76",
"5.	c #999673",
"6.	c #829E62",
"7.	c #524832",
"8.	c #4F452D",
"9.	c #918F6F",
"0.	c #96946E",
"a.	c #C4C1BC",
"b.	c #8C8A76",
"c.	c #939185",
"d.	c #E4EDCB",
"e.	c #908E86",
"f.	c #FEFD66",
"g.	c #DFE6CA",
"h.	c #AFEF5B",
"i.	c #90F40E",
"j.	c #8BF600",
"k.	c #97F313",
"l.	c #B9ED67",
"m.	c #E4E5CF",
"n.	c #949374",
"o.	c #FEF66A",
"p.	c #91F600",
"q.	c #9BF400",
"r.	c #A4F020",
"s.	c #D9E1BD",
"t.	c #7E9719",
"u.	c #A6F400",
"v.	c #ACF400",
"w.	c #ABED2B",
"x.	c #9C9C68",
"y.	c #87892B",
"z.	c #B6F200",
"A.	c #BCF200",
"B.	c #A9E701",
"C.	c #8CB709",
"D.	c #799E14",
"E.	c #6F9317",
"F.	c #949C72",
"G.	c #A1A363",
"H.	c #A79D31",
"I.	c #95D903",
"J.	c #8FBC08",
"K.	c #899335",
"L.	c #A49F56",
"M.	c #D7CC71",
"N.	c #F8E776",
"O.	c #FEEA64",
"P.	c #C5A835",
"Q.	c #F2E33C",
"R.	c #929130",
"S.	c #D2CC6E",
"T.	c #FCEC80",
"U.	c #FFE957",
"V.	c #FFDE45",
"W.	c #FFE035",
"X.	c #FFDB33",
"Y.	c #FDD42F",
"Z.	c #84723C",
"`.	c #999355",
" +	c #FFEA3B",
".+	c #8D7437",
"++	c #787456",
"@+	c #F5C32B",
"#+	c #C89C26",
"$+	c #AC8724",
"%+	c #E7B827",
"&+	c #866D36",
"*+	c #A3A089",
"=+	c #7B6E33",
"-+	c #F1CF2F",
";+	c #E7B92B",
">+	c #A68624",
",+	c #83711B",
"'+	c #8B840F",
")+	c #B2B408",
"!+	c #C3D404",
"~+	c #8F7B2B",
"{+	c #7B673D",
"]+	c #7A7E18",
"^+	c #797F15",
"/+	c #82940C",
"(+	c #E8F000",
"_+	c #EDF000",
":+	c #DCF000",
"<+	c #928636",
"[+	c #FCB13C",
"}+	c #6F6549",
"|+	c #A3A971",
"1+	c #B0EE0A",
"2+	c #C7F200",
"3+	c #D1F000",
"4+	c #CDE90F",
"5+	c #937D43",
"6+	c #F5A237",
"7+	c #696655",
"8+	c #AFD42E",
"9+	c #BAEF03",
"0+	c #CDF200",
"a+	c #C9ED05",
"b+	c #BBCF35",
"c+	c #A4A474",
"d+	c #976B37",
"e+	c #D08124",
"f+	c #A1A862",
"g+	c #60563E",
". . . . . . . . . . . . . . . . ",
"+ + + + + + + + + + + + + + + + ",
"@ @ @ @ @ @ @ @ @ @ @ @ @ @ @ @ ",
"# $ % & # # * = - # # # # # # # ",
"; > , ' = ) ! ~ ~ { ] - ; ; ; ; ",
"^ / , ( { ~ _ _ _ ! _ : < ^ ^ ^ ",
"[ } | 1 _ _ _ ! ! ! ! ! 2 3 [ [ ",
"4 5 6 7 _ ! ! 8 8 ! 9 0 0 / 4 4 ",
"a b c d ~ ! 9 e f g h i j k l a ",
"m b n o p q r s s t u v w x y m ",
"z 5 A B C D E v F w w x x G H I ",
"J K L M N N N w O P Q R S T U z ",
"J V W X Y O S Z `  ._ 8 ..+.@.J ",
"#.#.$.%.&.*.=.8 -.;.-.>.,.'.).#.",
"!.!.!.~.{.].].>.>.-.>.^.y /.(.!.",
"_._._._.:.<.].[.>.[.}.|.1.2.3.!.",
"4.4.4.4.4.4.5.6.6.5.4.5.7.8.9.4.",
"0.0.0.0.0.0.0.0.0.0.0.0.0.0.0.0.",
"+ + + + + + + + + + + + + + + + ",
". . . . . . . . . . . . . . . . ",
"+ + + + + + + + + + + + + + + + ",
"@ @ @ @ @ @ @ @ @ @ @ @ @ @ @ @ ",
"* a.b.c.# # * d.d.* # # # # # # ",
"; e.f.5 g.h.i.j.j.k.l.m.; ; ; ; ",
"^ n.o.b i.j.p.q.q.q.q.r.s.^ ^ ^ ",
"3 0.o.t.j.p.q.u.v.v.v.v.w.[ [ [ ",
"4 x.f.y.q.u.z.z.A.B.C.D.E.F.4 4 ",
"a G.o.H.I.B.J.t.K.L.M.N.O.P.> a ",
"m G.o.Q.R.L.S.T.s.U.V.W.X.Y.Z.m ",
"I `.U. + +U.U.V.X.X.Y.Y.Y.C .+I ",
"z ++c W.W.X.X.Y.Y.@+#+$+%+M &+z ",
"J *+=+-+Y.Y.;+>+,+'+)+!+~+L {+J ",
"#.#.V E.]+^+/+!+(+_+(+:+<+[+}+#.",
"!.!.!.|+1+A.2+3+:+:+:+4+5+6+7+!.",
"_.!.$.$.|+8+9+2+0+a+b+c+d+e+++V ",
"4.4.4.4.4.4.4.f+f+4.4.5.(.g+n.4.",
"0.0.0.0.0.0.0.0.0.0.0.0.0.0.0.0.",
"+ + + + + + + + + + + + + + + + "};
