/* XPM */
static char * restoreO_xpm[] = {
"16 38 232 2",
"  	c None",
". 	c #737D73",
"+ 	c #323032",
"@ 	c #F6F2EE",
"# 	c #F0ECE6",
"$ 	c #CFCCC3",
"% 	c #6E6752",
"& 	c #6F501B",
"* 	c #2C2006",
"= 	c #7F9A60",
"- 	c #96946E",
"; 	c #928E74",
"> 	c #D2D0C6",
", 	c #E9E5DD",
"' 	c #8B8979",
") 	c #7C4B0C",
"! 	c #B46F0C",
"~ 	c #36C000",
"{ 	c #00F800",
"] 	c #05FF05",
"^ 	c #00FE00",
"/ 	c #32FF1D",
"( 	c #8E9F6F",
"_ 	c #A5A393",
": 	c #E2DFD4",
"< 	c #989588",
"[ 	c #93580B",
"} 	c #D48A2A",
"| 	c #14D200",
"1 	c #11FF11",
"2 	c #0BFF0B",
"3 	c #06FE00",
"4 	c #A3CF7B",
"5 	c #DCD9CC",
"6 	c #CFCBBD",
"7 	c #664510",
"8 	c #F69F2E",
"9 	c #55631F",
"0 	c #15FF15",
"a 	c #05DA00",
"b 	c #3B5606",
"c 	c #00D600",
"d 	c #A6A38C",
"e 	c #D0CCBA",
"f 	c #D6D2C4",
"g 	c #7A786A",
"h 	c #CC810C",
"i 	c #F2AA44",
"j 	c #00E400",
"k 	c #9B6F0F",
"l 	c #EDAF1B",
"m 	c #F6B61C",
"n 	c #AD8417",
"o 	c #00F200",
"p 	c #6BE153",
"q 	c #9D9A87",
"r 	c #685A38",
"s 	c #F0A116",
"t 	c #E0A53E",
"u 	c #00E200",
"v 	c #41C400",
"w 	c #FEC11E",
"x 	c #FEC222",
"y 	c #FFD041",
"z 	c #40D200",
"A 	c #13FF07",
"B 	c #A29E86",
"C 	c #C9C6B3",
"D 	c #705726",
"E 	c #F6AA16",
"F 	c #EBB031",
"G 	c #2AC400",
"H 	c #F0B820",
"I 	c #FCC42C",
"J 	c #FFCF4F",
"K 	c #FBE763",
"L 	c #28D200",
"M 	c #00CA00",
"N 	c #514B29",
"O 	c #C2C0AA",
"P 	c #715A29",
"Q 	c #F8B118",
"R 	c #335A0A",
"S 	c #00EC00",
"T 	c #70651A",
"U 	c #F4D050",
"V 	c #F6E768",
"W 	c #7B8323",
"X 	c #35BA00",
"Y 	c #796C31",
"Z 	c #BCBAA2",
"` 	c #7A6D4C",
" .	c #00CC00",
"..	c #90871E",
"+.	c #716C45",
"@.	c #B6B398",
"#.	c #9A9786",
"$.	c #D09F1A",
"%.	c #FCCB24",
"&.	c #817013",
"*.	c #656A16",
"=.	c #DCD636",
"-.	c #B0AD90",
";.	c #705B24",
">.	c #FCD228",
",.	c #BDA121",
"'.	c #4F5D0F",
").	c #465B0F",
"!.	c #AAA226",
"~.	c #FEF34C",
"{.	c #7E7D3A",
"].	c #ACA88E",
"^.	c #ACA994",
"/.	c #A9A687",
"(.	c #A9A793",
"_.	c #99811F",
":.	c #FCD72C",
"<.	c #FDE22F",
"[.	c #FDE335",
"}.	c #F3E333",
"|.	c #F7EC43",
"1.	c #FDFC63",
"2.	c #A6A844",
"3.	c #A4A180",
"4.	c #A2A080",
"5.	c #84772C",
"6.	c #F2DA3E",
"7.	c #FFF049",
"8.	c #FCFB5E",
"9.	c #FEFD6A",
"0.	c #F4F26A",
"a.	c #8A8746",
"b.	c #877E5D",
"c.	c #9C9A76",
"d.	c #8D8B51",
"e.	c #928F40",
"f.	c #857F45",
"g.	c #716A57",
"h.	c #787464",
"i.	c #453C1F",
"j.	c #9FA561",
"k.	c #9A9B6D",
"l.	c #959379",
"m.	c #8F6B25",
"n.	c #BE9124",
"o.	c #767C12",
"p.	c #B8D903",
"q.	c #C7F200",
"r.	c #BAEF03",
"s.	c #AFD42E",
"t.	c #A2A870",
"u.	c #A29E8C",
"v.	c #A87824",
"w.	c #8A9212",
"x.	c #DCF000",
"y.	c #D1F000",
"z.	c #BCF200",
"A.	c #B0EE0A",
"B.	c #A8B56D",
"C.	c #FCC246",
"D.	c #8B8333",
"E.	c #E2F000",
"F.	c #EDF000",
"G.	c #99A20C",
"H.	c #817819",
"I.	c #7F7B19",
"J.	c #88A80A",
"K.	c #B6F200",
"L.	c #A5EB0F",
"M.	c #ADAE86",
"N.	c #848172",
"O.	c #DDA325",
"P.	c #F5CF5B",
"Q.	c #939B15",
"R.	c #B1AB09",
"S.	c #B39027",
"T.	c #FBD833",
"U.	c #B7A22D",
"V.	c #8BB509",
"W.	c #ACF400",
"X.	c #ACD250",
"Y.	c #E3C655",
"Z.	c #A8B20A",
"`.	c #888114",
" +	c #FFE539",
".+	c #FEED5A",
"++	c #79901E",
"@+	c #A6F400",
"#+	c #9EE71F",
"$+	c #84733A",
"%+	c #FDCF2D",
"&+	c #EDCF45",
"*+	c #828412",
"=+	c #FFE641",
"-+	c #FEEB6A",
";+	c #FBF483",
">+	c #76941C",
",+	c #75B408",
"'+	c #615F3D",
")+	c #7B811B",
"!+	c #B8CD05",
"~+	c #F3F48A",
"{+	c #8D9147",
"]+	c #9AD804",
"^+	c #608315",
"/+	c #B9A72D",
"(+	c #94B208",
"_+	c #B2D703",
":+	c #7C9A14",
"<+	c #7FC406",
"[+	c #9A912A",
"}+	c #807C56",
"|+	c #DEBF30",
"1+	c #FFEA3B",
"2+	c #83A60A",
"3+	c #868A2C",
"4+	c #E2E14C",
"5+	c #718F15",
"6+	c #BEB93C",
"7+	c #A79B35",
"8+	c #FEF344",
"9+	c #FEFD80",
"0+	c #B0AF5E",
"a+	c #908E7E",
"b+	c #A4A987",
"c+	c #F4EE54",
"d+	c #FEFD76",
"e+	c #FFFD89",
"f+	c #98975A",
"g+	c #989862",
"h+	c #9D9E58",
"i+	c #938F59",
". . . . . . . . . . . . . . . . ",
"+ + + + + + + + + + + + + + + + ",
"@ @ @ @ @ @ @ @ @ @ @ @ @ @ @ @ ",
"# # # # $ % & * = - ; > # # # # ",
", , , ' ) ! ~ { ] ^ / ( _ , , , ",
": : < [ } | 1 2 ] ] ^ 3 4 _ : : ",
"5 6 7 8 9 1 0 a b b c { 3 d e 5 ",
"f g h i a 1 j k l m n c o p q f ",
"6 r s t u 2 v l w x y z o A B e ",
"C D E F c ] G H I J K L o M N C ",
"O P Q w R ^ S T U V W u o X Y O ",
"Z ` m w n c { S  . .u S c ..+.@.",
"@.#.$.x %.&.M o o S S M *.=.g @.",
"-.-.;.%.>.>.,.'.v ~ ).!.~.{.].^.",
"/./.(._.:.<.<.[.}.}.|.1.2.' d /.",
"3.3.4.B 5.6.7.~.8.9.0.a.b.q 3.3.",
"c.c.c.c.B ; d.e.e.f.g.; c.c.c.c.",
"- - - - - - - - - - - - - - - - ",
"+ + + + + + + + + + + + + + + + ",
". . . . . . . . . . . . . . . . ",
"+ + + + + + + + + + + + + + + + ",
"@ @ @ @ @ @ @ @ @ @ @ @ @ @ @ @ ",
"# # # # > h.Y i.j.k.l.f # # # # ",
", , , #.m.n.o.p.q.r.s.t.(., , , ",
": : u.v.t w.x.x.y.q.z.A.B.^.: : ",
"5 6 P C.D.E.F.G.H.I.J.K.L.M.> 5 ",
"f N.O.P.Q.F.R.S.:.T.U.V.W.X.u.f ",
"6 ` x Y.Z.F.`.:.[. +.+++@+#+d e ",
"C $+%+&+G.E.*+T.=+-+;+>+@+,+'+C ",
"O $+:.[.)+y.!+D.0.~+{+]+@+^+a.O ",
"Z b.:. +/+(+q._+:+:+]+W.<+[+}+Z ",
"@.u.|+ +1+[+2+z.K.K.@+,+3+4+N.@.",
"-.-.$+1+1+1+|+W 5+5+W 6+8.a.^.-.",
"/./.^.7+8+8+8+~.8+~.8.9+0+a+b+b+",
"4.4.B d e.c+8.9.d+e+~+f+' 3.3.3.",
"c.c.c.c.3.l.g+h+h+i+g ; c.c.c.c.",
"- - - - - - - - - - - - - - - - ",
"+ + + + + + + + + + + + + + + + "};
