/* XPM */
static char * toolbuttonbg_xpm[] = {
"60 30 33 1",
" 	c None",
".	c #F1F1F1",
"+	c #EFEFEF",
"@	c #ECECEC",
"#	c #E9E9E9",
"$	c #E7E7E7",
"%	c #E5E5E5",
"&	c #E3E3E3",
"*	c #E1E1E1",
"=	c #DEDEDE",
"-	c #DBDBDB",
";	c #D9D9D9",
">	c #D7D7D7",
",	c #D4D4D4",
"'	c #D0D0D0",
")	c #CCCCCC",
"!	c #C9C9C9",
"~	c #C6C6C6",
"{	c #C2C2C2",
"]	c #C3C3C3",
"^	c #BFBFBF",
"/	c #BEBEBE",
"(	c #BCBCBC",
"_	c #BBBBBB",
":	c #B8B8B8",
"<	c #B4B4B4",
"[	c #B0B0B0",
"}	c #ACACAC",
"|	c #A9A9A9",
"1	c #A5A5A5",
"2	c #A2A2A2",
"3	c #A0A0A0",
"4	c #9E9E9E",
"............................................................",
"............................................................",
"++++++++++++++++++++++++++++++++++++++++++++++++++++++++++++",
"@@@@@@@@@@@@@@@@@@@@@@@@@@@@@@@@@@@@@@@@@@@@@@@@@@@@@@@@@@@@",
"############################################################",
"$$$$$$$$$$$$$$$$$$$$$$$$$$$$$$$$$$$$$$$$$$$$$$$$$$$$$$$$$$$$",
"%%%%%%%%%%%%%%%%%%%%%%%%%%%%%%%%%%%%%%%%%%%%%%%%%%%%%%%%%%%%",
"&&&&&&&&&&&&&&&&&&&&&&&&&&&&&&&&&&&&&&&&&&&&&&&&&&&&&&&&&&&&",
"************************************************************",
"============================================================",
"------------------------------------------------------------",
";;;;;;;;;;;;;;;;;;;;;;;;;;;;;;;;;;;;;;;;;;;;;;;;;;;;;;;;;;;;",
">>>>>>>>>>>>>>>>>>>>>>>>>>>>>>>>>>>>>>>>>>>>>>>>>>>>>>>>>>>>",
",,,,,,,,,,,,,,,,,,,,,,,,,,,,,,,,,,,,,,,,,,,,,,,,,,,,,,,,,,,,",
"''''''''''''''''''''''''''''''''''''''''''''''''''''''''''''",
"))))))))))))))))))))))))))))))))))))))))))))))))))))))))))))",
"!!!!!!!!!!!!!!!!!!!!!!!!!!!!!!!!!!!!!!!!!!!!!!!!!!!!!!!!!!!!",
"~~~~~~~~~~~~~~~~~~~~~~~~~~~~~~~~~~~~~~~~~~~~~~~~~~~~~~~~~~~~",
"{{{{{{{{{{{{{{{{{{{{{{{{{{{{{{{{{{{]{{{{{{{{{{{{{{{{{{{{{{{{",
"^^^^^^^////////////////////////////^^^^^^^^^^^^^^^^^^^^^^^^^",
"((((((((____________________________((((((((((((((((((((((((",
"::::::::::::::::::::::::::::::::::::::::::::::::::::::::::::",
"<<<<<<<<<<<<<<<<<<<<<<<<<<<<<<<<<<<<<<<<<<<<<<<<<<<<<<<<<<<<",
"[[[[[[[[[[[[[[[[[[[[[[[[[[[[[[[[[[[[[[[[[[[[[[[[[[[[[[[[[[[[",
"}}}}}}}}}}}}}}}}}}}}}}}}}}}}}}}}}}}}}}}}}}}}}}}}}}}}}}}}}}}}",
"||||||||||||||||||||||||||||||||||||||||||||||||||||||||||||",
"111111111111111111111111111111111111111111111111111111111111",
"222222222222222222222222222222222222222222222222222222222222",
"333333333333333333333333333333333333333333333333333333333333",
"444444444444444444444444444444444444444444444444444444444444"};
